%TF.GenerationSoftware,KiCad,Pcbnew,7.99.0-3804-ge3eab57133-dirty*%
%TF.CreationDate,2023-12-05T15:26:08-03:00*%
%TF.ProjectId,Wideband_v3,57696465-6261-46e6-945f-76332e6b6963,rev?*%
%TF.SameCoordinates,Original*%
%TF.FileFunction,Paste,Top*%
%TF.FilePolarity,Positive*%
%FSLAX46Y46*%
G04 Gerber Fmt 4.6, Leading zero omitted, Abs format (unit mm)*
G04 Created by KiCad (PCBNEW 7.99.0-3804-ge3eab57133-dirty) date 2023-12-05 15:26:08*
%MOMM*%
%LPD*%
G01*
G04 APERTURE LIST*
G04 Aperture macros list*
%AMRoundRect*
0 Rectangle with rounded corners*
0 $1 Rounding radius*
0 $2 $3 $4 $5 $6 $7 $8 $9 X,Y pos of 4 corners*
0 Add a 4 corners polygon primitive as box body*
4,1,4,$2,$3,$4,$5,$6,$7,$8,$9,$2,$3,0*
0 Add four circle primitives for the rounded corners*
1,1,$1+$1,$2,$3*
1,1,$1+$1,$4,$5*
1,1,$1+$1,$6,$7*
1,1,$1+$1,$8,$9*
0 Add four rect primitives between the rounded corners*
20,1,$1+$1,$2,$3,$4,$5,0*
20,1,$1+$1,$4,$5,$6,$7,0*
20,1,$1+$1,$6,$7,$8,$9,0*
20,1,$1+$1,$8,$9,$2,$3,0*%
%AMRotRect*
0 Rectangle, with rotation*
0 The origin of the aperture is its center*
0 $1 length*
0 $2 width*
0 $3 Rotation angle, in degrees counterclockwise*
0 Add horizontal line*
21,1,$1,$2,0,0,$3*%
G04 Aperture macros list end*
%ADD10RoundRect,0.200000X0.275000X-0.200000X0.275000X0.200000X-0.275000X0.200000X-0.275000X-0.200000X0*%
%ADD11RoundRect,0.200000X0.200000X0.275000X-0.200000X0.275000X-0.200000X-0.275000X0.200000X-0.275000X0*%
%ADD12RoundRect,0.200000X-0.200000X-0.275000X0.200000X-0.275000X0.200000X0.275000X-0.200000X0.275000X0*%
%ADD13RoundRect,0.250000X-1.400000X-1.000000X1.400000X-1.000000X1.400000X1.000000X-1.400000X1.000000X0*%
%ADD14RoundRect,0.150000X-0.353553X-0.565685X0.565685X0.353553X0.353553X0.565685X-0.565685X-0.353553X0*%
%ADD15R,1.500000X2.000000*%
%ADD16R,3.800000X2.000000*%
%ADD17RoundRect,0.140000X0.170000X-0.140000X0.170000X0.140000X-0.170000X0.140000X-0.170000X-0.140000X0*%
%ADD18RoundRect,0.225000X0.335876X0.017678X0.017678X0.335876X-0.335876X-0.017678X-0.017678X-0.335876X0*%
%ADD19RoundRect,0.225000X-0.335876X-0.017678X-0.017678X-0.335876X0.335876X0.017678X0.017678X0.335876X0*%
%ADD20RoundRect,0.250000X0.400000X0.600000X-0.400000X0.600000X-0.400000X-0.600000X0.400000X-0.600000X0*%
%ADD21RoundRect,0.250000X-0.650000X1.000000X-0.650000X-1.000000X0.650000X-1.000000X0.650000X1.000000X0*%
%ADD22RotRect,1.400000X1.200000X315.000000*%
%ADD23RoundRect,0.225000X0.017678X-0.335876X0.335876X-0.017678X-0.017678X0.335876X-0.335876X0.017678X0*%
%ADD24RoundRect,0.225000X-0.225000X-0.250000X0.225000X-0.250000X0.225000X0.250000X-0.225000X0.250000X0*%
%ADD25RoundRect,0.125000X0.125000X0.125000X-0.125000X0.125000X-0.125000X-0.125000X0.125000X-0.125000X0*%
%ADD26RoundRect,0.225000X0.250000X-0.225000X0.250000X0.225000X-0.250000X0.225000X-0.250000X-0.225000X0*%
%ADD27RoundRect,0.250000X0.250000X0.475000X-0.250000X0.475000X-0.250000X-0.475000X0.250000X-0.475000X0*%
%ADD28RoundRect,0.200000X-0.053033X0.335876X-0.335876X0.053033X0.053033X-0.335876X0.335876X-0.053033X0*%
%ADD29RoundRect,0.200000X-0.335876X-0.053033X-0.053033X-0.335876X0.335876X0.053033X0.053033X0.335876X0*%
%ADD30RoundRect,0.140000X-0.219203X-0.021213X-0.021213X-0.219203X0.219203X0.021213X0.021213X0.219203X0*%
%ADD31RoundRect,0.225000X0.225000X0.250000X-0.225000X0.250000X-0.225000X-0.250000X0.225000X-0.250000X0*%
%ADD32RoundRect,0.150000X-0.825000X-0.150000X0.825000X-0.150000X0.825000X0.150000X-0.825000X0.150000X0*%
%ADD33R,1.450000X0.600000*%
%ADD34R,1.450000X0.300000*%
%ADD35RoundRect,0.140000X0.219203X0.021213X0.021213X0.219203X-0.219203X-0.021213X-0.021213X-0.219203X0*%
%ADD36RoundRect,0.200000X-0.275000X0.200000X-0.275000X-0.200000X0.275000X-0.200000X0.275000X0.200000X0*%
%ADD37RoundRect,0.140000X-0.170000X0.140000X-0.170000X-0.140000X0.170000X-0.140000X0.170000X0.140000X0*%
%ADD38RoundRect,0.150000X0.825000X0.150000X-0.825000X0.150000X-0.825000X-0.150000X0.825000X-0.150000X0*%
%ADD39RoundRect,0.150000X0.150000X-0.675000X0.150000X0.675000X-0.150000X0.675000X-0.150000X-0.675000X0*%
%ADD40RoundRect,0.249999X0.558616X0.000000X0.000000X0.558616X-0.558616X0.000000X0.000000X-0.558616X0*%
%ADD41RoundRect,0.050000X0.309359X-0.238649X-0.238649X0.309359X-0.309359X0.238649X0.238649X-0.309359X0*%
%ADD42RoundRect,0.050000X0.309359X0.238649X0.238649X0.309359X-0.309359X-0.238649X-0.238649X-0.309359X0*%
%ADD43RoundRect,0.150000X-0.150000X0.825000X-0.150000X-0.825000X0.150000X-0.825000X0.150000X0.825000X0*%
%ADD44RoundRect,0.125000X-0.125000X-0.125000X0.125000X-0.125000X0.125000X0.125000X-0.125000X0.125000X0*%
%ADD45RoundRect,0.125000X0.125000X-0.125000X0.125000X0.125000X-0.125000X0.125000X-0.125000X-0.125000X0*%
%ADD46RoundRect,0.250000X0.350000X-0.850000X0.350000X0.850000X-0.350000X0.850000X-0.350000X-0.850000X0*%
%ADD47RoundRect,0.250000X1.125000X-1.275000X1.125000X1.275000X-1.125000X1.275000X-1.125000X-1.275000X0*%
%ADD48RoundRect,0.250000X0.475000X-0.250000X0.475000X0.250000X-0.475000X0.250000X-0.475000X-0.250000X0*%
G04 APERTURE END LIST*
D10*
%TO.C,R13*%
X147472400Y-91150600D03*
X147472400Y-89500600D03*
%TD*%
D11*
%TO.C,R12*%
X147047400Y-92675600D03*
X145397400Y-92675600D03*
%TD*%
%TO.C,R11*%
X147097400Y-97325600D03*
X145447400Y-97325600D03*
%TD*%
%TO.C,R10*%
X145597400Y-98825600D03*
X143947400Y-98825600D03*
%TD*%
D12*
%TO.C,R9*%
X129297400Y-89475600D03*
X130947400Y-89475600D03*
%TD*%
D10*
%TO.C,R8*%
X92672400Y-92600600D03*
X92672400Y-90950600D03*
%TD*%
%TO.C,R7*%
X92672400Y-95600600D03*
X92672400Y-93950600D03*
%TD*%
D13*
%TO.C,D10*%
X102717600Y-103127600D03*
X102717600Y-109927600D03*
%TD*%
D14*
%TO.C,U2*%
X127552377Y-97566146D03*
X128450403Y-98464172D03*
X129348428Y-99362197D03*
X130246454Y-100260223D03*
X135337623Y-95169054D03*
X134439597Y-94271028D03*
X133541572Y-93373003D03*
X132643546Y-92474977D03*
%TD*%
D15*
%TO.C,U8*%
X128408400Y-109982400D03*
X130708400Y-109982399D03*
D16*
X130708400Y-103682401D03*
D15*
X133008400Y-109982400D03*
%TD*%
D17*
%TO.C,C1*%
X141071600Y-70279200D03*
X141071600Y-69319200D03*
%TD*%
D18*
%TO.C,C18*%
X144362808Y-78957808D03*
X143266792Y-77861792D03*
%TD*%
D19*
%TO.C,C10*%
X141056992Y-80046192D03*
X142153008Y-81142208D03*
%TD*%
D20*
%TO.C,D11*%
X112538351Y-110444273D03*
X109038351Y-110444273D03*
%TD*%
D19*
%TO.C,C19*%
X135124392Y-90277592D03*
X136220408Y-91373608D03*
%TD*%
D21*
%TO.C,D1*%
X136398000Y-105645199D03*
X136398000Y-109645201D03*
%TD*%
D12*
%TO.C,R20*%
X111951000Y-100736400D03*
X113601000Y-100736400D03*
%TD*%
D22*
%TO.C,Y1*%
X144485155Y-81612061D03*
X146040790Y-83167696D03*
X147242871Y-81965615D03*
X145687236Y-80409980D03*
%TD*%
D23*
%TO.C,C24*%
X129703192Y-92496008D03*
X130799208Y-91399992D03*
%TD*%
D24*
%TO.C,C23*%
X134647400Y-80825600D03*
X136197400Y-80825600D03*
%TD*%
D19*
%TO.C,C14*%
X144587592Y-89113992D03*
X145683608Y-90210008D03*
%TD*%
D25*
%TO.C,D5*%
X126626799Y-91084400D03*
X124426801Y-91084400D03*
%TD*%
D26*
%TO.C,C29*%
X124764800Y-111011000D03*
X124764800Y-109461000D03*
%TD*%
D19*
%TO.C,C17*%
X132395592Y-88529792D03*
X133491608Y-89625808D03*
%TD*%
D27*
%TO.C,C7*%
X93659999Y-99898200D03*
X91760001Y-99898200D03*
%TD*%
D19*
%TO.C,C11*%
X134074392Y-91327592D03*
X135170408Y-92423608D03*
%TD*%
D28*
%TO.C,R6*%
X127176963Y-95123837D03*
X126010237Y-96290563D03*
%TD*%
D29*
%TO.C,R5*%
X139539037Y-93042237D03*
X140705763Y-94208963D03*
%TD*%
D30*
%TO.C,C15*%
X147767989Y-80051589D03*
X148446811Y-80730411D03*
%TD*%
D31*
%TO.C,C28*%
X112585800Y-108356400D03*
X111035800Y-108356400D03*
%TD*%
D26*
%TO.C,C13*%
X132130800Y-84544200D03*
X132130800Y-82994200D03*
%TD*%
D32*
%TO.C,U7*%
X125134600Y-79375000D03*
X125134600Y-80645000D03*
X125134600Y-81915000D03*
X125134600Y-83185000D03*
X125134600Y-84455000D03*
X125134600Y-85725000D03*
X125134600Y-86995000D03*
X130084600Y-86995000D03*
X130084600Y-85725000D03*
X130084600Y-84455000D03*
X130084600Y-83185000D03*
X130084600Y-81915000D03*
X130084600Y-80645000D03*
X130084600Y-79375000D03*
%TD*%
D33*
%TO.C,J2*%
X149577400Y-98375600D03*
X149577400Y-97575601D03*
D34*
X149577401Y-96375600D03*
X149577400Y-95375600D03*
X149577400Y-94875600D03*
X149577401Y-93875600D03*
D33*
X149577400Y-92675599D03*
X149577400Y-91875600D03*
X149577400Y-91875600D03*
X149577400Y-92675599D03*
D34*
X149577400Y-93375600D03*
X149577400Y-94375600D03*
X149577400Y-95875600D03*
X149577400Y-96875600D03*
D33*
X149577400Y-97575601D03*
X149577400Y-98375600D03*
%TD*%
D35*
%TO.C,C16*%
X145611811Y-84665011D03*
X144932989Y-83986189D03*
%TD*%
D11*
%TO.C,R4*%
X147052800Y-94208600D03*
X145402800Y-94208600D03*
%TD*%
D36*
%TO.C,R18*%
X88036400Y-99073200D03*
X88036400Y-100723200D03*
%TD*%
D37*
%TO.C,C2*%
X141071600Y-73434000D03*
X141071600Y-74394000D03*
%TD*%
D38*
%TO.C,Q6*%
X112609400Y-106248200D03*
X112609400Y-104978200D03*
X112609400Y-103708200D03*
X112609400Y-102438200D03*
X107659400Y-102438200D03*
X107659400Y-103708200D03*
X107659400Y-104978200D03*
X107659400Y-106248200D03*
%TD*%
D39*
%TO.C,U4*%
X142621000Y-75167400D03*
X143891000Y-75167400D03*
X145161000Y-75167400D03*
X146431000Y-75167400D03*
X146431000Y-69917400D03*
X145161000Y-69917400D03*
X143891000Y-69917400D03*
X142621000Y-69917400D03*
%TD*%
D40*
%TO.C,U1*%
X139369800Y-87262771D03*
X140501171Y-86131400D03*
X138238429Y-86131400D03*
X139369800Y-85000029D03*
D41*
X139962002Y-90400557D03*
X140244845Y-90117714D03*
X140527687Y-89834872D03*
X140810530Y-89552029D03*
X141093373Y-89269186D03*
X141376215Y-88986344D03*
X141659058Y-88703501D03*
X141941901Y-88420658D03*
X142224744Y-88137815D03*
X142507586Y-87854973D03*
X142790429Y-87572130D03*
X143073272Y-87289287D03*
X143356114Y-87006445D03*
X143638957Y-86723602D03*
D42*
X143638957Y-85539198D03*
X143356114Y-85256355D03*
X143073272Y-84973513D03*
X142790429Y-84690670D03*
X142507586Y-84407827D03*
X142224744Y-84124985D03*
X141941901Y-83842142D03*
X141659058Y-83559299D03*
X141376215Y-83276456D03*
X141093373Y-82993614D03*
X140810530Y-82710771D03*
X140527687Y-82427928D03*
X140244845Y-82145086D03*
X139962002Y-81862243D03*
D41*
X138777598Y-81862243D03*
X138494755Y-82145086D03*
X138211913Y-82427928D03*
X137929070Y-82710771D03*
X137646227Y-82993614D03*
X137363385Y-83276456D03*
X137080542Y-83559299D03*
X136797699Y-83842142D03*
X136514856Y-84124985D03*
X136232014Y-84407827D03*
X135949171Y-84690670D03*
X135666328Y-84973513D03*
X135383486Y-85256355D03*
X135100643Y-85539198D03*
D42*
X135100643Y-86723602D03*
X135383486Y-87006445D03*
X135666328Y-87289287D03*
X135949171Y-87572130D03*
X136232014Y-87854973D03*
X136514856Y-88137815D03*
X136797699Y-88420658D03*
X137080542Y-88703501D03*
X137363385Y-88986344D03*
X137646227Y-89269186D03*
X137929070Y-89552029D03*
X138211913Y-89834872D03*
X138494755Y-90117714D03*
X138777598Y-90400557D03*
%TD*%
D31*
%TO.C,C12*%
X146520200Y-67614800D03*
X144970200Y-67614800D03*
%TD*%
D43*
%TO.C,U10*%
X91077400Y-91962200D03*
X89807400Y-91962200D03*
X88537400Y-91962200D03*
X87267400Y-91962200D03*
X87267400Y-96912200D03*
X88537400Y-96912200D03*
X89807400Y-96912200D03*
X91077400Y-96912200D03*
%TD*%
D44*
%TO.C,D6*%
X124452200Y-89027000D03*
X126652200Y-89027000D03*
%TD*%
D12*
%TO.C,R3*%
X145428200Y-95808800D03*
X147078200Y-95808800D03*
%TD*%
D45*
%TO.C,D7*%
X89890600Y-101125199D03*
X89890600Y-98925201D03*
%TD*%
D21*
%TO.C,D2*%
X123529690Y-102298989D03*
X123529690Y-106298991D03*
%TD*%
D18*
%TO.C,C21*%
X133821808Y-87746208D03*
X132725792Y-86650192D03*
%TD*%
D43*
%TO.C,U9*%
X91592400Y-81345000D03*
X90322400Y-81345000D03*
X89052400Y-81345000D03*
X87782400Y-81345000D03*
X87782400Y-86295000D03*
X89052400Y-86295000D03*
X90322400Y-86295000D03*
X91592400Y-86295000D03*
%TD*%
D46*
%TO.C,U11*%
X115779200Y-110524399D03*
D47*
X116534200Y-105899399D03*
X119584200Y-105899399D03*
X116534200Y-102549399D03*
X119584200Y-102549399D03*
D46*
X120339200Y-110524399D03*
%TD*%
D18*
%TO.C,C22*%
X143270608Y-80024608D03*
X142174592Y-78928592D03*
%TD*%
D28*
%TO.C,R19*%
X141468976Y-98932999D03*
X140302250Y-100099725D03*
%TD*%
D18*
%TO.C,C9*%
X142000608Y-93334208D03*
X140904592Y-92238192D03*
%TD*%
D48*
%TO.C,C30*%
X122895400Y-111084399D03*
X122895400Y-109184401D03*
%TD*%
D23*
%TO.C,C20*%
X138102405Y-102223370D03*
X139198421Y-101127354D03*
%TD*%
M02*
