%TF.GenerationSoftware,KiCad,Pcbnew,7.99.0-1.20231130git343828c.fc38*%
%TF.CreationDate,2023-12-04T23:22:27-03:00*%
%TF.ProjectId,Wideband_v3,57696465-6261-46e6-945f-76332e6b6963,rev?*%
%TF.SameCoordinates,Original*%
%TF.FileFunction,Legend,Bot*%
%TF.FilePolarity,Positive*%
%FSLAX46Y46*%
G04 Gerber Fmt 4.6, Leading zero omitted, Abs format (unit mm)*
G04 Created by KiCad (PCBNEW 7.99.0-1.20231130git343828c.fc38) date 2023-12-04 23:22:27*
%MOMM*%
%LPD*%
G01*
G04 APERTURE LIST*
G04 Aperture macros list*
%AMRoundRect*
0 Rectangle with rounded corners*
0 $1 Rounding radius*
0 $2 $3 $4 $5 $6 $7 $8 $9 X,Y pos of 4 corners*
0 Add a 4 corners polygon primitive as box body*
4,1,4,$2,$3,$4,$5,$6,$7,$8,$9,$2,$3,0*
0 Add four circle primitives for the rounded corners*
1,1,$1+$1,$2,$3*
1,1,$1+$1,$4,$5*
1,1,$1+$1,$6,$7*
1,1,$1+$1,$8,$9*
0 Add four rect primitives between the rounded corners*
20,1,$1+$1,$2,$3,$4,$5,0*
20,1,$1+$1,$4,$5,$6,$7,0*
20,1,$1+$1,$6,$7,$8,$9,0*
20,1,$1+$1,$8,$9,$2,$3,0*%
%AMFreePoly0*
4,1,6,1.000000,0.000000,0.499999,-0.750000,-0.499999,-0.750000,-0.499999,0.750000,0.499999,0.750000,1.000000,0.000000,1.000000,0.000000,$1*%
%AMFreePoly1*
4,1,6,0.499999,-0.750000,-0.649999,-0.750000,-0.150000,0.000000,-0.649999,0.750000,0.499999,0.750000,0.499999,-0.750000,0.499999,-0.750000,$1*%
%AMFreePoly2*
4,1,19,0.500000,-0.750000,0.000000,-0.750000,0.000000,-0.744911,-0.071157,-0.744911,-0.207708,-0.704816,-0.327430,-0.627875,-0.420627,-0.520320,-0.479746,-0.390866,-0.500000,-0.250000,-0.500000,0.250000,-0.479746,0.390866,-0.420627,0.520320,-0.327430,0.627875,-0.207708,0.704816,-0.071157,0.744911,0.000000,0.744911,0.000000,0.750000,0.500000,0.750000,0.500000,-0.750000,0.500000,-0.750000,
$1*%
%AMFreePoly3*
4,1,19,0.000000,0.744911,0.071157,0.744911,0.207708,0.704816,0.327430,0.627875,0.420627,0.520320,0.479746,0.390866,0.500000,0.250000,0.500000,-0.250000,0.479746,-0.390866,0.420627,-0.520320,0.327430,-0.627875,0.207708,-0.704816,0.071157,-0.744911,0.000000,-0.744911,0.000000,-0.750000,-0.500000,-0.750000,-0.500000,0.750000,0.000000,0.750000,0.000000,0.744911,0.000000,0.744911,
$1*%
G04 Aperture macros list end*
%ADD10C,0.150000*%
%ADD11C,0.300000*%
%ADD12C,0.120000*%
%ADD13C,0.000000*%
%ADD14C,0.800000*%
%ADD15C,6.400000*%
%ADD16R,1.350000X1.350000*%
%ADD17O,1.350000X1.350000*%
%ADD18C,2.400000*%
%ADD19C,1.700000*%
%ADD20C,1.524000*%
%ADD21C,0.650000*%
%ADD22O,2.100000X1.000000*%
%ADD23O,1.600000X1.000000*%
%ADD24C,0.990600*%
%ADD25R,1.000000X1.000000*%
%ADD26FreePoly0,315.000000*%
%ADD27FreePoly1,315.000000*%
%ADD28R,0.750000X1.000000*%
%ADD29C,3.000000*%
%ADD30RoundRect,0.250001X-1.099999X-1.399999X1.099999X-1.399999X1.099999X1.399999X-1.099999X1.399999X0*%
%ADD31O,2.700000X3.300000*%
%ADD32FreePoly2,0.000000*%
%ADD33FreePoly3,0.000000*%
%ADD34FreePoly0,45.000000*%
%ADD35FreePoly1,45.000000*%
G04 APERTURE END LIST*
D10*
X132587877Y-109150161D02*
X132825973Y-108864447D01*
X133016449Y-109150161D02*
X133016449Y-108483495D01*
X133016449Y-108483495D02*
X132730735Y-108483495D01*
X132730735Y-108483495D02*
X132635496Y-108531114D01*
X132635496Y-108531114D02*
X132587877Y-108626352D01*
X132587877Y-108626352D02*
X132587877Y-108721590D01*
X132587877Y-108721590D02*
X132635496Y-108816828D01*
X132635496Y-108816828D02*
X132730735Y-108864447D01*
X132730735Y-108864447D02*
X133016449Y-108864447D01*
X132825973Y-108150161D02*
X133064068Y-108197780D01*
X133064068Y-108197780D02*
X133302163Y-108340638D01*
X133302163Y-108340638D02*
X133445020Y-108578733D01*
X133445020Y-108578733D02*
X133492639Y-108816828D01*
X133492639Y-108816828D02*
X133445020Y-109054923D01*
X133445020Y-109054923D02*
X133302163Y-109293019D01*
X133302163Y-109293019D02*
X133064068Y-109435876D01*
X133064068Y-109435876D02*
X132825973Y-109483495D01*
X132825973Y-109483495D02*
X132587877Y-109435876D01*
X132587877Y-109435876D02*
X132349782Y-109293019D01*
X132349782Y-109293019D02*
X132206925Y-109054923D01*
X132206925Y-109054923D02*
X132159306Y-108816828D01*
X132159306Y-108816828D02*
X132206925Y-108578733D01*
X132206925Y-108578733D02*
X132349782Y-108340638D01*
X132349782Y-108340638D02*
X132587877Y-108197780D01*
X132587877Y-108197780D02*
X132825973Y-108150161D01*
X117189020Y-89582619D02*
X117189020Y-88582619D01*
X117189020Y-88582619D02*
X116950925Y-88582619D01*
X116950925Y-88582619D02*
X116808068Y-88630238D01*
X116808068Y-88630238D02*
X116712830Y-88725476D01*
X116712830Y-88725476D02*
X116665211Y-88820714D01*
X116665211Y-88820714D02*
X116617592Y-89011190D01*
X116617592Y-89011190D02*
X116617592Y-89154047D01*
X116617592Y-89154047D02*
X116665211Y-89344523D01*
X116665211Y-89344523D02*
X116712830Y-89439761D01*
X116712830Y-89439761D02*
X116808068Y-89535000D01*
X116808068Y-89535000D02*
X116950925Y-89582619D01*
X116950925Y-89582619D02*
X117189020Y-89582619D01*
X116189020Y-89582619D02*
X116189020Y-88915952D01*
X116189020Y-88582619D02*
X116236639Y-88630238D01*
X116236639Y-88630238D02*
X116189020Y-88677857D01*
X116189020Y-88677857D02*
X116141401Y-88630238D01*
X116141401Y-88630238D02*
X116189020Y-88582619D01*
X116189020Y-88582619D02*
X116189020Y-88677857D01*
X115760449Y-89535000D02*
X115665211Y-89582619D01*
X115665211Y-89582619D02*
X115474735Y-89582619D01*
X115474735Y-89582619D02*
X115379497Y-89535000D01*
X115379497Y-89535000D02*
X115331878Y-89439761D01*
X115331878Y-89439761D02*
X115331878Y-89392142D01*
X115331878Y-89392142D02*
X115379497Y-89296904D01*
X115379497Y-89296904D02*
X115474735Y-89249285D01*
X115474735Y-89249285D02*
X115617592Y-89249285D01*
X115617592Y-89249285D02*
X115712830Y-89201666D01*
X115712830Y-89201666D02*
X115760449Y-89106428D01*
X115760449Y-89106428D02*
X115760449Y-89058809D01*
X115760449Y-89058809D02*
X115712830Y-88963571D01*
X115712830Y-88963571D02*
X115617592Y-88915952D01*
X115617592Y-88915952D02*
X115474735Y-88915952D01*
X115474735Y-88915952D02*
X115379497Y-88963571D01*
X114522354Y-89535000D02*
X114617592Y-89582619D01*
X114617592Y-89582619D02*
X114808068Y-89582619D01*
X114808068Y-89582619D02*
X114903306Y-89535000D01*
X114903306Y-89535000D02*
X114950925Y-89439761D01*
X114950925Y-89439761D02*
X114950925Y-89058809D01*
X114950925Y-89058809D02*
X114903306Y-88963571D01*
X114903306Y-88963571D02*
X114808068Y-88915952D01*
X114808068Y-88915952D02*
X114617592Y-88915952D01*
X114617592Y-88915952D02*
X114522354Y-88963571D01*
X114522354Y-88963571D02*
X114474735Y-89058809D01*
X114474735Y-89058809D02*
X114474735Y-89154047D01*
X114474735Y-89154047D02*
X114950925Y-89249285D01*
X114046163Y-88915952D02*
X114046163Y-89582619D01*
X114046163Y-89011190D02*
X113998544Y-88963571D01*
X113998544Y-88963571D02*
X113903306Y-88915952D01*
X113903306Y-88915952D02*
X113760449Y-88915952D01*
X113760449Y-88915952D02*
X113665211Y-88963571D01*
X113665211Y-88963571D02*
X113617592Y-89058809D01*
X113617592Y-89058809D02*
X113617592Y-89582619D01*
X114093782Y-88677857D02*
X114046163Y-88630238D01*
X114046163Y-88630238D02*
X113950925Y-88582619D01*
X113950925Y-88582619D02*
X113760449Y-88677857D01*
X113760449Y-88677857D02*
X113665211Y-88630238D01*
X113665211Y-88630238D02*
X113617592Y-88582619D01*
X112712830Y-89582619D02*
X112712830Y-89058809D01*
X112712830Y-89058809D02*
X112760449Y-88963571D01*
X112760449Y-88963571D02*
X112855687Y-88915952D01*
X112855687Y-88915952D02*
X113046163Y-88915952D01*
X113046163Y-88915952D02*
X113141401Y-88963571D01*
X112712830Y-89535000D02*
X112808068Y-89582619D01*
X112808068Y-89582619D02*
X113046163Y-89582619D01*
X113046163Y-89582619D02*
X113141401Y-89535000D01*
X113141401Y-89535000D02*
X113189020Y-89439761D01*
X113189020Y-89439761D02*
X113189020Y-89344523D01*
X113189020Y-89344523D02*
X113141401Y-89249285D01*
X113141401Y-89249285D02*
X113046163Y-89201666D01*
X113046163Y-89201666D02*
X112808068Y-89201666D01*
X112808068Y-89201666D02*
X112712830Y-89154047D01*
X111808068Y-89582619D02*
X111808068Y-88582619D01*
X111808068Y-89535000D02*
X111903306Y-89582619D01*
X111903306Y-89582619D02*
X112093782Y-89582619D01*
X112093782Y-89582619D02*
X112189020Y-89535000D01*
X112189020Y-89535000D02*
X112236639Y-89487380D01*
X112236639Y-89487380D02*
X112284258Y-89392142D01*
X112284258Y-89392142D02*
X112284258Y-89106428D01*
X112284258Y-89106428D02*
X112236639Y-89011190D01*
X112236639Y-89011190D02*
X112189020Y-88963571D01*
X112189020Y-88963571D02*
X112093782Y-88915952D01*
X112093782Y-88915952D02*
X111903306Y-88915952D01*
X111903306Y-88915952D02*
X111808068Y-88963571D01*
X111189020Y-89582619D02*
X111284258Y-89535000D01*
X111284258Y-89535000D02*
X111331877Y-89487380D01*
X111331877Y-89487380D02*
X111379496Y-89392142D01*
X111379496Y-89392142D02*
X111379496Y-89106428D01*
X111379496Y-89106428D02*
X111331877Y-89011190D01*
X111331877Y-89011190D02*
X111284258Y-88963571D01*
X111284258Y-88963571D02*
X111189020Y-88915952D01*
X111189020Y-88915952D02*
X111046163Y-88915952D01*
X111046163Y-88915952D02*
X110950925Y-88963571D01*
X110950925Y-88963571D02*
X110903306Y-89011190D01*
X110903306Y-89011190D02*
X110855687Y-89106428D01*
X110855687Y-89106428D02*
X110855687Y-89392142D01*
X110855687Y-89392142D02*
X110903306Y-89487380D01*
X110903306Y-89487380D02*
X110950925Y-89535000D01*
X110950925Y-89535000D02*
X111046163Y-89582619D01*
X111046163Y-89582619D02*
X111189020Y-89582619D01*
X109284258Y-89535000D02*
X109379496Y-89582619D01*
X109379496Y-89582619D02*
X109569972Y-89582619D01*
X109569972Y-89582619D02*
X109665210Y-89535000D01*
X109665210Y-89535000D02*
X109712829Y-89439761D01*
X109712829Y-89439761D02*
X109712829Y-89058809D01*
X109712829Y-89058809D02*
X109665210Y-88963571D01*
X109665210Y-88963571D02*
X109569972Y-88915952D01*
X109569972Y-88915952D02*
X109379496Y-88915952D01*
X109379496Y-88915952D02*
X109284258Y-88963571D01*
X109284258Y-88963571D02*
X109236639Y-89058809D01*
X109236639Y-89058809D02*
X109236639Y-89154047D01*
X109236639Y-89154047D02*
X109712829Y-89249285D01*
X108808067Y-88915952D02*
X108808067Y-89582619D01*
X108808067Y-89011190D02*
X108760448Y-88963571D01*
X108760448Y-88963571D02*
X108665210Y-88915952D01*
X108665210Y-88915952D02*
X108522353Y-88915952D01*
X108522353Y-88915952D02*
X108427115Y-88963571D01*
X108427115Y-88963571D02*
X108379496Y-89058809D01*
X108379496Y-89058809D02*
X108379496Y-89582619D01*
X107189019Y-89296904D02*
X106712829Y-89296904D01*
X107284257Y-89582619D02*
X106950924Y-88582619D01*
X106950924Y-88582619D02*
X106617591Y-89582619D01*
X106284257Y-89582619D02*
X106284257Y-88915952D01*
X106284257Y-89106428D02*
X106236638Y-89011190D01*
X106236638Y-89011190D02*
X106189019Y-88963571D01*
X106189019Y-88963571D02*
X106093781Y-88915952D01*
X106093781Y-88915952D02*
X105998543Y-88915952D01*
X105236638Y-88915952D02*
X105236638Y-89725476D01*
X105236638Y-89725476D02*
X105284257Y-89820714D01*
X105284257Y-89820714D02*
X105331876Y-89868333D01*
X105331876Y-89868333D02*
X105427114Y-89915952D01*
X105427114Y-89915952D02*
X105569971Y-89915952D01*
X105569971Y-89915952D02*
X105665209Y-89868333D01*
X105236638Y-89535000D02*
X105331876Y-89582619D01*
X105331876Y-89582619D02*
X105522352Y-89582619D01*
X105522352Y-89582619D02*
X105617590Y-89535000D01*
X105617590Y-89535000D02*
X105665209Y-89487380D01*
X105665209Y-89487380D02*
X105712828Y-89392142D01*
X105712828Y-89392142D02*
X105712828Y-89106428D01*
X105712828Y-89106428D02*
X105665209Y-89011190D01*
X105665209Y-89011190D02*
X105617590Y-88963571D01*
X105617590Y-88963571D02*
X105522352Y-88915952D01*
X105522352Y-88915952D02*
X105331876Y-88915952D01*
X105331876Y-88915952D02*
X105236638Y-88963571D01*
X104379495Y-89535000D02*
X104474733Y-89582619D01*
X104474733Y-89582619D02*
X104665209Y-89582619D01*
X104665209Y-89582619D02*
X104760447Y-89535000D01*
X104760447Y-89535000D02*
X104808066Y-89439761D01*
X104808066Y-89439761D02*
X104808066Y-89058809D01*
X104808066Y-89058809D02*
X104760447Y-88963571D01*
X104760447Y-88963571D02*
X104665209Y-88915952D01*
X104665209Y-88915952D02*
X104474733Y-88915952D01*
X104474733Y-88915952D02*
X104379495Y-88963571D01*
X104379495Y-88963571D02*
X104331876Y-89058809D01*
X104331876Y-89058809D02*
X104331876Y-89154047D01*
X104331876Y-89154047D02*
X104808066Y-89249285D01*
X103903304Y-88915952D02*
X103903304Y-89582619D01*
X103903304Y-89011190D02*
X103855685Y-88963571D01*
X103855685Y-88963571D02*
X103760447Y-88915952D01*
X103760447Y-88915952D02*
X103617590Y-88915952D01*
X103617590Y-88915952D02*
X103522352Y-88963571D01*
X103522352Y-88963571D02*
X103474733Y-89058809D01*
X103474733Y-89058809D02*
X103474733Y-89582619D01*
X103141399Y-88915952D02*
X102760447Y-88915952D01*
X102998542Y-88582619D02*
X102998542Y-89439761D01*
X102998542Y-89439761D02*
X102950923Y-89535000D01*
X102950923Y-89535000D02*
X102855685Y-89582619D01*
X102855685Y-89582619D02*
X102760447Y-89582619D01*
X102427113Y-89582619D02*
X102427113Y-88915952D01*
X102427113Y-88582619D02*
X102474732Y-88630238D01*
X102474732Y-88630238D02*
X102427113Y-88677857D01*
X102427113Y-88677857D02*
X102379494Y-88630238D01*
X102379494Y-88630238D02*
X102427113Y-88582619D01*
X102427113Y-88582619D02*
X102427113Y-88677857D01*
X101950923Y-88915952D02*
X101950923Y-89582619D01*
X101950923Y-89011190D02*
X101903304Y-88963571D01*
X101903304Y-88963571D02*
X101808066Y-88915952D01*
X101808066Y-88915952D02*
X101665209Y-88915952D01*
X101665209Y-88915952D02*
X101569971Y-88963571D01*
X101569971Y-88963571D02*
X101522352Y-89058809D01*
X101522352Y-89058809D02*
X101522352Y-89582619D01*
X100617590Y-89582619D02*
X100617590Y-89058809D01*
X100617590Y-89058809D02*
X100665209Y-88963571D01*
X100665209Y-88963571D02*
X100760447Y-88915952D01*
X100760447Y-88915952D02*
X100950923Y-88915952D01*
X100950923Y-88915952D02*
X101046161Y-88963571D01*
X100617590Y-89535000D02*
X100712828Y-89582619D01*
X100712828Y-89582619D02*
X100950923Y-89582619D01*
X100950923Y-89582619D02*
X101046161Y-89535000D01*
X101046161Y-89535000D02*
X101093780Y-89439761D01*
X101093780Y-89439761D02*
X101093780Y-89344523D01*
X101093780Y-89344523D02*
X101046161Y-89249285D01*
X101046161Y-89249285D02*
X100950923Y-89201666D01*
X100950923Y-89201666D02*
X100712828Y-89201666D01*
X100712828Y-89201666D02*
X100617590Y-89154047D01*
D11*
X105382574Y-108661912D02*
X105096860Y-108661912D01*
X105096860Y-108661912D02*
X104954003Y-108733341D01*
X104954003Y-108733341D02*
X104811146Y-108876198D01*
X104811146Y-108876198D02*
X104739717Y-109161912D01*
X104739717Y-109161912D02*
X104739717Y-109661912D01*
X104739717Y-109661912D02*
X104811146Y-109947626D01*
X104811146Y-109947626D02*
X104954003Y-110090484D01*
X104954003Y-110090484D02*
X105096860Y-110161912D01*
X105096860Y-110161912D02*
X105382574Y-110161912D01*
X105382574Y-110161912D02*
X105525432Y-110090484D01*
X105525432Y-110090484D02*
X105668289Y-109947626D01*
X105668289Y-109947626D02*
X105739717Y-109661912D01*
X105739717Y-109661912D02*
X105739717Y-109161912D01*
X105739717Y-109161912D02*
X105668289Y-108876198D01*
X105668289Y-108876198D02*
X105525432Y-108733341D01*
X105525432Y-108733341D02*
X105382574Y-108661912D01*
X104096860Y-109161912D02*
X104096860Y-110661912D01*
X104096860Y-109233341D02*
X103954003Y-109161912D01*
X103954003Y-109161912D02*
X103668288Y-109161912D01*
X103668288Y-109161912D02*
X103525431Y-109233341D01*
X103525431Y-109233341D02*
X103454003Y-109304769D01*
X103454003Y-109304769D02*
X103382574Y-109447626D01*
X103382574Y-109447626D02*
X103382574Y-109876198D01*
X103382574Y-109876198D02*
X103454003Y-110019055D01*
X103454003Y-110019055D02*
X103525431Y-110090484D01*
X103525431Y-110090484D02*
X103668288Y-110161912D01*
X103668288Y-110161912D02*
X103954003Y-110161912D01*
X103954003Y-110161912D02*
X104096860Y-110090484D01*
X102168288Y-110090484D02*
X102311145Y-110161912D01*
X102311145Y-110161912D02*
X102596860Y-110161912D01*
X102596860Y-110161912D02*
X102739717Y-110090484D01*
X102739717Y-110090484D02*
X102811145Y-109947626D01*
X102811145Y-109947626D02*
X102811145Y-109376198D01*
X102811145Y-109376198D02*
X102739717Y-109233341D01*
X102739717Y-109233341D02*
X102596860Y-109161912D01*
X102596860Y-109161912D02*
X102311145Y-109161912D01*
X102311145Y-109161912D02*
X102168288Y-109233341D01*
X102168288Y-109233341D02*
X102096860Y-109376198D01*
X102096860Y-109376198D02*
X102096860Y-109519055D01*
X102096860Y-109519055D02*
X102811145Y-109661912D01*
X101454003Y-109161912D02*
X101454003Y-110161912D01*
X101454003Y-109304769D02*
X101382574Y-109233341D01*
X101382574Y-109233341D02*
X101239717Y-109161912D01*
X101239717Y-109161912D02*
X101025431Y-109161912D01*
X101025431Y-109161912D02*
X100882574Y-109233341D01*
X100882574Y-109233341D02*
X100811146Y-109376198D01*
X100811146Y-109376198D02*
X100811146Y-110161912D01*
X100096860Y-109376198D02*
X99596860Y-109376198D01*
X99382574Y-110161912D02*
X100096860Y-110161912D01*
X100096860Y-110161912D02*
X100096860Y-108661912D01*
X100096860Y-108661912D02*
X99382574Y-108661912D01*
X98239717Y-109376198D02*
X98739717Y-109376198D01*
X98739717Y-110161912D02*
X98739717Y-108661912D01*
X98739717Y-108661912D02*
X98025431Y-108661912D01*
X97454003Y-110161912D02*
X97454003Y-108661912D01*
X105811146Y-111076828D02*
X105454003Y-112576828D01*
X105454003Y-112576828D02*
X105168289Y-111505400D01*
X105168289Y-111505400D02*
X104882574Y-112576828D01*
X104882574Y-112576828D02*
X104525432Y-111076828D01*
X103954003Y-112576828D02*
X103954003Y-111576828D01*
X103954003Y-111076828D02*
X104025431Y-111148257D01*
X104025431Y-111148257D02*
X103954003Y-111219685D01*
X103954003Y-111219685D02*
X103882574Y-111148257D01*
X103882574Y-111148257D02*
X103954003Y-111076828D01*
X103954003Y-111076828D02*
X103954003Y-111219685D01*
X102596860Y-112576828D02*
X102596860Y-111076828D01*
X102596860Y-112505400D02*
X102739717Y-112576828D01*
X102739717Y-112576828D02*
X103025431Y-112576828D01*
X103025431Y-112576828D02*
X103168288Y-112505400D01*
X103168288Y-112505400D02*
X103239717Y-112433971D01*
X103239717Y-112433971D02*
X103311145Y-112291114D01*
X103311145Y-112291114D02*
X103311145Y-111862542D01*
X103311145Y-111862542D02*
X103239717Y-111719685D01*
X103239717Y-111719685D02*
X103168288Y-111648257D01*
X103168288Y-111648257D02*
X103025431Y-111576828D01*
X103025431Y-111576828D02*
X102739717Y-111576828D01*
X102739717Y-111576828D02*
X102596860Y-111648257D01*
X101311145Y-112505400D02*
X101454002Y-112576828D01*
X101454002Y-112576828D02*
X101739717Y-112576828D01*
X101739717Y-112576828D02*
X101882574Y-112505400D01*
X101882574Y-112505400D02*
X101954002Y-112362542D01*
X101954002Y-112362542D02*
X101954002Y-111791114D01*
X101954002Y-111791114D02*
X101882574Y-111648257D01*
X101882574Y-111648257D02*
X101739717Y-111576828D01*
X101739717Y-111576828D02*
X101454002Y-111576828D01*
X101454002Y-111576828D02*
X101311145Y-111648257D01*
X101311145Y-111648257D02*
X101239717Y-111791114D01*
X101239717Y-111791114D02*
X101239717Y-111933971D01*
X101239717Y-111933971D02*
X101954002Y-112076828D01*
X100596860Y-112576828D02*
X100596860Y-111076828D01*
X100596860Y-111648257D02*
X100454003Y-111576828D01*
X100454003Y-111576828D02*
X100168288Y-111576828D01*
X100168288Y-111576828D02*
X100025431Y-111648257D01*
X100025431Y-111648257D02*
X99954003Y-111719685D01*
X99954003Y-111719685D02*
X99882574Y-111862542D01*
X99882574Y-111862542D02*
X99882574Y-112291114D01*
X99882574Y-112291114D02*
X99954003Y-112433971D01*
X99954003Y-112433971D02*
X100025431Y-112505400D01*
X100025431Y-112505400D02*
X100168288Y-112576828D01*
X100168288Y-112576828D02*
X100454003Y-112576828D01*
X100454003Y-112576828D02*
X100596860Y-112505400D01*
X98596860Y-112576828D02*
X98596860Y-111791114D01*
X98596860Y-111791114D02*
X98668288Y-111648257D01*
X98668288Y-111648257D02*
X98811145Y-111576828D01*
X98811145Y-111576828D02*
X99096860Y-111576828D01*
X99096860Y-111576828D02*
X99239717Y-111648257D01*
X98596860Y-112505400D02*
X98739717Y-112576828D01*
X98739717Y-112576828D02*
X99096860Y-112576828D01*
X99096860Y-112576828D02*
X99239717Y-112505400D01*
X99239717Y-112505400D02*
X99311145Y-112362542D01*
X99311145Y-112362542D02*
X99311145Y-112219685D01*
X99311145Y-112219685D02*
X99239717Y-112076828D01*
X99239717Y-112076828D02*
X99096860Y-112005400D01*
X99096860Y-112005400D02*
X98739717Y-112005400D01*
X98739717Y-112005400D02*
X98596860Y-111933971D01*
X97882574Y-111576828D02*
X97882574Y-112576828D01*
X97882574Y-111719685D02*
X97811145Y-111648257D01*
X97811145Y-111648257D02*
X97668288Y-111576828D01*
X97668288Y-111576828D02*
X97454002Y-111576828D01*
X97454002Y-111576828D02*
X97311145Y-111648257D01*
X97311145Y-111648257D02*
X97239717Y-111791114D01*
X97239717Y-111791114D02*
X97239717Y-112576828D01*
X95882574Y-112576828D02*
X95882574Y-111076828D01*
X95882574Y-112505400D02*
X96025431Y-112576828D01*
X96025431Y-112576828D02*
X96311145Y-112576828D01*
X96311145Y-112576828D02*
X96454002Y-112505400D01*
X96454002Y-112505400D02*
X96525431Y-112433971D01*
X96525431Y-112433971D02*
X96596859Y-112291114D01*
X96596859Y-112291114D02*
X96596859Y-111862542D01*
X96596859Y-111862542D02*
X96525431Y-111719685D01*
X96525431Y-111719685D02*
X96454002Y-111648257D01*
X96454002Y-111648257D02*
X96311145Y-111576828D01*
X96311145Y-111576828D02*
X96025431Y-111576828D01*
X96025431Y-111576828D02*
X95882574Y-111648257D01*
X94168288Y-111576828D02*
X93811145Y-112576828D01*
X93811145Y-112576828D02*
X93454002Y-111576828D01*
X93025431Y-111076828D02*
X92096859Y-111076828D01*
X92096859Y-111076828D02*
X92596859Y-111648257D01*
X92596859Y-111648257D02*
X92382574Y-111648257D01*
X92382574Y-111648257D02*
X92239717Y-111719685D01*
X92239717Y-111719685D02*
X92168288Y-111791114D01*
X92168288Y-111791114D02*
X92096859Y-111933971D01*
X92096859Y-111933971D02*
X92096859Y-112291114D01*
X92096859Y-112291114D02*
X92168288Y-112433971D01*
X92168288Y-112433971D02*
X92239717Y-112505400D01*
X92239717Y-112505400D02*
X92382574Y-112576828D01*
X92382574Y-112576828D02*
X92811145Y-112576828D01*
X92811145Y-112576828D02*
X92954002Y-112505400D01*
X92954002Y-112505400D02*
X93025431Y-112433971D01*
X91454003Y-112433971D02*
X91382574Y-112505400D01*
X91382574Y-112505400D02*
X91454003Y-112576828D01*
X91454003Y-112576828D02*
X91525431Y-112505400D01*
X91525431Y-112505400D02*
X91454003Y-112433971D01*
X91454003Y-112433971D02*
X91454003Y-112576828D01*
X90882574Y-112576828D02*
X90096860Y-111576828D01*
X90882574Y-111576828D02*
X90096860Y-112576828D01*
X143368346Y-111163971D02*
X143439774Y-111235400D01*
X143439774Y-111235400D02*
X143654060Y-111306828D01*
X143654060Y-111306828D02*
X143796917Y-111306828D01*
X143796917Y-111306828D02*
X144011203Y-111235400D01*
X144011203Y-111235400D02*
X144154060Y-111092542D01*
X144154060Y-111092542D02*
X144225489Y-110949685D01*
X144225489Y-110949685D02*
X144296917Y-110663971D01*
X144296917Y-110663971D02*
X144296917Y-110449685D01*
X144296917Y-110449685D02*
X144225489Y-110163971D01*
X144225489Y-110163971D02*
X144154060Y-110021114D01*
X144154060Y-110021114D02*
X144011203Y-109878257D01*
X144011203Y-109878257D02*
X143796917Y-109806828D01*
X143796917Y-109806828D02*
X143654060Y-109806828D01*
X143654060Y-109806828D02*
X143439774Y-109878257D01*
X143439774Y-109878257D02*
X143368346Y-109949685D01*
X142725489Y-111306828D02*
X142725489Y-109806828D01*
X142082632Y-111306828D02*
X142082632Y-110521114D01*
X142082632Y-110521114D02*
X142154060Y-110378257D01*
X142154060Y-110378257D02*
X142296917Y-110306828D01*
X142296917Y-110306828D02*
X142511203Y-110306828D01*
X142511203Y-110306828D02*
X142654060Y-110378257D01*
X142654060Y-110378257D02*
X142725489Y-110449685D01*
X140725489Y-110306828D02*
X140725489Y-111306828D01*
X141368346Y-110306828D02*
X141368346Y-111092542D01*
X141368346Y-111092542D02*
X141296917Y-111235400D01*
X141296917Y-111235400D02*
X141154060Y-111306828D01*
X141154060Y-111306828D02*
X140939774Y-111306828D01*
X140939774Y-111306828D02*
X140796917Y-111235400D01*
X140796917Y-111235400D02*
X140725489Y-111163971D01*
X140011203Y-111306828D02*
X140011203Y-110306828D01*
X140011203Y-110592542D02*
X139939774Y-110449685D01*
X139939774Y-110449685D02*
X139868346Y-110378257D01*
X139868346Y-110378257D02*
X139725488Y-110306828D01*
X139725488Y-110306828D02*
X139582631Y-110306828D01*
X139082632Y-111306828D02*
X139082632Y-110306828D01*
X139082632Y-110592542D02*
X139011203Y-110449685D01*
X139011203Y-110449685D02*
X138939775Y-110378257D01*
X138939775Y-110378257D02*
X138796917Y-110306828D01*
X138796917Y-110306828D02*
X138654060Y-110306828D01*
X137939775Y-111306828D02*
X138082632Y-111235400D01*
X138082632Y-111235400D02*
X138154061Y-111163971D01*
X138154061Y-111163971D02*
X138225489Y-111021114D01*
X138225489Y-111021114D02*
X138225489Y-110592542D01*
X138225489Y-110592542D02*
X138154061Y-110449685D01*
X138154061Y-110449685D02*
X138082632Y-110378257D01*
X138082632Y-110378257D02*
X137939775Y-110306828D01*
X137939775Y-110306828D02*
X137725489Y-110306828D01*
X137725489Y-110306828D02*
X137582632Y-110378257D01*
X137582632Y-110378257D02*
X137511204Y-110449685D01*
X137511204Y-110449685D02*
X137439775Y-110592542D01*
X137439775Y-110592542D02*
X137439775Y-111021114D01*
X137439775Y-111021114D02*
X137511204Y-111163971D01*
X137511204Y-111163971D02*
X137582632Y-111235400D01*
X137582632Y-111235400D02*
X137725489Y-111306828D01*
X137725489Y-111306828D02*
X137939775Y-111306828D01*
X136868346Y-111235400D02*
X136725489Y-111306828D01*
X136725489Y-111306828D02*
X136439775Y-111306828D01*
X136439775Y-111306828D02*
X136296918Y-111235400D01*
X136296918Y-111235400D02*
X136225489Y-111092542D01*
X136225489Y-111092542D02*
X136225489Y-111021114D01*
X136225489Y-111021114D02*
X136296918Y-110878257D01*
X136296918Y-110878257D02*
X136439775Y-110806828D01*
X136439775Y-110806828D02*
X136654061Y-110806828D01*
X136654061Y-110806828D02*
X136796918Y-110735400D01*
X136796918Y-110735400D02*
X136868346Y-110592542D01*
X136868346Y-110592542D02*
X136868346Y-110521114D01*
X136868346Y-110521114D02*
X136796918Y-110378257D01*
X136796918Y-110378257D02*
X136654061Y-110306828D01*
X136654061Y-110306828D02*
X136439775Y-110306828D01*
X136439775Y-110306828D02*
X136296918Y-110378257D01*
X135368346Y-111306828D02*
X135511203Y-111235400D01*
X135511203Y-111235400D02*
X135582632Y-111163971D01*
X135582632Y-111163971D02*
X135654060Y-111021114D01*
X135654060Y-111021114D02*
X135654060Y-110592542D01*
X135654060Y-110592542D02*
X135582632Y-110449685D01*
X135582632Y-110449685D02*
X135511203Y-110378257D01*
X135511203Y-110378257D02*
X135368346Y-110306828D01*
X135368346Y-110306828D02*
X135154060Y-110306828D01*
X135154060Y-110306828D02*
X135011203Y-110378257D01*
X135011203Y-110378257D02*
X134939775Y-110449685D01*
X134939775Y-110449685D02*
X134868346Y-110592542D01*
X134868346Y-110592542D02*
X134868346Y-111021114D01*
X134868346Y-111021114D02*
X134939775Y-111163971D01*
X134939775Y-111163971D02*
X135011203Y-111235400D01*
X135011203Y-111235400D02*
X135154060Y-111306828D01*
X135154060Y-111306828D02*
X135368346Y-111306828D01*
X134439774Y-110306828D02*
X133868346Y-110306828D01*
X134225489Y-111306828D02*
X134225489Y-110021114D01*
X134225489Y-110021114D02*
X134154060Y-109878257D01*
X134154060Y-109878257D02*
X134011203Y-109806828D01*
X134011203Y-109806828D02*
X133868346Y-109806828D01*
X133582631Y-110306828D02*
X133011203Y-110306828D01*
X133368346Y-109806828D02*
X133368346Y-111092542D01*
X133368346Y-111092542D02*
X133296917Y-111235400D01*
X133296917Y-111235400D02*
X133154060Y-111306828D01*
X133154060Y-111306828D02*
X133011203Y-111306828D01*
D12*
%TO.C,TP3*%
X124369600Y-92264000D02*
X125769600Y-92264000D01*
X124369600Y-93664000D02*
X124369600Y-92264000D01*
X125769600Y-92264000D02*
X125769600Y-93664000D01*
X125769600Y-93664000D02*
X124369600Y-93664000D01*
%TO.C,JP2*%
X142473344Y-90420557D02*
X143887557Y-89006344D01*
X143887557Y-89006344D02*
X145867456Y-90986243D01*
X144453243Y-92400456D02*
X142473344Y-90420557D01*
X145867456Y-90986243D02*
X144453243Y-92400456D01*
%TO.C,SW1*%
X124022400Y-82225600D02*
X124472400Y-81775601D01*
X124022400Y-84825600D02*
X124022400Y-82225600D01*
X124022400Y-84825600D02*
X124472400Y-85275599D01*
X127772400Y-80775600D02*
X125772400Y-80775600D01*
X127772400Y-86275600D02*
X125772400Y-86275600D01*
X129522400Y-82225600D02*
X129072400Y-81775601D01*
X129522400Y-84825600D02*
X129072400Y-85275599D01*
X129522400Y-84825600D02*
X129522400Y-82225600D01*
%TO.C,J5*%
X94572400Y-74875600D02*
X94572400Y-77725600D01*
X94572400Y-77725600D02*
X97422400Y-77725600D01*
X94812400Y-67665599D02*
X94812400Y-77485600D01*
X94812400Y-68325600D02*
X92922400Y-68325600D01*
X94812400Y-71845600D02*
X92922400Y-71845600D01*
X94812400Y-77485600D02*
X108122400Y-77485600D01*
X106312400Y-66265600D02*
X106312400Y-67665599D01*
X106312400Y-67665599D02*
X94812400Y-67665599D01*
X108122400Y-66265600D02*
X106312400Y-66265600D01*
X108122400Y-66265600D02*
X109932400Y-66265599D01*
X109932400Y-66265599D02*
X109932400Y-67665600D01*
X109932400Y-67665600D02*
X121432400Y-67665600D01*
X121432399Y-77485600D02*
X108122400Y-77485600D01*
X121432400Y-67665600D02*
X121432399Y-77485600D01*
X121432400Y-68325599D02*
X123322400Y-68325600D01*
X121432400Y-71845600D02*
X123322400Y-71845600D01*
X92922400Y-71845600D02*
G75*
G02*
X92922400Y-68325600I0J1760000D01*
G01*
X123322400Y-68325600D02*
G75*
G02*
X123322400Y-71845600I0J-1760000D01*
G01*
D13*
%TO.C,G\u002A\u002A\u002A*%
G36*
X101317746Y-104177217D02*
G01*
X101317746Y-104344787D01*
X101156261Y-104338702D01*
X100994776Y-104332616D01*
X100988690Y-104171131D01*
X100982605Y-104009646D01*
X101150175Y-104009646D01*
X101317746Y-104009645D01*
X101317746Y-104177217D01*
G37*
G36*
X101651134Y-104988974D02*
G01*
X101651134Y-105478637D01*
X101651134Y-105968301D01*
X101484440Y-105968301D01*
X101317746Y-105968301D01*
X101317746Y-105478637D01*
X101317746Y-104988974D01*
X101484440Y-104988973D01*
X101651134Y-104988974D01*
G37*
G36*
X102297073Y-106291270D02*
G01*
X102297073Y-106614240D01*
X102130379Y-106614240D01*
X101963685Y-106614240D01*
X101963685Y-106291270D01*
X101963685Y-105968301D01*
X102130379Y-105968301D01*
X102297073Y-105968301D01*
X102297073Y-106291270D01*
G37*
G36*
X105235055Y-104666004D02*
G01*
X105235055Y-104988974D01*
X105068361Y-104988974D01*
X104901667Y-104988974D01*
X104901667Y-104666004D01*
X104901667Y-104343034D01*
X105068361Y-104343034D01*
X105235055Y-104343034D01*
X105235055Y-104666004D01*
G37*
G36*
X103922339Y-103519106D02*
G01*
X103922339Y-104009646D01*
X103766064Y-104009646D01*
X103609788Y-104009646D01*
X103609788Y-104176339D01*
X103609788Y-104343034D01*
X103443094Y-104343034D01*
X103276400Y-104343034D01*
X103276400Y-104176339D01*
X103276400Y-104009646D01*
X103432292Y-104009646D01*
X103588183Y-104009646D01*
X103593777Y-103525192D01*
X103599370Y-103040737D01*
X103760854Y-103034652D01*
X103922339Y-103028566D01*
X103922339Y-103519106D01*
G37*
G36*
X104901667Y-105155668D02*
G01*
X104901667Y-105322362D01*
X104745391Y-105322362D01*
X104589116Y-105322362D01*
X104589116Y-105478637D01*
X104589116Y-105634913D01*
X104422422Y-105634913D01*
X104255728Y-105634913D01*
X104255728Y-105468219D01*
X104255728Y-105301525D01*
X104412003Y-105301525D01*
X104568279Y-105301525D01*
X104568279Y-105145249D01*
X104568279Y-104988974D01*
X104734972Y-104988974D01*
X104901667Y-104988974D01*
X104901667Y-105155668D01*
G37*
G36*
X108006872Y-106614240D02*
G01*
X108174095Y-106614240D01*
X108168357Y-106942420D01*
X108162618Y-107270598D01*
X108001134Y-107276682D01*
X107839649Y-107282769D01*
X107839649Y-106948505D01*
X107839649Y-106614240D01*
X108006872Y-106614240D01*
G37*
G36*
X107506261Y-105957882D02*
G01*
X107506260Y-106280852D01*
X107672955Y-106280852D01*
X107839649Y-106280852D01*
X107839649Y-106447546D01*
X107839649Y-106614240D01*
X107672955Y-106614240D01*
X107506260Y-106614240D01*
X107506261Y-106458841D01*
X107506261Y-106303442D01*
X107344776Y-106297356D01*
X107183291Y-106291270D01*
X107177205Y-106129786D01*
X107171120Y-105968301D01*
X107015721Y-105968301D01*
X106860321Y-105968301D01*
X106860321Y-105802483D01*
X106860321Y-105634913D01*
X107183291Y-105634913D01*
X107506261Y-105634913D01*
X107506261Y-105957882D01*
G37*
G36*
X103276400Y-101571746D02*
G01*
X103276400Y-101738440D01*
X103120125Y-101738440D01*
X102963849Y-101738440D01*
X102963849Y-102061410D01*
X102963849Y-102384380D01*
X103120125Y-102384380D01*
X103276400Y-102384380D01*
X103276400Y-102061410D01*
X103276400Y-101738440D01*
X103443094Y-101738440D01*
X103609788Y-101738440D01*
X103609788Y-102061410D01*
X103609788Y-102384380D01*
X103443094Y-102384380D01*
X103276400Y-102384380D01*
X103276400Y-102551074D01*
X103276400Y-102717768D01*
X103109706Y-102717768D01*
X102943012Y-102717768D01*
X102943012Y-102551074D01*
X102943012Y-102384380D01*
X102786737Y-102384380D01*
X102630461Y-102384380D01*
X102630461Y-102061410D01*
X102630461Y-101738440D01*
X102786737Y-101738440D01*
X102943012Y-101738440D01*
X102943012Y-101571746D01*
X102943012Y-101405052D01*
X103109706Y-101405052D01*
X103276400Y-101405052D01*
X103276400Y-101571746D01*
G37*
G36*
X108006343Y-102384380D02*
G01*
X108173037Y-102384380D01*
X108173037Y-102707349D01*
X108173037Y-103030319D01*
X108329312Y-103030319D01*
X108485588Y-103030319D01*
X108485588Y-103853371D01*
X108485588Y-104676422D01*
X108329855Y-104676422D01*
X108174122Y-104676422D01*
X108168370Y-104994183D01*
X108162618Y-105311943D01*
X108001134Y-105318029D01*
X107839649Y-105324115D01*
X107839649Y-105479514D01*
X107839649Y-105634913D01*
X107672955Y-105634913D01*
X107506261Y-105634913D01*
X107506261Y-105468219D01*
X107506261Y-105301525D01*
X107672955Y-105301525D01*
X107839649Y-105301525D01*
X107839649Y-104978555D01*
X107839649Y-104655585D01*
X107995924Y-104655585D01*
X108152200Y-104655585D01*
X108152200Y-103842952D01*
X108152200Y-103030319D01*
X107995924Y-103030319D01*
X107839649Y-103030319D01*
X107839649Y-102707349D01*
X107839649Y-102384380D01*
X108006343Y-102384380D01*
G37*
G36*
X107027015Y-101405052D02*
G01*
X107193709Y-101405052D01*
X107193709Y-101571746D01*
X107193709Y-101738440D01*
X107349985Y-101738440D01*
X107506261Y-101738440D01*
X107506261Y-101894716D01*
X107506261Y-102050992D01*
X107672954Y-102050992D01*
X107839649Y-102050992D01*
X107839649Y-102217686D01*
X107839649Y-102384380D01*
X107672955Y-102384380D01*
X107506261Y-102384380D01*
X107506260Y-102228980D01*
X107506261Y-102073581D01*
X107344776Y-102067496D01*
X107183291Y-102061410D01*
X107177205Y-101899925D01*
X107171120Y-101738440D01*
X107015721Y-101738440D01*
X106860321Y-101738440D01*
X106860321Y-101571746D01*
X106860321Y-101405052D01*
X107027015Y-101405052D01*
G37*
G36*
X106214382Y-100915389D02*
G01*
X106214382Y-101071664D01*
X106537352Y-101071664D01*
X106860321Y-101071664D01*
X106860321Y-101238358D01*
X106860321Y-101405052D01*
X106526933Y-101405052D01*
X106193545Y-101405052D01*
X106193545Y-101248777D01*
X106193545Y-101092501D01*
X105714301Y-101092501D01*
X105235055Y-101092501D01*
X105235055Y-100925807D01*
X105235055Y-100759113D01*
X105724718Y-100759113D01*
X106214382Y-100759113D01*
X106214382Y-100915389D01*
G37*
G36*
X105068361Y-107593567D02*
G01*
X105235055Y-107593567D01*
X105235055Y-107760261D01*
X105235055Y-107926955D01*
X105068361Y-107926955D01*
X104901667Y-107926955D01*
X104901667Y-107760261D01*
X104901667Y-107593567D01*
X105068361Y-107593567D01*
G37*
G36*
X107027015Y-107593567D02*
G01*
X107193709Y-107593567D01*
X107193709Y-107760261D01*
X107193709Y-107926955D01*
X107027015Y-107926955D01*
X106860321Y-107926955D01*
X106860321Y-107760261D01*
X106860321Y-107593567D01*
X107027015Y-107593567D01*
G37*
G36*
X106214382Y-104988973D02*
G01*
X106214382Y-105322362D01*
X106047688Y-105322362D01*
X105880994Y-105322362D01*
X105880994Y-105478636D01*
X105880994Y-105634913D01*
X105724718Y-105634913D01*
X105568443Y-105634913D01*
X105568443Y-105801607D01*
X105568443Y-105968301D01*
X105880118Y-105968301D01*
X106191792Y-105968301D01*
X106197878Y-105806816D01*
X106203963Y-105645331D01*
X106364588Y-105639261D01*
X106525211Y-105633191D01*
X106531282Y-105472567D01*
X106537352Y-105311943D01*
X106698837Y-105305857D01*
X106860321Y-105299772D01*
X106860321Y-105144373D01*
X106860321Y-104988974D01*
X107027015Y-104988974D01*
X107193709Y-104988974D01*
X107193709Y-105155668D01*
X107193709Y-105322362D01*
X107027015Y-105322362D01*
X106860321Y-105322362D01*
X106860321Y-105477761D01*
X106860321Y-105633160D01*
X106698837Y-105639247D01*
X106537352Y-105645331D01*
X106537352Y-105801607D01*
X106537352Y-105957882D01*
X106698837Y-105963968D01*
X106860321Y-105970054D01*
X106860321Y-106134995D01*
X106860321Y-106301689D01*
X106537352Y-106301689D01*
X106214382Y-106301689D01*
X106214382Y-106457964D01*
X106214382Y-106614240D01*
X106369781Y-106614240D01*
X106525179Y-106614240D01*
X106531266Y-106775725D01*
X106537352Y-106937210D01*
X106698836Y-106943295D01*
X106860321Y-106949381D01*
X106860321Y-107271474D01*
X106860321Y-107593567D01*
X106693627Y-107593567D01*
X106526933Y-107593567D01*
X106526933Y-107271475D01*
X106526932Y-106949381D01*
X106365449Y-106943296D01*
X106203964Y-106937210D01*
X106197878Y-106775725D01*
X106191791Y-106614240D01*
X106036393Y-106614240D01*
X105880994Y-106614240D01*
X105880994Y-106457964D01*
X105880994Y-106301689D01*
X105235055Y-106301689D01*
X104589115Y-106301689D01*
X104589116Y-106457964D01*
X104589115Y-106614240D01*
X104745391Y-106614239D01*
X104901667Y-106614240D01*
X104901667Y-107103904D01*
X104901667Y-107593567D01*
X104734973Y-107593567D01*
X104568279Y-107593567D01*
X104568279Y-107103904D01*
X104568278Y-106614240D01*
X104412004Y-106614240D01*
X104255727Y-106614240D01*
X104255728Y-106291270D01*
X104255728Y-105969069D01*
X104740182Y-105963476D01*
X105224636Y-105957882D01*
X105230722Y-105796398D01*
X105236808Y-105634913D01*
X105391330Y-105634913D01*
X105545853Y-105634913D01*
X105551939Y-105473428D01*
X105558024Y-105311943D01*
X105719508Y-105305857D01*
X105880994Y-105299772D01*
X105880994Y-104977680D01*
X105880994Y-104655585D01*
X106047688Y-104655585D01*
X106214382Y-104655585D01*
X106214382Y-104988973D01*
G37*
G36*
X101984522Y-102551074D02*
G01*
X101984522Y-103363707D01*
X102140413Y-103363707D01*
X102296305Y-103363707D01*
X102301898Y-103848161D01*
X102307491Y-104332616D01*
X102791946Y-104338209D01*
X103276400Y-104343802D01*
X103276400Y-104510112D01*
X103276400Y-104676422D01*
X103120125Y-104676422D01*
X102963849Y-104676422D01*
X102963850Y-104832698D01*
X102963849Y-104988973D01*
X103120125Y-104988973D01*
X103276400Y-104988973D01*
X103276400Y-105144373D01*
X103276400Y-105299772D01*
X103437886Y-105305857D01*
X103599370Y-105311943D01*
X103605456Y-105473428D01*
X103611541Y-105634913D01*
X103933634Y-105634913D01*
X104255728Y-105634913D01*
X104255728Y-105801991D01*
X104255728Y-105968301D01*
X103932758Y-105968301D01*
X103609788Y-105968301D01*
X103609788Y-106134996D01*
X103609788Y-106301689D01*
X103443094Y-106301690D01*
X103276400Y-106301689D01*
X103276400Y-106947628D01*
X103276400Y-107593567D01*
X103109706Y-107593567D01*
X102943012Y-107593567D01*
X102943012Y-106937210D01*
X102943012Y-106280852D01*
X103109706Y-106280853D01*
X103276400Y-106280852D01*
X103276400Y-105801607D01*
X103276400Y-105322362D01*
X102953431Y-105322362D01*
X102630461Y-105322362D01*
X102630461Y-105645331D01*
X102630461Y-105968301D01*
X102463767Y-105968301D01*
X102297073Y-105968301D01*
X102297073Y-105634913D01*
X102297073Y-105301525D01*
X102463767Y-105301525D01*
X102630461Y-105301525D01*
X102630461Y-104988974D01*
X102630461Y-104676422D01*
X102307491Y-104676422D01*
X101984522Y-104676422D01*
X101984522Y-104832698D01*
X101984522Y-104988974D01*
X101817828Y-104988974D01*
X101651134Y-104988974D01*
X101651133Y-104822280D01*
X101651134Y-104655585D01*
X101807409Y-104655585D01*
X101963685Y-104655585D01*
X101963685Y-104332616D01*
X101963685Y-104009646D01*
X101640715Y-104009646D01*
X101317746Y-104009645D01*
X101317746Y-103842952D01*
X101317745Y-103676258D01*
X101640715Y-103676258D01*
X101963685Y-103676258D01*
X101963685Y-103519983D01*
X101963685Y-103363707D01*
X101807409Y-103363708D01*
X101651133Y-103363707D01*
X101651134Y-103040737D01*
X101651134Y-102717768D01*
X101484440Y-102717768D01*
X101317746Y-102717768D01*
X101317746Y-102874043D01*
X101317746Y-103030319D01*
X101161470Y-103030319D01*
X101005194Y-103030319D01*
X101005194Y-103363707D01*
X101005194Y-103697095D01*
X100838499Y-103697095D01*
X100671806Y-103697095D01*
X100671806Y-103363707D01*
X100671806Y-103030319D01*
X100827205Y-103030319D01*
X100982605Y-103030319D01*
X100988690Y-102868834D01*
X100994776Y-102707349D01*
X101156261Y-102701264D01*
X101317746Y-102695178D01*
X101317745Y-102539779D01*
X101317746Y-102384380D01*
X101484440Y-102384380D01*
X101651134Y-102384380D01*
X101651133Y-102228980D01*
X101651134Y-102073581D01*
X101489649Y-102067496D01*
X101328164Y-102061410D01*
X101322094Y-101900786D01*
X101316024Y-101740162D01*
X101155400Y-101734092D01*
X100994776Y-101728022D01*
X100989183Y-101243567D01*
X100983589Y-100759113D01*
X101316977Y-100759113D01*
X101322571Y-101243567D01*
X101328164Y-101728022D01*
X101645924Y-101733774D01*
X101963685Y-101739526D01*
X101963685Y-101416013D01*
X101963685Y-101092501D01*
X101807409Y-101092500D01*
X101651133Y-101092501D01*
X101651134Y-100925807D01*
X101651133Y-100759113D01*
X101484055Y-100759113D01*
X101316977Y-100759113D01*
X100983589Y-100759113D01*
X100505605Y-100759113D01*
X100027621Y-100759113D01*
X100021534Y-100597628D01*
X100015449Y-100436143D01*
X99041330Y-100430728D01*
X98067212Y-100425313D01*
X98067212Y-100258619D01*
X98067212Y-100091925D01*
X99041330Y-100097340D01*
X100015449Y-100102755D01*
X100021534Y-100264240D01*
X100027621Y-100425725D01*
X100349713Y-100425725D01*
X100671806Y-100425725D01*
X100671806Y-100269449D01*
X100671806Y-100113174D01*
X100505112Y-100113175D01*
X100338418Y-100113174D01*
X100338418Y-99946480D01*
X100338418Y-99779786D01*
X100182143Y-99779786D01*
X100025867Y-99779786D01*
X100025867Y-99456816D01*
X100025867Y-99133846D01*
X100192561Y-99133846D01*
X100359255Y-99133846D01*
X100359255Y-99456816D01*
X100359255Y-99779786D01*
X100515531Y-99779786D01*
X100671806Y-99779786D01*
X100671806Y-99935185D01*
X100671806Y-100090585D01*
X100833291Y-100096670D01*
X100994776Y-100102755D01*
X101000862Y-100264240D01*
X101006946Y-100425725D01*
X101329040Y-100425726D01*
X101651133Y-100425725D01*
X101651134Y-100592419D01*
X101651133Y-100759113D01*
X101806879Y-100759113D01*
X101962627Y-100759113D01*
X101968365Y-100430934D01*
X101974103Y-100102755D01*
X102135588Y-100096670D01*
X102297073Y-100090584D01*
X102297073Y-99935185D01*
X102297073Y-99779786D01*
X102463767Y-99779786D01*
X102630461Y-99779786D01*
X102630461Y-99946480D01*
X102630461Y-100113174D01*
X102463767Y-100113174D01*
X102297073Y-100113174D01*
X102297073Y-100436143D01*
X102297073Y-100759113D01*
X102786737Y-100759113D01*
X103276400Y-100759113D01*
X103276400Y-100915389D01*
X103276400Y-101071664D01*
X103599370Y-101071664D01*
X103922339Y-101071664D01*
X103922339Y-101238358D01*
X103922339Y-101405052D01*
X103599370Y-101405052D01*
X103276400Y-101405052D01*
X103276400Y-101248777D01*
X103276400Y-101092501D01*
X102786737Y-101092501D01*
X102297073Y-101092501D01*
X102297073Y-101415471D01*
X102297073Y-101738440D01*
X102140797Y-101738440D01*
X101984522Y-101738440D01*
X101984522Y-101739526D01*
X101984522Y-102551074D01*
G37*
G36*
X105068361Y-102384380D02*
G01*
X105235055Y-102384380D01*
X105235055Y-102539779D01*
X105235055Y-102695178D01*
X105396540Y-102701265D01*
X105558024Y-102707349D01*
X105564110Y-102868834D01*
X105570196Y-103030319D01*
X105725595Y-103030319D01*
X105880994Y-103030319D01*
X105880994Y-103197014D01*
X105880994Y-103363707D01*
X106693626Y-103363707D01*
X107506260Y-103363707D01*
X107506261Y-103197013D01*
X107506261Y-103030319D01*
X107672955Y-103030319D01*
X107839649Y-103030319D01*
X107839649Y-103197013D01*
X107839649Y-103363707D01*
X107672955Y-103363707D01*
X107506260Y-103363707D01*
X107506261Y-103530401D01*
X107506260Y-103697095D01*
X107349986Y-103697095D01*
X107193709Y-103697095D01*
X107193709Y-104020065D01*
X107193709Y-104343034D01*
X107027015Y-104343034D01*
X106860321Y-104343034D01*
X106860321Y-104020065D01*
X106860321Y-103697095D01*
X106537352Y-103697095D01*
X106214382Y-103697095D01*
X106214382Y-103853371D01*
X106214382Y-104009646D01*
X106047688Y-104009645D01*
X105880994Y-104009646D01*
X105880994Y-103686677D01*
X105880994Y-103363707D01*
X105714301Y-103363707D01*
X105547606Y-103363707D01*
X105547606Y-103197013D01*
X105547606Y-103030319D01*
X105391330Y-103030319D01*
X105235055Y-103030319D01*
X105235055Y-102874043D01*
X105235055Y-102717768D01*
X105068361Y-102717768D01*
X104901667Y-102717768D01*
X104901667Y-102551074D01*
X104901667Y-102384380D01*
X105068361Y-102384380D01*
G37*
G36*
X104422422Y-101738440D02*
G01*
X104589116Y-101738440D01*
X104589116Y-101894716D01*
X104589116Y-102050992D01*
X104745391Y-102050992D01*
X104901667Y-102050992D01*
X104901667Y-102217686D01*
X104901667Y-102384380D01*
X104734973Y-102384380D01*
X104568279Y-102384380D01*
X104568279Y-102228104D01*
X104568279Y-102071828D01*
X104412003Y-102071828D01*
X104255728Y-102071828D01*
X104255728Y-101905134D01*
X104255728Y-101738440D01*
X104422422Y-101738440D01*
G37*
G36*
X104089033Y-101405052D02*
G01*
X104255728Y-101405052D01*
X104255728Y-101571746D01*
X104255728Y-101738440D01*
X104089033Y-101738440D01*
X103922339Y-101738440D01*
X103922339Y-101571746D01*
X103922339Y-101405052D01*
X104089033Y-101405052D01*
G37*
D12*
%TO.C,JP5*%
X101825600Y-80564001D02*
X101825600Y-79963999D01*
X102525600Y-79264000D02*
X103925600Y-79264000D01*
X103925600Y-81264000D02*
X102525600Y-81264000D01*
X104625600Y-79963999D02*
X104625600Y-80564001D01*
X101825600Y-79963999D02*
G75*
G02*
X102525600Y-79264000I699999J0D01*
G01*
X102525600Y-81264000D02*
G75*
G02*
X101825600Y-80564001I-1J699999D01*
G01*
X103925600Y-79264000D02*
G75*
G02*
X104625600Y-79963999I0J-700000D01*
G01*
X104625600Y-80564001D02*
G75*
G02*
X103925600Y-81264000I-700000J1D01*
G01*
D13*
%TO.C,G\u002A\u002A\u002A*%
G36*
X137290200Y-103503600D02*
G01*
X137290200Y-103628600D01*
X137165200Y-103628600D01*
X137040200Y-103628600D01*
X137040200Y-103503600D01*
X137040200Y-103378600D01*
X137165200Y-103378600D01*
X137290200Y-103378600D01*
X137290200Y-103503600D01*
G37*
G36*
X137540200Y-103253600D02*
G01*
X137540200Y-103378600D01*
X137415200Y-103378600D01*
X137290200Y-103378600D01*
X137290200Y-103253600D01*
X137290200Y-103128600D01*
X137415200Y-103128600D01*
X137540200Y-103128600D01*
X137540200Y-103253600D01*
G37*
G36*
X137790200Y-103628600D02*
G01*
X137790200Y-103878600D01*
X137665200Y-103878600D01*
X137540200Y-103878600D01*
X137540200Y-103628600D01*
X137540200Y-103378600D01*
X137665200Y-103378600D01*
X137790200Y-103378600D01*
X137790200Y-103628600D01*
G37*
G36*
X138040200Y-102003600D02*
G01*
X138040200Y-102128600D01*
X137915200Y-102128600D01*
X137790200Y-102128600D01*
X137790200Y-102003600D01*
X137790200Y-101878600D01*
X137915200Y-101878600D01*
X138040200Y-101878600D01*
X138040200Y-102003600D01*
G37*
G36*
X138290200Y-101753600D02*
G01*
X138290200Y-101878600D01*
X138165200Y-101878600D01*
X138040200Y-101878600D01*
X138040200Y-101753600D01*
X138040200Y-101628600D01*
X138165200Y-101628600D01*
X138290200Y-101628600D01*
X138290200Y-101753600D01*
G37*
G36*
X138290200Y-102253600D02*
G01*
X138290200Y-102378600D01*
X138165200Y-102378600D01*
X138040200Y-102378600D01*
X138040200Y-102253600D01*
X138040200Y-102128600D01*
X138165200Y-102128600D01*
X138290200Y-102128600D01*
X138290200Y-102253600D01*
G37*
G36*
X138540200Y-102003600D02*
G01*
X138540200Y-102128600D01*
X138415200Y-102128600D01*
X138290200Y-102128600D01*
X138290200Y-102003600D01*
X138290200Y-101878600D01*
X138415200Y-101878600D01*
X138540200Y-101878600D01*
X138540200Y-102003600D01*
G37*
G36*
X140040200Y-101503600D02*
G01*
X140040200Y-101628600D01*
X139915200Y-101628600D01*
X139790200Y-101628600D01*
X139790200Y-101503600D01*
X139790200Y-101378600D01*
X139915200Y-101378600D01*
X140040200Y-101378600D01*
X140040200Y-101503600D01*
G37*
G36*
X140290200Y-102003600D02*
G01*
X140290200Y-102128600D01*
X140040200Y-102128600D01*
X139790200Y-102128600D01*
X139790200Y-102003600D01*
X139790200Y-101878600D01*
X140040200Y-101878600D01*
X140290200Y-101878600D01*
X140290200Y-102003600D01*
G37*
G36*
X140790200Y-101753600D02*
G01*
X140790200Y-101878600D01*
X140540200Y-101878600D01*
X140290200Y-101878600D01*
X140290200Y-101753600D01*
X140290200Y-101628600D01*
X140540200Y-101628600D01*
X140790200Y-101628600D01*
X140790200Y-101753600D01*
G37*
G36*
X141540200Y-105253600D02*
G01*
X141540200Y-105378600D01*
X141415200Y-105378600D01*
X141290200Y-105378600D01*
X141290200Y-105253600D01*
X141290200Y-105128600D01*
X141415200Y-105128600D01*
X141540200Y-105128600D01*
X141540200Y-105253600D01*
G37*
G36*
X144040200Y-108253600D02*
G01*
X144040200Y-108378600D01*
X143915200Y-108378600D01*
X143790200Y-108378600D01*
X143790200Y-108253600D01*
X143790200Y-108128600D01*
X143915200Y-108128600D01*
X144040200Y-108128600D01*
X144040200Y-108253600D01*
G37*
G36*
X144290200Y-107753600D02*
G01*
X144290200Y-108128600D01*
X144165200Y-108128600D01*
X144040200Y-108128600D01*
X144040200Y-107753600D01*
X144040200Y-107378600D01*
X144165200Y-107378600D01*
X144290200Y-107378600D01*
X144290200Y-107753600D01*
G37*
G36*
X143665200Y-106128600D02*
G01*
X144040200Y-106128600D01*
X144040200Y-106253600D01*
X144040200Y-106378600D01*
X143665200Y-106378600D01*
X143290200Y-106378600D01*
X143290200Y-106253600D01*
X143290200Y-106128600D01*
X143665200Y-106128600D01*
G37*
G36*
X143290200Y-106003600D02*
G01*
X143290200Y-106128600D01*
X142915200Y-106128600D01*
X142540200Y-106128600D01*
X142540200Y-106003600D01*
X142540200Y-105878600D01*
X142915200Y-105878600D01*
X143290200Y-105878600D01*
X143290200Y-106003600D01*
G37*
G36*
X137790200Y-102253600D02*
G01*
X137790200Y-102378600D01*
X137915200Y-102378600D01*
X138040200Y-102378600D01*
X138040200Y-102503600D01*
X138040200Y-102628600D01*
X138165200Y-102628600D01*
X138290200Y-102628600D01*
X138290200Y-102878600D01*
X138290200Y-103128600D01*
X138415200Y-103128600D01*
X138540200Y-103128600D01*
X138540200Y-103378600D01*
X138540200Y-103628600D01*
X138415200Y-103628600D01*
X138290200Y-103628600D01*
X138290200Y-103503600D01*
X138290200Y-103378600D01*
X138165200Y-103378600D01*
X138040200Y-103378600D01*
X138040200Y-103253600D01*
X138040200Y-103128600D01*
X137790200Y-103128600D01*
X137540200Y-103128600D01*
X137540200Y-103003600D01*
X137540200Y-102878600D01*
X137665200Y-102878600D01*
X137790200Y-102878600D01*
X137790200Y-102753600D01*
X137790200Y-102628600D01*
X137665200Y-102628600D01*
X137540200Y-102628600D01*
X137540200Y-102378600D01*
X137540200Y-102128600D01*
X137665200Y-102128600D01*
X137790200Y-102128600D01*
X137790200Y-102253600D01*
G37*
G36*
X139165200Y-101628600D02*
G01*
X139290200Y-101628600D01*
X139290200Y-101753600D01*
X139290200Y-101878600D01*
X139415200Y-101878600D01*
X139540200Y-101878600D01*
X139540200Y-101753600D01*
X139540200Y-101628600D01*
X139665200Y-101628600D01*
X139790200Y-101628600D01*
X139790200Y-101753600D01*
X139790200Y-101878600D01*
X139665200Y-101878600D01*
X139540200Y-101878600D01*
X139540200Y-102003600D01*
X139540200Y-102128600D01*
X139665200Y-102128600D01*
X139790200Y-102128600D01*
X139790200Y-102378600D01*
X139790200Y-102628600D01*
X139665200Y-102628600D01*
X139540200Y-102628600D01*
X139540200Y-102503600D01*
X139540200Y-102378600D01*
X139415200Y-102378600D01*
X139290200Y-102378600D01*
X139290200Y-102128600D01*
X139290200Y-101878600D01*
X139165200Y-101878600D01*
X139040200Y-101878600D01*
X139040200Y-101753600D01*
X139040200Y-101628600D01*
X139165200Y-101628600D01*
G37*
G36*
X139040200Y-101503600D02*
G01*
X139040200Y-101628600D01*
X138915200Y-101628600D01*
X138790200Y-101628600D01*
X138790200Y-101753600D01*
X138790200Y-101878600D01*
X138665200Y-101878600D01*
X138540200Y-101878600D01*
X138540200Y-101753600D01*
X138540200Y-101628600D01*
X138415200Y-101628600D01*
X138290200Y-101628600D01*
X138290200Y-101503600D01*
X138290200Y-101378600D01*
X138665200Y-101378600D01*
X139040200Y-101378600D01*
X139040200Y-101503600D01*
G37*
G36*
X139415200Y-105628600D02*
G01*
X139540200Y-105628600D01*
X139540200Y-105753600D01*
X139540200Y-105878600D01*
X139415200Y-105878600D01*
X139290200Y-105878600D01*
X139290200Y-105753600D01*
X139290200Y-105628600D01*
X139415200Y-105628600D01*
G37*
G36*
X139165200Y-105378600D02*
G01*
X139290200Y-105378600D01*
X139290200Y-105503600D01*
X139290200Y-105628600D01*
X139165200Y-105628600D01*
X139040200Y-105628600D01*
X139040200Y-105503600D01*
X139040200Y-105378600D01*
X139165200Y-105378600D01*
G37*
G36*
X138915200Y-105128600D02*
G01*
X139040200Y-105128600D01*
X139040200Y-105253600D01*
X139040200Y-105378600D01*
X138915200Y-105378600D01*
X138790200Y-105378600D01*
X138790200Y-105253600D01*
X138790200Y-105128600D01*
X138915200Y-105128600D01*
G37*
G36*
X138665200Y-104878600D02*
G01*
X138790200Y-104878600D01*
X138790200Y-105003600D01*
X138790200Y-105128600D01*
X138665200Y-105128600D01*
X138540200Y-105128600D01*
X138540200Y-105003600D01*
X138540200Y-104878600D01*
X138665200Y-104878600D01*
G37*
G36*
X138415200Y-104628600D02*
G01*
X138540200Y-104628600D01*
X138540200Y-104753600D01*
X138540200Y-104878600D01*
X138415200Y-104878600D01*
X138290200Y-104878600D01*
X138290200Y-104753600D01*
X138290200Y-104628600D01*
X138415200Y-104628600D01*
G37*
G36*
X138040200Y-104378600D02*
G01*
X138290200Y-104378600D01*
X138290200Y-104503600D01*
X138290200Y-104628600D01*
X138040200Y-104628600D01*
X137790200Y-104628600D01*
X137790200Y-104503600D01*
X137790200Y-104378600D01*
X138040200Y-104378600D01*
G37*
G36*
X137790200Y-104253600D02*
G01*
X137790200Y-104378600D01*
X137665200Y-104378600D01*
X137540200Y-104378600D01*
X137540200Y-104253600D01*
X137540200Y-104128600D01*
X137665200Y-104128600D01*
X137790200Y-104128600D01*
X137790200Y-104253600D01*
G37*
G36*
X144415200Y-106128600D02*
G01*
X144540200Y-106128600D01*
X144540200Y-106753600D01*
X144540200Y-107378600D01*
X144415200Y-107378600D01*
X144290200Y-107378600D01*
X144290200Y-107003600D01*
X144290200Y-106628600D01*
X144165200Y-106628600D01*
X144040200Y-106628600D01*
X144040200Y-106503600D01*
X144040200Y-106378600D01*
X144165200Y-106378600D01*
X144290200Y-106378600D01*
X144290200Y-106253600D01*
X144290200Y-106128600D01*
X144415200Y-106128600D01*
G37*
G36*
X144165200Y-105878600D02*
G01*
X144290200Y-105878600D01*
X144290200Y-106003600D01*
X144290200Y-106128600D01*
X144165200Y-106128600D01*
X144040200Y-106128600D01*
X144040200Y-106003600D01*
X144040200Y-105878600D01*
X144165200Y-105878600D01*
G37*
G36*
X143915200Y-105378600D02*
G01*
X144040200Y-105378600D01*
X144040200Y-105628600D01*
X144040200Y-105878600D01*
X143915200Y-105878600D01*
X143790200Y-105878600D01*
X143790200Y-105628600D01*
X143790200Y-105378600D01*
X143915200Y-105378600D01*
G37*
G36*
X143665200Y-104878600D02*
G01*
X143790200Y-104878600D01*
X143790200Y-105128600D01*
X143790200Y-105378600D01*
X143665200Y-105378600D01*
X143540200Y-105378600D01*
X143540200Y-105128600D01*
X143540200Y-104878600D01*
X143665200Y-104878600D01*
G37*
G36*
X143415200Y-104378600D02*
G01*
X143540200Y-104378600D01*
X143540200Y-104628600D01*
X143540200Y-104878600D01*
X143415200Y-104878600D01*
X143290200Y-104878600D01*
X143290200Y-104628600D01*
X143290200Y-104378600D01*
X143415200Y-104378600D01*
G37*
G36*
X142415200Y-103628600D02*
G01*
X142790200Y-103628600D01*
X142790200Y-103753600D01*
X142790200Y-103878600D01*
X142665200Y-103878600D01*
X142540200Y-103878600D01*
X142540200Y-104003600D01*
X142540200Y-104128600D01*
X142415200Y-104128600D01*
X142290200Y-104128600D01*
X142290200Y-104378600D01*
X142290200Y-104628600D01*
X142165200Y-104628600D01*
X142040200Y-104628600D01*
X142040200Y-104128600D01*
X142040200Y-103628600D01*
X142415200Y-103628600D01*
G37*
G36*
X143165200Y-104128600D02*
G01*
X143290200Y-104128600D01*
X143290200Y-104253600D01*
X143290200Y-104378600D01*
X143165200Y-104378600D01*
X143040200Y-104378600D01*
X143040200Y-104253600D01*
X143040200Y-104128600D01*
X143165200Y-104128600D01*
G37*
G36*
X142915200Y-103878600D02*
G01*
X143040200Y-103878600D01*
X143040200Y-104003600D01*
X143040200Y-104128600D01*
X142915200Y-104128600D01*
X142790200Y-104128600D01*
X142790200Y-104003600D01*
X142790200Y-103878600D01*
X142915200Y-103878600D01*
G37*
G36*
X141915200Y-103128600D02*
G01*
X142040200Y-103128600D01*
X142040200Y-103378600D01*
X142040200Y-103628600D01*
X141915200Y-103628600D01*
X141790200Y-103628600D01*
X141790200Y-103378600D01*
X141790200Y-103128600D01*
X141915200Y-103128600D01*
G37*
G36*
X141665200Y-102628600D02*
G01*
X141790200Y-102628600D01*
X141790200Y-102878600D01*
X141790200Y-103128600D01*
X141665200Y-103128600D01*
X141540200Y-103128600D01*
X141540200Y-102878600D01*
X141540200Y-102628600D01*
X141665200Y-102628600D01*
G37*
G36*
X141415200Y-102128600D02*
G01*
X141540200Y-102128600D01*
X141540200Y-102378600D01*
X141540200Y-102628600D01*
X141415200Y-102628600D01*
X141290200Y-102628600D01*
X141290200Y-102378600D01*
X141290200Y-102128600D01*
X141415200Y-102128600D01*
G37*
G36*
X141165200Y-101628600D02*
G01*
X141290200Y-101628600D01*
X141290200Y-101878600D01*
X141290200Y-102128600D01*
X141165200Y-102128600D01*
X141040200Y-102128600D01*
X141040200Y-101878600D01*
X141040200Y-101628600D01*
X141165200Y-101628600D01*
G37*
G36*
X140915200Y-101378600D02*
G01*
X141040200Y-101378600D01*
X141040200Y-101503600D01*
X141040200Y-101628600D01*
X140915200Y-101628600D01*
X140790200Y-101628600D01*
X140790200Y-101503600D01*
X140790200Y-101378600D01*
X140915200Y-101378600D01*
G37*
G36*
X140790200Y-101253600D02*
G01*
X140790200Y-101378600D01*
X140415200Y-101378600D01*
X140040200Y-101378600D01*
X140040200Y-101253600D01*
X140040200Y-101128600D01*
X140415200Y-101128600D01*
X140790200Y-101128600D01*
X140790200Y-101253600D01*
G37*
G36*
X141665200Y-104378600D02*
G01*
X141790200Y-104378600D01*
X141790200Y-104503600D01*
X141790200Y-104628600D01*
X141665200Y-104628600D01*
X141540200Y-104628600D01*
X141540200Y-104753600D01*
X141540200Y-104878600D01*
X141665200Y-104878600D01*
X141790200Y-104878600D01*
X141790200Y-104753600D01*
X141790200Y-104628600D01*
X141915200Y-104628600D01*
X142040200Y-104628600D01*
X142040200Y-104753600D01*
X142040200Y-104878600D01*
X141915200Y-104878600D01*
X141790200Y-104878600D01*
X141790200Y-105003600D01*
X141790200Y-105128600D01*
X141665200Y-105128600D01*
X141540200Y-105128600D01*
X141540200Y-105003600D01*
X141540200Y-104878600D01*
X141415200Y-104878600D01*
X141290200Y-104878600D01*
X141290200Y-104753600D01*
X141290200Y-104628600D01*
X141415200Y-104628600D01*
X141540200Y-104628600D01*
X141540200Y-104503600D01*
X141540200Y-104378600D01*
X141665200Y-104378600D01*
G37*
G36*
X141415200Y-104128600D02*
G01*
X141540200Y-104128600D01*
X141540200Y-104253600D01*
X141540200Y-104378600D01*
X141415200Y-104378600D01*
X141290200Y-104378600D01*
X141290200Y-104503600D01*
X141290200Y-104628600D01*
X141165200Y-104628600D01*
X141040200Y-104628600D01*
X141040200Y-104503600D01*
X141040200Y-104378600D01*
X141165200Y-104378600D01*
X141290200Y-104378600D01*
X141290200Y-104253600D01*
X141290200Y-104128600D01*
X141415200Y-104128600D01*
G37*
G36*
X141165200Y-103878600D02*
G01*
X141290200Y-103878600D01*
X141290200Y-104003600D01*
X141290200Y-104128600D01*
X141165200Y-104128600D01*
X141040200Y-104128600D01*
X141040200Y-104253600D01*
X141040200Y-104378600D01*
X140915200Y-104378600D01*
X140790200Y-104378600D01*
X140790200Y-104253600D01*
X140790200Y-104128600D01*
X140915200Y-104128600D01*
X141040200Y-104128600D01*
X141040200Y-104003600D01*
X141040200Y-103878600D01*
X141165200Y-103878600D01*
G37*
G36*
X140915200Y-103628600D02*
G01*
X141040200Y-103628600D01*
X141040200Y-103753600D01*
X141040200Y-103878600D01*
X140915200Y-103878600D01*
X140790200Y-103878600D01*
X140790200Y-104003600D01*
X140790200Y-104128600D01*
X140665200Y-104128600D01*
X140540200Y-104128600D01*
X140540200Y-104003600D01*
X140540200Y-103878600D01*
X140665200Y-103878600D01*
X140790200Y-103878600D01*
X140790200Y-103753600D01*
X140790200Y-103628600D01*
X140915200Y-103628600D01*
G37*
G36*
X140665200Y-103128600D02*
G01*
X140790200Y-103128600D01*
X140790200Y-103378600D01*
X140790200Y-103628600D01*
X140665200Y-103628600D01*
X140540200Y-103628600D01*
X140540200Y-103753600D01*
X140540200Y-103878600D01*
X140415200Y-103878600D01*
X140290200Y-103878600D01*
X140290200Y-103753600D01*
X140290200Y-103628600D01*
X140415200Y-103628600D01*
X140540200Y-103628600D01*
X140540200Y-103378600D01*
X140540200Y-103128600D01*
X140665200Y-103128600D01*
G37*
G36*
X140415200Y-102628600D02*
G01*
X140540200Y-102628600D01*
X140540200Y-102878600D01*
X140540200Y-103128600D01*
X140415200Y-103128600D01*
X140290200Y-103128600D01*
X140290200Y-103378600D01*
X140290200Y-103628600D01*
X140165200Y-103628600D01*
X140040200Y-103628600D01*
X140040200Y-103378600D01*
X140040200Y-103128600D01*
X140165200Y-103128600D01*
X140290200Y-103128600D01*
X140290200Y-102878600D01*
X140290200Y-102628600D01*
X140415200Y-102628600D01*
G37*
G36*
X140040200Y-102878600D02*
G01*
X140040200Y-103128600D01*
X139915200Y-103128600D01*
X139790200Y-103128600D01*
X139790200Y-102878600D01*
X139790200Y-102628600D01*
X139915200Y-102628600D01*
X140040200Y-102628600D01*
X140040200Y-102878600D01*
G37*
G36*
X140290200Y-102503600D02*
G01*
X140290200Y-102628600D01*
X140165200Y-102628600D01*
X140040200Y-102628600D01*
X140040200Y-102503600D01*
X140040200Y-102378600D01*
X140165200Y-102378600D01*
X140290200Y-102378600D01*
X140290200Y-102503600D01*
G37*
G36*
X140415200Y-104878600D02*
G01*
X140540200Y-104878600D01*
X140540200Y-105003600D01*
X140540200Y-105128600D01*
X140415200Y-105128600D01*
X140290200Y-105128600D01*
X140290200Y-105253600D01*
X140290200Y-105378600D01*
X140415200Y-105378600D01*
X140540200Y-105378600D01*
X140540200Y-105253600D01*
X140540200Y-105128600D01*
X140665200Y-105128600D01*
X140790200Y-105128600D01*
X140790200Y-105253600D01*
X140790200Y-105378600D01*
X140665200Y-105378600D01*
X140540200Y-105378600D01*
X140540200Y-105503600D01*
X140540200Y-105628600D01*
X140415200Y-105628600D01*
X140290200Y-105628600D01*
X140290200Y-105503600D01*
X140290200Y-105378600D01*
X140165200Y-105378600D01*
X140040200Y-105378600D01*
X140040200Y-105253600D01*
X140040200Y-105128600D01*
X140165200Y-105128600D01*
X140290200Y-105128600D01*
X140290200Y-105003600D01*
X140290200Y-104878600D01*
X140415200Y-104878600D01*
G37*
G36*
X140165200Y-104628600D02*
G01*
X140290200Y-104628600D01*
X140290200Y-104753600D01*
X140290200Y-104878600D01*
X140165200Y-104878600D01*
X140040200Y-104878600D01*
X140040200Y-105003600D01*
X140040200Y-105128600D01*
X139915200Y-105128600D01*
X139790200Y-105128600D01*
X139790200Y-105003600D01*
X139790200Y-104878600D01*
X139915200Y-104878600D01*
X140040200Y-104878600D01*
X140040200Y-104753600D01*
X140040200Y-104628600D01*
X140165200Y-104628600D01*
G37*
G36*
X139915200Y-104378600D02*
G01*
X140040200Y-104378600D01*
X140040200Y-104503600D01*
X140040200Y-104628600D01*
X139915200Y-104628600D01*
X139790200Y-104628600D01*
X139790200Y-104753600D01*
X139790200Y-104878600D01*
X139665200Y-104878600D01*
X139540200Y-104878600D01*
X139540200Y-104753600D01*
X139540200Y-104628600D01*
X139665200Y-104628600D01*
X139790200Y-104628600D01*
X139790200Y-104503600D01*
X139790200Y-104378600D01*
X139915200Y-104378600D01*
G37*
G36*
X139665200Y-104128600D02*
G01*
X139790200Y-104128600D01*
X139790200Y-104253600D01*
X139790200Y-104378600D01*
X139665200Y-104378600D01*
X139540200Y-104378600D01*
X139540200Y-104503600D01*
X139540200Y-104628600D01*
X139415200Y-104628600D01*
X139290200Y-104628600D01*
X139290200Y-104503600D01*
X139290200Y-104378600D01*
X139415200Y-104378600D01*
X139540200Y-104378600D01*
X139540200Y-104253600D01*
X139540200Y-104128600D01*
X139665200Y-104128600D01*
G37*
G36*
X139415200Y-103878600D02*
G01*
X139540200Y-103878600D01*
X139540200Y-104003600D01*
X139540200Y-104128600D01*
X139415200Y-104128600D01*
X139290200Y-104128600D01*
X139290200Y-104253600D01*
X139290200Y-104378600D01*
X139165200Y-104378600D01*
X139040200Y-104378600D01*
X139040200Y-104253600D01*
X139040200Y-104128600D01*
X139165200Y-104128600D01*
X139290200Y-104128600D01*
X139290200Y-104003600D01*
X139290200Y-103878600D01*
X139415200Y-103878600D01*
G37*
G36*
X139165200Y-103628600D02*
G01*
X139290200Y-103628600D01*
X139290200Y-103753600D01*
X139290200Y-103878600D01*
X139165200Y-103878600D01*
X139040200Y-103878600D01*
X139040200Y-104003600D01*
X139040200Y-104128600D01*
X138915200Y-104128600D01*
X138790200Y-104128600D01*
X138790200Y-104003600D01*
X138790200Y-103878600D01*
X138915200Y-103878600D01*
X139040200Y-103878600D01*
X139040200Y-103753600D01*
X139040200Y-103628600D01*
X139165200Y-103628600D01*
G37*
G36*
X138790200Y-103753600D02*
G01*
X138790200Y-103878600D01*
X138665200Y-103878600D01*
X138540200Y-103878600D01*
X138540200Y-103753600D01*
X138540200Y-103628600D01*
X138665200Y-103628600D01*
X138790200Y-103628600D01*
X138790200Y-103753600D01*
G37*
G36*
X138915200Y-103128600D02*
G01*
X139040200Y-103128600D01*
X139040200Y-103378600D01*
X139040200Y-103628600D01*
X138915200Y-103628600D01*
X138790200Y-103628600D01*
X138790200Y-103378600D01*
X138790200Y-103128600D01*
X138915200Y-103128600D01*
G37*
G36*
X138790200Y-102878600D02*
G01*
X138790200Y-103128600D01*
X138665200Y-103128600D01*
X138540200Y-103128600D01*
X138540200Y-102878600D01*
X138540200Y-102628600D01*
X138665200Y-102628600D01*
X138790200Y-102628600D01*
X138790200Y-102878600D01*
G37*
G36*
X141790200Y-108378600D02*
G01*
X142040200Y-108378600D01*
X142040200Y-108503600D01*
X142040200Y-108628600D01*
X142665200Y-108628600D01*
X143290200Y-108628600D01*
X143290200Y-108503600D01*
X143290200Y-108378600D01*
X143540200Y-108378600D01*
X143790200Y-108378600D01*
X143790200Y-108503600D01*
X143790200Y-108628600D01*
X143540200Y-108628600D01*
X143290200Y-108628600D01*
X143290200Y-108753600D01*
X143290200Y-108878600D01*
X142665200Y-108878600D01*
X142040200Y-108878600D01*
X142040200Y-108753600D01*
X142040200Y-108628600D01*
X141790200Y-108628600D01*
X141540200Y-108628600D01*
X141540200Y-108503600D01*
X141540200Y-108378600D01*
X141790200Y-108378600D01*
G37*
G36*
X141290200Y-108128600D02*
G01*
X141540200Y-108128600D01*
X141540200Y-108253600D01*
X141540200Y-108378600D01*
X141290200Y-108378600D01*
X141040200Y-108378600D01*
X141040200Y-108253600D01*
X141040200Y-108128600D01*
X141290200Y-108128600D01*
G37*
G36*
X140915200Y-107878600D02*
G01*
X141040200Y-107878600D01*
X141040200Y-108003600D01*
X141040200Y-108128600D01*
X140915200Y-108128600D01*
X140790200Y-108128600D01*
X140790200Y-108003600D01*
X140790200Y-107878600D01*
X140915200Y-107878600D01*
G37*
G36*
X140665200Y-107628600D02*
G01*
X140790200Y-107628600D01*
X140790200Y-107753600D01*
X140790200Y-107878600D01*
X140665200Y-107878600D01*
X140540200Y-107878600D01*
X140540200Y-107753600D01*
X140540200Y-107628600D01*
X140665200Y-107628600D01*
G37*
G36*
X140415200Y-107378600D02*
G01*
X140540200Y-107378600D01*
X140540200Y-107503600D01*
X140540200Y-107628600D01*
X140415200Y-107628600D01*
X140290200Y-107628600D01*
X140290200Y-107503600D01*
X140290200Y-107378600D01*
X140415200Y-107378600D01*
G37*
G36*
X140040200Y-107128600D02*
G01*
X140290200Y-107128600D01*
X140290200Y-107253600D01*
X140290200Y-107378600D01*
X140040200Y-107378600D01*
X139790200Y-107378600D01*
X139790200Y-107253600D01*
X139790200Y-107128600D01*
X140040200Y-107128600D01*
G37*
G36*
X139665200Y-106878600D02*
G01*
X139790200Y-106878600D01*
X139790200Y-107003600D01*
X139790200Y-107128600D01*
X139665200Y-107128600D01*
X139540200Y-107128600D01*
X139540200Y-107003600D01*
X139540200Y-106878600D01*
X139665200Y-106878600D01*
G37*
G36*
X141290200Y-105503600D02*
G01*
X141290200Y-105628600D01*
X141915200Y-105628600D01*
X142540200Y-105628600D01*
X142540200Y-105753600D01*
X142540200Y-105878600D01*
X141790200Y-105878600D01*
X141040200Y-105878600D01*
X141040200Y-106003600D01*
X141040200Y-106128600D01*
X140790200Y-106128600D01*
X140540200Y-106128600D01*
X140540200Y-106253600D01*
X140540200Y-106378600D01*
X140290200Y-106378600D01*
X140040200Y-106378600D01*
X140040200Y-106503600D01*
X140040200Y-106628600D01*
X139790200Y-106628600D01*
X139540200Y-106628600D01*
X139540200Y-106753600D01*
X139540200Y-106878600D01*
X139415200Y-106878600D01*
X139290200Y-106878600D01*
X139290200Y-106503600D01*
X139290200Y-106128600D01*
X139165200Y-106128600D01*
X139040200Y-106128600D01*
X139040200Y-106003600D01*
X139040200Y-105878600D01*
X139165200Y-105878600D01*
X139290200Y-105878600D01*
X139290200Y-106003600D01*
X139290200Y-106128600D01*
X139415200Y-106128600D01*
X139540200Y-106128600D01*
X139540200Y-106003600D01*
X139540200Y-105878600D01*
X139665200Y-105878600D01*
X139790200Y-105878600D01*
X139790200Y-106003600D01*
X139790200Y-106128600D01*
X140040200Y-106128600D01*
X140290200Y-106128600D01*
X140290200Y-106003600D01*
X140290200Y-105878600D01*
X140415200Y-105878600D01*
X140540200Y-105878600D01*
X140540200Y-105753600D01*
X140540200Y-105628600D01*
X140665200Y-105628600D01*
X140790200Y-105628600D01*
X140790200Y-105503600D01*
X140790200Y-105378600D01*
X141040200Y-105378600D01*
X141290200Y-105378600D01*
X141290200Y-105503600D01*
G37*
G36*
X138915200Y-105628600D02*
G01*
X139040200Y-105628600D01*
X139040200Y-105753600D01*
X139040200Y-105878600D01*
X138915200Y-105878600D01*
X138790200Y-105878600D01*
X138790200Y-105753600D01*
X138790200Y-105628600D01*
X138915200Y-105628600D01*
G37*
G36*
X138665200Y-105378600D02*
G01*
X138790200Y-105378600D01*
X138790200Y-105503600D01*
X138790200Y-105628600D01*
X138665200Y-105628600D01*
X138540200Y-105628600D01*
X138540200Y-105503600D01*
X138540200Y-105378600D01*
X138665200Y-105378600D01*
G37*
G36*
X138415200Y-105128600D02*
G01*
X138540200Y-105128600D01*
X138540200Y-105253600D01*
X138540200Y-105378600D01*
X138415200Y-105378600D01*
X138290200Y-105378600D01*
X138290200Y-105253600D01*
X138290200Y-105128600D01*
X138415200Y-105128600D01*
G37*
G36*
X138040200Y-104878600D02*
G01*
X138290200Y-104878600D01*
X138290200Y-105003600D01*
X138290200Y-105128600D01*
X138040200Y-105128600D01*
X137790200Y-105128600D01*
X137790200Y-105003600D01*
X137790200Y-104878600D01*
X138040200Y-104878600D01*
G37*
G36*
X137540200Y-104628600D02*
G01*
X137790200Y-104628600D01*
X137790200Y-104753600D01*
X137790200Y-104878600D01*
X137540200Y-104878600D01*
X137290200Y-104878600D01*
X137290200Y-104753600D01*
X137290200Y-104628600D01*
X137540200Y-104628600D01*
G37*
G36*
X137165200Y-104378600D02*
G01*
X137290200Y-104378600D01*
X137290200Y-104503600D01*
X137290200Y-104628600D01*
X137165200Y-104628600D01*
X137040200Y-104628600D01*
X137040200Y-104503600D01*
X137040200Y-104378600D01*
X137165200Y-104378600D01*
G37*
G36*
X137040200Y-103753600D02*
G01*
X137040200Y-103878600D01*
X137290200Y-103878600D01*
X137540200Y-103878600D01*
X137540200Y-104003600D01*
X137540200Y-104128600D01*
X137290200Y-104128600D01*
X137040200Y-104128600D01*
X137040200Y-104253600D01*
X137040200Y-104378600D01*
X136915200Y-104378600D01*
X136790200Y-104378600D01*
X136790200Y-104003600D01*
X136790200Y-103628600D01*
X136915200Y-103628600D01*
X137040200Y-103628600D01*
X137040200Y-103753600D01*
G37*
G36*
X116965951Y-82240455D02*
G01*
X116965951Y-83279630D01*
X111963200Y-83279630D01*
X106960448Y-83279630D01*
X106960448Y-82240455D01*
X106960448Y-81201281D01*
X111963200Y-81201281D01*
X116965951Y-81201281D01*
X116965951Y-82240455D01*
G37*
G36*
X116965951Y-86443134D02*
G01*
X116965951Y-87473113D01*
X111963200Y-87473113D01*
X106960448Y-87473113D01*
X106960448Y-86443134D01*
X106960448Y-85413156D01*
X111963200Y-85413156D01*
X116965951Y-85413156D01*
X116965951Y-86443134D01*
G37*
G36*
X112000803Y-84468781D02*
G01*
X112029490Y-84488218D01*
X112027334Y-84523863D01*
X112019363Y-84544818D01*
X112014436Y-84568635D01*
X112000397Y-84576164D01*
X111963200Y-84579364D01*
X111926462Y-84576260D01*
X111911964Y-84568635D01*
X111910638Y-84557335D01*
X111899474Y-84524926D01*
X111891573Y-84495815D01*
X111905886Y-84476682D01*
X111951028Y-84467180D01*
X112000803Y-84468781D01*
G37*
G36*
X112174270Y-84272791D02*
G01*
X112155845Y-84305010D01*
X112125064Y-84331934D01*
X112079760Y-84346110D01*
X112037068Y-84341208D01*
X112010716Y-84316172D01*
X112006866Y-84305175D01*
X112006433Y-84282759D01*
X112027407Y-84268070D01*
X112043342Y-84263627D01*
X112147125Y-84263627D01*
X112156321Y-84272823D01*
X112165517Y-84263627D01*
X112156321Y-84254430D01*
X112147125Y-84263627D01*
X112043342Y-84263627D01*
X112077219Y-84254181D01*
X112137928Y-84239803D01*
X112080405Y-84237921D01*
X112066252Y-84237923D01*
X112014561Y-84251978D01*
X111990041Y-84290254D01*
X111991710Y-84354034D01*
X111994093Y-84365257D01*
X112006897Y-84400454D01*
X112020394Y-84409520D01*
X112025885Y-84407259D01*
X112036770Y-84418877D01*
X112033202Y-84424594D01*
X112003817Y-84434474D01*
X111954004Y-84438355D01*
X111929288Y-84437658D01*
X111887682Y-84432219D01*
X111871238Y-84423148D01*
X111871258Y-84422734D01*
X111887949Y-84414724D01*
X111926415Y-84416039D01*
X111951161Y-84418647D01*
X111975759Y-84411962D01*
X111981592Y-84385265D01*
X111977669Y-84355484D01*
X111961597Y-84350085D01*
X111932026Y-84378580D01*
X111919155Y-84394006D01*
X111914254Y-84395588D01*
X111927293Y-84367057D01*
X111937574Y-84338062D01*
X111934490Y-84286217D01*
X111903243Y-84250425D01*
X111848641Y-84238543D01*
X111816929Y-84240401D01*
X111809100Y-84243689D01*
X111834453Y-84249501D01*
X111879491Y-84263627D01*
X111888220Y-84266365D01*
X111913942Y-84291462D01*
X111905997Y-84321244D01*
X111901289Y-84326309D01*
X111859456Y-84344979D01*
X111811134Y-84337653D01*
X111771494Y-84306047D01*
X111758924Y-84286669D01*
X111754247Y-84263627D01*
X111760883Y-84263627D01*
X111770079Y-84272823D01*
X111779275Y-84263627D01*
X111770079Y-84254430D01*
X111760883Y-84263627D01*
X111754247Y-84263627D01*
X111753636Y-84260616D01*
X111773302Y-84232477D01*
X111817000Y-84204871D01*
X111872504Y-84203889D01*
X111923460Y-84233083D01*
X111946804Y-84253898D01*
X111967721Y-84255452D01*
X111999067Y-84233083D01*
X112035939Y-84209589D01*
X112090398Y-84202547D01*
X112145654Y-84231440D01*
X112166798Y-84250404D01*
X112171211Y-84263627D01*
X112174270Y-84272791D01*
G37*
G36*
X112112877Y-83760955D02*
G01*
X112105035Y-83832093D01*
X112100879Y-83881359D01*
X112101224Y-83901490D01*
X112101300Y-83901547D01*
X112111219Y-83887345D01*
X112133549Y-83846289D01*
X112164799Y-83785053D01*
X112187839Y-83785053D01*
X112190040Y-83806880D01*
X112195572Y-83809758D01*
X112202302Y-83794619D01*
X112200975Y-83784882D01*
X112190040Y-83782357D01*
X112187839Y-83785053D01*
X112164799Y-83785053D01*
X112165047Y-83784567D01*
X112182692Y-83748637D01*
X112202302Y-83748637D01*
X112211498Y-83757834D01*
X112220694Y-83748637D01*
X112211498Y-83739441D01*
X112202302Y-83748637D01*
X112182692Y-83748637D01*
X112202467Y-83708369D01*
X112204643Y-83703874D01*
X112241819Y-83629945D01*
X112273300Y-83572498D01*
X112295822Y-83537162D01*
X112306123Y-83529565D01*
X112306332Y-83530350D01*
X112302058Y-83556856D01*
X112286799Y-83609720D01*
X112262827Y-83681665D01*
X112238510Y-83748637D01*
X112232419Y-83765412D01*
X112221480Y-83794619D01*
X112204827Y-83839080D01*
X112181786Y-83903124D01*
X112170398Y-83940725D01*
X112169779Y-83956246D01*
X112179043Y-83954052D01*
X112197305Y-83938504D01*
X112207354Y-83928257D01*
X112245164Y-83877410D01*
X112275078Y-83822207D01*
X112294264Y-83822207D01*
X112303461Y-83831404D01*
X112312657Y-83822207D01*
X112303461Y-83813011D01*
X112294264Y-83822207D01*
X112275078Y-83822207D01*
X112276927Y-83818794D01*
X112285694Y-83800582D01*
X112320339Y-83747438D01*
X112356759Y-83711392D01*
X112391238Y-83681369D01*
X112414338Y-83645834D01*
X112414378Y-83645707D01*
X112431935Y-83616774D01*
X112450912Y-83613072D01*
X112459797Y-83636872D01*
X112453473Y-83658394D01*
X112430606Y-83695592D01*
X112399540Y-83733136D01*
X112369332Y-83760405D01*
X112349036Y-83766779D01*
X112341352Y-83764773D01*
X112320282Y-83778768D01*
X112315642Y-83789372D01*
X112328207Y-83787179D01*
X112337255Y-83782427D01*
X112349442Y-83782812D01*
X112349157Y-83785791D01*
X112338568Y-83818054D01*
X112336775Y-83822207D01*
X112316895Y-83868259D01*
X112289884Y-83924367D01*
X112263282Y-83974338D01*
X112242837Y-84006132D01*
X112236998Y-84014999D01*
X112249754Y-84007205D01*
X112283194Y-83979304D01*
X112333300Y-83934814D01*
X112367834Y-83934814D01*
X112368136Y-83938042D01*
X112380119Y-83938166D01*
X112406965Y-83909572D01*
X112417240Y-83896245D01*
X112421807Y-83886721D01*
X112400021Y-83902627D01*
X112380403Y-83919461D01*
X112367834Y-83934814D01*
X112333300Y-83934814D01*
X112333870Y-83934308D01*
X112398333Y-83875228D01*
X112473136Y-83805073D01*
X112512999Y-83768521D01*
X112555815Y-83734052D01*
X112576137Y-83724815D01*
X112574536Y-83738912D01*
X112551584Y-83774445D01*
X112507851Y-83829518D01*
X112457547Y-83886721D01*
X112443907Y-83902231D01*
X112442785Y-83903461D01*
X112385072Y-83967651D01*
X112337852Y-84021962D01*
X112305969Y-84060700D01*
X112294264Y-84078169D01*
X112294517Y-84079951D01*
X112310390Y-84080444D01*
X112345724Y-84061891D01*
X112393211Y-84028769D01*
X112394899Y-84027375D01*
X112441404Y-84027375D01*
X112442319Y-84032108D01*
X112456522Y-84027091D01*
X112489133Y-83992338D01*
X112524170Y-83950955D01*
X112482787Y-83985992D01*
X112453808Y-84012354D01*
X112441404Y-84027375D01*
X112394899Y-84027375D01*
X112445538Y-83985552D01*
X112467707Y-83967188D01*
X112520719Y-83931751D01*
X112565090Y-83912166D01*
X112605617Y-83897706D01*
X112648432Y-83871962D01*
X112671509Y-83856867D01*
X112692436Y-83855595D01*
X112696008Y-83863537D01*
X112684428Y-83890075D01*
X112651636Y-83920982D01*
X112605723Y-83947666D01*
X112600187Y-83950955D01*
X112569498Y-83969187D01*
X112516544Y-84008588D01*
X112460485Y-84056215D01*
X112364959Y-84143083D01*
X112462957Y-84108861D01*
X112495573Y-84097260D01*
X112580121Y-84065989D01*
X112658196Y-84035787D01*
X112698384Y-84020259D01*
X112758911Y-84000129D01*
X112789981Y-83994816D01*
X112793499Y-84002414D01*
X112771369Y-84021017D01*
X112725497Y-84048722D01*
X112657790Y-84083623D01*
X112570151Y-84123815D01*
X112498179Y-84155508D01*
X112421644Y-84190841D01*
X112376580Y-84214568D01*
X112361348Y-84227772D01*
X112374307Y-84231535D01*
X112413815Y-84226938D01*
X112425222Y-84224960D01*
X112495918Y-84209100D01*
X112565105Y-84189147D01*
X112582236Y-84184040D01*
X112644712Y-84173026D01*
X112696204Y-84173884D01*
X112741641Y-84175662D01*
X112788614Y-84163671D01*
X112814236Y-84153755D01*
X112827646Y-84158142D01*
X112819202Y-84181161D01*
X112788716Y-84204210D01*
X112784981Y-84207034D01*
X112736603Y-84217379D01*
X112727586Y-84217775D01*
X112681546Y-84225565D01*
X112621594Y-84240875D01*
X112607386Y-84245234D01*
X112557667Y-84260488D01*
X112499701Y-84281185D01*
X112457634Y-84299749D01*
X112441404Y-84312962D01*
X112454041Y-84318181D01*
X112496723Y-84323268D01*
X112562424Y-84326725D01*
X112643721Y-84328000D01*
X112701856Y-84328601D01*
X112778824Y-84332021D01*
X112828451Y-84338094D01*
X112846038Y-84346393D01*
X112839778Y-84351574D01*
X112802900Y-84358861D01*
X112737381Y-84363865D01*
X112648319Y-84366078D01*
X112585454Y-84367183D01*
X112507273Y-84370612D01*
X112446897Y-84375679D01*
X112413815Y-84381749D01*
X112395384Y-84389202D01*
X112387472Y-84397852D01*
X112413829Y-84407829D01*
X112432333Y-84412399D01*
X112484795Y-84421265D01*
X112547770Y-84428779D01*
X112581236Y-84433131D01*
X112647771Y-84447551D01*
X112648177Y-84447639D01*
X112698582Y-84465780D01*
X112708202Y-84469642D01*
X112746917Y-84485185D01*
X112789948Y-84493532D01*
X112812225Y-84497577D01*
X112827646Y-84514317D01*
X112825353Y-84520525D01*
X112798810Y-84527329D01*
X112740282Y-84521995D01*
X112735142Y-84521230D01*
X112670790Y-84512457D01*
X112596945Y-84503455D01*
X112522804Y-84495205D01*
X112457563Y-84488685D01*
X112410418Y-84484875D01*
X112390564Y-84484754D01*
X112399187Y-84490343D01*
X112435092Y-84508096D01*
X112492682Y-84534874D01*
X112565292Y-84567518D01*
X112645860Y-84604454D01*
X112720337Y-84641832D01*
X112769406Y-84670683D01*
X112790164Y-84689268D01*
X112779705Y-84695850D01*
X112759369Y-84690780D01*
X112711010Y-84674933D01*
X112642907Y-84650880D01*
X112562721Y-84621257D01*
X112541230Y-84613232D01*
X112450950Y-84581573D01*
X112386578Y-84562581D01*
X112349810Y-84556336D01*
X112342342Y-84562913D01*
X112365871Y-84582391D01*
X112422094Y-84614847D01*
X112463298Y-84638856D01*
X112535671Y-84688346D01*
X112595152Y-84737233D01*
X112611419Y-84751995D01*
X112625059Y-84764373D01*
X112662472Y-84794492D01*
X112683433Y-84806204D01*
X112687686Y-84806964D01*
X112698899Y-84825836D01*
X112689037Y-84836798D01*
X112658519Y-84832789D01*
X112617512Y-84814045D01*
X112576503Y-84784139D01*
X112575835Y-84783536D01*
X112538835Y-84756837D01*
X112481124Y-84722050D01*
X112414898Y-84686540D01*
X112374956Y-84666444D01*
X112441404Y-84666444D01*
X112443880Y-84669803D01*
X112468298Y-84687521D01*
X112510376Y-84712909D01*
X112579348Y-84751995D01*
X112527743Y-84705530D01*
X112526685Y-84704580D01*
X112484342Y-84672060D01*
X112453398Y-84658208D01*
X112441404Y-84666444D01*
X112374956Y-84666444D01*
X112292923Y-84625171D01*
X112443237Y-84789820D01*
X112451650Y-84799260D01*
X112487619Y-84839617D01*
X112538502Y-84901100D01*
X112568839Y-84943727D01*
X112578050Y-84965600D01*
X112565557Y-84964821D01*
X112530778Y-84939491D01*
X112473136Y-84887713D01*
X112421888Y-84839426D01*
X112354328Y-84776351D01*
X112328213Y-84752232D01*
X112367974Y-84752232D01*
X112383881Y-84774018D01*
X112389614Y-84781139D01*
X112414065Y-84804766D01*
X112423012Y-84799260D01*
X112416298Y-84789762D01*
X112390825Y-84767073D01*
X112377498Y-84756799D01*
X112367974Y-84752232D01*
X112328213Y-84752232D01*
X112296841Y-84723258D01*
X112216652Y-84649868D01*
X112254114Y-84724669D01*
X112263984Y-84743294D01*
X112295547Y-84793224D01*
X112323483Y-84825827D01*
X112339410Y-84843900D01*
X112368916Y-84890503D01*
X112385151Y-84922831D01*
X112398165Y-84948746D01*
X112404907Y-84962540D01*
X112418221Y-84989778D01*
X112443117Y-85029820D01*
X112460650Y-85045307D01*
X112467420Y-85046770D01*
X112468962Y-85063749D01*
X112454743Y-85073155D01*
X112423891Y-85063878D01*
X112388341Y-85032571D01*
X112356322Y-84984986D01*
X112348713Y-84971157D01*
X112343009Y-84962540D01*
X112367834Y-84962540D01*
X112377030Y-84971737D01*
X112386227Y-84962540D01*
X112377030Y-84953344D01*
X112367834Y-84962540D01*
X112343009Y-84962540D01*
X112311815Y-84915413D01*
X112268767Y-84861217D01*
X112254931Y-84845359D01*
X112230166Y-84815401D01*
X112266676Y-84815401D01*
X112312657Y-84870578D01*
X112321387Y-84881092D01*
X112349574Y-84915651D01*
X112363236Y-84933419D01*
X112364508Y-84934824D01*
X112367834Y-84922831D01*
X112367373Y-84919964D01*
X112350621Y-84893968D01*
X112317255Y-84859990D01*
X112266676Y-84815401D01*
X112230166Y-84815401D01*
X112212272Y-84793754D01*
X112179828Y-84750862D01*
X112168730Y-84734963D01*
X112157333Y-84721148D01*
X112160388Y-84734561D01*
X112177625Y-84778616D01*
X112180269Y-84785240D01*
X112212232Y-84868752D01*
X112223150Y-84899252D01*
X112239222Y-84944148D01*
X112242818Y-84954192D01*
X112269676Y-85034301D01*
X112290455Y-85101823D01*
X112302806Y-85149498D01*
X112304379Y-85170070D01*
X112303060Y-85170070D01*
X112288776Y-85151261D01*
X112262858Y-85106269D01*
X112228503Y-85040881D01*
X112188905Y-84960887D01*
X112180684Y-84944148D01*
X112202302Y-84944148D01*
X112211498Y-84953344D01*
X112220694Y-84944148D01*
X112211498Y-84934952D01*
X112202302Y-84944148D01*
X112180684Y-84944148D01*
X112145778Y-84873075D01*
X112143635Y-84869029D01*
X112175606Y-84869029D01*
X112176892Y-84888015D01*
X112182828Y-84901385D01*
X112196391Y-84915964D01*
X112202302Y-84899252D01*
X112201648Y-84894257D01*
X112184120Y-84870708D01*
X112175606Y-84869029D01*
X112143635Y-84869029D01*
X112114839Y-84814670D01*
X112094525Y-84783576D01*
X112082740Y-84776592D01*
X112077390Y-84790515D01*
X112076850Y-84797823D01*
X112082716Y-84850427D01*
X112100105Y-84907714D01*
X112108097Y-84930643D01*
X112120792Y-84990129D01*
X112122873Y-84999879D01*
X112128732Y-85071463D01*
X112130138Y-85106238D01*
X112138119Y-85158669D01*
X112150803Y-85188768D01*
X112159971Y-85200963D01*
X112154482Y-85210839D01*
X112127288Y-85201236D01*
X112101345Y-85162591D01*
X112091140Y-85101404D01*
X112090732Y-85091327D01*
X112080722Y-85027018D01*
X112061751Y-84962540D01*
X112058515Y-84953970D01*
X112049570Y-84925756D01*
X112075129Y-84925756D01*
X112080239Y-84952011D01*
X112091566Y-84980575D01*
X112103061Y-84997081D01*
X112108765Y-84990129D01*
X112107197Y-84974215D01*
X112091947Y-84934952D01*
X112081872Y-84922448D01*
X112075129Y-84925756D01*
X112049570Y-84925756D01*
X112036187Y-84883547D01*
X112020045Y-84815401D01*
X112014820Y-84794401D01*
X112009469Y-84796125D01*
X112004199Y-84826824D01*
X111998586Y-84889093D01*
X111996160Y-84925756D01*
X111992205Y-84985531D01*
X111990833Y-85007320D01*
X111984160Y-85094276D01*
X111976851Y-85164749D01*
X111969702Y-85211985D01*
X111963509Y-85229231D01*
X111962205Y-85228261D01*
X111955794Y-85203469D01*
X111948700Y-85150247D01*
X111941697Y-85075350D01*
X111935559Y-84985531D01*
X111931989Y-84925756D01*
X111944807Y-84925756D01*
X111954004Y-84934952D01*
X111963200Y-84925756D01*
X111954004Y-84916559D01*
X111944807Y-84925756D01*
X111931989Y-84925756D01*
X111930006Y-84892546D01*
X111925078Y-84826136D01*
X111920264Y-84788427D01*
X111914695Y-84775289D01*
X111907501Y-84782592D01*
X111897813Y-84806204D01*
X111897494Y-84807073D01*
X111880499Y-84872695D01*
X111872637Y-84940141D01*
X111872552Y-84943184D01*
X111868560Y-84971737D01*
X111863129Y-85010590D01*
X111843649Y-85075732D01*
X111840015Y-85084731D01*
X111822985Y-85136903D01*
X111816060Y-85176300D01*
X111812584Y-85195559D01*
X111795736Y-85210839D01*
X111793013Y-85210434D01*
X111783137Y-85188243D01*
X111786858Y-85132671D01*
X111790045Y-85110673D01*
X111802811Y-85017579D01*
X111810344Y-84957276D01*
X111837306Y-84957276D01*
X111840167Y-85003924D01*
X111841886Y-85009142D01*
X111846660Y-85005198D01*
X111848578Y-84971737D01*
X111848400Y-84959258D01*
X111845498Y-84933826D01*
X111840167Y-84939550D01*
X111837306Y-84957276D01*
X111810344Y-84957276D01*
X111813523Y-84931831D01*
X111821364Y-84860692D01*
X111825520Y-84811426D01*
X111825175Y-84791296D01*
X111825154Y-84791274D01*
X111815604Y-84804834D01*
X111793708Y-84845407D01*
X111767044Y-84898167D01*
X111762702Y-84906759D01*
X111744534Y-84944148D01*
X111725822Y-84982657D01*
X111725304Y-84983741D01*
X111688146Y-85059098D01*
X111656278Y-85119311D01*
X111633076Y-85158294D01*
X111621915Y-85169964D01*
X111621101Y-85165936D01*
X111626937Y-85134669D01*
X111642435Y-85079751D01*
X111665039Y-85008973D01*
X111687366Y-84944148D01*
X111705705Y-84944148D01*
X111714902Y-84953344D01*
X111724098Y-84944148D01*
X111714902Y-84934952D01*
X111705705Y-84944148D01*
X111687366Y-84944148D01*
X111692195Y-84930126D01*
X111707496Y-84888601D01*
X111728027Y-84888601D01*
X111730229Y-84910428D01*
X111735761Y-84913306D01*
X111742490Y-84898167D01*
X111741163Y-84888430D01*
X111730229Y-84885905D01*
X111728027Y-84888601D01*
X111707496Y-84888601D01*
X111721351Y-84851000D01*
X111749951Y-84779388D01*
X111780596Y-84706589D01*
X111731738Y-84751799D01*
X111721534Y-84762131D01*
X111682032Y-84814510D01*
X111651341Y-84870578D01*
X111649473Y-84873991D01*
X111640706Y-84892203D01*
X111606061Y-84945348D01*
X111569641Y-84981393D01*
X111535162Y-85011417D01*
X111512062Y-85046952D01*
X111512022Y-85047078D01*
X111494465Y-85076012D01*
X111475487Y-85079713D01*
X111466603Y-85055914D01*
X111472927Y-85034392D01*
X111495794Y-84997194D01*
X111526860Y-84959650D01*
X111557068Y-84932380D01*
X111577364Y-84926006D01*
X111585048Y-84928013D01*
X111606118Y-84914018D01*
X111610758Y-84903414D01*
X111598192Y-84905607D01*
X111589144Y-84910359D01*
X111576958Y-84909973D01*
X111577243Y-84906995D01*
X111587832Y-84874731D01*
X111589625Y-84870578D01*
X111613743Y-84870578D01*
X111622939Y-84879774D01*
X111632135Y-84870578D01*
X111622939Y-84861382D01*
X111613743Y-84870578D01*
X111589625Y-84870578D01*
X111609505Y-84824526D01*
X111636516Y-84768418D01*
X111663117Y-84718448D01*
X111683562Y-84686653D01*
X111689402Y-84677786D01*
X111676646Y-84685581D01*
X111643206Y-84713481D01*
X111600763Y-84751167D01*
X111592530Y-84758477D01*
X111528067Y-84817558D01*
X111453264Y-84887713D01*
X111413400Y-84924264D01*
X111370585Y-84958734D01*
X111350263Y-84967971D01*
X111351864Y-84953874D01*
X111374816Y-84918340D01*
X111418549Y-84863268D01*
X111474836Y-84799260D01*
X111503388Y-84799260D01*
X111503690Y-84802488D01*
X111515673Y-84802612D01*
X111542519Y-84774018D01*
X111552794Y-84760691D01*
X111557361Y-84751167D01*
X111535575Y-84767073D01*
X111515957Y-84783907D01*
X111503388Y-84799260D01*
X111474836Y-84799260D01*
X111482492Y-84790554D01*
X111483615Y-84789324D01*
X111541327Y-84725134D01*
X111588547Y-84670823D01*
X111620431Y-84632086D01*
X111632135Y-84614616D01*
X111631882Y-84612834D01*
X111616010Y-84612342D01*
X111580675Y-84630894D01*
X111553473Y-84649868D01*
X111533189Y-84664017D01*
X111480861Y-84707233D01*
X111458692Y-84725597D01*
X111405680Y-84761035D01*
X111361310Y-84780619D01*
X111320783Y-84795079D01*
X111277968Y-84820824D01*
X111254891Y-84835919D01*
X111233964Y-84837190D01*
X111230392Y-84829248D01*
X111241971Y-84802711D01*
X111274764Y-84771803D01*
X111320676Y-84745119D01*
X111352371Y-84726289D01*
X111411426Y-84726289D01*
X111412341Y-84731022D01*
X111426544Y-84726005D01*
X111459154Y-84691252D01*
X111494192Y-84649868D01*
X111452809Y-84684906D01*
X111423829Y-84711268D01*
X111411426Y-84726289D01*
X111352371Y-84726289D01*
X111356901Y-84723598D01*
X111409856Y-84684198D01*
X111465915Y-84636570D01*
X111561440Y-84549702D01*
X111463443Y-84583924D01*
X111430827Y-84595525D01*
X111346279Y-84626797D01*
X111268203Y-84656998D01*
X111228016Y-84672527D01*
X111167488Y-84692656D01*
X111136418Y-84697970D01*
X111132901Y-84690372D01*
X111155031Y-84671768D01*
X111200902Y-84644063D01*
X111268610Y-84609162D01*
X111356248Y-84568970D01*
X111428220Y-84537278D01*
X111504756Y-84501945D01*
X111549820Y-84478217D01*
X111565052Y-84465013D01*
X111552093Y-84461251D01*
X111512584Y-84465848D01*
X111501178Y-84467825D01*
X111497117Y-84468736D01*
X111430482Y-84483686D01*
X111361294Y-84503638D01*
X111344164Y-84508745D01*
X111281687Y-84519759D01*
X111230196Y-84518901D01*
X111184759Y-84517123D01*
X111137786Y-84529115D01*
X111112164Y-84539030D01*
X111098754Y-84534643D01*
X111107197Y-84511625D01*
X111137583Y-84488652D01*
X111282517Y-84488652D01*
X111289196Y-84494280D01*
X111315752Y-84492510D01*
X111348722Y-84485224D01*
X111374641Y-84474300D01*
X111382092Y-84468736D01*
X111380877Y-84462379D01*
X111347052Y-84467972D01*
X111346992Y-84467986D01*
X111305809Y-84478637D01*
X111284211Y-84486924D01*
X111282517Y-84488652D01*
X111137583Y-84488652D01*
X111141419Y-84485752D01*
X111189797Y-84475406D01*
X111198813Y-84475011D01*
X111244854Y-84467220D01*
X111304806Y-84451910D01*
X111319015Y-84447551D01*
X111448211Y-84447551D01*
X111457407Y-84456748D01*
X111466603Y-84447551D01*
X111457407Y-84438355D01*
X111448211Y-84447551D01*
X111319015Y-84447551D01*
X111368733Y-84432298D01*
X111426699Y-84411601D01*
X111468765Y-84393037D01*
X111484996Y-84379823D01*
X111472359Y-84374605D01*
X111429677Y-84369517D01*
X111363976Y-84366060D01*
X111282679Y-84364785D01*
X111224544Y-84364184D01*
X111147576Y-84360765D01*
X111097948Y-84354692D01*
X111080361Y-84346393D01*
X111085378Y-84341667D01*
X111120069Y-84334069D01*
X111183078Y-84328705D01*
X111268884Y-84326167D01*
X111321748Y-84325177D01*
X111401744Y-84321855D01*
X111465758Y-84316987D01*
X111483425Y-84314286D01*
X111635150Y-84314286D01*
X111641896Y-84413289D01*
X111654348Y-84447551D01*
X111676193Y-84507655D01*
X111736117Y-84589668D01*
X111819745Y-84651616D01*
X111841236Y-84660021D01*
X111900371Y-84672507D01*
X111966885Y-84677388D01*
X111985623Y-84677014D01*
X112079864Y-84660198D01*
X112159371Y-84615270D01*
X112232358Y-84537913D01*
X112253299Y-84508519D01*
X112273585Y-84467185D01*
X112273819Y-84465944D01*
X112349442Y-84465944D01*
X112358638Y-84475140D01*
X112367834Y-84465944D01*
X112441404Y-84465944D01*
X112450600Y-84475140D01*
X112459313Y-84466428D01*
X112543071Y-84466428D01*
X112555184Y-84470150D01*
X112601859Y-84476039D01*
X112623964Y-84478043D01*
X112657735Y-84477127D01*
X112663973Y-84469642D01*
X112662731Y-84468568D01*
X112632903Y-84460317D01*
X112586284Y-84460464D01*
X112563533Y-84462885D01*
X112545866Y-84465944D01*
X112543071Y-84466428D01*
X112459313Y-84466428D01*
X112459797Y-84465944D01*
X112450600Y-84456748D01*
X112441404Y-84465944D01*
X112367834Y-84465944D01*
X112358638Y-84456748D01*
X112349442Y-84465944D01*
X112273819Y-84465944D01*
X112277281Y-84447551D01*
X112386227Y-84447551D01*
X112395423Y-84456748D01*
X112404619Y-84447551D01*
X112478189Y-84447551D01*
X112487385Y-84456748D01*
X112496581Y-84447551D01*
X112487385Y-84438355D01*
X112478189Y-84447551D01*
X112404619Y-84447551D01*
X112395423Y-84438355D01*
X112386227Y-84447551D01*
X112277281Y-84447551D01*
X112282856Y-84417932D01*
X112285068Y-84346393D01*
X112284233Y-84296664D01*
X112278345Y-84245234D01*
X112459797Y-84245234D01*
X112468993Y-84254430D01*
X112478189Y-84245234D01*
X112468993Y-84236038D01*
X112459797Y-84245234D01*
X112278345Y-84245234D01*
X112277887Y-84241233D01*
X112274377Y-84231900D01*
X112537505Y-84231900D01*
X112557578Y-84231328D01*
X112606936Y-84217645D01*
X112624668Y-84211668D01*
X112636952Y-84204210D01*
X112616133Y-84201368D01*
X112593450Y-84203093D01*
X112551759Y-84217645D01*
X112549155Y-84219363D01*
X112537505Y-84231900D01*
X112274377Y-84231900D01*
X112261913Y-84198758D01*
X112232358Y-84154872D01*
X112215270Y-84133423D01*
X112142615Y-84064775D01*
X112061600Y-84027014D01*
X111963200Y-84015466D01*
X111942608Y-84015869D01*
X111847176Y-84032445D01*
X111767746Y-84076647D01*
X111695445Y-84153033D01*
X111657876Y-84218356D01*
X111655866Y-84226842D01*
X111651509Y-84245234D01*
X111635150Y-84314286D01*
X111483425Y-84314286D01*
X111503388Y-84311234D01*
X111549369Y-84298134D01*
X111494192Y-84283818D01*
X111482045Y-84280894D01*
X111422047Y-84269495D01*
X111356719Y-84260304D01*
X111339113Y-84257919D01*
X111281690Y-84245234D01*
X111429818Y-84245234D01*
X111439014Y-84254430D01*
X111448211Y-84245234D01*
X111521781Y-84245234D01*
X111530977Y-84254430D01*
X111540173Y-84245234D01*
X111530977Y-84236038D01*
X111521781Y-84245234D01*
X111448211Y-84245234D01*
X111439014Y-84236038D01*
X111429818Y-84245234D01*
X111281690Y-84245234D01*
X111274959Y-84243747D01*
X111224287Y-84225180D01*
X111216086Y-84221905D01*
X111257722Y-84221905D01*
X111266060Y-84226827D01*
X111298597Y-84233252D01*
X111340833Y-84236238D01*
X111377426Y-84235004D01*
X111393033Y-84228774D01*
X111391414Y-84227089D01*
X111390462Y-84226842D01*
X111466603Y-84226842D01*
X111468535Y-84228774D01*
X111475799Y-84236038D01*
X111484996Y-84226842D01*
X111558566Y-84226842D01*
X111567762Y-84236038D01*
X111576958Y-84226842D01*
X111567762Y-84217645D01*
X111558566Y-84226842D01*
X111484996Y-84226842D01*
X111475799Y-84217645D01*
X111466603Y-84226842D01*
X111390462Y-84226842D01*
X111366486Y-84220619D01*
X111321011Y-84214641D01*
X111304493Y-84213431D01*
X111268064Y-84214607D01*
X111257722Y-84221905D01*
X111216086Y-84221905D01*
X111180340Y-84207630D01*
X111136452Y-84199253D01*
X111114175Y-84195209D01*
X111098754Y-84178469D01*
X111101047Y-84172260D01*
X111127589Y-84165456D01*
X111186118Y-84170791D01*
X111187028Y-84170927D01*
X111253089Y-84180036D01*
X111328137Y-84189217D01*
X111403077Y-84197513D01*
X111468816Y-84203971D01*
X111516260Y-84207636D01*
X111536314Y-84207554D01*
X111527842Y-84201903D01*
X111492010Y-84184307D01*
X111434367Y-84157912D01*
X111361585Y-84125838D01*
X111272452Y-84085456D01*
X111201697Y-84049774D01*
X111154896Y-84021773D01*
X111135433Y-84003484D01*
X111146695Y-83996936D01*
X111167031Y-84002006D01*
X111215389Y-84017853D01*
X111283493Y-84041905D01*
X111363679Y-84071529D01*
X111385170Y-84079553D01*
X111475449Y-84111213D01*
X111539822Y-84130204D01*
X111576590Y-84136450D01*
X111584058Y-84129872D01*
X111560529Y-84110394D01*
X111504305Y-84077938D01*
X111463101Y-84053930D01*
X111390729Y-84004440D01*
X111331248Y-83955553D01*
X111314981Y-83940791D01*
X111347052Y-83940791D01*
X111398657Y-83987256D01*
X111406847Y-83994442D01*
X111443722Y-84022397D01*
X111467629Y-84033721D01*
X111472083Y-84033610D01*
X111483716Y-84027381D01*
X111465678Y-84010146D01*
X111416024Y-83979876D01*
X111347052Y-83940791D01*
X111314981Y-83940791D01*
X111301341Y-83928413D01*
X111263927Y-83898294D01*
X111242967Y-83886581D01*
X111238714Y-83885822D01*
X111227501Y-83866949D01*
X111237363Y-83855988D01*
X111267881Y-83859997D01*
X111308888Y-83878741D01*
X111349897Y-83908646D01*
X111350564Y-83909250D01*
X111387565Y-83935948D01*
X111445276Y-83970735D01*
X111511502Y-84006246D01*
X111553509Y-84027381D01*
X111633477Y-84067615D01*
X111483163Y-83902966D01*
X111469633Y-83887786D01*
X111503528Y-83887786D01*
X111519435Y-83909572D01*
X111525168Y-83916693D01*
X111549619Y-83940320D01*
X111558566Y-83934814D01*
X111551852Y-83925316D01*
X111526379Y-83902627D01*
X111513052Y-83892353D01*
X111503528Y-83887786D01*
X111469633Y-83887786D01*
X111438780Y-83853169D01*
X111387898Y-83791685D01*
X111357561Y-83749058D01*
X111348350Y-83727185D01*
X111360843Y-83727965D01*
X111395621Y-83753295D01*
X111453264Y-83805073D01*
X111504511Y-83853359D01*
X111572071Y-83916435D01*
X111591972Y-83934814D01*
X111629559Y-83969527D01*
X111709748Y-84042917D01*
X111672286Y-83968117D01*
X111662416Y-83949492D01*
X111630853Y-83899562D01*
X111602917Y-83866958D01*
X111586990Y-83848885D01*
X111557483Y-83802282D01*
X111542671Y-83772787D01*
X111559011Y-83772787D01*
X111572677Y-83794248D01*
X111603941Y-83827363D01*
X111656561Y-83877385D01*
X111612161Y-83820033D01*
X111602397Y-83807843D01*
X111574683Y-83778271D01*
X111559541Y-83770011D01*
X111559011Y-83772787D01*
X111542671Y-83772787D01*
X111528235Y-83744039D01*
X111521493Y-83730245D01*
X111540173Y-83730245D01*
X111549369Y-83739441D01*
X111558566Y-83730245D01*
X111549369Y-83721049D01*
X111540173Y-83730245D01*
X111521493Y-83730245D01*
X111508179Y-83703007D01*
X111483283Y-83662965D01*
X111465750Y-83647479D01*
X111458980Y-83646015D01*
X111457438Y-83629037D01*
X111471657Y-83619630D01*
X111502509Y-83628907D01*
X111538058Y-83660215D01*
X111570078Y-83707800D01*
X111577687Y-83721628D01*
X111583391Y-83730245D01*
X111614585Y-83777373D01*
X111657632Y-83831569D01*
X111671469Y-83847427D01*
X111696234Y-83877385D01*
X111714128Y-83899032D01*
X111746572Y-83941924D01*
X111757669Y-83957822D01*
X111769067Y-83971637D01*
X111766012Y-83958224D01*
X111748774Y-83914170D01*
X111746131Y-83907545D01*
X111714167Y-83824034D01*
X111703344Y-83793801D01*
X111725680Y-83793801D01*
X111740208Y-83817916D01*
X111742630Y-83820292D01*
X111756104Y-83829107D01*
X111750504Y-83807620D01*
X111741332Y-83790455D01*
X111727650Y-83784936D01*
X111725680Y-83793801D01*
X111703344Y-83793801D01*
X111687177Y-83748637D01*
X111705705Y-83748637D01*
X111714902Y-83757834D01*
X111724098Y-83748637D01*
X111714902Y-83739441D01*
X111705705Y-83748637D01*
X111687177Y-83748637D01*
X111683582Y-83738594D01*
X111656724Y-83658484D01*
X111635945Y-83590962D01*
X111623593Y-83543287D01*
X111622020Y-83522716D01*
X111623340Y-83522715D01*
X111637624Y-83541524D01*
X111663542Y-83586517D01*
X111697897Y-83651904D01*
X111737495Y-83731899D01*
X111745716Y-83748637D01*
X111780622Y-83819711D01*
X111785599Y-83829107D01*
X111811561Y-83878115D01*
X111831875Y-83909209D01*
X111843659Y-83916194D01*
X111849009Y-83902271D01*
X111849550Y-83894963D01*
X111843684Y-83842358D01*
X111826295Y-83785072D01*
X111818303Y-83762143D01*
X111805608Y-83702656D01*
X111817634Y-83702656D01*
X111819203Y-83718571D01*
X111834453Y-83757834D01*
X111839677Y-83765273D01*
X111849987Y-83770966D01*
X111848245Y-83750847D01*
X111834453Y-83711853D01*
X111822886Y-83691658D01*
X111817634Y-83702656D01*
X111805608Y-83702656D01*
X111803527Y-83692906D01*
X111797668Y-83621323D01*
X111796261Y-83586548D01*
X111788281Y-83534116D01*
X111775597Y-83504018D01*
X111766429Y-83491823D01*
X111771918Y-83481947D01*
X111799112Y-83491549D01*
X111825055Y-83530195D01*
X111835260Y-83591382D01*
X111835668Y-83601459D01*
X111845677Y-83665768D01*
X111864649Y-83730245D01*
X111867884Y-83738816D01*
X111878078Y-83770966D01*
X111890213Y-83809238D01*
X111906355Y-83877385D01*
X111911579Y-83898384D01*
X111916931Y-83896660D01*
X111922201Y-83865962D01*
X111927814Y-83803692D01*
X111930240Y-83767030D01*
X111963200Y-83767030D01*
X111972396Y-83776226D01*
X111981592Y-83767030D01*
X111972396Y-83757834D01*
X111963200Y-83767030D01*
X111930240Y-83767030D01*
X111934195Y-83707254D01*
X111935566Y-83685466D01*
X111942240Y-83598509D01*
X111949548Y-83528036D01*
X111956697Y-83480800D01*
X111962891Y-83463554D01*
X111964195Y-83464525D01*
X111970605Y-83489316D01*
X111977699Y-83542538D01*
X111984703Y-83617436D01*
X111990841Y-83707254D01*
X111994411Y-83767030D01*
X111996394Y-83800239D01*
X112001322Y-83866650D01*
X112006136Y-83904359D01*
X112011705Y-83917496D01*
X112018898Y-83910193D01*
X112028587Y-83886581D01*
X112028905Y-83885712D01*
X112045901Y-83820091D01*
X112053763Y-83752645D01*
X112053848Y-83749601D01*
X112059861Y-83706588D01*
X112076408Y-83706588D01*
X112079269Y-83753236D01*
X112080988Y-83758454D01*
X112085762Y-83754511D01*
X112087680Y-83721049D01*
X112087502Y-83708570D01*
X112084600Y-83683138D01*
X112079269Y-83688862D01*
X112076408Y-83706588D01*
X112059861Y-83706588D01*
X112063271Y-83682195D01*
X112082751Y-83617053D01*
X112086385Y-83608055D01*
X112103415Y-83555882D01*
X112110340Y-83516485D01*
X112113816Y-83497227D01*
X112130664Y-83481947D01*
X112133387Y-83482352D01*
X112143262Y-83504543D01*
X112139542Y-83560115D01*
X112136355Y-83582113D01*
X112123588Y-83675207D01*
X112117862Y-83721049D01*
X112112877Y-83760955D01*
G37*
D12*
%TO.C,JP1*%
X140293315Y-92194186D02*
X141707528Y-90779973D01*
X141707528Y-90779973D02*
X143687427Y-92759872D01*
X142273214Y-94174085D02*
X140293315Y-92194186D01*
X143687427Y-92759872D02*
X142273214Y-94174085D01*
%TO.C,JP3*%
X137596544Y-86490443D02*
X139576443Y-84510544D01*
X139010757Y-87904656D02*
X137596544Y-86490443D01*
X139576443Y-84510544D02*
X140990656Y-85924757D01*
X140990656Y-85924757D02*
X139010757Y-87904656D01*
%TO.C,J4*%
X129572400Y-74875600D02*
X129572400Y-77725600D01*
X129572400Y-77725600D02*
X132422400Y-77725600D01*
X129812400Y-67665599D02*
X129812400Y-77485600D01*
X129812400Y-77485600D02*
X134722400Y-77485600D01*
X132912400Y-66265600D02*
X132912400Y-67665599D01*
X132912400Y-67665599D02*
X129812400Y-67665599D01*
X134722400Y-66265600D02*
X132912400Y-66265600D01*
X134722400Y-66265600D02*
X136532400Y-66265599D01*
X136532400Y-66265599D02*
X136532400Y-67665600D01*
X136532400Y-67665600D02*
X139632400Y-67665600D01*
X139632400Y-67665600D02*
X139632401Y-77485600D01*
X139632401Y-77485600D02*
X134722400Y-77485600D01*
%TD*%
%LPC*%
D14*
%TO.C,H3*%
X80222400Y-110125600D03*
X80925344Y-108428544D03*
X80925344Y-111822656D03*
X82622400Y-107725600D03*
D15*
X82622400Y-110125600D03*
D14*
X82622400Y-112525600D03*
X84319456Y-108428544D03*
X84319456Y-111822656D03*
X85022400Y-110125600D03*
%TD*%
D16*
%TO.C,J1*%
X82622400Y-80125600D03*
D17*
X82622400Y-82125600D03*
X82622400Y-84125600D03*
X82622400Y-86125600D03*
X82622400Y-88125600D03*
X82622400Y-90125600D03*
X82622400Y-92125600D03*
X82622400Y-94125600D03*
X82622400Y-96125600D03*
X82622400Y-98125600D03*
X82622400Y-100125600D03*
%TD*%
D14*
%TO.C,H1*%
X150222400Y-70125600D03*
X150925344Y-68428544D03*
X150925344Y-71822656D03*
X152622400Y-67725600D03*
D15*
X152622400Y-70125600D03*
D14*
X152622400Y-72525600D03*
X154319456Y-68428544D03*
X154319456Y-71822656D03*
X155022400Y-70125600D03*
%TD*%
D18*
%TO.C,SW3*%
X152122401Y-78875600D03*
X152122400Y-85875600D03*
D19*
X154622400Y-80125600D03*
X154622400Y-84625601D03*
%TD*%
D14*
%TO.C,H4*%
X150222400Y-110125600D03*
X150925344Y-108428544D03*
X150925344Y-111822656D03*
X152622400Y-107725600D03*
D15*
X152622400Y-110125600D03*
D14*
X152622400Y-112525600D03*
X154319456Y-108428544D03*
X154319456Y-111822656D03*
X155022400Y-110125600D03*
%TD*%
D20*
%TO.C,U3*%
X121716800Y-97967800D03*
X121716800Y-95427800D03*
X121716800Y-92887800D03*
X121716800Y-90347800D03*
X121716800Y-87807800D03*
X121716800Y-85267800D03*
X121716800Y-82727800D03*
X121716800Y-80187800D03*
X96316800Y-97967800D03*
X96316801Y-95427800D03*
X96316800Y-92887800D03*
X96316800Y-90347800D03*
X96316800Y-87807800D03*
X96316800Y-85267801D03*
X96316800Y-82727799D03*
X96316800Y-80187800D03*
%TD*%
D21*
%TO.C,J2*%
X151022400Y-98015600D03*
X151022400Y-92235600D03*
D22*
X150492400Y-99445600D03*
D23*
X154672400Y-99445600D03*
D22*
X150492400Y-90805600D03*
D23*
X154672400Y-90805600D03*
%TD*%
D14*
%TO.C,H2*%
X80222400Y-70125600D03*
X80925344Y-68428544D03*
X80925344Y-71822656D03*
X82622400Y-67725600D03*
D15*
X82622400Y-70125600D03*
D14*
X82622400Y-72525600D03*
X84319456Y-68428544D03*
X84319456Y-71822656D03*
X85022400Y-70125600D03*
%TD*%
D24*
%TO.C,J3*%
X135203362Y-101033013D03*
X138077044Y-96722490D03*
X139513885Y-98159331D03*
%TD*%
D25*
%TO.C,TP3*%
X125069600Y-92964000D03*
%TD*%
D26*
%TO.C,JP2*%
X143657748Y-90190748D03*
D27*
X144683052Y-91216052D03*
%TD*%
D28*
%TO.C,SW1*%
X124897400Y-80525600D03*
X124897400Y-86525600D03*
X128647400Y-80525600D03*
X128647400Y-86525600D03*
%TD*%
D29*
%TO.C,J5*%
X92922400Y-70085600D03*
X123322400Y-70085600D03*
D30*
X97622400Y-75125600D03*
D31*
X101822399Y-75125600D03*
X106022400Y-75125600D03*
X110222399Y-75125600D03*
X114422400Y-75125600D03*
X118622399Y-75125600D03*
X97622400Y-69625600D03*
X101822400Y-69625600D03*
X106022400Y-69625600D03*
X110222400Y-69625600D03*
X114422400Y-69625600D03*
X118622400Y-69625600D03*
%TD*%
D32*
%TO.C,JP5*%
X102575601Y-80264000D03*
D33*
X103875599Y-80264000D03*
%TD*%
D26*
%TO.C,JP1*%
X141477719Y-91964377D03*
D27*
X142503023Y-92989681D03*
%TD*%
D34*
%TO.C,JP3*%
X138780948Y-86720252D03*
D35*
X139806252Y-85694948D03*
%TD*%
D30*
%TO.C,J4*%
X132622400Y-75125600D03*
D31*
X136822399Y-75125600D03*
X132622400Y-69625600D03*
X136822400Y-69625600D03*
%TD*%
%LPD*%
M02*
