%TF.GenerationSoftware,KiCad,Pcbnew,7.99.0-3804-ge3eab57133-dirty*%
%TF.CreationDate,2023-12-05T15:26:08-03:00*%
%TF.ProjectId,Wideband_v3,57696465-6261-46e6-945f-76332e6b6963,rev?*%
%TF.SameCoordinates,Original*%
%TF.FileFunction,Copper,L2,Bot*%
%TF.FilePolarity,Positive*%
%FSLAX46Y46*%
G04 Gerber Fmt 4.6, Leading zero omitted, Abs format (unit mm)*
G04 Created by KiCad (PCBNEW 7.99.0-3804-ge3eab57133-dirty) date 2023-12-05 15:26:08*
%MOMM*%
%LPD*%
G01*
G04 APERTURE LIST*
G04 Aperture macros list*
%AMRoundRect*
0 Rectangle with rounded corners*
0 $1 Rounding radius*
0 $2 $3 $4 $5 $6 $7 $8 $9 X,Y pos of 4 corners*
0 Add a 4 corners polygon primitive as box body*
4,1,4,$2,$3,$4,$5,$6,$7,$8,$9,$2,$3,0*
0 Add four circle primitives for the rounded corners*
1,1,$1+$1,$2,$3*
1,1,$1+$1,$4,$5*
1,1,$1+$1,$6,$7*
1,1,$1+$1,$8,$9*
0 Add four rect primitives between the rounded corners*
20,1,$1+$1,$2,$3,$4,$5,0*
20,1,$1+$1,$4,$5,$6,$7,0*
20,1,$1+$1,$6,$7,$8,$9,0*
20,1,$1+$1,$8,$9,$2,$3,0*%
%AMFreePoly0*
4,1,6,1.000000,0.000000,0.499999,-0.750000,-0.499999,-0.750000,-0.499999,0.750000,0.499999,0.750000,1.000000,0.000000,1.000000,0.000000,$1*%
%AMFreePoly1*
4,1,6,0.499999,-0.750000,-0.649999,-0.750000,-0.150000,0.000000,-0.649999,0.750000,0.499999,0.750000,0.499999,-0.750000,0.499999,-0.750000,$1*%
%AMFreePoly2*
4,1,19,0.500000,-0.750000,0.000000,-0.750000,0.000000,-0.744911,-0.071157,-0.744911,-0.207708,-0.704816,-0.327430,-0.627875,-0.420627,-0.520320,-0.479746,-0.390866,-0.500000,-0.250000,-0.500000,0.250000,-0.479746,0.390866,-0.420627,0.520320,-0.327430,0.627875,-0.207708,0.704816,-0.071157,0.744911,0.000000,0.744911,0.000000,0.750000,0.500000,0.750000,0.500000,-0.750000,0.500000,-0.750000,
$1*%
%AMFreePoly3*
4,1,19,0.000000,0.744911,0.071157,0.744911,0.207708,0.704816,0.327430,0.627875,0.420627,0.520320,0.479746,0.390866,0.500000,0.250000,0.500000,-0.250000,0.479746,-0.390866,0.420627,-0.520320,0.327430,-0.627875,0.207708,-0.704816,0.071157,-0.744911,0.000000,-0.744911,0.000000,-0.750000,-0.500000,-0.750000,-0.500000,0.750000,0.000000,0.750000,0.000000,0.744911,0.000000,0.744911,
$1*%
G04 Aperture macros list end*
%TA.AperFunction,ComponentPad*%
%ADD10C,0.800000*%
%TD*%
%TA.AperFunction,ComponentPad*%
%ADD11C,6.400000*%
%TD*%
%TA.AperFunction,ComponentPad*%
%ADD12R,1.350000X1.350000*%
%TD*%
%TA.AperFunction,ComponentPad*%
%ADD13O,1.350000X1.350000*%
%TD*%
%TA.AperFunction,ComponentPad*%
%ADD14C,2.400000*%
%TD*%
%TA.AperFunction,ComponentPad*%
%ADD15C,1.700000*%
%TD*%
%TA.AperFunction,ComponentPad*%
%ADD16C,1.524000*%
%TD*%
%TA.AperFunction,ComponentPad*%
%ADD17O,2.100000X1.000000*%
%TD*%
%TA.AperFunction,ComponentPad*%
%ADD18O,1.600000X1.000000*%
%TD*%
%TA.AperFunction,SMDPad,CuDef*%
%ADD19R,1.000000X1.000000*%
%TD*%
%TA.AperFunction,SMDPad,CuDef*%
%ADD20FreePoly0,315.000000*%
%TD*%
%TA.AperFunction,SMDPad,CuDef*%
%ADD21FreePoly1,315.000000*%
%TD*%
%TA.AperFunction,SMDPad,CuDef*%
%ADD22R,0.750000X1.000000*%
%TD*%
%TA.AperFunction,ComponentPad*%
%ADD23RoundRect,0.250001X-1.099999X-1.399999X1.099999X-1.399999X1.099999X1.399999X-1.099999X1.399999X0*%
%TD*%
%TA.AperFunction,ComponentPad*%
%ADD24O,2.700000X3.300000*%
%TD*%
%TA.AperFunction,SMDPad,CuDef*%
%ADD25FreePoly2,0.000000*%
%TD*%
%TA.AperFunction,SMDPad,CuDef*%
%ADD26FreePoly3,0.000000*%
%TD*%
%TA.AperFunction,SMDPad,CuDef*%
%ADD27FreePoly0,45.000000*%
%TD*%
%TA.AperFunction,SMDPad,CuDef*%
%ADD28FreePoly1,45.000000*%
%TD*%
%TA.AperFunction,ViaPad*%
%ADD29C,0.600000*%
%TD*%
%TA.AperFunction,ViaPad*%
%ADD30C,1.600000*%
%TD*%
%TA.AperFunction,ViaPad*%
%ADD31C,4.000000*%
%TD*%
%TA.AperFunction,Conductor*%
%ADD32C,0.500000*%
%TD*%
%TA.AperFunction,Conductor*%
%ADD33C,0.200000*%
%TD*%
%TA.AperFunction,Conductor*%
%ADD34C,0.250000*%
%TD*%
%TA.AperFunction,Conductor*%
%ADD35C,0.150000*%
%TD*%
%TA.AperFunction,Conductor*%
%ADD36C,0.130000*%
%TD*%
%TA.AperFunction,Conductor*%
%ADD37C,0.350000*%
%TD*%
%TA.AperFunction,Conductor*%
%ADD38C,0.600000*%
%TD*%
%TA.AperFunction,Conductor*%
%ADD39C,2.500000*%
%TD*%
%TA.AperFunction,Conductor*%
%ADD40C,0.300000*%
%TD*%
%TA.AperFunction,Conductor*%
%ADD41C,0.800000*%
%TD*%
%TA.AperFunction,Conductor*%
%ADD42C,0.450000*%
%TD*%
G04 APERTURE END LIST*
D10*
%TO.P,H3,1*%
%TO.N,N/C*%
X80222400Y-110125600D03*
X80925344Y-108428544D03*
X80925344Y-111822656D03*
X82622400Y-107725600D03*
D11*
X82622400Y-110125600D03*
D10*
X82622400Y-112525600D03*
X84319456Y-108428544D03*
X84319456Y-111822656D03*
X85022400Y-110125600D03*
%TD*%
D12*
%TO.P,J1,1,Pin_1*%
%TO.N,GND*%
X82622400Y-80125600D03*
D13*
%TO.P,J1,2,Pin_2*%
%TO.N,/MCU/GPIO21*%
X82622400Y-82125600D03*
%TO.P,J1,3,Pin_3*%
%TO.N,/MCU/GPIO20*%
X82622400Y-84125600D03*
%TO.P,J1,4,Pin_4*%
%TO.N,/MCU/GPIO19*%
X82622400Y-86125600D03*
%TO.P,J1,5,Pin_5*%
%TO.N,/MCU/GPIO18*%
X82622400Y-88125600D03*
%TO.P,J1,6,Pin_6*%
%TO.N,/MCU/GPIO17*%
X82622400Y-90125600D03*
%TO.P,J1,7,Pin_7*%
%TO.N,/MCU/GPIO16*%
X82622400Y-92125600D03*
%TO.P,J1,8,Pin_8*%
%TO.N,/MCU/GPIO15*%
X82622400Y-94125600D03*
%TO.P,J1,9,Pin_9*%
%TO.N,/MCU/GPIO14*%
X82622400Y-96125600D03*
%TO.P,J1,10,Pin_10*%
%TO.N,+12VA*%
X82622400Y-98125600D03*
%TO.P,J1,11,Pin_11*%
%TO.N,+5V*%
X82622400Y-100125600D03*
%TD*%
D10*
%TO.P,H1,1*%
%TO.N,N/C*%
X150222400Y-70125600D03*
X150925344Y-68428544D03*
X150925344Y-71822656D03*
X152622400Y-67725600D03*
D11*
X152622400Y-70125600D03*
D10*
X152622400Y-72525600D03*
X154319456Y-68428544D03*
X154319456Y-71822656D03*
X155022400Y-70125600D03*
%TD*%
D14*
%TO.P,SW3,*%
%TO.N,*%
X152122401Y-78875600D03*
X152122400Y-85875600D03*
D15*
%TO.P,SW3,1,1*%
%TO.N,GND*%
X154622400Y-80125600D03*
%TO.P,SW3,2,2*%
%TO.N,/MCU/BTN_YES*%
X154622400Y-84625601D03*
%TD*%
D10*
%TO.P,H4,1*%
%TO.N,N/C*%
X150222400Y-110125600D03*
X150925344Y-108428544D03*
X150925344Y-111822656D03*
X152622400Y-107725600D03*
D11*
X152622400Y-110125600D03*
D10*
X152622400Y-112525600D03*
X154319456Y-108428544D03*
X154319456Y-111822656D03*
X155022400Y-110125600D03*
%TD*%
D16*
%TO.P,U3,1,5V*%
%TO.N,+5V*%
X121716800Y-97967800D03*
%TO.P,U3,2,GND*%
%TO.N,GND*%
X121716800Y-95427800D03*
%TO.P,U3,3,SEL_1*%
%TO.N,Net-(U3-SEL_1)*%
X121716800Y-92887800D03*
%TO.P,U3,4,SEL_2*%
%TO.N,Net-(U3-SEL_2)*%
X121716800Y-90347800D03*
%TO.P,U3,5,CAN_RX*%
%TO.N,/MCU/WBO_RX*%
X121716800Y-87807800D03*
%TO.P,U3,6,CAN_TX*%
%TO.N,Net-(D6-K)*%
X121716800Y-85267800D03*
%TO.P,U3,7,VBatt_Sense*%
%TO.N,+12V*%
X121716800Y-82727800D03*
%TO.P,U3,8,Boot0*%
%TO.N,Net-(U3-Boot0)*%
X121716800Y-80187800D03*
%TO.P,U3,9,HEAT_GND*%
%TO.N,GND*%
X96316800Y-97967800D03*
%TO.P,U3,10,HEAT_GND2*%
X96316801Y-95427800D03*
%TO.P,U3,11,HEATER-*%
%TO.N,/HEATER-*%
X96316800Y-92887800D03*
%TO.P,U3,12,HEATER-*%
X96316800Y-90347800D03*
%TO.P,U3,13,LSU_ip*%
%TO.N,/LSU_ip*%
X96316800Y-87807800D03*
%TO.P,U3,14,LSU_vm*%
%TO.N,/LSU_vm*%
X96316800Y-85267801D03*
%TO.P,U3,15,LSU_rtrim*%
%TO.N,/LSU_rtrim*%
X96316800Y-82727799D03*
%TO.P,U3,16,LSU_un*%
%TO.N,/LSU_un*%
X96316800Y-80187800D03*
%TD*%
D17*
%TO.P,J2,S1,SHIELD*%
%TO.N,unconnected-(J2-SHIELD-PadS1)_2*%
X150492400Y-99445600D03*
D18*
%TO.N,unconnected-(J2-SHIELD-PadS1)_0*%
X154672400Y-99445600D03*
D17*
%TO.N,unconnected-(J2-SHIELD-PadS1)_1*%
X150492400Y-90805600D03*
D18*
%TO.N,unconnected-(J2-SHIELD-PadS1)*%
X154672400Y-90805600D03*
%TD*%
D10*
%TO.P,H2,1*%
%TO.N,N/C*%
X80222400Y-70125600D03*
X80925344Y-68428544D03*
X80925344Y-71822656D03*
X82622400Y-67725600D03*
D11*
X82622400Y-70125600D03*
D10*
X82622400Y-72525600D03*
X84319456Y-68428544D03*
X84319456Y-71822656D03*
X85022400Y-70125600D03*
%TD*%
D19*
%TO.P,TP3,1,1*%
%TO.N,Net-(U3-SEL_1)*%
X125069600Y-92964000D03*
%TD*%
D20*
%TO.P,JP2,1,A*%
%TO.N,/MCU/CF_CONF1*%
X143657748Y-90190748D03*
D21*
%TO.P,JP2,2,B*%
%TO.N,GND*%
X144683052Y-91216052D03*
%TD*%
D22*
%TO.P,SW1,1,1*%
%TO.N,GND*%
X124897400Y-80525600D03*
X124897400Y-86525600D03*
%TO.P,SW1,2,2*%
%TO.N,/MCU/FORCE_BOOTLOADER*%
X128647400Y-80525600D03*
X128647400Y-86525600D03*
%TD*%
D23*
%TO.P,J5,1,Pin_1*%
%TO.N,/HEATER-*%
X97622400Y-75125600D03*
D24*
%TO.P,J5,2,Pin_2*%
%TO.N,+12VA*%
X101822399Y-75125600D03*
%TO.P,J5,3,Pin_3*%
%TO.N,+12V*%
X106022400Y-75125600D03*
%TO.P,J5,4,Pin_4*%
%TO.N,/NARROW*%
X110222399Y-75125600D03*
%TO.P,J5,5,Pin_5*%
%TO.N,/LSU_ip*%
X114422400Y-75125600D03*
%TO.P,J5,6,Pin_6*%
%TO.N,/LSU_vm*%
X118622399Y-75125600D03*
%TO.P,J5,7,Pin_7*%
%TO.N,/LSU_rtrim*%
X97622400Y-69625600D03*
%TO.P,J5,8,Pin_8*%
%TO.N,/LSU_un*%
X101822400Y-69625600D03*
%TO.P,J5,9,Pin_9*%
%TO.N,/TEMP_OUT*%
X106022400Y-69625600D03*
%TO.P,J5,10,Pin_10*%
%TO.N,/LAMBDA_OUT*%
X110222400Y-69625600D03*
%TO.P,J5,11,Pin_11*%
%TO.N,GND*%
X114422400Y-69625600D03*
%TO.P,J5,12,Pin_12*%
X118622400Y-69625600D03*
%TD*%
D25*
%TO.P,JP5,1,1*%
%TO.N,+12VA*%
X102575601Y-80264000D03*
D26*
%TO.P,JP5,2,2*%
%TO.N,+12V*%
X103875599Y-80264000D03*
%TD*%
D20*
%TO.P,JP1,1,A*%
%TO.N,/MCU/CF_CONF0*%
X141477719Y-91964377D03*
D21*
%TO.P,JP1,2,B*%
%TO.N,GND*%
X142503023Y-92989681D03*
%TD*%
D27*
%TO.P,JP3,1,A*%
%TO.N,/MCU/CF_CONF2*%
X138780948Y-86720252D03*
D28*
%TO.P,JP3,2,B*%
%TO.N,GND*%
X139806252Y-85694948D03*
%TD*%
D23*
%TO.P,J4,1,Pin_1*%
%TO.N,GND*%
X132622400Y-75125600D03*
D24*
%TO.P,J4,2,Pin_2*%
%TO.N,/CAN-*%
X136822399Y-75125600D03*
%TO.P,J4,3,Pin_3*%
%TO.N,unconnected-(J4-Pin_3-Pad3)*%
X132622400Y-69625600D03*
%TO.P,J4,4,Pin_4*%
%TO.N,/CAN+*%
X136822400Y-69625600D03*
%TD*%
D29*
%TO.N,/MCU/WBO_RX*%
X128072400Y-89175600D03*
%TO.N,GND*%
X132144885Y-82248085D03*
X142646400Y-70967600D03*
X147980400Y-84683600D03*
X141622400Y-77625600D03*
X125134600Y-84455000D03*
X133722400Y-80525600D03*
X150972400Y-81225600D03*
X143891000Y-75167400D03*
X143972400Y-86075600D03*
X130084600Y-84455000D03*
X143422400Y-96625600D03*
X139872400Y-96975600D03*
X119972400Y-97125600D03*
X149622400Y-101775600D03*
X141035502Y-74357902D03*
X140174332Y-86138961D03*
X149022400Y-79825600D03*
%TO.N,Net-(D11-A)*%
X112598200Y-98780600D03*
X109270800Y-108356400D03*
%TO.N,+5V*%
X134472400Y-76500600D03*
X131093065Y-88003465D03*
X123472400Y-81475600D03*
X145072400Y-73879400D03*
X123572400Y-86669013D03*
%TO.N,+3V3*%
X133819110Y-86225600D03*
D30*
X130708400Y-108178600D03*
D29*
X111022400Y-97125600D03*
X132643546Y-92474977D03*
X145186400Y-78079600D03*
X141241213Y-97814562D03*
X138102405Y-102223370D03*
X136322400Y-97425600D03*
X98722400Y-100625600D03*
X147980400Y-68427600D03*
X132441560Y-89517640D03*
X136174051Y-81273948D03*
X130799208Y-91399992D03*
X127348136Y-93001336D03*
D30*
X130708400Y-103682401D03*
D29*
%TO.N,+1V1*%
X136631610Y-85334058D03*
X136608613Y-86905745D03*
%TO.N,Net-(U1-XOUT)*%
X144485155Y-81612061D03*
X144975422Y-83926785D03*
D31*
%TO.N,+12VA*%
X102082600Y-96799400D03*
D29*
%TO.N,/MCU/WBO_TX*%
X127472400Y-90625600D03*
X133897800Y-85101000D03*
%TO.N,/MCU/WBO_RX*%
X133105800Y-84413800D03*
%TO.N,/MCU/GPIO21*%
X138439531Y-77450600D03*
%TO.N,/MCU/GPIO14*%
X142172400Y-85475600D03*
%TO.N,/MCU/USB_DP*%
X147052800Y-94208600D03*
X148255159Y-95479100D03*
%TO.N,/MCU/NRST*%
X141488564Y-82062978D03*
X141522400Y-94924129D03*
%TO.N,/MCU/SYS_SWCLK*%
X136322400Y-93325600D03*
X140422400Y-83638267D03*
X132522400Y-95587678D03*
X132822400Y-97087678D03*
%TO.N,/MCU/SYS_SWDIO*%
X134645400Y-99949000D03*
X138633168Y-93678005D03*
X139011443Y-95536558D03*
X139680494Y-83053378D03*
%TO.N,/LAMBDA_OUT*%
X92557600Y-81375600D03*
%TO.N,/TEMP_OUT*%
X91592400Y-81345000D03*
%TO.N,/MCU/CF_CONF0*%
X142322400Y-90025600D03*
%TO.N,/MCU/CF_CONF1*%
X143160878Y-89887123D03*
%TO.N,/MCU/CF_CONF2*%
X141364596Y-87846286D03*
%TO.N,/MCU/FORCE_BOOTLOADER*%
X128022400Y-87975600D03*
%TO.N,Net-(U1-USB_DM)*%
X144195800Y-95631000D03*
X134296600Y-88747600D03*
%TO.N,Net-(U1-USB_DP)*%
X144119600Y-94792800D03*
X135146600Y-88747600D03*
%TO.N,Net-(U1-QSPI_SS)*%
X127406400Y-97586800D03*
X133872400Y-97087678D03*
%TO.N,/MCU/BTN_YES*%
X142278987Y-90882187D03*
%TO.N,/m_narrow*%
X134422400Y-83450600D03*
X93572400Y-96225600D03*
%TO.N,/NARROW*%
X93207600Y-77125600D03*
%TO.N,/MCU/GPIO19*%
X138962494Y-78623680D03*
%TO.N,/MCU/GPIO20*%
X139222400Y-77675600D03*
%TO.N,/MCU/GPIO16*%
X139757538Y-80130303D03*
%TO.N,Net-(U1-QSPI_SD1)*%
X131674737Y-97677937D03*
X129717800Y-97510600D03*
%TO.N,/DAC_CS*%
X133746642Y-81926358D03*
X132680473Y-80620500D03*
%TO.N,/m_LAMBDA_OUT*%
X116422400Y-84389800D03*
X122747400Y-84389800D03*
X88372400Y-84525600D03*
X108162780Y-80665980D03*
%TO.N,/DAC_SO*%
X132927973Y-81850600D03*
X131622400Y-80575600D03*
%TO.N,/m_TEMP_OUT*%
X108122400Y-79575600D03*
X89052400Y-81762600D03*
%TO.N,/MCU/GPIO18*%
X140122400Y-78425600D03*
%TO.N,/MCU/GPIO17*%
X139904661Y-79307860D03*
%TO.N,/MCU/GPIO15*%
X143807471Y-84385181D03*
%TD*%
D32*
%TO.N,+5V*%
X131093065Y-88195745D02*
X126322400Y-92966410D01*
X126322400Y-92966410D02*
X126322400Y-93362200D01*
X131093065Y-88003465D02*
X131093065Y-88195745D01*
X126322400Y-93362200D02*
X121716800Y-97967800D01*
D33*
%TO.N,/MCU/WBO_RX*%
X128322400Y-89175600D02*
X133084200Y-84413800D01*
X128072400Y-89175600D02*
X123084600Y-89175600D01*
X123084600Y-89175600D02*
X121716800Y-87807800D01*
X133084200Y-84413800D02*
X133105800Y-84413800D01*
X128072400Y-89175600D02*
X128322400Y-89175600D01*
%TO.N,+3V3*%
X127348136Y-93001336D02*
X128949480Y-91399992D01*
X128949480Y-91399992D02*
X130799208Y-91399992D01*
%TO.N,/MCU/WBO_TX*%
X127472400Y-90625600D02*
X127622400Y-90625600D01*
X127622400Y-90625600D02*
X133147000Y-85101000D01*
X133147000Y-85101000D02*
X133897800Y-85101000D01*
%TO.N,GND*%
X134346642Y-82174887D02*
X133995171Y-82526358D01*
D34*
X121670200Y-95427800D02*
X119972400Y-97125600D01*
D35*
X124897400Y-84217800D02*
X125134600Y-84455000D01*
D34*
X141622400Y-77625600D02*
X141622400Y-77436000D01*
D35*
X124897400Y-86525600D02*
X124897400Y-83825600D01*
D34*
X150972400Y-81225600D02*
X150422400Y-81225600D01*
D35*
X124897400Y-83825600D02*
X124897400Y-84217800D01*
D33*
X132423158Y-82526358D02*
X132144885Y-82248085D01*
D34*
X150422400Y-81225600D02*
X149022400Y-79825600D01*
X140222400Y-96625600D02*
X139872400Y-96975600D01*
D33*
X134346642Y-81149842D02*
X134346642Y-82174887D01*
X133995171Y-82526358D02*
X132423158Y-82526358D01*
D34*
X121716800Y-95427800D02*
X121670200Y-95427800D01*
D35*
X124897400Y-83825600D02*
X124897400Y-80525600D01*
D36*
X139806252Y-85694948D02*
X139806252Y-85770881D01*
D34*
X143422400Y-96625600D02*
X140222400Y-96625600D01*
D36*
X139806252Y-85770881D02*
X140174332Y-86138961D01*
D33*
X133722400Y-80525600D02*
X134346642Y-81149842D01*
D34*
X141622400Y-77436000D02*
X143891000Y-75167400D01*
D37*
%TO.N,Net-(D11-A)*%
X112598200Y-98780600D02*
X112572800Y-98806000D01*
X112572800Y-105054400D02*
X109270800Y-108356400D01*
X112572800Y-98806000D02*
X112572800Y-105054400D01*
D32*
%TO.N,+5V*%
X106080200Y-97967800D02*
X100722400Y-103325600D01*
D37*
X144672400Y-72675600D02*
X145072400Y-73075600D01*
D32*
X100722400Y-103325600D02*
X85822400Y-103325600D01*
D37*
X123572400Y-86669013D02*
X123422400Y-86519013D01*
X123422400Y-86519013D02*
X123422400Y-81525600D01*
X134472400Y-76500600D02*
X134472400Y-74375600D01*
X123422400Y-81525600D02*
X123472400Y-81475600D01*
X145072400Y-73075600D02*
X145072400Y-73879400D01*
D32*
X121716800Y-97967800D02*
X106080200Y-97967800D01*
X85822400Y-103325600D02*
X82622400Y-100125600D01*
D37*
X134472400Y-74375600D02*
X136172400Y-72675600D01*
X136172400Y-72675600D02*
X144672400Y-72675600D01*
D35*
%TO.N,+3V3*%
X133819110Y-85992863D02*
X136572400Y-83239573D01*
D33*
X101772400Y-100625600D02*
X105272400Y-97125600D01*
X101772400Y-100625600D02*
X98722400Y-100625600D01*
X138102405Y-100953370D02*
X141241213Y-97814562D01*
D34*
X136122400Y-97425600D02*
X130708400Y-102839600D01*
D33*
X138102405Y-102223370D02*
X138102405Y-100953370D01*
D38*
X130708400Y-103682401D02*
X130708400Y-108178600D01*
D33*
X111022400Y-97125600D02*
X105272400Y-97125600D01*
D35*
X132441560Y-92272991D02*
X132643546Y-92474977D01*
X132643546Y-92474977D02*
X131874193Y-92474977D01*
D34*
X136322400Y-97425600D02*
X136122400Y-97425600D01*
D35*
X133819110Y-86225600D02*
X133819110Y-85992863D01*
X136572400Y-83239573D02*
X136572400Y-81672297D01*
X131874193Y-92474977D02*
X130799208Y-91399992D01*
D34*
X130708400Y-102839600D02*
X130708400Y-103682401D01*
D35*
X136572400Y-81672297D02*
X136174051Y-81273948D01*
D33*
X145186400Y-78079600D02*
X147980400Y-75285600D01*
D35*
X132441560Y-89517640D02*
X132441560Y-92272991D01*
D33*
X147980400Y-75285600D02*
X147980400Y-68427600D01*
D35*
%TO.N,+1V1*%
X136631610Y-86816390D02*
X136608613Y-86839387D01*
X136608613Y-86839387D02*
X136608613Y-86905745D01*
X136631610Y-85334058D02*
X136631610Y-86816390D01*
D33*
%TO.N,Net-(U1-XOUT)*%
X144485155Y-83436518D02*
X144485155Y-81612061D01*
X144975422Y-83926785D02*
X144485155Y-83436518D01*
D38*
%TO.N,+12VA*%
X82622400Y-98125600D02*
X87072400Y-102575600D01*
X87072400Y-102575600D02*
X94722400Y-102575600D01*
X101822399Y-75125600D02*
X101822399Y-79510798D01*
X94722400Y-102575600D02*
X100498600Y-96799400D01*
D39*
X102082600Y-96799400D02*
X101822399Y-96539199D01*
D38*
X101822399Y-79510798D02*
X102575601Y-80264000D01*
X100498600Y-96799400D02*
X102082600Y-96799400D01*
D35*
%TO.N,/MCU/GPIO21*%
X138064531Y-77075600D02*
X114562608Y-77075600D01*
X102793408Y-88844800D02*
X94791600Y-88844800D01*
X138439531Y-77450600D02*
X138064531Y-77075600D01*
X114562608Y-77075600D02*
X102793408Y-88844800D01*
X94791600Y-88844800D02*
X91672400Y-85725600D01*
X83672400Y-82125600D02*
X82622400Y-82125600D01*
X87272400Y-85725600D02*
X83672400Y-82125600D01*
X91672400Y-85725600D02*
X87272400Y-85725600D01*
%TO.N,/MCU/GPIO14*%
X138727426Y-80625600D02*
X137482452Y-80625600D01*
X113427426Y-81675600D02*
X98277426Y-96825600D01*
X84172400Y-94575600D02*
X82622400Y-96125600D01*
X142172400Y-84070574D02*
X138727426Y-80625600D01*
X98277426Y-96825600D02*
X95377426Y-96825600D01*
X122317374Y-81675600D02*
X113427426Y-81675600D01*
X142172400Y-85475600D02*
X142172400Y-84070574D01*
X93127426Y-94575600D02*
X84172400Y-94575600D01*
X95377426Y-96825600D02*
X93127426Y-94575600D01*
X137482452Y-80625600D02*
X136482452Y-79625600D01*
X124367374Y-79625600D02*
X122317374Y-81675600D01*
X136482452Y-79625600D02*
X124367374Y-79625600D01*
D33*
%TO.N,/MCU/USB_DP*%
X148255159Y-95479100D02*
X148255159Y-95473959D01*
X148255159Y-95473959D02*
X147052800Y-94271600D01*
X147052800Y-94271600D02*
X147052800Y-94208600D01*
D35*
%TO.N,/MCU/NRST*%
X141522400Y-94475600D02*
X139709283Y-92662483D01*
X139709283Y-92662483D02*
X139709283Y-91499061D01*
X142298441Y-82062978D02*
X141488564Y-82062978D01*
X144722400Y-86485944D02*
X144722400Y-84486937D01*
X139709283Y-91499061D02*
X144722400Y-86485944D01*
X141522400Y-94924129D02*
X141522400Y-94475600D01*
X144722400Y-84486937D02*
X142298441Y-82062978D01*
%TO.N,/MCU/SYS_SWCLK*%
X140422400Y-82975600D02*
X140422400Y-83638267D01*
X136322400Y-93325600D02*
X137267065Y-92380935D01*
X132546400Y-96811678D02*
X132546400Y-95611678D01*
X137267065Y-92380935D02*
X137267065Y-84653634D01*
X139925178Y-82478378D02*
X140422400Y-82975600D01*
X132546400Y-95611678D02*
X132522400Y-95587678D01*
X139442321Y-82478378D02*
X139925178Y-82478378D01*
X137267065Y-84653634D02*
X139442321Y-82478378D01*
X132822400Y-97087678D02*
X132546400Y-96811678D01*
%TO.N,/MCU/SYS_SWDIO*%
X139201070Y-88648515D02*
X137617065Y-87064510D01*
X137617065Y-87064510D02*
X137617065Y-85116807D01*
X138633168Y-93678005D02*
X139144457Y-93166716D01*
X139144457Y-88705128D02*
X139201070Y-88648515D01*
X136299000Y-99949000D02*
X134645400Y-99949000D01*
X139011443Y-95536558D02*
X139201070Y-95726185D01*
X139201070Y-97046930D02*
X136299000Y-99949000D01*
X137617065Y-85116807D02*
X139680494Y-83053378D01*
X139144457Y-93166716D02*
X139144457Y-88705128D01*
X139201070Y-95726185D02*
X139201070Y-97046930D01*
D40*
%TO.N,/LAMBDA_OUT*%
X92557600Y-75560906D02*
X95711106Y-72407400D01*
X107440600Y-72407400D02*
X110222400Y-69625600D01*
X95711106Y-72407400D02*
X107440600Y-72407400D01*
X92557600Y-81375600D02*
X92557600Y-75560906D01*
%TO.N,/LSU_ip*%
X114422400Y-75125600D02*
X114422400Y-76650600D01*
X102647306Y-87807800D02*
X96316800Y-87807800D01*
X114422400Y-76650600D02*
X113804506Y-76650600D01*
X113804506Y-76650600D02*
X102647306Y-87807800D01*
%TO.N,/TEMP_OUT*%
X91592400Y-75819000D02*
X95504000Y-71907400D01*
X103740600Y-71907400D02*
X106022400Y-69625600D01*
X91592400Y-81345000D02*
X91592400Y-75819000D01*
X95504000Y-71907400D02*
X103740600Y-71907400D01*
%TO.N,/LSU_vm*%
X118622399Y-75125600D02*
X116422399Y-72925600D01*
X112272400Y-77475600D02*
X104480199Y-85267801D01*
X113572400Y-72925600D02*
X112272400Y-74225600D01*
X104480199Y-85267801D02*
X96316800Y-85267801D01*
X116422399Y-72925600D02*
X113572400Y-72925600D01*
X112272400Y-74225600D02*
X112272400Y-77475600D01*
D41*
%TO.N,+12V*%
X103875599Y-80264000D02*
X105257600Y-80264000D01*
X105257600Y-80264000D02*
X106022400Y-79499200D01*
X106022400Y-79499200D02*
X106022400Y-75125600D01*
D35*
%TO.N,/MCU/CF_CONF0*%
X142322400Y-90025600D02*
X141477719Y-90870281D01*
X141477719Y-90870281D02*
X141477719Y-91964377D01*
%TO.N,/MCU/CF_CONF1*%
X143464503Y-90190748D02*
X143657748Y-90190748D01*
X143160878Y-89887123D02*
X143464503Y-90190748D01*
D33*
%TO.N,/MCU/CF_CONF2*%
X139906982Y-87846286D02*
X138780948Y-86720252D01*
X141364596Y-87846286D02*
X139906982Y-87846286D01*
%TO.N,/MCU/FORCE_BOOTLOADER*%
X128647400Y-87350600D02*
X128022400Y-87975600D01*
X128647400Y-80525600D02*
X128647400Y-86525600D01*
X128647400Y-86525600D02*
X128647400Y-87350600D01*
%TO.N,Net-(U1-USB_DM)*%
X134746600Y-89197600D02*
X134296600Y-88747600D01*
X139556715Y-94725600D02*
X136256714Y-94725600D01*
X140755243Y-95924129D02*
X139556715Y-94725600D01*
X143902671Y-95924129D02*
X140755243Y-95924129D01*
X136256714Y-94725600D02*
X134746600Y-93215485D01*
X134746600Y-93215485D02*
X134746600Y-89197600D01*
X144195800Y-95631000D02*
X143902671Y-95924129D01*
%TO.N,Net-(U1-USB_DP)*%
X135146600Y-88747600D02*
X135146600Y-93049800D01*
X143388271Y-95524129D02*
X144119600Y-94792800D01*
X135146600Y-93049800D02*
X136422400Y-94325600D01*
X136422400Y-94325600D02*
X139722400Y-94325600D01*
X140920929Y-95524129D02*
X143388271Y-95524129D01*
X139722400Y-94325600D02*
X140920929Y-95524129D01*
D35*
%TO.N,Net-(U1-QSPI_SS)*%
X132128678Y-98831400D02*
X128600200Y-98831400D01*
X128600200Y-98831400D02*
X127406400Y-97637600D01*
X127406400Y-97637600D02*
X127406400Y-97586800D01*
X133872400Y-97087678D02*
X132128678Y-98831400D01*
%TO.N,/MCU/BTN_YES*%
X142278987Y-90882187D02*
X143776735Y-92379935D01*
X154622400Y-85725600D02*
X154622400Y-84625601D01*
X144622255Y-92379935D02*
X147576590Y-89425600D01*
X150922400Y-89425600D02*
X154622400Y-85725600D01*
X147576590Y-89425600D02*
X150922400Y-89425600D01*
X143776735Y-92379935D02*
X144622255Y-92379935D01*
D42*
%TO.N,Net-(U3-SEL_1)*%
X121793000Y-92964000D02*
X121716800Y-92887800D01*
X125069600Y-92964000D02*
X121793000Y-92964000D01*
D35*
%TO.N,/m_narrow*%
X98022400Y-97728740D02*
X96746340Y-99004800D01*
X132972401Y-83450600D02*
X132257235Y-84165766D01*
X93572400Y-96689940D02*
X93572400Y-96225600D01*
X132257235Y-84165766D02*
X132257235Y-84710435D01*
X128367070Y-88600600D02*
X124547400Y-88600600D01*
X132257235Y-84710435D02*
X128367070Y-88600600D01*
X95887260Y-99004800D02*
X93572400Y-96689940D01*
X122672400Y-86725600D02*
X108872400Y-86725600D01*
X124547400Y-88600600D02*
X122672400Y-86725600D01*
X108872400Y-86725600D02*
X98022400Y-97575600D01*
X134422400Y-83450600D02*
X132972401Y-83450600D01*
X96746340Y-99004800D02*
X95887260Y-99004800D01*
X98022400Y-97575600D02*
X98022400Y-97728740D01*
D40*
%TO.N,/NARROW*%
X95918212Y-72907400D02*
X108004199Y-72907400D01*
X93207600Y-77125600D02*
X93065600Y-76983600D01*
X108004199Y-72907400D02*
X110222399Y-75125600D01*
X93065600Y-76983600D02*
X93065600Y-75760012D01*
X93065600Y-75760012D02*
X95918212Y-72907400D01*
D35*
%TO.N,/MCU/GPIO19*%
X91382452Y-86425600D02*
X86982450Y-86425600D01*
X101202556Y-91425600D02*
X95217374Y-91425600D01*
X138714414Y-78375600D02*
X137827425Y-78375600D01*
X138962494Y-78623680D02*
X138714414Y-78375600D01*
X137827425Y-78375600D02*
X137227426Y-77775600D01*
X86982450Y-86425600D02*
X86682451Y-86125600D01*
X114852556Y-77775600D02*
X101202556Y-91425600D01*
X137227426Y-77775600D02*
X114852556Y-77775600D01*
X94122400Y-90330626D02*
X94122400Y-89165548D01*
X86682451Y-86125600D02*
X82622400Y-86125600D01*
X94122400Y-89165548D02*
X91382452Y-86425600D01*
X95217374Y-91425600D02*
X94122400Y-90330626D01*
%TO.N,/MCU/GPIO20*%
X137972400Y-78025600D02*
X137372400Y-77425600D01*
X137372400Y-77425600D02*
X114707582Y-77425600D01*
X102938382Y-89194800D02*
X94646625Y-89194800D01*
X94646625Y-89194800D02*
X91527426Y-86075600D01*
X87127425Y-86075600D02*
X85177426Y-84125600D01*
X139222400Y-77675600D02*
X138872400Y-78025600D01*
X114707582Y-77425600D02*
X102938382Y-89194800D01*
X85177426Y-84125600D02*
X82622400Y-84125600D01*
X91527426Y-86075600D02*
X87127425Y-86075600D01*
X138872400Y-78025600D02*
X137972400Y-78025600D01*
%TO.N,/MCU/GPIO16*%
X139525915Y-79898680D02*
X137745480Y-79898680D01*
X94722400Y-94275600D02*
X92572400Y-92125600D01*
X137745480Y-79898680D02*
X136672400Y-78825600D01*
X115287478Y-78825600D02*
X99837478Y-94275600D01*
X136672400Y-78825600D02*
X115287478Y-78825600D01*
X99837478Y-94275600D02*
X94722400Y-94275600D01*
X139757538Y-80130303D02*
X139525915Y-79898680D01*
X92572400Y-92125600D02*
X82622400Y-92125600D01*
%TO.N,Net-(U1-QSPI_SD1)*%
X131674737Y-97677937D02*
X129885137Y-97677937D01*
X129885137Y-97677937D02*
X129717800Y-97510600D01*
%TO.N,/DAC_CS*%
X132867300Y-80620500D02*
X132680473Y-80620500D01*
X133746642Y-81499842D02*
X132867300Y-80620500D01*
X133746642Y-81926358D02*
X133746642Y-81499842D01*
D34*
%TO.N,/m_LAMBDA_OUT*%
X99972400Y-81825600D02*
X97922400Y-83875600D01*
X99972400Y-81825600D02*
X107003160Y-81825600D01*
X122538400Y-84180800D02*
X116631400Y-84180800D01*
X89022400Y-83875600D02*
X88372400Y-84525600D01*
X116631400Y-84180800D02*
X116422400Y-84389800D01*
X97922400Y-83875600D02*
X89022400Y-83875600D01*
X108162780Y-80665980D02*
X107003160Y-81825600D01*
X122747400Y-84389800D02*
X122538400Y-84180800D01*
D35*
%TO.N,/DAC_SO*%
X132867400Y-81790027D02*
X132867400Y-81620600D01*
X132867400Y-81620600D02*
X131822400Y-80575600D01*
X132927973Y-81850600D02*
X132867400Y-81790027D01*
X131822400Y-80575600D02*
X131622400Y-80575600D01*
D33*
%TO.N,/m_TEMP_OUT*%
X106379000Y-81319000D02*
X93579000Y-81319000D01*
X108122400Y-79575600D02*
X106379000Y-81319000D01*
X93579000Y-81319000D02*
X92722400Y-82175600D01*
X89465400Y-82175600D02*
X89052400Y-81762600D01*
X92722400Y-82175600D02*
X89465400Y-82175600D01*
D35*
%TO.N,/MCU/GPIO18*%
X136972400Y-78125600D02*
X114997530Y-78125600D01*
X93772400Y-89310522D02*
X91237478Y-86775600D01*
X114997530Y-78125600D02*
X101347530Y-91775600D01*
X91237478Y-86775600D02*
X83972400Y-86775600D01*
X139200667Y-79198680D02*
X138045480Y-79198680D01*
X101347530Y-91775600D02*
X95072400Y-91775600D01*
X138045480Y-79198680D02*
X136972400Y-78125600D01*
X93772400Y-90475600D02*
X93772400Y-89310522D01*
X83972400Y-86775600D02*
X82622400Y-88125600D01*
X139973747Y-78425600D02*
X139200667Y-79198680D01*
X95072400Y-91775600D02*
X93772400Y-90475600D01*
X140122400Y-78425600D02*
X139973747Y-78425600D01*
%TO.N,/MCU/GPIO17*%
X94872400Y-93925600D02*
X91072400Y-90125600D01*
X139586461Y-79307860D02*
X139345641Y-79548680D01*
X91072400Y-90125600D02*
X82622400Y-90125600D01*
X136827426Y-78475600D02*
X115142504Y-78475600D01*
X115142504Y-78475600D02*
X99692504Y-93925600D01*
X99692504Y-93925600D02*
X94872400Y-93925600D01*
X139345641Y-79548680D02*
X137900506Y-79548680D01*
X137900506Y-79548680D02*
X136827426Y-78475600D01*
X139904661Y-79307860D02*
X139586461Y-79307860D01*
%TO.N,/MCU/GPIO15*%
X95511600Y-96464800D02*
X93172400Y-94125600D01*
X137600506Y-80248680D02*
X136627426Y-79275600D01*
X138845480Y-80248680D02*
X137600506Y-80248680D01*
X143807471Y-84385181D02*
X142981981Y-84385181D01*
X93172400Y-94125600D02*
X82622400Y-94125600D01*
X122172400Y-81325600D02*
X113282452Y-81325600D01*
X136627426Y-79275600D02*
X124222400Y-79275600D01*
X142981981Y-84385181D02*
X138845480Y-80248680D01*
X124222400Y-79275600D02*
X122172400Y-81325600D01*
X113282452Y-81325600D02*
X98143252Y-96464800D01*
X98143252Y-96464800D02*
X95511600Y-96464800D01*
%TD*%
%TA.AperFunction,Conductor*%
%TO.N,GND*%
G36*
X120450972Y-87320785D02*
G01*
X120496727Y-87373589D01*
X120506671Y-87442747D01*
X120503708Y-87457194D01*
X120468730Y-87587730D01*
X120468729Y-87587737D01*
X120449477Y-87807797D01*
X120449477Y-87807802D01*
X120468729Y-88027862D01*
X120468730Y-88027870D01*
X120525904Y-88241245D01*
X120525905Y-88241247D01*
X120525906Y-88241250D01*
X120606767Y-88414658D01*
X120619266Y-88441462D01*
X120619268Y-88441466D01*
X120745970Y-88622415D01*
X120745975Y-88622421D01*
X120902178Y-88778624D01*
X120902184Y-88778629D01*
X121083133Y-88905331D01*
X121083135Y-88905332D01*
X121083138Y-88905334D01*
X121177688Y-88949423D01*
X121211989Y-88965418D01*
X121264428Y-89011590D01*
X121283580Y-89078784D01*
X121263364Y-89145665D01*
X121211989Y-89190182D01*
X121083140Y-89250265D01*
X121083138Y-89250266D01*
X120902177Y-89376975D01*
X120745975Y-89533177D01*
X120619266Y-89714138D01*
X120619265Y-89714140D01*
X120525907Y-89914348D01*
X120525904Y-89914354D01*
X120468730Y-90127729D01*
X120468729Y-90127737D01*
X120449477Y-90347797D01*
X120449477Y-90347802D01*
X120468729Y-90567862D01*
X120468730Y-90567870D01*
X120525904Y-90781245D01*
X120525905Y-90781247D01*
X120525906Y-90781250D01*
X120583211Y-90904141D01*
X120619266Y-90981462D01*
X120619268Y-90981466D01*
X120745970Y-91162415D01*
X120745975Y-91162421D01*
X120902178Y-91318624D01*
X120902184Y-91318629D01*
X121083133Y-91445331D01*
X121083135Y-91445332D01*
X121083138Y-91445334D01*
X121202144Y-91500827D01*
X121211989Y-91505418D01*
X121264428Y-91551590D01*
X121283580Y-91618784D01*
X121263364Y-91685665D01*
X121211989Y-91730182D01*
X121083140Y-91790265D01*
X121083138Y-91790266D01*
X120902177Y-91916975D01*
X120745975Y-92073177D01*
X120619266Y-92254138D01*
X120619265Y-92254140D01*
X120572357Y-92354736D01*
X120534017Y-92436957D01*
X120525907Y-92454348D01*
X120525904Y-92454354D01*
X120468730Y-92667729D01*
X120468729Y-92667737D01*
X120450828Y-92872355D01*
X120446897Y-92882404D01*
X120450828Y-92903244D01*
X120468729Y-93107862D01*
X120468730Y-93107870D01*
X120525904Y-93321245D01*
X120525905Y-93321247D01*
X120525906Y-93321250D01*
X120584671Y-93447272D01*
X120619266Y-93521462D01*
X120619268Y-93521466D01*
X120745970Y-93702415D01*
X120745975Y-93702421D01*
X120902178Y-93858624D01*
X120902184Y-93858629D01*
X121083133Y-93985331D01*
X121083135Y-93985332D01*
X121083138Y-93985334D01*
X121177529Y-94029349D01*
X121212581Y-94045694D01*
X121265020Y-94091866D01*
X121284172Y-94159060D01*
X121263956Y-94225941D01*
X121212581Y-94270458D01*
X121083390Y-94330701D01*
X121018611Y-94376058D01*
X121689353Y-95046800D01*
X121666640Y-95046800D01*
X121569739Y-95072764D01*
X121482860Y-95122924D01*
X121411924Y-95193860D01*
X121361764Y-95280739D01*
X121335800Y-95377640D01*
X121335800Y-95400353D01*
X120665058Y-94729611D01*
X120619701Y-94794390D01*
X120526379Y-94994520D01*
X120526375Y-94994529D01*
X120469226Y-95207813D01*
X120469224Y-95207823D01*
X120450828Y-95418095D01*
X120448357Y-95424409D01*
X120450828Y-95437505D01*
X120469224Y-95647775D01*
X120469226Y-95647786D01*
X120526375Y-95861070D01*
X120526380Y-95861084D01*
X120619698Y-96061205D01*
X120619701Y-96061211D01*
X120665058Y-96125987D01*
X120665059Y-96125988D01*
X121335800Y-95455247D01*
X121335800Y-95477960D01*
X121361764Y-95574861D01*
X121411924Y-95661740D01*
X121482860Y-95732676D01*
X121569739Y-95782836D01*
X121666640Y-95808800D01*
X121689353Y-95808800D01*
X121018610Y-96479540D01*
X121083389Y-96524898D01*
X121212581Y-96585142D01*
X121265020Y-96631314D01*
X121284172Y-96698508D01*
X121263956Y-96765389D01*
X121212581Y-96809906D01*
X121083140Y-96870265D01*
X121083138Y-96870266D01*
X120902177Y-96996975D01*
X120745973Y-97153179D01*
X120738100Y-97164424D01*
X120683523Y-97208049D01*
X120636526Y-97217300D01*
X111949110Y-97217300D01*
X111882071Y-97197615D01*
X111836316Y-97144811D01*
X111825890Y-97107183D01*
X111807769Y-96946350D01*
X111807768Y-96946345D01*
X111799718Y-96923339D01*
X111748189Y-96776078D01*
X111742475Y-96766985D01*
X111662831Y-96640232D01*
X111652216Y-96623338D01*
X111524662Y-96495784D01*
X111505440Y-96483706D01*
X111371923Y-96399811D01*
X111201654Y-96340231D01*
X111201649Y-96340230D01*
X111022404Y-96320035D01*
X111022396Y-96320035D01*
X110843150Y-96340230D01*
X110843145Y-96340231D01*
X110672876Y-96399811D01*
X110520136Y-96495785D01*
X110517303Y-96498045D01*
X110515124Y-96498934D01*
X110514242Y-96499489D01*
X110514144Y-96499334D01*
X110452617Y-96524455D01*
X110439988Y-96525100D01*
X105193340Y-96525100D01*
X105152419Y-96536064D01*
X105152419Y-96536065D01*
X105115151Y-96546051D01*
X105040614Y-96566023D01*
X105040609Y-96566026D01*
X104903690Y-96645075D01*
X104903682Y-96645081D01*
X104791878Y-96756886D01*
X104791403Y-96757359D01*
X104791310Y-96757451D01*
X104729807Y-96790604D01*
X104660143Y-96785243D01*
X104604437Y-96743070D01*
X104580374Y-96677474D01*
X104580349Y-96677083D01*
X104568289Y-96485395D01*
X104568288Y-96485388D01*
X104568288Y-96485385D01*
X104509331Y-96176321D01*
X104473859Y-96067149D01*
X112308300Y-96067149D01*
X112314451Y-96073300D01*
X120197149Y-96073300D01*
X120203300Y-96067149D01*
X120203300Y-95448312D01*
X120207297Y-95434698D01*
X120205731Y-95431719D01*
X120203300Y-95407287D01*
X120203300Y-92914051D01*
X120209459Y-92893073D01*
X120205731Y-92885980D01*
X120203300Y-92861548D01*
X120203300Y-90724451D01*
X120197149Y-90718300D01*
X112323149Y-90718300D01*
X112314451Y-90718300D01*
X112314450Y-90718300D01*
X112308300Y-90724450D01*
X112308300Y-90724451D01*
X112308300Y-96067149D01*
X104473859Y-96067149D01*
X104412103Y-95877085D01*
X104404573Y-95861084D01*
X104309176Y-95658354D01*
X104278137Y-95592393D01*
X104229108Y-95515135D01*
X104109548Y-95326738D01*
X104109545Y-95326734D01*
X103908993Y-95084309D01*
X103908991Y-95084307D01*
X103794549Y-94976838D01*
X103679630Y-94868922D01*
X103679627Y-94868920D01*
X103679621Y-94868915D01*
X103425095Y-94683991D01*
X103425088Y-94683986D01*
X103425084Y-94683984D01*
X103149366Y-94532406D01*
X103149363Y-94532404D01*
X103149358Y-94532402D01*
X103149357Y-94532401D01*
X102856828Y-94416581D01*
X102856825Y-94416580D01*
X102552076Y-94338334D01*
X102552065Y-94338332D01*
X102378336Y-94316385D01*
X102314293Y-94288453D01*
X102275517Y-94230331D01*
X102274320Y-94160472D01*
X102306195Y-94105684D01*
X109074460Y-87337418D01*
X109135783Y-87303934D01*
X109162141Y-87301100D01*
X120383933Y-87301100D01*
X120450972Y-87320785D01*
G37*
%TD.AperFunction*%
%TA.AperFunction,Conductor*%
G36*
X124118174Y-93709185D02*
G01*
X124150400Y-93739187D01*
X124212054Y-93821546D01*
X124237535Y-93840621D01*
X124327264Y-93907793D01*
X124327273Y-93907798D01*
X124429203Y-93945815D01*
X124485137Y-93987686D01*
X124509555Y-94053150D01*
X124494704Y-94121423D01*
X124473552Y-94149678D01*
X123188693Y-95434536D01*
X123127370Y-95468021D01*
X123057678Y-95463037D01*
X123001745Y-95421165D01*
X122977484Y-95357662D01*
X122964375Y-95207824D01*
X122964373Y-95207813D01*
X122907224Y-94994529D01*
X122907220Y-94994520D01*
X122813896Y-94794386D01*
X122768541Y-94729611D01*
X122768540Y-94729610D01*
X122097800Y-95400351D01*
X122097800Y-95377640D01*
X122071836Y-95280739D01*
X122021676Y-95193860D01*
X121950740Y-95122924D01*
X121863861Y-95072764D01*
X121766960Y-95046800D01*
X121744248Y-95046800D01*
X122414988Y-94376059D01*
X122414987Y-94376058D01*
X122350211Y-94330701D01*
X122350205Y-94330698D01*
X122221019Y-94270458D01*
X122168579Y-94224286D01*
X122149427Y-94157093D01*
X122169643Y-94090211D01*
X122221019Y-94045694D01*
X122350462Y-93985334D01*
X122531420Y-93858626D01*
X122664227Y-93725819D01*
X122725550Y-93692334D01*
X122751908Y-93689500D01*
X124051135Y-93689500D01*
X124118174Y-93709185D01*
G37*
%TD.AperFunction*%
%TA.AperFunction,Conductor*%
G36*
X144543759Y-91396323D02*
G01*
X144599697Y-91438188D01*
X144624121Y-91503650D01*
X144609277Y-91571924D01*
X144588120Y-91600190D01*
X144420192Y-91768117D01*
X144358871Y-91801601D01*
X144332513Y-91804435D01*
X144066477Y-91804435D01*
X143999438Y-91784750D01*
X143978796Y-91768116D01*
X143911347Y-91700667D01*
X143877862Y-91639344D01*
X143882846Y-91569652D01*
X143924718Y-91513719D01*
X143974709Y-91491394D01*
X144463991Y-91393539D01*
X144474069Y-91391346D01*
X144543759Y-91396323D01*
G37*
%TD.AperFunction*%
%TA.AperFunction,Conductor*%
G36*
X139664946Y-83985317D02*
G01*
X139720879Y-84027189D01*
X139726605Y-84035526D01*
X139792582Y-84140527D01*
X139792584Y-84140529D01*
X139920138Y-84268083D01*
X139952173Y-84288212D01*
X140068741Y-84361457D01*
X140072878Y-84364056D01*
X140199806Y-84408470D01*
X140243145Y-84423635D01*
X140243150Y-84423636D01*
X140422396Y-84443832D01*
X140422400Y-84443832D01*
X140422404Y-84443832D01*
X140601649Y-84423636D01*
X140601652Y-84423635D01*
X140601655Y-84423635D01*
X140771922Y-84364056D01*
X140924662Y-84268083D01*
X141052216Y-84140529D01*
X141114680Y-84041117D01*
X141167015Y-83994827D01*
X141236068Y-83984179D01*
X141299917Y-84012554D01*
X141307355Y-84019409D01*
X141560581Y-84272635D01*
X141594066Y-84333958D01*
X141596900Y-84360316D01*
X141596900Y-84867660D01*
X141577215Y-84934699D01*
X141560581Y-84955341D01*
X141542584Y-84973337D01*
X141446611Y-85126076D01*
X141387031Y-85296345D01*
X141387030Y-85296350D01*
X141366835Y-85475596D01*
X141366835Y-85475603D01*
X141387030Y-85654849D01*
X141387031Y-85654854D01*
X141446611Y-85825123D01*
X141523655Y-85947737D01*
X141542584Y-85977862D01*
X141670138Y-86105416D01*
X141741252Y-86150100D01*
X141798569Y-86186115D01*
X141822878Y-86201389D01*
X141929298Y-86238627D01*
X141993145Y-86260968D01*
X141993150Y-86260969D01*
X142172396Y-86281165D01*
X142172400Y-86281165D01*
X142172404Y-86281165D01*
X142351649Y-86260969D01*
X142351652Y-86260968D01*
X142351655Y-86260968D01*
X142521922Y-86201389D01*
X142674662Y-86105416D01*
X142802216Y-85977862D01*
X142898189Y-85825122D01*
X142957768Y-85654855D01*
X142958344Y-85649746D01*
X142977965Y-85475603D01*
X142977965Y-85475596D01*
X142957769Y-85296350D01*
X142957766Y-85296337D01*
X142898035Y-85125636D01*
X142894473Y-85055857D01*
X142929201Y-84995230D01*
X142991195Y-84963002D01*
X143015076Y-84960681D01*
X143057748Y-84960681D01*
X143199531Y-84960681D01*
X143266570Y-84980366D01*
X143287212Y-84997000D01*
X143305209Y-85014997D01*
X143357316Y-85047738D01*
X143431259Y-85094200D01*
X143457949Y-85110970D01*
X143569776Y-85150100D01*
X143628216Y-85170549D01*
X143628221Y-85170550D01*
X143807467Y-85190746D01*
X143807471Y-85190746D01*
X143807475Y-85190746D01*
X143986722Y-85170550D01*
X143993508Y-85169001D01*
X143994103Y-85171610D01*
X144051667Y-85168645D01*
X144112311Y-85203345D01*
X144144567Y-85265323D01*
X144146900Y-85289262D01*
X144146900Y-86196202D01*
X144127215Y-86263241D01*
X144110581Y-86283883D01*
X142372738Y-88021725D01*
X142311415Y-88055210D01*
X142241723Y-88050226D01*
X142185790Y-88008354D01*
X142161373Y-87942890D01*
X142161836Y-87920165D01*
X142168824Y-87858143D01*
X142170161Y-87846287D01*
X142170161Y-87846282D01*
X142149965Y-87667036D01*
X142149964Y-87667031D01*
X142116452Y-87571260D01*
X142090385Y-87496764D01*
X142075665Y-87473338D01*
X142018768Y-87382787D01*
X141994412Y-87344024D01*
X141866858Y-87216470D01*
X141814406Y-87183512D01*
X141714119Y-87120497D01*
X141543850Y-87060917D01*
X141543845Y-87060916D01*
X141364600Y-87040721D01*
X141364592Y-87040721D01*
X141185346Y-87060916D01*
X141185341Y-87060917D01*
X141015072Y-87120497D01*
X140862332Y-87216471D01*
X140859499Y-87218731D01*
X140857320Y-87219620D01*
X140856438Y-87220175D01*
X140856340Y-87220020D01*
X140794813Y-87245141D01*
X140782184Y-87245786D01*
X140252866Y-87245786D01*
X140185827Y-87226101D01*
X140140072Y-87173297D01*
X140130128Y-87104139D01*
X140133774Y-87090340D01*
X140133394Y-87090251D01*
X140168366Y-86941560D01*
X140168366Y-86941559D01*
X140160515Y-86797893D01*
X140130973Y-86650182D01*
X139983739Y-85914009D01*
X139980127Y-85897408D01*
X139927588Y-85763463D01*
X139927587Y-85763462D01*
X139927587Y-85763461D01*
X139892536Y-85718244D01*
X139839441Y-85649747D01*
X139722826Y-85565470D01*
X139587191Y-85517461D01*
X139587190Y-85517460D01*
X139587188Y-85517460D01*
X138703310Y-85340685D01*
X138640227Y-85332156D01*
X138523473Y-85340507D01*
X138514491Y-85341149D01*
X138446219Y-85326298D01*
X138396814Y-85276893D01*
X138381962Y-85208620D01*
X138406379Y-85143156D01*
X138417959Y-85129791D01*
X139533933Y-84013816D01*
X139595254Y-83980333D01*
X139664946Y-83985317D01*
G37*
%TD.AperFunction*%
%TA.AperFunction,Conductor*%
G36*
X127714939Y-80220785D02*
G01*
X127760694Y-80273589D01*
X127771900Y-80325100D01*
X127771900Y-81073470D01*
X127771901Y-81073476D01*
X127778308Y-81133083D01*
X127828602Y-81267928D01*
X127828606Y-81267935D01*
X127914852Y-81383144D01*
X127914853Y-81383145D01*
X127914854Y-81383146D01*
X127997211Y-81444798D01*
X128039082Y-81500731D01*
X128046900Y-81544064D01*
X128046900Y-85507134D01*
X128027215Y-85574173D01*
X127997212Y-85606400D01*
X127914852Y-85668055D01*
X127828606Y-85783264D01*
X127828602Y-85783271D01*
X127778308Y-85918117D01*
X127772604Y-85971178D01*
X127771901Y-85977723D01*
X127771900Y-85977735D01*
X127771900Y-87073470D01*
X127771901Y-87073476D01*
X127776066Y-87112220D01*
X127763659Y-87180979D01*
X127716048Y-87232116D01*
X127693731Y-87242514D01*
X127672879Y-87249810D01*
X127672875Y-87249812D01*
X127520137Y-87345784D01*
X127392584Y-87473337D01*
X127296611Y-87626076D01*
X127237031Y-87796345D01*
X127237030Y-87796349D01*
X127223664Y-87914984D01*
X127196597Y-87979398D01*
X127139003Y-88018953D01*
X127100444Y-88025100D01*
X124837142Y-88025100D01*
X124770103Y-88005415D01*
X124749461Y-87988781D01*
X124497961Y-87737281D01*
X124464476Y-87675958D01*
X124469460Y-87606266D01*
X124511332Y-87550333D01*
X124576796Y-87525916D01*
X124585642Y-87525600D01*
X124647400Y-87525600D01*
X124647400Y-86775600D01*
X125147400Y-86775600D01*
X125147400Y-87525600D01*
X125320228Y-87525600D01*
X125320244Y-87525599D01*
X125379772Y-87519198D01*
X125379779Y-87519196D01*
X125514486Y-87468954D01*
X125514493Y-87468950D01*
X125629587Y-87382790D01*
X125629590Y-87382787D01*
X125715750Y-87267693D01*
X125715754Y-87267686D01*
X125765996Y-87132979D01*
X125765998Y-87132972D01*
X125772399Y-87073444D01*
X125772400Y-87073427D01*
X125772400Y-86775600D01*
X125147400Y-86775600D01*
X124647400Y-86775600D01*
X124647400Y-85525600D01*
X125147400Y-85525600D01*
X125147400Y-86275600D01*
X125772400Y-86275600D01*
X125772400Y-85977772D01*
X125772399Y-85977755D01*
X125765998Y-85918227D01*
X125765996Y-85918220D01*
X125715754Y-85783513D01*
X125715750Y-85783506D01*
X125629590Y-85668412D01*
X125629587Y-85668409D01*
X125514493Y-85582249D01*
X125514486Y-85582245D01*
X125379779Y-85532003D01*
X125379772Y-85532001D01*
X125320244Y-85525600D01*
X125147400Y-85525600D01*
X124647400Y-85525600D01*
X124474555Y-85525600D01*
X124415027Y-85532001D01*
X124415020Y-85532003D01*
X124272001Y-85585346D01*
X124271440Y-85583843D01*
X124213045Y-85596542D01*
X124147583Y-85572121D01*
X124105715Y-85516185D01*
X124097900Y-85472859D01*
X124097900Y-82020454D01*
X124116907Y-81954481D01*
X124124689Y-81942097D01*
X124198189Y-81825122D01*
X124257768Y-81654855D01*
X124261079Y-81625468D01*
X124288144Y-81561056D01*
X124345738Y-81521500D01*
X124407254Y-81518910D01*
X124407313Y-81518369D01*
X124410913Y-81518756D01*
X124412817Y-81518676D01*
X124415028Y-81519198D01*
X124474555Y-81525599D01*
X124474572Y-81525600D01*
X124647400Y-81525600D01*
X124647400Y-80775600D01*
X125147400Y-80775600D01*
X125147400Y-81525600D01*
X125320228Y-81525600D01*
X125320244Y-81525599D01*
X125379772Y-81519198D01*
X125379779Y-81519196D01*
X125514486Y-81468954D01*
X125514493Y-81468950D01*
X125629587Y-81382790D01*
X125629590Y-81382787D01*
X125715750Y-81267693D01*
X125715754Y-81267686D01*
X125765996Y-81132979D01*
X125765998Y-81132972D01*
X125772399Y-81073444D01*
X125772400Y-81073427D01*
X125772400Y-80775600D01*
X125147400Y-80775600D01*
X124647400Y-80775600D01*
X124647400Y-80399600D01*
X124667085Y-80332561D01*
X124719889Y-80286806D01*
X124771400Y-80275600D01*
X125772400Y-80275600D01*
X125808719Y-80239281D01*
X125811058Y-80241620D01*
X125844889Y-80212306D01*
X125896400Y-80201100D01*
X127647900Y-80201100D01*
X127714939Y-80220785D01*
G37*
%TD.AperFunction*%
%TA.AperFunction,Conductor*%
G36*
X130797628Y-80220785D02*
G01*
X130843383Y-80273589D01*
X130853327Y-80342747D01*
X130847630Y-80366055D01*
X130837033Y-80396337D01*
X130837030Y-80396350D01*
X130816835Y-80575596D01*
X130816835Y-80575603D01*
X130837030Y-80754849D01*
X130837031Y-80754854D01*
X130896611Y-80925123D01*
X130966790Y-81036811D01*
X130992584Y-81077862D01*
X131120138Y-81205416D01*
X131176014Y-81240525D01*
X131269392Y-81299199D01*
X131272878Y-81301389D01*
X131355438Y-81330278D01*
X131443145Y-81360968D01*
X131443150Y-81360969D01*
X131622396Y-81381165D01*
X131622400Y-81381165D01*
X131622402Y-81381165D01*
X131691338Y-81373397D01*
X131735334Y-81368440D01*
X131804156Y-81380494D01*
X131836899Y-81403979D01*
X132096497Y-81663576D01*
X132129982Y-81724899D01*
X132132036Y-81765140D01*
X132122408Y-81850596D01*
X132122408Y-81850603D01*
X132142603Y-82029849D01*
X132142604Y-82029854D01*
X132202184Y-82200123D01*
X132291657Y-82342518D01*
X132298157Y-82352862D01*
X132425711Y-82480416D01*
X132578451Y-82576389D01*
X132703739Y-82620229D01*
X132748718Y-82635968D01*
X132748723Y-82635969D01*
X132829877Y-82645113D01*
X132894291Y-82672179D01*
X132933847Y-82729774D01*
X132935984Y-82799611D01*
X132900026Y-82859518D01*
X132848088Y-82888107D01*
X132816544Y-82896560D01*
X132750266Y-82914319D01*
X132750264Y-82914319D01*
X132750264Y-82914320D01*
X132619036Y-82990085D01*
X132619033Y-82990087D01*
X131796722Y-83812398D01*
X131796720Y-83812401D01*
X131720954Y-83943629D01*
X131681735Y-84090000D01*
X131681735Y-84420692D01*
X131662050Y-84487731D01*
X131645416Y-84508373D01*
X129734580Y-86419209D01*
X129673257Y-86452694D01*
X129603565Y-86447710D01*
X129547632Y-86405838D01*
X129523215Y-86340374D01*
X129522899Y-86331528D01*
X129522899Y-85977729D01*
X129522898Y-85977723D01*
X129522897Y-85977716D01*
X129516491Y-85918117D01*
X129515567Y-85915640D01*
X129466197Y-85783271D01*
X129466193Y-85783264D01*
X129379947Y-85668055D01*
X129297588Y-85606400D01*
X129255718Y-85550466D01*
X129247900Y-85507134D01*
X129247900Y-81544064D01*
X129267585Y-81477025D01*
X129297587Y-81444799D01*
X129379946Y-81383146D01*
X129466196Y-81267931D01*
X129516491Y-81133083D01*
X129522900Y-81073473D01*
X129522899Y-80325099D01*
X129542583Y-80258061D01*
X129595387Y-80212306D01*
X129646899Y-80201100D01*
X130730589Y-80201100D01*
X130797628Y-80220785D01*
G37*
%TD.AperFunction*%
%TA.AperFunction,Conductor*%
G36*
X136259749Y-80220785D02*
G01*
X136280391Y-80237419D01*
X136303607Y-80260635D01*
X136337092Y-80321958D01*
X136332108Y-80391650D01*
X136290236Y-80447583D01*
X136224772Y-80472000D01*
X136202044Y-80471537D01*
X136200168Y-80471325D01*
X136174051Y-80468383D01*
X136174049Y-80468383D01*
X136174048Y-80468383D01*
X136174047Y-80468383D01*
X135994801Y-80488578D01*
X135994796Y-80488579D01*
X135824527Y-80548159D01*
X135671788Y-80644132D01*
X135544235Y-80771685D01*
X135448262Y-80924424D01*
X135388682Y-81094693D01*
X135388681Y-81094698D01*
X135368486Y-81273944D01*
X135368486Y-81273951D01*
X135388681Y-81453197D01*
X135388682Y-81453202D01*
X135448262Y-81623471D01*
X135495809Y-81699141D01*
X135544235Y-81776210D01*
X135671789Y-81903764D01*
X135824529Y-81999737D01*
X135910601Y-82029855D01*
X135913854Y-82030993D01*
X135970630Y-82071715D01*
X135996378Y-82136667D01*
X135996900Y-82148035D01*
X135996900Y-82949830D01*
X135977215Y-83016869D01*
X135960581Y-83037511D01*
X135437969Y-83560122D01*
X135376646Y-83593607D01*
X135306954Y-83588623D01*
X135251021Y-83546751D01*
X135226604Y-83481287D01*
X135227067Y-83458563D01*
X135227965Y-83450600D01*
X135216821Y-83351695D01*
X135207769Y-83271350D01*
X135207768Y-83271345D01*
X135159583Y-83133640D01*
X135148189Y-83101078D01*
X135052216Y-82948338D01*
X134924662Y-82820784D01*
X134771923Y-82724811D01*
X134601654Y-82665231D01*
X134601650Y-82665230D01*
X134442479Y-82647296D01*
X134378065Y-82620229D01*
X134338510Y-82562634D01*
X134336373Y-82492797D01*
X134368682Y-82436395D01*
X134376458Y-82428620D01*
X134472431Y-82275880D01*
X134532010Y-82105613D01*
X134533303Y-82094138D01*
X134552207Y-81926361D01*
X134552207Y-81926354D01*
X134532011Y-81747108D01*
X134532010Y-81747103D01*
X134503311Y-81665085D01*
X134472431Y-81576836D01*
X134376458Y-81424096D01*
X134325763Y-81373401D01*
X134293669Y-81317812D01*
X134282924Y-81277708D01*
X134253528Y-81226794D01*
X134253527Y-81226793D01*
X134250682Y-81221865D01*
X134207157Y-81146477D01*
X134100007Y-81039327D01*
X133473461Y-80412781D01*
X133439976Y-80351458D01*
X133444960Y-80281766D01*
X133486832Y-80225833D01*
X133552296Y-80201416D01*
X133561142Y-80201100D01*
X136192710Y-80201100D01*
X136259749Y-80220785D01*
G37*
%TD.AperFunction*%
%TA.AperFunction,Conductor*%
G36*
X156565439Y-66145285D02*
G01*
X156611194Y-66198089D01*
X156622400Y-66249600D01*
X156622400Y-114001600D01*
X156602715Y-114068639D01*
X156549911Y-114114394D01*
X156498400Y-114125600D01*
X78746400Y-114125600D01*
X78679361Y-114105915D01*
X78633606Y-114053111D01*
X78622400Y-114001600D01*
X78622400Y-110125600D01*
X78916822Y-110125600D01*
X78937122Y-110512939D01*
X78997797Y-110896027D01*
X78997797Y-110896029D01*
X79098188Y-111270694D01*
X79237187Y-111632797D01*
X79413277Y-111978393D01*
X79624522Y-112303682D01*
X79624524Y-112303684D01*
X79868619Y-112605116D01*
X80142884Y-112879381D01*
X80142888Y-112879384D01*
X80444317Y-113123477D01*
X80769606Y-113334722D01*
X80769611Y-113334725D01*
X81115206Y-113510814D01*
X81477313Y-113649814D01*
X81851967Y-113750202D01*
X82235062Y-113810878D01*
X82600976Y-113830055D01*
X82622399Y-113831178D01*
X82622400Y-113831178D01*
X82622401Y-113831178D01*
X82642701Y-113830114D01*
X83009738Y-113810878D01*
X83392833Y-113750202D01*
X83767487Y-113649814D01*
X84129594Y-113510814D01*
X84475189Y-113334725D01*
X84800484Y-113123476D01*
X85101916Y-112879381D01*
X85376181Y-112605116D01*
X85620276Y-112303684D01*
X85831525Y-111978389D01*
X86007614Y-111632794D01*
X86146614Y-111270687D01*
X86247002Y-110896033D01*
X86307678Y-110512938D01*
X86327978Y-110125600D01*
X148916822Y-110125600D01*
X148937122Y-110512939D01*
X148997797Y-110896027D01*
X148997797Y-110896029D01*
X149098188Y-111270694D01*
X149237187Y-111632797D01*
X149413277Y-111978393D01*
X149624522Y-112303682D01*
X149624524Y-112303684D01*
X149868619Y-112605116D01*
X150142884Y-112879381D01*
X150142888Y-112879384D01*
X150444317Y-113123477D01*
X150769606Y-113334722D01*
X150769611Y-113334725D01*
X151115206Y-113510814D01*
X151477313Y-113649814D01*
X151851967Y-113750202D01*
X152235062Y-113810878D01*
X152600976Y-113830055D01*
X152622399Y-113831178D01*
X152622400Y-113831178D01*
X152622401Y-113831178D01*
X152642701Y-113830114D01*
X153009738Y-113810878D01*
X153392833Y-113750202D01*
X153767487Y-113649814D01*
X154129594Y-113510814D01*
X154475189Y-113334725D01*
X154800484Y-113123476D01*
X155101916Y-112879381D01*
X155376181Y-112605116D01*
X155620276Y-112303684D01*
X155831525Y-111978389D01*
X156007614Y-111632794D01*
X156146614Y-111270687D01*
X156247002Y-110896033D01*
X156307678Y-110512938D01*
X156327978Y-110125600D01*
X156307678Y-109738262D01*
X156247002Y-109355167D01*
X156146614Y-108980513D01*
X156007614Y-108618406D01*
X155831525Y-108272811D01*
X155831522Y-108272806D01*
X155620277Y-107947517D01*
X155376184Y-107646088D01*
X155376181Y-107646084D01*
X155101916Y-107371819D01*
X154863253Y-107178553D01*
X154800482Y-107127722D01*
X154475193Y-106916477D01*
X154129597Y-106740387D01*
X153767494Y-106601388D01*
X153767487Y-106601386D01*
X153392833Y-106500998D01*
X153392829Y-106500997D01*
X153392828Y-106500997D01*
X153009739Y-106440322D01*
X152622401Y-106420022D01*
X152622399Y-106420022D01*
X152235060Y-106440322D01*
X151851972Y-106500997D01*
X151851970Y-106500997D01*
X151477305Y-106601388D01*
X151115202Y-106740387D01*
X150769606Y-106916477D01*
X150444317Y-107127722D01*
X150142888Y-107371815D01*
X150142880Y-107371822D01*
X149868622Y-107646080D01*
X149868615Y-107646088D01*
X149624522Y-107947517D01*
X149413277Y-108272806D01*
X149237187Y-108618402D01*
X149098188Y-108980505D01*
X148997797Y-109355170D01*
X148997797Y-109355172D01*
X148937122Y-109738260D01*
X148916822Y-110125599D01*
X148916822Y-110125600D01*
X86327978Y-110125600D01*
X86307678Y-109738262D01*
X86247002Y-109355167D01*
X86146614Y-108980513D01*
X86007614Y-108618406D01*
X85831525Y-108272811D01*
X85831522Y-108272806D01*
X85620277Y-107947517D01*
X85376184Y-107646088D01*
X85376181Y-107646084D01*
X85101916Y-107371819D01*
X84863253Y-107178553D01*
X84800482Y-107127722D01*
X84475193Y-106916477D01*
X84129597Y-106740387D01*
X83767494Y-106601388D01*
X83767487Y-106601386D01*
X83392833Y-106500998D01*
X83392829Y-106500997D01*
X83392828Y-106500997D01*
X83009739Y-106440322D01*
X82622401Y-106420022D01*
X82622399Y-106420022D01*
X82235060Y-106440322D01*
X81851972Y-106500997D01*
X81851970Y-106500997D01*
X81477305Y-106601388D01*
X81115202Y-106740387D01*
X80769606Y-106916477D01*
X80444317Y-107127722D01*
X80142888Y-107371815D01*
X80142880Y-107371822D01*
X79868622Y-107646080D01*
X79868615Y-107646088D01*
X79624522Y-107947517D01*
X79413277Y-108272806D01*
X79237187Y-108618402D01*
X79098188Y-108980505D01*
X78997797Y-109355170D01*
X78997797Y-109355172D01*
X78937122Y-109738260D01*
X78916822Y-110125599D01*
X78916822Y-110125600D01*
X78622400Y-110125600D01*
X78622400Y-100125600D01*
X81441864Y-100125600D01*
X81461964Y-100342518D01*
X81461964Y-100342520D01*
X81461965Y-100342523D01*
X81506480Y-100498976D01*
X81521584Y-100552062D01*
X81581907Y-100673206D01*
X81618688Y-100747072D01*
X81749973Y-100920922D01*
X81910968Y-101067688D01*
X81910975Y-101067692D01*
X81910976Y-101067693D01*
X82096186Y-101182370D01*
X82096192Y-101182373D01*
X82106657Y-101186427D01*
X82299331Y-101261070D01*
X82513474Y-101301100D01*
X82513476Y-101301100D01*
X82685170Y-101301100D01*
X82752209Y-101320785D01*
X82772851Y-101337419D01*
X85343980Y-103908548D01*
X85343984Y-103908551D01*
X85466898Y-103990680D01*
X85466911Y-103990687D01*
X85603482Y-104047256D01*
X85603487Y-104047258D01*
X85603491Y-104047258D01*
X85603492Y-104047259D01*
X85748479Y-104076100D01*
X85748482Y-104076100D01*
X100796320Y-104076100D01*
X100893862Y-104056696D01*
X100941313Y-104047258D01*
X101077895Y-103990684D01*
X101127129Y-103957786D01*
X101200816Y-103908552D01*
X106354748Y-98754618D01*
X106416071Y-98721134D01*
X106442429Y-98718300D01*
X111674802Y-98718300D01*
X111741841Y-98737985D01*
X111787596Y-98790789D01*
X111798022Y-98828417D01*
X111812830Y-98959849D01*
X111812833Y-98959862D01*
X111872409Y-99130117D01*
X111872411Y-99130122D01*
X111878294Y-99139484D01*
X111897300Y-99205455D01*
X111897300Y-104723236D01*
X111877615Y-104790275D01*
X111860981Y-104810917D01*
X109125896Y-107546001D01*
X109079170Y-107575361D01*
X108921280Y-107630609D01*
X108768537Y-107726584D01*
X108640984Y-107854137D01*
X108545011Y-108006876D01*
X108485431Y-108177145D01*
X108485430Y-108177150D01*
X108465235Y-108356396D01*
X108465235Y-108356403D01*
X108485430Y-108535649D01*
X108485431Y-108535654D01*
X108545011Y-108705923D01*
X108623811Y-108831332D01*
X108640984Y-108858662D01*
X108768538Y-108986216D01*
X108921278Y-109082189D01*
X109091545Y-109141768D01*
X109091550Y-109141769D01*
X109270796Y-109161965D01*
X109270800Y-109161965D01*
X109270804Y-109161965D01*
X109450049Y-109141769D01*
X109450052Y-109141768D01*
X109450055Y-109141768D01*
X109620322Y-109082189D01*
X109773062Y-108986216D01*
X109900616Y-108858662D01*
X109996589Y-108705922D01*
X110051839Y-108548023D01*
X110081197Y-108501302D01*
X113097495Y-105485006D01*
X113171420Y-105374369D01*
X113222340Y-105251436D01*
X113248300Y-105120931D01*
X113248300Y-104987869D01*
X113248300Y-99286304D01*
X113267306Y-99220332D01*
X113289656Y-99184762D01*
X113323989Y-99130122D01*
X113383568Y-98959855D01*
X113385960Y-98938626D01*
X113398378Y-98828417D01*
X113425444Y-98764003D01*
X113483039Y-98724447D01*
X113521598Y-98718300D01*
X120636526Y-98718300D01*
X120703565Y-98737985D01*
X120738100Y-98771176D01*
X120745971Y-98782417D01*
X120745973Y-98782419D01*
X120745974Y-98782420D01*
X120902180Y-98938626D01*
X120902183Y-98938628D01*
X120902184Y-98938629D01*
X121083133Y-99065331D01*
X121083135Y-99065332D01*
X121083138Y-99065334D01*
X121283350Y-99158694D01*
X121496732Y-99215870D01*
X121653923Y-99229622D01*
X121716798Y-99235123D01*
X121716800Y-99235123D01*
X121716802Y-99235123D01*
X121771817Y-99230309D01*
X121936868Y-99215870D01*
X122150250Y-99158694D01*
X122350462Y-99065334D01*
X122531420Y-98938626D01*
X122687626Y-98782420D01*
X122814334Y-98601462D01*
X122907694Y-98401250D01*
X122964870Y-98187868D01*
X122984123Y-97967800D01*
X122972593Y-97836013D01*
X122986359Y-97767515D01*
X123008437Y-97737529D01*
X123159163Y-97586803D01*
X126600835Y-97586803D01*
X126621030Y-97766049D01*
X126621031Y-97766054D01*
X126680611Y-97936323D01*
X126748407Y-98044219D01*
X126776584Y-98089062D01*
X126904138Y-98216616D01*
X127056878Y-98312589D01*
X127227145Y-98372168D01*
X127296663Y-98380000D01*
X127361074Y-98407065D01*
X127370459Y-98415539D01*
X128135344Y-99180423D01*
X128135354Y-99180434D01*
X128139684Y-99184764D01*
X128139685Y-99184765D01*
X128246835Y-99291915D01*
X128314004Y-99330695D01*
X128378065Y-99367681D01*
X128524433Y-99406900D01*
X128524434Y-99406900D01*
X128524435Y-99406900D01*
X132204442Y-99406900D01*
X132204444Y-99406900D01*
X132350813Y-99367681D01*
X132482043Y-99291915D01*
X133851090Y-97922866D01*
X133912411Y-97889383D01*
X133924883Y-97887329D01*
X133949610Y-97884543D01*
X134051650Y-97873047D01*
X134051653Y-97873046D01*
X134051655Y-97873046D01*
X134221922Y-97813467D01*
X134374662Y-97717494D01*
X134502216Y-97589940D01*
X134598189Y-97437200D01*
X134657768Y-97266933D01*
X134661110Y-97237278D01*
X134677965Y-97087679D01*
X134677965Y-97087674D01*
X134657769Y-96908428D01*
X134657768Y-96908423D01*
X134631735Y-96834024D01*
X134598189Y-96738156D01*
X134590068Y-96725232D01*
X134536659Y-96640232D01*
X134502216Y-96585416D01*
X134374662Y-96457862D01*
X134356833Y-96446659D01*
X134221923Y-96361889D01*
X134051654Y-96302309D01*
X134051649Y-96302308D01*
X133872404Y-96282113D01*
X133872396Y-96282113D01*
X133693150Y-96302308D01*
X133693145Y-96302309D01*
X133522876Y-96361889D01*
X133413372Y-96430696D01*
X133346135Y-96449696D01*
X133281428Y-96430696D01*
X133179928Y-96366919D01*
X133133637Y-96314584D01*
X133121900Y-96261925D01*
X133121900Y-96171344D01*
X133141585Y-96104305D01*
X133148954Y-96094029D01*
X133152206Y-96089949D01*
X133152216Y-96089940D01*
X133248189Y-95937200D01*
X133307768Y-95766933D01*
X133308974Y-95756231D01*
X133327965Y-95587681D01*
X133327965Y-95587674D01*
X133307769Y-95408428D01*
X133307768Y-95408423D01*
X133278962Y-95326100D01*
X133248189Y-95238156D01*
X133229129Y-95207823D01*
X133179965Y-95129578D01*
X133152216Y-95085416D01*
X133024662Y-94957862D01*
X132987305Y-94934389D01*
X132871923Y-94861889D01*
X132701654Y-94802309D01*
X132701649Y-94802308D01*
X132522404Y-94782113D01*
X132522396Y-94782113D01*
X132343150Y-94802308D01*
X132343145Y-94802309D01*
X132172876Y-94861889D01*
X132020137Y-94957862D01*
X131892584Y-95085415D01*
X131796611Y-95238154D01*
X131737031Y-95408423D01*
X131737030Y-95408428D01*
X131716835Y-95587674D01*
X131716835Y-95587681D01*
X131737030Y-95766927D01*
X131737031Y-95766932D01*
X131796611Y-95937201D01*
X131892584Y-96089940D01*
X131934581Y-96131937D01*
X131968066Y-96193260D01*
X131970900Y-96219618D01*
X131970900Y-96766985D01*
X131951215Y-96834024D01*
X131898411Y-96879779D01*
X131833017Y-96890205D01*
X131674741Y-96872372D01*
X131674733Y-96872372D01*
X131495487Y-96892567D01*
X131495482Y-96892568D01*
X131325213Y-96952148D01*
X131172474Y-97048121D01*
X131154478Y-97066118D01*
X131093155Y-97099603D01*
X131066797Y-97102437D01*
X130475275Y-97102437D01*
X130408236Y-97082752D01*
X130370282Y-97044410D01*
X130347617Y-97008339D01*
X130220062Y-96880784D01*
X130067323Y-96784811D01*
X129897054Y-96725231D01*
X129897049Y-96725230D01*
X129717804Y-96705035D01*
X129717796Y-96705035D01*
X129538550Y-96725230D01*
X129538545Y-96725231D01*
X129368276Y-96784811D01*
X129215537Y-96880784D01*
X129087984Y-97008337D01*
X128992011Y-97161076D01*
X128932431Y-97331345D01*
X128932430Y-97331350D01*
X128912235Y-97510596D01*
X128912235Y-97510603D01*
X128932430Y-97689849D01*
X128932431Y-97689854D01*
X128992011Y-97860123D01*
X129087984Y-98012862D01*
X129119341Y-98044219D01*
X129152826Y-98105542D01*
X129147842Y-98175234D01*
X129105970Y-98231167D01*
X129040506Y-98255584D01*
X129031660Y-98255900D01*
X128889941Y-98255900D01*
X128822902Y-98236215D01*
X128802260Y-98219581D01*
X128248041Y-97665362D01*
X128214556Y-97604039D01*
X128212502Y-97591564D01*
X128191769Y-97407550D01*
X128191768Y-97407545D01*
X128143312Y-97269065D01*
X128132189Y-97237278D01*
X128119596Y-97217237D01*
X128060192Y-97122696D01*
X128036216Y-97084538D01*
X127908662Y-96956984D01*
X127855120Y-96923341D01*
X127755923Y-96861011D01*
X127585654Y-96801431D01*
X127585649Y-96801430D01*
X127406404Y-96781235D01*
X127406396Y-96781235D01*
X127227150Y-96801430D01*
X127227145Y-96801431D01*
X127056876Y-96861011D01*
X126904137Y-96956984D01*
X126776584Y-97084537D01*
X126680611Y-97237276D01*
X126621031Y-97407545D01*
X126621030Y-97407550D01*
X126600835Y-97586796D01*
X126600835Y-97586803D01*
X123159163Y-97586803D01*
X126905352Y-93840616D01*
X126931111Y-93802064D01*
X126984721Y-93757259D01*
X127054046Y-93748550D01*
X127075168Y-93753913D01*
X127168873Y-93786702D01*
X127168879Y-93786703D01*
X127168881Y-93786704D01*
X127168882Y-93786704D01*
X127168886Y-93786705D01*
X127348132Y-93806901D01*
X127348136Y-93806901D01*
X127348140Y-93806901D01*
X127527385Y-93786705D01*
X127527388Y-93786704D01*
X127527391Y-93786704D01*
X127697658Y-93727125D01*
X127850398Y-93631152D01*
X127977952Y-93503598D01*
X128073925Y-93350858D01*
X128133504Y-93180591D01*
X128143297Y-93093665D01*
X128170362Y-93029254D01*
X128178826Y-93019879D01*
X129161896Y-92036811D01*
X129223219Y-92003326D01*
X129249577Y-92000492D01*
X130216796Y-92000492D01*
X130283835Y-92020177D01*
X130294111Y-92027547D01*
X130296944Y-92029806D01*
X130296946Y-92029808D01*
X130365974Y-92073181D01*
X130434310Y-92116120D01*
X130449686Y-92125781D01*
X130542423Y-92158231D01*
X130619953Y-92185360D01*
X130619958Y-92185361D01*
X130746720Y-92199643D01*
X130811134Y-92226709D01*
X130820518Y-92235182D01*
X131413678Y-92828342D01*
X131520828Y-92935492D01*
X131593136Y-92977239D01*
X131617826Y-92991494D01*
X131617827Y-92991495D01*
X131652052Y-93011255D01*
X131652053Y-93011255D01*
X131652058Y-93011258D01*
X131798426Y-93050477D01*
X131798427Y-93050477D01*
X132035606Y-93050477D01*
X132102645Y-93070162D01*
X132123287Y-93086796D01*
X132141284Y-93104793D01*
X132179542Y-93128832D01*
X132283265Y-93194006D01*
X132294024Y-93200766D01*
X132464291Y-93260345D01*
X132464296Y-93260346D01*
X132643542Y-93280542D01*
X132643546Y-93280542D01*
X132643550Y-93280542D01*
X132822795Y-93260346D01*
X132822798Y-93260345D01*
X132822801Y-93260345D01*
X132993068Y-93200766D01*
X133145808Y-93104793D01*
X133273362Y-92977239D01*
X133369335Y-92824499D01*
X133428914Y-92654232D01*
X133432665Y-92620941D01*
X133449111Y-92474980D01*
X133449111Y-92474973D01*
X133428915Y-92295727D01*
X133428914Y-92295722D01*
X133408056Y-92236114D01*
X133369335Y-92125455D01*
X133363469Y-92116120D01*
X133307815Y-92027547D01*
X133273362Y-91972715D01*
X133145808Y-91845161D01*
X133145805Y-91845159D01*
X133075087Y-91800723D01*
X133028796Y-91748388D01*
X133017060Y-91695730D01*
X133017060Y-90125580D01*
X133036745Y-90058541D01*
X133053379Y-90037899D01*
X133053859Y-90037419D01*
X133071376Y-90019902D01*
X133167349Y-89867162D01*
X133226928Y-89696895D01*
X133231476Y-89656529D01*
X133247125Y-89517643D01*
X133247125Y-89517636D01*
X133226929Y-89338390D01*
X133226928Y-89338385D01*
X133223998Y-89330012D01*
X133167349Y-89168118D01*
X133071376Y-89015378D01*
X132943822Y-88887824D01*
X132883785Y-88850100D01*
X132791083Y-88791851D01*
X132620814Y-88732271D01*
X132620809Y-88732270D01*
X132441564Y-88712075D01*
X132441556Y-88712075D01*
X132262310Y-88732270D01*
X132262305Y-88732271D01*
X132092036Y-88791851D01*
X131939297Y-88887824D01*
X131811744Y-89015377D01*
X131715771Y-89168116D01*
X131656191Y-89338385D01*
X131656190Y-89338390D01*
X131635995Y-89517636D01*
X131635995Y-89517643D01*
X131656190Y-89696889D01*
X131656191Y-89696894D01*
X131715771Y-89867163D01*
X131811744Y-90019902D01*
X131829741Y-90037899D01*
X131863226Y-90099222D01*
X131866060Y-90125580D01*
X131866060Y-91353602D01*
X131846375Y-91420641D01*
X131793571Y-91466396D01*
X131724413Y-91476340D01*
X131660857Y-91447315D01*
X131654379Y-91441283D01*
X131634398Y-91421302D01*
X131600913Y-91359979D01*
X131598859Y-91347504D01*
X131584577Y-91220742D01*
X131584576Y-91220737D01*
X131559880Y-91150161D01*
X131524997Y-91050470D01*
X131520193Y-91042825D01*
X131477653Y-90975122D01*
X131429024Y-90897730D01*
X131301470Y-90770176D01*
X131232761Y-90727003D01*
X131148731Y-90674203D01*
X130978462Y-90614623D01*
X130978457Y-90614622D01*
X130799212Y-90594427D01*
X130799204Y-90594427D01*
X130619958Y-90614622D01*
X130619953Y-90614623D01*
X130449684Y-90674203D01*
X130296944Y-90770177D01*
X130294111Y-90772437D01*
X130291932Y-90773326D01*
X130291050Y-90773881D01*
X130290952Y-90773726D01*
X130229425Y-90798847D01*
X130216796Y-90799492D01*
X129850047Y-90799492D01*
X129783008Y-90779807D01*
X129737253Y-90727003D01*
X129727309Y-90657845D01*
X129756334Y-90594289D01*
X129762366Y-90587811D01*
X131676013Y-88674164D01*
X131676016Y-88674161D01*
X131758149Y-88551240D01*
X131814723Y-88414658D01*
X131836011Y-88307632D01*
X131840584Y-88290882D01*
X131878433Y-88182720D01*
X131881201Y-88158156D01*
X131898630Y-88003468D01*
X131898630Y-88003461D01*
X131878434Y-87824215D01*
X131878433Y-87824210D01*
X131818853Y-87653940D01*
X131746073Y-87538113D01*
X131726542Y-87507030D01*
X131707542Y-87439795D01*
X131727909Y-87372960D01*
X131743850Y-87353383D01*
X132817104Y-86280129D01*
X132878425Y-86246646D01*
X132948117Y-86251630D01*
X133004050Y-86293502D01*
X133028003Y-86353928D01*
X133033740Y-86404850D01*
X133033741Y-86404854D01*
X133093321Y-86575123D01*
X133176864Y-86708080D01*
X133189294Y-86727862D01*
X133316848Y-86855416D01*
X133396940Y-86905741D01*
X133453943Y-86941559D01*
X133469588Y-86951389D01*
X133589011Y-86993177D01*
X133639855Y-87010968D01*
X133639860Y-87010969D01*
X133819106Y-87031165D01*
X133819110Y-87031165D01*
X133819114Y-87031165D01*
X133998359Y-87010969D01*
X133998362Y-87010968D01*
X133998365Y-87010968D01*
X134168632Y-86951389D01*
X134321372Y-86855416D01*
X134448926Y-86727862D01*
X134544899Y-86575122D01*
X134604478Y-86404855D01*
X134608931Y-86365332D01*
X134624675Y-86225603D01*
X134624675Y-86225597D01*
X134613950Y-86130415D01*
X134608635Y-86083241D01*
X134620689Y-86014420D01*
X134644171Y-85981680D01*
X135664036Y-84961815D01*
X135725359Y-84928331D01*
X135795051Y-84933315D01*
X135850984Y-84975187D01*
X135875401Y-85040651D01*
X135868759Y-85090451D01*
X135846242Y-85154800D01*
X135846240Y-85154808D01*
X135826045Y-85334054D01*
X135826045Y-85334061D01*
X135846240Y-85513307D01*
X135846241Y-85513312D01*
X135905821Y-85683581D01*
X136001794Y-85836320D01*
X136019791Y-85854317D01*
X136053276Y-85915640D01*
X136056110Y-85941998D01*
X136056110Y-86274808D01*
X136036425Y-86341847D01*
X136019791Y-86362489D01*
X135978797Y-86403482D01*
X135882824Y-86556221D01*
X135823244Y-86726490D01*
X135823243Y-86726495D01*
X135803048Y-86905741D01*
X135803048Y-86905748D01*
X135823243Y-87084994D01*
X135823244Y-87084999D01*
X135882824Y-87255268D01*
X135957649Y-87374350D01*
X135978797Y-87408007D01*
X136106351Y-87535561D01*
X136163166Y-87571260D01*
X136250407Y-87626078D01*
X136259091Y-87631534D01*
X136429358Y-87691113D01*
X136429362Y-87691114D01*
X136525655Y-87701963D01*
X136581448Y-87708249D01*
X136645862Y-87735315D01*
X136685417Y-87792910D01*
X136691565Y-87831469D01*
X136691565Y-92091192D01*
X136671880Y-92158231D01*
X136655246Y-92178873D01*
X136343710Y-92490408D01*
X136282387Y-92523893D01*
X136269913Y-92525947D01*
X136143150Y-92540230D01*
X135972877Y-92599810D01*
X135937072Y-92622309D01*
X135869835Y-92641309D01*
X135803000Y-92620941D01*
X135757786Y-92567673D01*
X135747100Y-92517315D01*
X135747100Y-89330012D01*
X135766785Y-89262973D01*
X135774155Y-89252697D01*
X135776410Y-89249867D01*
X135776416Y-89249862D01*
X135872389Y-89097122D01*
X135931968Y-88926855D01*
X135931969Y-88926849D01*
X135952165Y-88747603D01*
X135952165Y-88747596D01*
X135931969Y-88568350D01*
X135931968Y-88568345D01*
X135921623Y-88538781D01*
X135872389Y-88398078D01*
X135776416Y-88245338D01*
X135648862Y-88117784D01*
X135571600Y-88069237D01*
X135496123Y-88021811D01*
X135325854Y-87962231D01*
X135325849Y-87962230D01*
X135146604Y-87942035D01*
X135146596Y-87942035D01*
X134967350Y-87962230D01*
X134967345Y-87962231D01*
X134797074Y-88021812D01*
X134787568Y-88027785D01*
X134720331Y-88046783D01*
X134655632Y-88027785D01*
X134646125Y-88021812D01*
X134475854Y-87962231D01*
X134475849Y-87962230D01*
X134296604Y-87942035D01*
X134296596Y-87942035D01*
X134117350Y-87962230D01*
X134117345Y-87962231D01*
X133947076Y-88021811D01*
X133794337Y-88117784D01*
X133666784Y-88245337D01*
X133570811Y-88398076D01*
X133511231Y-88568345D01*
X133511230Y-88568350D01*
X133491035Y-88747596D01*
X133491035Y-88747603D01*
X133511230Y-88926849D01*
X133511231Y-88926854D01*
X133570811Y-89097123D01*
X133644841Y-89214940D01*
X133666784Y-89249862D01*
X133794338Y-89377416D01*
X133947078Y-89473389D01*
X134063056Y-89513971D01*
X134119830Y-89554691D01*
X134145578Y-89619644D01*
X134146100Y-89631012D01*
X134146100Y-93128814D01*
X134146099Y-93128832D01*
X134146099Y-93136427D01*
X134146099Y-93294542D01*
X134161872Y-93353405D01*
X134183968Y-93435867D01*
X134187023Y-93447269D01*
X134187024Y-93447272D01*
X134266077Y-93584197D01*
X134266081Y-93584202D01*
X134384949Y-93703070D01*
X134384955Y-93703075D01*
X135771853Y-95089974D01*
X135771863Y-95089985D01*
X135776193Y-95094315D01*
X135776194Y-95094316D01*
X135887998Y-95206120D01*
X135888000Y-95206121D01*
X135888004Y-95206124D01*
X135943486Y-95238156D01*
X136024930Y-95285177D01*
X136134078Y-95314423D01*
X136177656Y-95326100D01*
X136177657Y-95326100D01*
X138090835Y-95326100D01*
X138157874Y-95345785D01*
X138203629Y-95398589D01*
X138214055Y-95463984D01*
X138205878Y-95536555D01*
X138205878Y-95536561D01*
X138226073Y-95715807D01*
X138226074Y-95715812D01*
X138285654Y-95886081D01*
X138374209Y-96027014D01*
X138381627Y-96038820D01*
X138509181Y-96166374D01*
X138567543Y-96203045D01*
X138613833Y-96255378D01*
X138625570Y-96308038D01*
X138625570Y-96757188D01*
X138605885Y-96824227D01*
X138589251Y-96844869D01*
X136096939Y-99337181D01*
X136035616Y-99370666D01*
X136009258Y-99373500D01*
X135358451Y-99373500D01*
X135291412Y-99353815D01*
X135245657Y-99301011D01*
X135235713Y-99231853D01*
X135264738Y-99168297D01*
X135270770Y-99161819D01*
X135714289Y-98718300D01*
X136171451Y-98261137D01*
X136232772Y-98227654D01*
X136273012Y-98225600D01*
X136310591Y-98229834D01*
X136322399Y-98231165D01*
X136322400Y-98231165D01*
X136322403Y-98231165D01*
X136501649Y-98210969D01*
X136501652Y-98210968D01*
X136501655Y-98210968D01*
X136671922Y-98151389D01*
X136824662Y-98055416D01*
X136952216Y-97927862D01*
X137048189Y-97775122D01*
X137107768Y-97604855D01*
X137109802Y-97586803D01*
X137127965Y-97425603D01*
X137127965Y-97425596D01*
X137107769Y-97246350D01*
X137107768Y-97246345D01*
X137090717Y-97197615D01*
X137048189Y-97076078D01*
X137030622Y-97048121D01*
X136973357Y-96956984D01*
X136952216Y-96923338D01*
X136824662Y-96795784D01*
X136807199Y-96784811D01*
X136671923Y-96699811D01*
X136501654Y-96640231D01*
X136501649Y-96640230D01*
X136322404Y-96620035D01*
X136322396Y-96620035D01*
X136143150Y-96640230D01*
X136143145Y-96640231D01*
X135972876Y-96699811D01*
X135820137Y-96795784D01*
X135692582Y-96923339D01*
X135692581Y-96923341D01*
X135619730Y-97039282D01*
X135602418Y-97060990D01*
X130309670Y-102353739D01*
X130222544Y-102440864D01*
X130222541Y-102440868D01*
X130209633Y-102460186D01*
X130158938Y-102503674D01*
X130055673Y-102551828D01*
X130055668Y-102551831D01*
X129869258Y-102682355D01*
X129708354Y-102843259D01*
X129577832Y-103029666D01*
X129577831Y-103029668D01*
X129481661Y-103235903D01*
X129481658Y-103235912D01*
X129422766Y-103455703D01*
X129422764Y-103455714D01*
X129402932Y-103682399D01*
X129402932Y-103682402D01*
X129422764Y-103909087D01*
X129422766Y-103909098D01*
X129481658Y-104128889D01*
X129481661Y-104128898D01*
X129577831Y-104335133D01*
X129577832Y-104335135D01*
X129708354Y-104521542D01*
X129871581Y-104684769D01*
X129905066Y-104746092D01*
X129907900Y-104772450D01*
X129907900Y-107088551D01*
X129888215Y-107155590D01*
X129871581Y-107176232D01*
X129708354Y-107339458D01*
X129577832Y-107525865D01*
X129577831Y-107525867D01*
X129481661Y-107732102D01*
X129481658Y-107732111D01*
X129422766Y-107951902D01*
X129422764Y-107951913D01*
X129402932Y-108178598D01*
X129402932Y-108178601D01*
X129422764Y-108405286D01*
X129422766Y-108405297D01*
X129481658Y-108625088D01*
X129481661Y-108625097D01*
X129577831Y-108831332D01*
X129577832Y-108831334D01*
X129708354Y-109017741D01*
X129869258Y-109178645D01*
X129869261Y-109178647D01*
X130055666Y-109309168D01*
X130261904Y-109405339D01*
X130481708Y-109464235D01*
X130643630Y-109478401D01*
X130708398Y-109484068D01*
X130708400Y-109484068D01*
X130708402Y-109484068D01*
X130765073Y-109479109D01*
X130935092Y-109464235D01*
X131154896Y-109405339D01*
X131361134Y-109309168D01*
X131547539Y-109178647D01*
X131708447Y-109017739D01*
X131838968Y-108831334D01*
X131935139Y-108625096D01*
X131994035Y-108405292D01*
X132013868Y-108178600D01*
X131994035Y-107951908D01*
X131935139Y-107732104D01*
X131838968Y-107525866D01*
X131708447Y-107339461D01*
X131708445Y-107339458D01*
X131545219Y-107176232D01*
X131511734Y-107114909D01*
X131508900Y-107088551D01*
X131508900Y-104772450D01*
X131528585Y-104705411D01*
X131545219Y-104684769D01*
X131708445Y-104521542D01*
X131708447Y-104521540D01*
X131838968Y-104335135D01*
X131935139Y-104128897D01*
X131994035Y-103909093D01*
X132013868Y-103682401D01*
X131994035Y-103455709D01*
X131935139Y-103235905D01*
X131838968Y-103029667D01*
X131719068Y-102858430D01*
X131696741Y-102792223D01*
X131713752Y-102724456D01*
X131732958Y-102699630D01*
X132209215Y-102223373D01*
X137296840Y-102223373D01*
X137317035Y-102402619D01*
X137317036Y-102402624D01*
X137376616Y-102572893D01*
X137445396Y-102682355D01*
X137472589Y-102725632D01*
X137600143Y-102853186D01*
X137752883Y-102949159D01*
X137923150Y-103008738D01*
X137923155Y-103008739D01*
X138102401Y-103028935D01*
X138102405Y-103028935D01*
X138102409Y-103028935D01*
X138281654Y-103008739D01*
X138281657Y-103008738D01*
X138281660Y-103008738D01*
X138451927Y-102949159D01*
X138604667Y-102853186D01*
X138732221Y-102725632D01*
X138828194Y-102572892D01*
X138887773Y-102402625D01*
X138891461Y-102369897D01*
X138907970Y-102223373D01*
X138907970Y-102223366D01*
X138887774Y-102044120D01*
X138887773Y-102044115D01*
X138828193Y-101873846D01*
X138766146Y-101775100D01*
X138732221Y-101721108D01*
X138732219Y-101721106D01*
X138732218Y-101721104D01*
X138729955Y-101718266D01*
X138729064Y-101716085D01*
X138728516Y-101715212D01*
X138728669Y-101715115D01*
X138703549Y-101653579D01*
X138702905Y-101640957D01*
X138702905Y-101253466D01*
X138722590Y-101186427D01*
X138739219Y-101165790D01*
X140360865Y-99544143D01*
X148941899Y-99544143D01*
X148980347Y-99737429D01*
X148980350Y-99737439D01*
X149055764Y-99919507D01*
X149055771Y-99919520D01*
X149165260Y-100083381D01*
X149165263Y-100083385D01*
X149304614Y-100222736D01*
X149304618Y-100222739D01*
X149468479Y-100332228D01*
X149468492Y-100332235D01*
X149650560Y-100407649D01*
X149650565Y-100407651D01*
X149650569Y-100407651D01*
X149650570Y-100407652D01*
X149843856Y-100446100D01*
X149843859Y-100446100D01*
X151140943Y-100446100D01*
X151270982Y-100420232D01*
X151334235Y-100407651D01*
X151516314Y-100332232D01*
X151680182Y-100222739D01*
X151819539Y-100083382D01*
X151929032Y-99919514D01*
X152004451Y-99737435D01*
X152031792Y-99599985D01*
X152042900Y-99544143D01*
X153371899Y-99544143D01*
X153410347Y-99737429D01*
X153410350Y-99737439D01*
X153485764Y-99919507D01*
X153485771Y-99919520D01*
X153595260Y-100083381D01*
X153595263Y-100083385D01*
X153734614Y-100222736D01*
X153734618Y-100222739D01*
X153898479Y-100332228D01*
X153898492Y-100332235D01*
X154080560Y-100407649D01*
X154080565Y-100407651D01*
X154080569Y-100407651D01*
X154080570Y-100407652D01*
X154273856Y-100446100D01*
X154273859Y-100446100D01*
X155070943Y-100446100D01*
X155200982Y-100420232D01*
X155264235Y-100407651D01*
X155446314Y-100332232D01*
X155610182Y-100222739D01*
X155749539Y-100083382D01*
X155859032Y-99919514D01*
X155934451Y-99737435D01*
X155961792Y-99599985D01*
X155972900Y-99544143D01*
X155972900Y-99347056D01*
X155934452Y-99153770D01*
X155934451Y-99153769D01*
X155934451Y-99153765D01*
X155934449Y-99153760D01*
X155859035Y-98971692D01*
X155859028Y-98971679D01*
X155749539Y-98807818D01*
X155749536Y-98807814D01*
X155610185Y-98668463D01*
X155610181Y-98668460D01*
X155446320Y-98558971D01*
X155446307Y-98558964D01*
X155264239Y-98483550D01*
X155264229Y-98483547D01*
X155070943Y-98445100D01*
X155070941Y-98445100D01*
X154273859Y-98445100D01*
X154273857Y-98445100D01*
X154080570Y-98483547D01*
X154080560Y-98483550D01*
X153898492Y-98558964D01*
X153898479Y-98558971D01*
X153734618Y-98668460D01*
X153734614Y-98668463D01*
X153595263Y-98807814D01*
X153595260Y-98807818D01*
X153485771Y-98971679D01*
X153485764Y-98971692D01*
X153410350Y-99153760D01*
X153410347Y-99153770D01*
X153371900Y-99347056D01*
X153371900Y-99347059D01*
X153371900Y-99544141D01*
X153371900Y-99544143D01*
X153371899Y-99544143D01*
X152042900Y-99544143D01*
X152042900Y-99347056D01*
X152004452Y-99153770D01*
X152004451Y-99153769D01*
X152004451Y-99153765D01*
X152004449Y-99153760D01*
X151929035Y-98971692D01*
X151929028Y-98971679D01*
X151819539Y-98807818D01*
X151819536Y-98807814D01*
X151680185Y-98668463D01*
X151680181Y-98668460D01*
X151516320Y-98558971D01*
X151516307Y-98558964D01*
X151334239Y-98483550D01*
X151334229Y-98483547D01*
X151140943Y-98445100D01*
X151140941Y-98445100D01*
X149843859Y-98445100D01*
X149843857Y-98445100D01*
X149650570Y-98483547D01*
X149650560Y-98483550D01*
X149468492Y-98558964D01*
X149468479Y-98558971D01*
X149304618Y-98668460D01*
X149304614Y-98668463D01*
X149165263Y-98807814D01*
X149165260Y-98807818D01*
X149055771Y-98971679D01*
X149055764Y-98971692D01*
X148980350Y-99153760D01*
X148980347Y-99153770D01*
X148941900Y-99347056D01*
X148941900Y-99347059D01*
X148941900Y-99544141D01*
X148941900Y-99544143D01*
X148941899Y-99544143D01*
X140360865Y-99544143D01*
X141259748Y-98645260D01*
X141321069Y-98611777D01*
X141333524Y-98609725D01*
X141420468Y-98599930D01*
X141590735Y-98540351D01*
X141743475Y-98444378D01*
X141871029Y-98316824D01*
X141967002Y-98164084D01*
X142026581Y-97993817D01*
X142029512Y-97967802D01*
X142046778Y-97814565D01*
X142046778Y-97814558D01*
X142026582Y-97635312D01*
X142026581Y-97635307D01*
X141967001Y-97465038D01*
X141882999Y-97331350D01*
X141871029Y-97312300D01*
X141743475Y-97184746D01*
X141705808Y-97161078D01*
X141590736Y-97088773D01*
X141420467Y-97029193D01*
X141420462Y-97029192D01*
X141241217Y-97008997D01*
X141241209Y-97008997D01*
X141061963Y-97029192D01*
X141061958Y-97029193D01*
X140891689Y-97088773D01*
X140738950Y-97184746D01*
X140611397Y-97312299D01*
X140515423Y-97465040D01*
X140455843Y-97635312D01*
X140446050Y-97722230D01*
X140418983Y-97786644D01*
X140410511Y-97796027D01*
X137733691Y-100472848D01*
X137621886Y-100584652D01*
X137621884Y-100584655D01*
X137571766Y-100671464D01*
X137571764Y-100671466D01*
X137542830Y-100721579D01*
X137542829Y-100721580D01*
X137533991Y-100754565D01*
X137501904Y-100874313D01*
X137501904Y-100874315D01*
X137501904Y-101042416D01*
X137501905Y-101042429D01*
X137501905Y-101640957D01*
X137482220Y-101707996D01*
X137474855Y-101718266D01*
X137472591Y-101721104D01*
X137376616Y-101873846D01*
X137317036Y-102044115D01*
X137317035Y-102044120D01*
X137296840Y-102223366D01*
X137296840Y-102223373D01*
X132209215Y-102223373D01*
X133910776Y-100521812D01*
X133972097Y-100488329D01*
X134041789Y-100493313D01*
X134086136Y-100521814D01*
X134143138Y-100578816D01*
X134152431Y-100584655D01*
X134293358Y-100673206D01*
X134295878Y-100674789D01*
X134387049Y-100706691D01*
X134466145Y-100734368D01*
X134466150Y-100734369D01*
X134645396Y-100754565D01*
X134645400Y-100754565D01*
X134645404Y-100754565D01*
X134824649Y-100734369D01*
X134824652Y-100734368D01*
X134824655Y-100734368D01*
X134994922Y-100674789D01*
X135147662Y-100578816D01*
X135165659Y-100560819D01*
X135226982Y-100527334D01*
X135253340Y-100524500D01*
X136374764Y-100524500D01*
X136374766Y-100524500D01*
X136521135Y-100485281D01*
X136652365Y-100409515D01*
X139661585Y-97400295D01*
X139737351Y-97269065D01*
X139776570Y-97122696D01*
X139776570Y-96971163D01*
X139776570Y-96094053D01*
X139796255Y-96027014D01*
X139849059Y-95981259D01*
X139918217Y-95971315D01*
X139981773Y-96000340D01*
X139988251Y-96006372D01*
X140270382Y-96288503D01*
X140270392Y-96288514D01*
X140274722Y-96292844D01*
X140274723Y-96292845D01*
X140386527Y-96404649D01*
X140386529Y-96404650D01*
X140386533Y-96404653D01*
X140436883Y-96433722D01*
X140523459Y-96483706D01*
X140624012Y-96510649D01*
X140676185Y-96524629D01*
X140676186Y-96524629D01*
X143816002Y-96524629D01*
X143816018Y-96524630D01*
X143823614Y-96524630D01*
X143981725Y-96524630D01*
X143981728Y-96524630D01*
X144134456Y-96483706D01*
X144184575Y-96454768D01*
X144198621Y-96446658D01*
X144246738Y-96430825D01*
X144303096Y-96424475D01*
X144375049Y-96416369D01*
X144375052Y-96416368D01*
X144375055Y-96416368D01*
X144545322Y-96356789D01*
X144698062Y-96260816D01*
X144825616Y-96133262D01*
X144921589Y-95980522D01*
X144981168Y-95810255D01*
X144981424Y-95807982D01*
X145001365Y-95631003D01*
X145001365Y-95630996D01*
X144981169Y-95451750D01*
X144981168Y-95451745D01*
X144921588Y-95281475D01*
X144873140Y-95204372D01*
X144854139Y-95137135D01*
X144861091Y-95097447D01*
X144897728Y-94992747D01*
X144904967Y-94972059D01*
X144904969Y-94972049D01*
X144925165Y-94792803D01*
X144925165Y-94792796D01*
X144904969Y-94613550D01*
X144904968Y-94613545D01*
X144845388Y-94443276D01*
X144770215Y-94323640D01*
X144749416Y-94290538D01*
X144667481Y-94208603D01*
X146247235Y-94208603D01*
X146267430Y-94387849D01*
X146267431Y-94387854D01*
X146327011Y-94558123D01*
X146389469Y-94657523D01*
X146422984Y-94710862D01*
X146550538Y-94838416D01*
X146587895Y-94861889D01*
X146686153Y-94923629D01*
X146703278Y-94934389D01*
X146873545Y-94993968D01*
X146889465Y-94995761D01*
X146953879Y-95022826D01*
X146963266Y-95031301D01*
X147423804Y-95491839D01*
X147457289Y-95553162D01*
X147459343Y-95565636D01*
X147469789Y-95658349D01*
X147469790Y-95658354D01*
X147469791Y-95658355D01*
X147477697Y-95680949D01*
X147529369Y-95828621D01*
X147579672Y-95908677D01*
X147625343Y-95981362D01*
X147752897Y-96108916D01*
X147843239Y-96165682D01*
X147902700Y-96203044D01*
X147905637Y-96204889D01*
X148004567Y-96239506D01*
X148075904Y-96264468D01*
X148075909Y-96264469D01*
X148255155Y-96284665D01*
X148255159Y-96284665D01*
X148255163Y-96284665D01*
X148434408Y-96264469D01*
X148434411Y-96264468D01*
X148434414Y-96264468D01*
X148604681Y-96204889D01*
X148757421Y-96108916D01*
X148884975Y-95981362D01*
X148980948Y-95828622D01*
X149040527Y-95658355D01*
X149041718Y-95647786D01*
X149060724Y-95479103D01*
X149060724Y-95479096D01*
X149040528Y-95299850D01*
X149040527Y-95299845D01*
X149034099Y-95281475D01*
X148980948Y-95129578D01*
X148978448Y-95125600D01*
X148896085Y-94994520D01*
X148884975Y-94976838D01*
X148757421Y-94849284D01*
X148700490Y-94813512D01*
X148604680Y-94753310D01*
X148434408Y-94693730D01*
X148353283Y-94684590D01*
X148288869Y-94657523D01*
X148279486Y-94649051D01*
X147891500Y-94261065D01*
X147858015Y-94199742D01*
X147855961Y-94187267D01*
X147852561Y-94157093D01*
X147846769Y-94105682D01*
X147838169Y-94029349D01*
X147838168Y-94029345D01*
X147822768Y-93985334D01*
X147778589Y-93859078D01*
X147758535Y-93827163D01*
X147732743Y-93786115D01*
X147682616Y-93706338D01*
X147555062Y-93578784D01*
X147508909Y-93549784D01*
X147402323Y-93482811D01*
X147232054Y-93423231D01*
X147232049Y-93423230D01*
X147052804Y-93403035D01*
X147052796Y-93403035D01*
X146873550Y-93423230D01*
X146873545Y-93423231D01*
X146703276Y-93482811D01*
X146550537Y-93578784D01*
X146422984Y-93706337D01*
X146327011Y-93859076D01*
X146267431Y-94029345D01*
X146267430Y-94029350D01*
X146247235Y-94208596D01*
X146247235Y-94208603D01*
X144667481Y-94208603D01*
X144621862Y-94162984D01*
X144600686Y-94149678D01*
X144469123Y-94067011D01*
X144298854Y-94007431D01*
X144298849Y-94007430D01*
X144119604Y-93987235D01*
X144119596Y-93987235D01*
X143940350Y-94007430D01*
X143940345Y-94007431D01*
X143770076Y-94067011D01*
X143617337Y-94162984D01*
X143489784Y-94290537D01*
X143393810Y-94443278D01*
X143334230Y-94613550D01*
X143324437Y-94700468D01*
X143297370Y-94764882D01*
X143288899Y-94774264D01*
X143175856Y-94887309D01*
X143114533Y-94920795D01*
X143088174Y-94923629D01*
X142438722Y-94923629D01*
X142371683Y-94903944D01*
X142325928Y-94851140D01*
X142315502Y-94813512D01*
X142307769Y-94744879D01*
X142307768Y-94744877D01*
X142307768Y-94744874D01*
X142248189Y-94574607D01*
X142152216Y-94421867D01*
X142109578Y-94379229D01*
X142077484Y-94323640D01*
X142058682Y-94253467D01*
X142058681Y-94253466D01*
X142058681Y-94253465D01*
X141982915Y-94122235D01*
X141875765Y-94015085D01*
X141401033Y-93540353D01*
X141367548Y-93479030D01*
X141372532Y-93409338D01*
X141414404Y-93353405D01*
X141464394Y-93331080D01*
X142283962Y-93167168D01*
X142300563Y-93163556D01*
X142434508Y-93111017D01*
X142548224Y-93022870D01*
X142632501Y-92906255D01*
X142680510Y-92770620D01*
X142747242Y-92436953D01*
X142779691Y-92375080D01*
X142840442Y-92340569D01*
X142910208Y-92344381D01*
X142956514Y-92373594D01*
X143316220Y-92733300D01*
X143423370Y-92840450D01*
X143554600Y-92916216D01*
X143700969Y-92955435D01*
X143700971Y-92955435D01*
X144698019Y-92955435D01*
X144698021Y-92955435D01*
X144844390Y-92916216D01*
X144975620Y-92840450D01*
X147778651Y-90037419D01*
X147839974Y-90003934D01*
X147866332Y-90001100D01*
X149044670Y-90001100D01*
X149111709Y-90020785D01*
X149157464Y-90073589D01*
X149167408Y-90142747D01*
X149147772Y-90193991D01*
X149055771Y-90331679D01*
X149055764Y-90331692D01*
X148980350Y-90513760D01*
X148980347Y-90513770D01*
X148941900Y-90707056D01*
X148941900Y-90707059D01*
X148941900Y-90904141D01*
X148941900Y-90904143D01*
X148941899Y-90904143D01*
X148980347Y-91097429D01*
X148980350Y-91097439D01*
X149055764Y-91279507D01*
X149055771Y-91279520D01*
X149165260Y-91443381D01*
X149165263Y-91443385D01*
X149304614Y-91582736D01*
X149304618Y-91582739D01*
X149468479Y-91692228D01*
X149468492Y-91692235D01*
X149650560Y-91767649D01*
X149650565Y-91767651D01*
X149650569Y-91767651D01*
X149650570Y-91767652D01*
X149843856Y-91806100D01*
X149843859Y-91806100D01*
X151140943Y-91806100D01*
X151270982Y-91780232D01*
X151334235Y-91767651D01*
X151516314Y-91692232D01*
X151680182Y-91582739D01*
X151819539Y-91443382D01*
X151929032Y-91279514D01*
X152004451Y-91097435D01*
X152039562Y-90920922D01*
X152042900Y-90904143D01*
X153371899Y-90904143D01*
X153410347Y-91097429D01*
X153410350Y-91097439D01*
X153485764Y-91279507D01*
X153485771Y-91279520D01*
X153595260Y-91443381D01*
X153595263Y-91443385D01*
X153734614Y-91582736D01*
X153734618Y-91582739D01*
X153898479Y-91692228D01*
X153898492Y-91692235D01*
X154080560Y-91767649D01*
X154080565Y-91767651D01*
X154080569Y-91767651D01*
X154080570Y-91767652D01*
X154273856Y-91806100D01*
X154273859Y-91806100D01*
X155070943Y-91806100D01*
X155200982Y-91780232D01*
X155264235Y-91767651D01*
X155446314Y-91692232D01*
X155610182Y-91582739D01*
X155749539Y-91443382D01*
X155859032Y-91279514D01*
X155934451Y-91097435D01*
X155969562Y-90920922D01*
X155972900Y-90904143D01*
X155972900Y-90707056D01*
X155934452Y-90513770D01*
X155934451Y-90513769D01*
X155934451Y-90513765D01*
X155887260Y-90399834D01*
X155859035Y-90331692D01*
X155859028Y-90331679D01*
X155749539Y-90167818D01*
X155749536Y-90167814D01*
X155610185Y-90028463D01*
X155610181Y-90028460D01*
X155446320Y-89918971D01*
X155446307Y-89918964D01*
X155264239Y-89843550D01*
X155264229Y-89843547D01*
X155070943Y-89805100D01*
X155070941Y-89805100D01*
X154273859Y-89805100D01*
X154273857Y-89805100D01*
X154080570Y-89843547D01*
X154080560Y-89843550D01*
X153898492Y-89918964D01*
X153898479Y-89918971D01*
X153734618Y-90028460D01*
X153734614Y-90028463D01*
X153595263Y-90167814D01*
X153595260Y-90167818D01*
X153485771Y-90331679D01*
X153485764Y-90331692D01*
X153410350Y-90513760D01*
X153410347Y-90513770D01*
X153371900Y-90707056D01*
X153371900Y-90707059D01*
X153371900Y-90904141D01*
X153371900Y-90904143D01*
X153371899Y-90904143D01*
X152042900Y-90904143D01*
X152042900Y-90707056D01*
X152004452Y-90513770D01*
X152004451Y-90513769D01*
X152004451Y-90513765D01*
X151957260Y-90399834D01*
X151929035Y-90331692D01*
X151929028Y-90331679D01*
X151819539Y-90167818D01*
X151819536Y-90167814D01*
X151680185Y-90028463D01*
X151680181Y-90028460D01*
X151516320Y-89918971D01*
X151516308Y-89918965D01*
X151494439Y-89909906D01*
X151440036Y-89866064D01*
X151417973Y-89799769D01*
X151435254Y-89732070D01*
X151454209Y-89707669D01*
X154965555Y-86196322D01*
X154965560Y-86196319D01*
X154975763Y-86186115D01*
X154975765Y-86186115D01*
X155082915Y-86078965D01*
X155158681Y-85947735D01*
X155168757Y-85910130D01*
X155168837Y-85909830D01*
X155205172Y-85850152D01*
X155236218Y-85829484D01*
X155300230Y-85799636D01*
X155493801Y-85664096D01*
X155660895Y-85497002D01*
X155796435Y-85303431D01*
X155896303Y-85089264D01*
X155957463Y-84861009D01*
X155978059Y-84625601D01*
X155957463Y-84390193D01*
X155896303Y-84161938D01*
X155796435Y-83947772D01*
X155793536Y-83943631D01*
X155660894Y-83754198D01*
X155493802Y-83587107D01*
X155493795Y-83587102D01*
X155488849Y-83583639D01*
X155405629Y-83525367D01*
X155300234Y-83451568D01*
X155300230Y-83451566D01*
X155298146Y-83450594D01*
X155086063Y-83351698D01*
X155086059Y-83351697D01*
X155086055Y-83351695D01*
X154857813Y-83290539D01*
X154857803Y-83290537D01*
X154622401Y-83269942D01*
X154622399Y-83269942D01*
X154386996Y-83290537D01*
X154386986Y-83290539D01*
X154158744Y-83351695D01*
X154158735Y-83351699D01*
X153944571Y-83451565D01*
X153944569Y-83451566D01*
X153750997Y-83587106D01*
X153583905Y-83754198D01*
X153448365Y-83947770D01*
X153448364Y-83947772D01*
X153348498Y-84161936D01*
X153348494Y-84161945D01*
X153287338Y-84390187D01*
X153286398Y-84395522D01*
X153284801Y-84395240D01*
X153262040Y-84453416D01*
X153205446Y-84494390D01*
X153135684Y-84498262D01*
X153094120Y-84479986D01*
X152975034Y-84398795D01*
X152975026Y-84398790D01*
X152745406Y-84288212D01*
X152745408Y-84288212D01*
X152501866Y-84213089D01*
X152501862Y-84213088D01*
X152501858Y-84213087D01*
X152380631Y-84194814D01*
X152249840Y-84175100D01*
X152249835Y-84175100D01*
X151994965Y-84175100D01*
X151994959Y-84175100D01*
X151838009Y-84198757D01*
X151742942Y-84213087D01*
X151742939Y-84213088D01*
X151742933Y-84213089D01*
X151499392Y-84288212D01*
X151269773Y-84398790D01*
X151269772Y-84398791D01*
X151059182Y-84542368D01*
X150872352Y-84715721D01*
X150872350Y-84715723D01*
X150713441Y-84914988D01*
X150586008Y-85135709D01*
X150492892Y-85372962D01*
X150492890Y-85372969D01*
X150436177Y-85621445D01*
X150417132Y-85875595D01*
X150417132Y-85875604D01*
X150436177Y-86129754D01*
X150489946Y-86365332D01*
X150492892Y-86378237D01*
X150586007Y-86615488D01*
X150713441Y-86836212D01*
X150872350Y-87035477D01*
X151059183Y-87208832D01*
X151269766Y-87352405D01*
X151269771Y-87352407D01*
X151269772Y-87352408D01*
X151269773Y-87352409D01*
X151447045Y-87437778D01*
X151499396Y-87462989D01*
X151739703Y-87537114D01*
X151797961Y-87575683D01*
X151826119Y-87639628D01*
X151815235Y-87708645D01*
X151790833Y-87743285D01*
X150720339Y-88813781D01*
X150659016Y-88847266D01*
X150632658Y-88850100D01*
X147500824Y-88850100D01*
X147354453Y-88889319D01*
X147223225Y-88965085D01*
X147223222Y-88965087D01*
X145066649Y-91121660D01*
X145005326Y-91155145D01*
X144935634Y-91150161D01*
X144879701Y-91108289D01*
X144855284Y-91042825D01*
X144859422Y-91001045D01*
X144860533Y-90997005D01*
X144860539Y-90996991D01*
X145037315Y-90113107D01*
X145045843Y-90050033D01*
X145035579Y-89906519D01*
X144985298Y-89771711D01*
X144899073Y-89656529D01*
X144899068Y-89656524D01*
X144899063Y-89656518D01*
X144191983Y-88949439D01*
X144191967Y-88949423D01*
X144165916Y-88926849D01*
X144137462Y-88902192D01*
X144137460Y-88902191D01*
X144011180Y-88833237D01*
X143870588Y-88802653D01*
X143870582Y-88802653D01*
X143750992Y-88811206D01*
X143727073Y-88812917D01*
X143727072Y-88812917D01*
X143592262Y-88863199D01*
X143477084Y-88949422D01*
X143477079Y-88949426D01*
X143368532Y-89057973D01*
X143307209Y-89091457D01*
X143266966Y-89093510D01*
X143262823Y-89093044D01*
X143218832Y-89088087D01*
X143154418Y-89061020D01*
X143114864Y-89003424D01*
X143112727Y-88933587D01*
X143145034Y-88877188D01*
X145182915Y-86839309D01*
X145258681Y-86708079D01*
X145297900Y-86561711D01*
X145297900Y-86410178D01*
X145297900Y-84738099D01*
X145317585Y-84671060D01*
X145355926Y-84633106D01*
X145477684Y-84556601D01*
X145605238Y-84429047D01*
X145701211Y-84276307D01*
X145760790Y-84106040D01*
X145762347Y-84092225D01*
X145780987Y-83926788D01*
X145780987Y-83926781D01*
X145760791Y-83747535D01*
X145760790Y-83747530D01*
X145743858Y-83699141D01*
X145701211Y-83577263D01*
X145700008Y-83575349D01*
X145633457Y-83469434D01*
X145605238Y-83424523D01*
X145477684Y-83296969D01*
X145434671Y-83269942D01*
X145324945Y-83200996D01*
X145200717Y-83157527D01*
X145168699Y-83146323D01*
X145111924Y-83105602D01*
X145086177Y-83040649D01*
X145085655Y-83029282D01*
X145085655Y-82194473D01*
X145105340Y-82127434D01*
X145112710Y-82117158D01*
X145114965Y-82114328D01*
X145114971Y-82114323D01*
X145210944Y-81961583D01*
X145270523Y-81791316D01*
X145272225Y-81776210D01*
X145290720Y-81612064D01*
X145290720Y-81612057D01*
X145270524Y-81432811D01*
X145270523Y-81432806D01*
X145253146Y-81383145D01*
X145210944Y-81262539D01*
X145209560Y-81260337D01*
X145129601Y-81133083D01*
X145114971Y-81109799D01*
X144987417Y-80982245D01*
X144936259Y-80950100D01*
X144834678Y-80886272D01*
X144664409Y-80826692D01*
X144664404Y-80826691D01*
X144485159Y-80806496D01*
X144485151Y-80806496D01*
X144305905Y-80826691D01*
X144305900Y-80826692D01*
X144135631Y-80886272D01*
X143982892Y-80982245D01*
X143855339Y-81109798D01*
X143759366Y-81262537D01*
X143699786Y-81432806D01*
X143699785Y-81432811D01*
X143679590Y-81612057D01*
X143679590Y-81612064D01*
X143699785Y-81791310D01*
X143699786Y-81791315D01*
X143759366Y-81961584D01*
X143802264Y-82029855D01*
X143849862Y-82105607D01*
X143855340Y-82114324D01*
X143857600Y-82117158D01*
X143858489Y-82119336D01*
X143859044Y-82120219D01*
X143858889Y-82120316D01*
X143884010Y-82181844D01*
X143884655Y-82194473D01*
X143884655Y-82535950D01*
X143864970Y-82602989D01*
X143812166Y-82648744D01*
X143743008Y-82658688D01*
X143679452Y-82629663D01*
X143672974Y-82623631D01*
X142651808Y-81602465D01*
X142651806Y-81602463D01*
X142561111Y-81550100D01*
X142520577Y-81526697D01*
X142430685Y-81502611D01*
X142374207Y-81487478D01*
X142374206Y-81487478D01*
X142096504Y-81487478D01*
X142029465Y-81467793D01*
X142008823Y-81451159D01*
X141990826Y-81433162D01*
X141838087Y-81337189D01*
X141667818Y-81277609D01*
X141667813Y-81277608D01*
X141488568Y-81257413D01*
X141488560Y-81257413D01*
X141309314Y-81277608D01*
X141309309Y-81277609D01*
X141139040Y-81337189D01*
X140982543Y-81435523D01*
X140915306Y-81454523D01*
X140848471Y-81434155D01*
X140828890Y-81418210D01*
X140302980Y-80892300D01*
X140269495Y-80830977D01*
X140274479Y-80761285D01*
X140302976Y-80716942D01*
X140387354Y-80632565D01*
X140483327Y-80479825D01*
X140542906Y-80309558D01*
X140545470Y-80286806D01*
X140563103Y-80130306D01*
X140563103Y-80130299D01*
X140542907Y-79951056D01*
X140542906Y-79951049D01*
X140536453Y-79932607D01*
X140527939Y-79908277D01*
X140524377Y-79838501D01*
X140539985Y-79801354D01*
X140630450Y-79657382D01*
X140690029Y-79487115D01*
X140690030Y-79487109D01*
X140710226Y-79307863D01*
X140710226Y-79307856D01*
X140690030Y-79128608D01*
X140679847Y-79099507D01*
X140676285Y-79029728D01*
X140709208Y-78970870D01*
X140752213Y-78927865D01*
X140752213Y-78927864D01*
X140752216Y-78927862D01*
X140848189Y-78775122D01*
X140907768Y-78604855D01*
X140927568Y-78429123D01*
X140927965Y-78425603D01*
X140927965Y-78425596D01*
X140907769Y-78246350D01*
X140907768Y-78246345D01*
X140849422Y-78079603D01*
X144380835Y-78079603D01*
X144401030Y-78258849D01*
X144401031Y-78258854D01*
X144460611Y-78429123D01*
X144556584Y-78581862D01*
X144684138Y-78709416D01*
X144774480Y-78766182D01*
X144812752Y-78790230D01*
X144836878Y-78805389D01*
X145007145Y-78864968D01*
X145007150Y-78864969D01*
X145186396Y-78885165D01*
X145186400Y-78885165D01*
X145186404Y-78885165D01*
X145271260Y-78875604D01*
X150417133Y-78875604D01*
X150436178Y-79129754D01*
X150491738Y-79373180D01*
X150492893Y-79378237D01*
X150586008Y-79615488D01*
X150713442Y-79836212D01*
X150872351Y-80035477D01*
X151059184Y-80208832D01*
X151269767Y-80352405D01*
X151269772Y-80352407D01*
X151269773Y-80352408D01*
X151269774Y-80352409D01*
X151367768Y-80399600D01*
X151499393Y-80462987D01*
X151499394Y-80462987D01*
X151499397Y-80462989D01*
X151742943Y-80538113D01*
X151994966Y-80576100D01*
X152249836Y-80576100D01*
X152501859Y-80538113D01*
X152745405Y-80462989D01*
X152935994Y-80371206D01*
X152975027Y-80352409D01*
X152975027Y-80352408D01*
X152975035Y-80352405D01*
X153094593Y-80270891D01*
X153161071Y-80249391D01*
X153228621Y-80267245D01*
X153275796Y-80318785D01*
X153286082Y-80355734D01*
X153286892Y-80355592D01*
X153287832Y-80360926D01*
X153348966Y-80589083D01*
X153348970Y-80589092D01*
X153448800Y-80803179D01*
X153448802Y-80803183D01*
X153507472Y-80886973D01*
X153507473Y-80886973D01*
X154139437Y-80255008D01*
X154156475Y-80318593D01*
X154222301Y-80432607D01*
X154315393Y-80525699D01*
X154429407Y-80591525D01*
X154492990Y-80608562D01*
X153861025Y-81240525D01*
X153944821Y-81299199D01*
X154158907Y-81399029D01*
X154158916Y-81399033D01*
X154387073Y-81460167D01*
X154387084Y-81460169D01*
X154622398Y-81480757D01*
X154622402Y-81480757D01*
X154857715Y-81460169D01*
X154857726Y-81460167D01*
X155085883Y-81399033D01*
X155085892Y-81399029D01*
X155299978Y-81299200D01*
X155299982Y-81299198D01*
X155383773Y-81240526D01*
X155383773Y-81240525D01*
X154751809Y-80608562D01*
X154815393Y-80591525D01*
X154929407Y-80525699D01*
X155022499Y-80432607D01*
X155088325Y-80318593D01*
X155105362Y-80255010D01*
X155737325Y-80886973D01*
X155737326Y-80886973D01*
X155795998Y-80803182D01*
X155796000Y-80803178D01*
X155895829Y-80589092D01*
X155895833Y-80589083D01*
X155956967Y-80360926D01*
X155956969Y-80360915D01*
X155977557Y-80125601D01*
X155977557Y-80125598D01*
X155956969Y-79890284D01*
X155956967Y-79890273D01*
X155895833Y-79662116D01*
X155895829Y-79662107D01*
X155796000Y-79448023D01*
X155795999Y-79448021D01*
X155737325Y-79364226D01*
X155737325Y-79364225D01*
X155105362Y-79996189D01*
X155088325Y-79932607D01*
X155022499Y-79818593D01*
X154929407Y-79725501D01*
X154815393Y-79659675D01*
X154751808Y-79642637D01*
X155383773Y-79010673D01*
X155383773Y-79010672D01*
X155299983Y-78952002D01*
X155299979Y-78952000D01*
X155085892Y-78852170D01*
X155085883Y-78852166D01*
X154857726Y-78791032D01*
X154857715Y-78791030D01*
X154622402Y-78770443D01*
X154622398Y-78770443D01*
X154387084Y-78791030D01*
X154387073Y-78791032D01*
X154158916Y-78852166D01*
X154158907Y-78852170D01*
X153999804Y-78926361D01*
X153930726Y-78936853D01*
X153866942Y-78908333D01*
X153828703Y-78849857D01*
X153823746Y-78823245D01*
X153808623Y-78621444D01*
X153804837Y-78604855D01*
X153751909Y-78372963D01*
X153658794Y-78135712D01*
X153531360Y-77914988D01*
X153372451Y-77715723D01*
X153185618Y-77542368D01*
X152975035Y-77398795D01*
X152975031Y-77398793D01*
X152975028Y-77398791D01*
X152975027Y-77398790D01*
X152745407Y-77288212D01*
X152745409Y-77288212D01*
X152501867Y-77213089D01*
X152501863Y-77213088D01*
X152501859Y-77213087D01*
X152380632Y-77194814D01*
X152249841Y-77175100D01*
X152249836Y-77175100D01*
X151994966Y-77175100D01*
X151994960Y-77175100D01*
X151838010Y-77198757D01*
X151742943Y-77213087D01*
X151742940Y-77213088D01*
X151742934Y-77213089D01*
X151499393Y-77288212D01*
X151269774Y-77398790D01*
X151269773Y-77398791D01*
X151059183Y-77542368D01*
X150872353Y-77715721D01*
X150872351Y-77715723D01*
X150713442Y-77914988D01*
X150586009Y-78135709D01*
X150492893Y-78372962D01*
X150492891Y-78372969D01*
X150436178Y-78621445D01*
X150417133Y-78875595D01*
X150417133Y-78875604D01*
X145271260Y-78875604D01*
X145365649Y-78864969D01*
X145365652Y-78864968D01*
X145365655Y-78864968D01*
X145535922Y-78805389D01*
X145688662Y-78709416D01*
X145816216Y-78581862D01*
X145912189Y-78429122D01*
X145971768Y-78258855D01*
X145981561Y-78171929D01*
X146008626Y-78107518D01*
X146017090Y-78098143D01*
X148460920Y-75654316D01*
X148539977Y-75517384D01*
X148580901Y-75364657D01*
X148580901Y-75206542D01*
X148580901Y-75198947D01*
X148580900Y-75198929D01*
X148580900Y-70125600D01*
X148916822Y-70125600D01*
X148937122Y-70512938D01*
X148997798Y-70896033D01*
X149093732Y-71254066D01*
X149098188Y-71270694D01*
X149237187Y-71632797D01*
X149413277Y-71978393D01*
X149624522Y-72303682D01*
X149753762Y-72463280D01*
X149868619Y-72605116D01*
X150142884Y-72879381D01*
X150300185Y-73006761D01*
X150444317Y-73123477D01*
X150750247Y-73322150D01*
X150769611Y-73334725D01*
X151115206Y-73510814D01*
X151477313Y-73649814D01*
X151851967Y-73750202D01*
X152235062Y-73810878D01*
X152600976Y-73830055D01*
X152622399Y-73831178D01*
X152622400Y-73831178D01*
X152622401Y-73831178D01*
X152642701Y-73830114D01*
X153009738Y-73810878D01*
X153392833Y-73750202D01*
X153767487Y-73649814D01*
X154129594Y-73510814D01*
X154475189Y-73334725D01*
X154800484Y-73123476D01*
X155101916Y-72879381D01*
X155376181Y-72605116D01*
X155620276Y-72303684D01*
X155831525Y-71978389D01*
X156007614Y-71632794D01*
X156146614Y-71270687D01*
X156247002Y-70896033D01*
X156307678Y-70512938D01*
X156327978Y-70125600D01*
X156307678Y-69738262D01*
X156247002Y-69355167D01*
X156146614Y-68980513D01*
X156140241Y-68963912D01*
X156007612Y-68618402D01*
X155950032Y-68505394D01*
X155831525Y-68272811D01*
X155815637Y-68248345D01*
X155620277Y-67947517D01*
X155389739Y-67662827D01*
X155376181Y-67646084D01*
X155101916Y-67371819D01*
X154800484Y-67127724D01*
X154800482Y-67127722D01*
X154475193Y-66916477D01*
X154129597Y-66740387D01*
X153767494Y-66601388D01*
X153767487Y-66601386D01*
X153392833Y-66500998D01*
X153392829Y-66500997D01*
X153392828Y-66500997D01*
X153009739Y-66440322D01*
X152622401Y-66420022D01*
X152622399Y-66420022D01*
X152235060Y-66440322D01*
X151851972Y-66500997D01*
X151851970Y-66500997D01*
X151477305Y-66601388D01*
X151115202Y-66740387D01*
X150769606Y-66916477D01*
X150444317Y-67127722D01*
X150142888Y-67371815D01*
X150142880Y-67371822D01*
X149868622Y-67646080D01*
X149868615Y-67646088D01*
X149624522Y-67947517D01*
X149413277Y-68272806D01*
X149237187Y-68618402D01*
X149098188Y-68980505D01*
X148997797Y-69355170D01*
X148997797Y-69355172D01*
X148937122Y-69738260D01*
X148929924Y-69875600D01*
X148916822Y-70125600D01*
X148580900Y-70125600D01*
X148580900Y-69010012D01*
X148600585Y-68942973D01*
X148607955Y-68932697D01*
X148610210Y-68929867D01*
X148610216Y-68929862D01*
X148706189Y-68777122D01*
X148765768Y-68606855D01*
X148765769Y-68606849D01*
X148785965Y-68427603D01*
X148785965Y-68427596D01*
X148765769Y-68248350D01*
X148765768Y-68248345D01*
X148714975Y-68103187D01*
X148706189Y-68078078D01*
X148610216Y-67925338D01*
X148482662Y-67797784D01*
X148460190Y-67783664D01*
X148329923Y-67701811D01*
X148159654Y-67642231D01*
X148159649Y-67642230D01*
X147980404Y-67622035D01*
X147980396Y-67622035D01*
X147801150Y-67642230D01*
X147801145Y-67642231D01*
X147630876Y-67701811D01*
X147478137Y-67797784D01*
X147350584Y-67925337D01*
X147254611Y-68078076D01*
X147195031Y-68248345D01*
X147195030Y-68248350D01*
X147174835Y-68427596D01*
X147174835Y-68427603D01*
X147195030Y-68606849D01*
X147195031Y-68606854D01*
X147254611Y-68777123D01*
X147350585Y-68929863D01*
X147352845Y-68932697D01*
X147353734Y-68934875D01*
X147354289Y-68935758D01*
X147354134Y-68935855D01*
X147379255Y-68997383D01*
X147379900Y-69010012D01*
X147379900Y-74985502D01*
X147360215Y-75052541D01*
X147343581Y-75073183D01*
X145167865Y-77248898D01*
X145106542Y-77282383D01*
X145094068Y-77284437D01*
X145007150Y-77294230D01*
X144836878Y-77353810D01*
X144684137Y-77449784D01*
X144556584Y-77577337D01*
X144460611Y-77730076D01*
X144401031Y-77900345D01*
X144401030Y-77900350D01*
X144380835Y-78079596D01*
X144380835Y-78079603D01*
X140849422Y-78079603D01*
X140848188Y-78076076D01*
X140752215Y-77923337D01*
X140624662Y-77795784D01*
X140471923Y-77699811D01*
X140301654Y-77640231D01*
X140301650Y-77640230D01*
X140118674Y-77619614D01*
X140054260Y-77592547D01*
X140014705Y-77534952D01*
X140009337Y-77510275D01*
X140007768Y-77496345D01*
X139948189Y-77326078D01*
X139852216Y-77173338D01*
X139724662Y-77045784D01*
X139662416Y-77006672D01*
X139571923Y-76949811D01*
X139401654Y-76890231D01*
X139401649Y-76890230D01*
X139222404Y-76870035D01*
X139222396Y-76870035D01*
X139073810Y-76886776D01*
X139004988Y-76874721D01*
X138972246Y-76851237D01*
X138941793Y-76820784D01*
X138789052Y-76724810D01*
X138618780Y-76665230D01*
X138492016Y-76650947D01*
X138427602Y-76623880D01*
X138418219Y-76615408D01*
X138417898Y-76615087D01*
X138417896Y-76615085D01*
X138417893Y-76615083D01*
X138417889Y-76615080D01*
X138416177Y-76614092D01*
X138415020Y-76612879D01*
X138411447Y-76610137D01*
X138411874Y-76609579D01*
X138367962Y-76563525D01*
X138354740Y-76494918D01*
X138370790Y-76444707D01*
X138485623Y-76245812D01*
X138578453Y-76021700D01*
X138641237Y-75787389D01*
X138672899Y-75546888D01*
X138672899Y-74704312D01*
X138641237Y-74463811D01*
X138578453Y-74229500D01*
X138485623Y-74005388D01*
X138364335Y-73795311D01*
X138277312Y-73681900D01*
X138216665Y-73602863D01*
X138216659Y-73602856D01*
X138176584Y-73562781D01*
X138143099Y-73501458D01*
X138148083Y-73431766D01*
X138189955Y-73375833D01*
X138255419Y-73351416D01*
X138264265Y-73351100D01*
X144235361Y-73351100D01*
X144302400Y-73370785D01*
X144348155Y-73423589D01*
X144358099Y-73492747D01*
X144348798Y-73523266D01*
X144348910Y-73523306D01*
X144347954Y-73526037D01*
X144347081Y-73528903D01*
X144346607Y-73529886D01*
X144287033Y-73700137D01*
X144287030Y-73700150D01*
X144266835Y-73879396D01*
X144266835Y-73879403D01*
X144287030Y-74058649D01*
X144287031Y-74058654D01*
X144346611Y-74228923D01*
X144420153Y-74345963D01*
X144442584Y-74381662D01*
X144570138Y-74509216D01*
X144722878Y-74605189D01*
X144893145Y-74664768D01*
X144893150Y-74664769D01*
X145072396Y-74684965D01*
X145072400Y-74684965D01*
X145072404Y-74684965D01*
X145251649Y-74664769D01*
X145251652Y-74664768D01*
X145251655Y-74664768D01*
X145421922Y-74605189D01*
X145574662Y-74509216D01*
X145702216Y-74381662D01*
X145798189Y-74228922D01*
X145857768Y-74058655D01*
X145867345Y-73973658D01*
X145877965Y-73879403D01*
X145877965Y-73879396D01*
X145857769Y-73700150D01*
X145857766Y-73700137D01*
X145798190Y-73529879D01*
X145766906Y-73480090D01*
X145747900Y-73414119D01*
X145747900Y-73009066D01*
X145721941Y-72878569D01*
X145721940Y-72878568D01*
X145721940Y-72878564D01*
X145671020Y-72755631D01*
X145597095Y-72644994D01*
X145503006Y-72550905D01*
X145332977Y-72380876D01*
X145103009Y-72150907D01*
X145103005Y-72150904D01*
X144992375Y-72076983D01*
X144992365Y-72076978D01*
X144869436Y-72026059D01*
X144869428Y-72026057D01*
X144738935Y-72000100D01*
X144738931Y-72000100D01*
X137134115Y-72000100D01*
X137067076Y-71980415D01*
X137021321Y-71927611D01*
X137011377Y-71858453D01*
X137040402Y-71794897D01*
X137099180Y-71757123D01*
X137117930Y-71753161D01*
X137184189Y-71744438D01*
X137418500Y-71681654D01*
X137642612Y-71588824D01*
X137852689Y-71467536D01*
X138045138Y-71319865D01*
X138216665Y-71148338D01*
X138364336Y-70955889D01*
X138485624Y-70745812D01*
X138578454Y-70521700D01*
X138641238Y-70287389D01*
X138672900Y-70046888D01*
X138672900Y-69204312D01*
X138641238Y-68963811D01*
X138578454Y-68729500D01*
X138485624Y-68505388D01*
X138364336Y-68295311D01*
X138216920Y-68103194D01*
X138216666Y-68102863D01*
X138216660Y-68102856D01*
X138045143Y-67931339D01*
X138045136Y-67931333D01*
X137852693Y-67783667D01*
X137852692Y-67783666D01*
X137852689Y-67783664D01*
X137642612Y-67662376D01*
X137642605Y-67662373D01*
X137418504Y-67569547D01*
X137184185Y-67506761D01*
X136943689Y-67475100D01*
X136943688Y-67475100D01*
X136701112Y-67475100D01*
X136701111Y-67475100D01*
X136460614Y-67506761D01*
X136226295Y-67569547D01*
X136002194Y-67662373D01*
X136002185Y-67662377D01*
X135792106Y-67783667D01*
X135599663Y-67931333D01*
X135599656Y-67931339D01*
X135428139Y-68102856D01*
X135428133Y-68102863D01*
X135280467Y-68295306D01*
X135159177Y-68505385D01*
X135159173Y-68505394D01*
X135066347Y-68729495D01*
X135003561Y-68963814D01*
X134971900Y-69204311D01*
X134971900Y-70046888D01*
X135003561Y-70287385D01*
X135066347Y-70521704D01*
X135067716Y-70525008D01*
X135159176Y-70745812D01*
X135280464Y-70955889D01*
X135280466Y-70955892D01*
X135280467Y-70955893D01*
X135428133Y-71148336D01*
X135428139Y-71148343D01*
X135599656Y-71319860D01*
X135599663Y-71319866D01*
X135706863Y-71402123D01*
X135792111Y-71467536D01*
X136002188Y-71588824D01*
X136226300Y-71681654D01*
X136460611Y-71744438D01*
X136526870Y-71753161D01*
X136590767Y-71781427D01*
X136629238Y-71839752D01*
X136630069Y-71909616D01*
X136592997Y-71968840D01*
X136529791Y-71998619D01*
X136510685Y-72000100D01*
X136105867Y-72000100D01*
X135975369Y-72026058D01*
X135975359Y-72026061D01*
X135852438Y-72076976D01*
X135852420Y-72076986D01*
X135741798Y-72150901D01*
X135741790Y-72150907D01*
X134547963Y-73344734D01*
X134486640Y-73378219D01*
X134416948Y-73373235D01*
X134361015Y-73331363D01*
X134354743Y-73322150D01*
X134314715Y-73257255D01*
X134190744Y-73133284D01*
X134041523Y-73041243D01*
X134041518Y-73041241D01*
X133875096Y-72986094D01*
X133875089Y-72986093D01*
X133772385Y-72975600D01*
X132872400Y-72975600D01*
X132872400Y-74471479D01*
X132826582Y-74452501D01*
X132691344Y-74425600D01*
X132553456Y-74425600D01*
X132418218Y-74452501D01*
X132372400Y-74471479D01*
X132372400Y-72975600D01*
X131472414Y-72975600D01*
X131369710Y-72986093D01*
X131369703Y-72986094D01*
X131203281Y-73041241D01*
X131203276Y-73041243D01*
X131054055Y-73133284D01*
X130930084Y-73257255D01*
X130838043Y-73406476D01*
X130838041Y-73406481D01*
X130782894Y-73572903D01*
X130782893Y-73572910D01*
X130772400Y-73675614D01*
X130772400Y-74875600D01*
X131968279Y-74875600D01*
X131949301Y-74921418D01*
X131922400Y-75056656D01*
X131922400Y-75194544D01*
X131949301Y-75329782D01*
X131968279Y-75375600D01*
X130772400Y-75375600D01*
X130772400Y-76376100D01*
X130752715Y-76443139D01*
X130699911Y-76488894D01*
X130648400Y-76500100D01*
X120353584Y-76500100D01*
X120286545Y-76480415D01*
X120240790Y-76427611D01*
X120230846Y-76358453D01*
X120246197Y-76314100D01*
X120250033Y-76307455D01*
X120285623Y-76245812D01*
X120378453Y-76021700D01*
X120441237Y-75787389D01*
X120472899Y-75546888D01*
X120472899Y-74704312D01*
X120441237Y-74463811D01*
X120378453Y-74229500D01*
X120285623Y-74005388D01*
X120164335Y-73795311D01*
X120077312Y-73681900D01*
X120016665Y-73602863D01*
X120016659Y-73602856D01*
X119845142Y-73431339D01*
X119845135Y-73431333D01*
X119652692Y-73283667D01*
X119652691Y-73283666D01*
X119652688Y-73283664D01*
X119442611Y-73162376D01*
X119372377Y-73133284D01*
X119218503Y-73069547D01*
X118992798Y-73009069D01*
X118984188Y-73006762D01*
X118984187Y-73006761D01*
X118984184Y-73006761D01*
X118743688Y-72975100D01*
X118743687Y-72975100D01*
X118501111Y-72975100D01*
X118501110Y-72975100D01*
X118260613Y-73006761D01*
X118026294Y-73069547D01*
X117802193Y-73162373D01*
X117802188Y-73162375D01*
X117743168Y-73196450D01*
X117675267Y-73212921D01*
X117609241Y-73190069D01*
X117593488Y-73176743D01*
X116837073Y-72420327D01*
X116837072Y-72420326D01*
X116809829Y-72402123D01*
X116730526Y-72349135D01*
X116689798Y-72332265D01*
X116612143Y-72300099D01*
X116612137Y-72300097D01*
X116486470Y-72275100D01*
X116486468Y-72275100D01*
X113508331Y-72275100D01*
X113508329Y-72275100D01*
X113382661Y-72300097D01*
X113382651Y-72300100D01*
X113333620Y-72320410D01*
X113264281Y-72349130D01*
X113264263Y-72349140D01*
X113157732Y-72420321D01*
X113157725Y-72420327D01*
X111872308Y-73705744D01*
X111810985Y-73739229D01*
X111741293Y-73734245D01*
X111686251Y-73693549D01*
X111616665Y-73602863D01*
X111616659Y-73602856D01*
X111445142Y-73431339D01*
X111445135Y-73431333D01*
X111252692Y-73283667D01*
X111252691Y-73283666D01*
X111252688Y-73283664D01*
X111042611Y-73162376D01*
X110972377Y-73133284D01*
X110818503Y-73069547D01*
X110592798Y-73009069D01*
X110584188Y-73006762D01*
X110584187Y-73006761D01*
X110584184Y-73006761D01*
X110343688Y-72975100D01*
X110343687Y-72975100D01*
X110101111Y-72975100D01*
X110101110Y-72975100D01*
X109860613Y-73006761D01*
X109626294Y-73069547D01*
X109402193Y-73162373D01*
X109402188Y-73162375D01*
X109343168Y-73196450D01*
X109275267Y-73212921D01*
X109209241Y-73190069D01*
X109193488Y-73176743D01*
X108480026Y-72463280D01*
X108446541Y-72401957D01*
X108451525Y-72332265D01*
X108480024Y-72287920D01*
X109193490Y-71574454D01*
X109254811Y-71540971D01*
X109324503Y-71545955D01*
X109343168Y-71554749D01*
X109402188Y-71588824D01*
X109626300Y-71681654D01*
X109860611Y-71744438D01*
X110040986Y-71768184D01*
X110101111Y-71776100D01*
X110101112Y-71776100D01*
X110343689Y-71776100D01*
X110391788Y-71769767D01*
X110584189Y-71744438D01*
X110818500Y-71681654D01*
X111042612Y-71588824D01*
X111252689Y-71467536D01*
X111445138Y-71319865D01*
X111616665Y-71148338D01*
X111764336Y-70955889D01*
X111885624Y-70745812D01*
X111978454Y-70521700D01*
X112041238Y-70287389D01*
X112072900Y-70046888D01*
X112072900Y-70046848D01*
X112572400Y-70046848D01*
X112572401Y-70046864D01*
X112604053Y-70287287D01*
X112666821Y-70521539D01*
X112759620Y-70745578D01*
X112759627Y-70745593D01*
X112880880Y-70955609D01*
X113028510Y-71148005D01*
X113028516Y-71148012D01*
X113199987Y-71319483D01*
X113199994Y-71319489D01*
X113392390Y-71467119D01*
X113602406Y-71588372D01*
X113602421Y-71588379D01*
X113826460Y-71681178D01*
X114060712Y-71743946D01*
X114172400Y-71758649D01*
X114172400Y-70279720D01*
X114218218Y-70298699D01*
X114353456Y-70325600D01*
X114491344Y-70325600D01*
X114626582Y-70298699D01*
X114672400Y-70279720D01*
X114672400Y-71758648D01*
X114784087Y-71743946D01*
X115018339Y-71681178D01*
X115242378Y-71588379D01*
X115242393Y-71588372D01*
X115452409Y-71467119D01*
X115644805Y-71319489D01*
X115644812Y-71319483D01*
X115816283Y-71148012D01*
X115816289Y-71148005D01*
X115963919Y-70955609D01*
X116085172Y-70745593D01*
X116085179Y-70745578D01*
X116177978Y-70521539D01*
X116240746Y-70287287D01*
X116272398Y-70046864D01*
X116272400Y-70046848D01*
X116772400Y-70046848D01*
X116772401Y-70046864D01*
X116804053Y-70287287D01*
X116866821Y-70521539D01*
X116959620Y-70745578D01*
X116959627Y-70745593D01*
X117080880Y-70955609D01*
X117228510Y-71148005D01*
X117228516Y-71148012D01*
X117399987Y-71319483D01*
X117399994Y-71319489D01*
X117592390Y-71467119D01*
X117802406Y-71588372D01*
X117802421Y-71588379D01*
X118026460Y-71681178D01*
X118260712Y-71743946D01*
X118372400Y-71758649D01*
X118372400Y-70279720D01*
X118418218Y-70298699D01*
X118553456Y-70325600D01*
X118691344Y-70325600D01*
X118826582Y-70298699D01*
X118872400Y-70279720D01*
X118872400Y-71758648D01*
X118984087Y-71743946D01*
X119218339Y-71681178D01*
X119442378Y-71588379D01*
X119442393Y-71588372D01*
X119652409Y-71467119D01*
X119844805Y-71319489D01*
X119844812Y-71319483D01*
X120016283Y-71148012D01*
X120016289Y-71148005D01*
X120163919Y-70955609D01*
X120285172Y-70745593D01*
X120285179Y-70745578D01*
X120377978Y-70521539D01*
X120440746Y-70287287D01*
X120472395Y-70046888D01*
X130771900Y-70046888D01*
X130803561Y-70287385D01*
X130866347Y-70521704D01*
X130867716Y-70525008D01*
X130959176Y-70745812D01*
X131080464Y-70955889D01*
X131080466Y-70955892D01*
X131080467Y-70955893D01*
X131228133Y-71148336D01*
X131228139Y-71148343D01*
X131399656Y-71319860D01*
X131399663Y-71319866D01*
X131506863Y-71402123D01*
X131592111Y-71467536D01*
X131802188Y-71588824D01*
X132026300Y-71681654D01*
X132260611Y-71744438D01*
X132440986Y-71768184D01*
X132501111Y-71776100D01*
X132501112Y-71776100D01*
X132743689Y-71776100D01*
X132791788Y-71769767D01*
X132984189Y-71744438D01*
X133218500Y-71681654D01*
X133442612Y-71588824D01*
X133652689Y-71467536D01*
X133845138Y-71319865D01*
X134016665Y-71148338D01*
X134164336Y-70955889D01*
X134285624Y-70745812D01*
X134378454Y-70521700D01*
X134441238Y-70287389D01*
X134472900Y-70046888D01*
X134472900Y-69204312D01*
X134441238Y-68963811D01*
X134378454Y-68729500D01*
X134285624Y-68505388D01*
X134164336Y-68295311D01*
X134016920Y-68103194D01*
X134016666Y-68102863D01*
X134016660Y-68102856D01*
X133845143Y-67931339D01*
X133845136Y-67931333D01*
X133652693Y-67783667D01*
X133652692Y-67783666D01*
X133652689Y-67783664D01*
X133442612Y-67662376D01*
X133442605Y-67662373D01*
X133218504Y-67569547D01*
X132984185Y-67506761D01*
X132743689Y-67475100D01*
X132743688Y-67475100D01*
X132501112Y-67475100D01*
X132501111Y-67475100D01*
X132260614Y-67506761D01*
X132026295Y-67569547D01*
X131802194Y-67662373D01*
X131802185Y-67662377D01*
X131592106Y-67783667D01*
X131399663Y-67931333D01*
X131399656Y-67931339D01*
X131228139Y-68102856D01*
X131228133Y-68102863D01*
X131080467Y-68295306D01*
X130959177Y-68505385D01*
X130959173Y-68505394D01*
X130866347Y-68729495D01*
X130803561Y-68963814D01*
X130771900Y-69204311D01*
X130771900Y-70046888D01*
X120472395Y-70046888D01*
X120472398Y-70046864D01*
X120472400Y-70046848D01*
X120472400Y-69875600D01*
X119276521Y-69875600D01*
X119295499Y-69829782D01*
X119322400Y-69694544D01*
X119322400Y-69556656D01*
X119295499Y-69421418D01*
X119276521Y-69375600D01*
X120472400Y-69375600D01*
X120472400Y-69204351D01*
X120472398Y-69204335D01*
X120440746Y-68963912D01*
X120377978Y-68729660D01*
X120285179Y-68505621D01*
X120285172Y-68505606D01*
X120163919Y-68295590D01*
X120016289Y-68103194D01*
X120016283Y-68103187D01*
X119844812Y-67931716D01*
X119844805Y-67931710D01*
X119652409Y-67784080D01*
X119442393Y-67662827D01*
X119442378Y-67662820D01*
X119218339Y-67570021D01*
X118984087Y-67507253D01*
X118872400Y-67492548D01*
X118872400Y-68971479D01*
X118826582Y-68952501D01*
X118691344Y-68925600D01*
X118553456Y-68925600D01*
X118418218Y-68952501D01*
X118372400Y-68971479D01*
X118372400Y-67492548D01*
X118372399Y-67492548D01*
X118260712Y-67507253D01*
X118026460Y-67570021D01*
X117802421Y-67662820D01*
X117802406Y-67662827D01*
X117592390Y-67784080D01*
X117399994Y-67931710D01*
X117399987Y-67931716D01*
X117228516Y-68103187D01*
X117228510Y-68103194D01*
X117080880Y-68295590D01*
X116959627Y-68505606D01*
X116959620Y-68505621D01*
X116866821Y-68729660D01*
X116804053Y-68963912D01*
X116772401Y-69204335D01*
X116772400Y-69204351D01*
X116772400Y-69375600D01*
X117968279Y-69375600D01*
X117949301Y-69421418D01*
X117922400Y-69556656D01*
X117922400Y-69694544D01*
X117949301Y-69829782D01*
X117968279Y-69875600D01*
X116772400Y-69875600D01*
X116772400Y-70046848D01*
X116272400Y-70046848D01*
X116272400Y-69875600D01*
X115076521Y-69875600D01*
X115095499Y-69829782D01*
X115122400Y-69694544D01*
X115122400Y-69556656D01*
X115095499Y-69421418D01*
X115076521Y-69375600D01*
X116272400Y-69375600D01*
X116272400Y-69204351D01*
X116272398Y-69204335D01*
X116240746Y-68963912D01*
X116177978Y-68729660D01*
X116085179Y-68505621D01*
X116085172Y-68505606D01*
X115963919Y-68295590D01*
X115816289Y-68103194D01*
X115816283Y-68103187D01*
X115644812Y-67931716D01*
X115644805Y-67931710D01*
X115452409Y-67784080D01*
X115242393Y-67662827D01*
X115242378Y-67662820D01*
X115018339Y-67570021D01*
X114784087Y-67507253D01*
X114672400Y-67492548D01*
X114672400Y-68971479D01*
X114626582Y-68952501D01*
X114491344Y-68925600D01*
X114353456Y-68925600D01*
X114218218Y-68952501D01*
X114172400Y-68971479D01*
X114172400Y-67492548D01*
X114172399Y-67492548D01*
X114060712Y-67507253D01*
X113826460Y-67570021D01*
X113602421Y-67662820D01*
X113602406Y-67662827D01*
X113392390Y-67784080D01*
X113199994Y-67931710D01*
X113199987Y-67931716D01*
X113028516Y-68103187D01*
X113028510Y-68103194D01*
X112880880Y-68295590D01*
X112759627Y-68505606D01*
X112759620Y-68505621D01*
X112666821Y-68729660D01*
X112604053Y-68963912D01*
X112572401Y-69204335D01*
X112572400Y-69204351D01*
X112572400Y-69375600D01*
X113768279Y-69375600D01*
X113749301Y-69421418D01*
X113722400Y-69556656D01*
X113722400Y-69694544D01*
X113749301Y-69829782D01*
X113768279Y-69875600D01*
X112572400Y-69875600D01*
X112572400Y-70046848D01*
X112072900Y-70046848D01*
X112072900Y-69204312D01*
X112041238Y-68963811D01*
X111978454Y-68729500D01*
X111885624Y-68505388D01*
X111764336Y-68295311D01*
X111616920Y-68103194D01*
X111616666Y-68102863D01*
X111616660Y-68102856D01*
X111445143Y-67931339D01*
X111445136Y-67931333D01*
X111252693Y-67783667D01*
X111252692Y-67783666D01*
X111252689Y-67783664D01*
X111042612Y-67662376D01*
X111042605Y-67662373D01*
X110818504Y-67569547D01*
X110584185Y-67506761D01*
X110343689Y-67475100D01*
X110343688Y-67475100D01*
X110101112Y-67475100D01*
X110101111Y-67475100D01*
X109860614Y-67506761D01*
X109626295Y-67569547D01*
X109402194Y-67662373D01*
X109402185Y-67662377D01*
X109192106Y-67783667D01*
X108999663Y-67931333D01*
X108999656Y-67931339D01*
X108828139Y-68102856D01*
X108828133Y-68102863D01*
X108680467Y-68295306D01*
X108559177Y-68505385D01*
X108559173Y-68505394D01*
X108466347Y-68729495D01*
X108403561Y-68963814D01*
X108371900Y-69204311D01*
X108371900Y-70046888D01*
X108403561Y-70287387D01*
X108435138Y-70405234D01*
X108433475Y-70475084D01*
X108403044Y-70525008D01*
X107207473Y-71720581D01*
X107146150Y-71754066D01*
X107119792Y-71756900D01*
X107014269Y-71756900D01*
X106947230Y-71737215D01*
X106901475Y-71684411D01*
X106891531Y-71615253D01*
X106920556Y-71551697D01*
X106952266Y-71525514D01*
X107052689Y-71467536D01*
X107245138Y-71319865D01*
X107416665Y-71148338D01*
X107564336Y-70955889D01*
X107685624Y-70745812D01*
X107778454Y-70521700D01*
X107841238Y-70287389D01*
X107872900Y-70046888D01*
X107872900Y-69204312D01*
X107841238Y-68963811D01*
X107778454Y-68729500D01*
X107685624Y-68505388D01*
X107564336Y-68295311D01*
X107416920Y-68103194D01*
X107416666Y-68102863D01*
X107416660Y-68102856D01*
X107245143Y-67931339D01*
X107245136Y-67931333D01*
X107052693Y-67783667D01*
X107052692Y-67783666D01*
X107052689Y-67783664D01*
X106842612Y-67662376D01*
X106842605Y-67662373D01*
X106618504Y-67569547D01*
X106384185Y-67506761D01*
X106143689Y-67475100D01*
X106143688Y-67475100D01*
X105901112Y-67475100D01*
X105901111Y-67475100D01*
X105660614Y-67506761D01*
X105426295Y-67569547D01*
X105202194Y-67662373D01*
X105202185Y-67662377D01*
X104992106Y-67783667D01*
X104799663Y-67931333D01*
X104799656Y-67931339D01*
X104628139Y-68102856D01*
X104628133Y-68102863D01*
X104480467Y-68295306D01*
X104359177Y-68505385D01*
X104359173Y-68505394D01*
X104266347Y-68729495D01*
X104203561Y-68963814D01*
X104171900Y-69204311D01*
X104171900Y-70046888D01*
X104203561Y-70287387D01*
X104235138Y-70405234D01*
X104233475Y-70475084D01*
X104203044Y-70525008D01*
X103507473Y-71220581D01*
X103446150Y-71254066D01*
X103419792Y-71256900D01*
X103384810Y-71256900D01*
X103317771Y-71237215D01*
X103272016Y-71184411D01*
X103262072Y-71115253D01*
X103286434Y-71057414D01*
X103320093Y-71013547D01*
X103364336Y-70955889D01*
X103485624Y-70745812D01*
X103578454Y-70521700D01*
X103641238Y-70287389D01*
X103672900Y-70046888D01*
X103672900Y-69204312D01*
X103641238Y-68963811D01*
X103578454Y-68729500D01*
X103485624Y-68505388D01*
X103364336Y-68295311D01*
X103216920Y-68103194D01*
X103216666Y-68102863D01*
X103216660Y-68102856D01*
X103045143Y-67931339D01*
X103045136Y-67931333D01*
X102852693Y-67783667D01*
X102852692Y-67783666D01*
X102852689Y-67783664D01*
X102642612Y-67662376D01*
X102642605Y-67662373D01*
X102418504Y-67569547D01*
X102184185Y-67506761D01*
X101943689Y-67475100D01*
X101943688Y-67475100D01*
X101701112Y-67475100D01*
X101701111Y-67475100D01*
X101460614Y-67506761D01*
X101226295Y-67569547D01*
X101002194Y-67662373D01*
X101002185Y-67662377D01*
X100792106Y-67783667D01*
X100599663Y-67931333D01*
X100599656Y-67931339D01*
X100428139Y-68102856D01*
X100428133Y-68102863D01*
X100280467Y-68295306D01*
X100159177Y-68505385D01*
X100159173Y-68505394D01*
X100066347Y-68729495D01*
X100003561Y-68963814D01*
X99971900Y-69204311D01*
X99971900Y-70046888D01*
X100003561Y-70287385D01*
X100066347Y-70521704D01*
X100067716Y-70525008D01*
X100159176Y-70745812D01*
X100280464Y-70955889D01*
X100280466Y-70955892D01*
X100280467Y-70955893D01*
X100358366Y-71057414D01*
X100383560Y-71122583D01*
X100369521Y-71191028D01*
X100320707Y-71241018D01*
X100259990Y-71256900D01*
X99184810Y-71256900D01*
X99117771Y-71237215D01*
X99072016Y-71184411D01*
X99062072Y-71115253D01*
X99086434Y-71057414D01*
X99120093Y-71013547D01*
X99164336Y-70955889D01*
X99285624Y-70745812D01*
X99378454Y-70521700D01*
X99441238Y-70287389D01*
X99472900Y-70046888D01*
X99472900Y-69204312D01*
X99441238Y-68963811D01*
X99378454Y-68729500D01*
X99285624Y-68505388D01*
X99164336Y-68295311D01*
X99016920Y-68103194D01*
X99016666Y-68102863D01*
X99016660Y-68102856D01*
X98845143Y-67931339D01*
X98845136Y-67931333D01*
X98652693Y-67783667D01*
X98652692Y-67783666D01*
X98652689Y-67783664D01*
X98442612Y-67662376D01*
X98442605Y-67662373D01*
X98218504Y-67569547D01*
X97984185Y-67506761D01*
X97743689Y-67475100D01*
X97743688Y-67475100D01*
X97501112Y-67475100D01*
X97501111Y-67475100D01*
X97260614Y-67506761D01*
X97026295Y-67569547D01*
X96802194Y-67662373D01*
X96802185Y-67662377D01*
X96592106Y-67783667D01*
X96399663Y-67931333D01*
X96399656Y-67931339D01*
X96228139Y-68102856D01*
X96228133Y-68102863D01*
X96080467Y-68295306D01*
X95959177Y-68505385D01*
X95959173Y-68505394D01*
X95866347Y-68729495D01*
X95803561Y-68963814D01*
X95771900Y-69204311D01*
X95771900Y-70046888D01*
X95803561Y-70287385D01*
X95866347Y-70521704D01*
X95867716Y-70525008D01*
X95959176Y-70745812D01*
X96080464Y-70955889D01*
X96080466Y-70955892D01*
X96080467Y-70955893D01*
X96158366Y-71057414D01*
X96183560Y-71122583D01*
X96169521Y-71191028D01*
X96120707Y-71241018D01*
X96059990Y-71256900D01*
X95439929Y-71256900D01*
X95314261Y-71281897D01*
X95314255Y-71281899D01*
X95282437Y-71295079D01*
X95195874Y-71330934D01*
X95089326Y-71402126D01*
X91087126Y-75404326D01*
X91015934Y-75510874D01*
X90966899Y-75629255D01*
X90966897Y-75629261D01*
X90941900Y-75754928D01*
X90941900Y-80839931D01*
X90922894Y-80905903D01*
X90866611Y-80995477D01*
X90866609Y-80995481D01*
X90807033Y-81165737D01*
X90807030Y-81165750D01*
X90786835Y-81344996D01*
X90786835Y-81345002D01*
X90797225Y-81437216D01*
X90785171Y-81506038D01*
X90737822Y-81557418D01*
X90674005Y-81575100D01*
X89922866Y-81575100D01*
X89855827Y-81555415D01*
X89810072Y-81502611D01*
X89805824Y-81492054D01*
X89778189Y-81413078D01*
X89708009Y-81301388D01*
X89682216Y-81260338D01*
X89554662Y-81132784D01*
X89401923Y-81036811D01*
X89231654Y-80977231D01*
X89231649Y-80977230D01*
X89052404Y-80957035D01*
X89052396Y-80957035D01*
X88873150Y-80977230D01*
X88873145Y-80977231D01*
X88702876Y-81036811D01*
X88550137Y-81132784D01*
X88422584Y-81260337D01*
X88326611Y-81413076D01*
X88267031Y-81583345D01*
X88267030Y-81583350D01*
X88246835Y-81762596D01*
X88246835Y-81762603D01*
X88267030Y-81941849D01*
X88267031Y-81941854D01*
X88326611Y-82112123D01*
X88413937Y-82251100D01*
X88422584Y-82264862D01*
X88550138Y-82392416D01*
X88702878Y-82488389D01*
X88873145Y-82547968D01*
X88960068Y-82557761D01*
X89024479Y-82584826D01*
X89033864Y-82593300D01*
X89096684Y-82656120D01*
X89178389Y-82703292D01*
X89233615Y-82735177D01*
X89386342Y-82776100D01*
X89386343Y-82776100D01*
X92635731Y-82776100D01*
X92635747Y-82776101D01*
X92643343Y-82776101D01*
X92801454Y-82776101D01*
X92801457Y-82776101D01*
X92954185Y-82735177D01*
X93009411Y-82703292D01*
X93091116Y-82656120D01*
X93202920Y-82544316D01*
X93202920Y-82544314D01*
X93213124Y-82534111D01*
X93213127Y-82534106D01*
X93791416Y-81955819D01*
X93852739Y-81922334D01*
X93879097Y-81919500D01*
X95106060Y-81919500D01*
X95173099Y-81939185D01*
X95218854Y-81991989D01*
X95228798Y-82061147D01*
X95218442Y-82095905D01*
X95125907Y-82294347D01*
X95125904Y-82294353D01*
X95068730Y-82507728D01*
X95068729Y-82507736D01*
X95049477Y-82727796D01*
X95049477Y-82727801D01*
X95068729Y-82947861D01*
X95068731Y-82947872D01*
X95107888Y-83094007D01*
X95106225Y-83163856D01*
X95067062Y-83221719D01*
X95002834Y-83249223D01*
X94988113Y-83250100D01*
X89084007Y-83250100D01*
X88960793Y-83250100D01*
X88912500Y-83259706D01*
X88912499Y-83259705D01*
X88839955Y-83274135D01*
X88839945Y-83274138D01*
X88800355Y-83290537D01*
X88800353Y-83290538D01*
X88765353Y-83305035D01*
X88726111Y-83321289D01*
X88716027Y-83328028D01*
X88716026Y-83328029D01*
X88623668Y-83389740D01*
X88588887Y-83424522D01*
X88536542Y-83476867D01*
X88536539Y-83476870D01*
X88314021Y-83699387D01*
X88252698Y-83732872D01*
X88240225Y-83734926D01*
X88193150Y-83740230D01*
X88022878Y-83799810D01*
X87870137Y-83895784D01*
X87742584Y-84023337D01*
X87646611Y-84176076D01*
X87587031Y-84346345D01*
X87587030Y-84346350D01*
X87566835Y-84525596D01*
X87566835Y-84525603D01*
X87587030Y-84704849D01*
X87587031Y-84704854D01*
X87632346Y-84834355D01*
X87646611Y-84875122D01*
X87680044Y-84928331D01*
X87700024Y-84960128D01*
X87719024Y-85027364D01*
X87698656Y-85094200D01*
X87645389Y-85139414D01*
X87595030Y-85150100D01*
X87562142Y-85150100D01*
X87495103Y-85130415D01*
X87474461Y-85113781D01*
X84025767Y-81665087D01*
X84025765Y-81665085D01*
X83953686Y-81623470D01*
X83894536Y-81589319D01*
X83821350Y-81569709D01*
X83748166Y-81550100D01*
X83748165Y-81550100D01*
X83722573Y-81550100D01*
X83655534Y-81530415D01*
X83623619Y-81500827D01*
X83616994Y-81492054D01*
X83544350Y-81395857D01*
X83519659Y-81330497D01*
X83534224Y-81262163D01*
X83568994Y-81221865D01*
X83654590Y-81157786D01*
X83740750Y-81042693D01*
X83740754Y-81042686D01*
X83790996Y-80907979D01*
X83790998Y-80907972D01*
X83797399Y-80848444D01*
X83797400Y-80848427D01*
X83797400Y-80375600D01*
X82938086Y-80375600D01*
X82942480Y-80371206D01*
X82995141Y-80279994D01*
X83022400Y-80178261D01*
X83022400Y-80072939D01*
X82995141Y-79971206D01*
X82942480Y-79879994D01*
X82938086Y-79875600D01*
X83797400Y-79875600D01*
X83797400Y-79402772D01*
X83797399Y-79402755D01*
X83790998Y-79343227D01*
X83790996Y-79343220D01*
X83740754Y-79208513D01*
X83740750Y-79208506D01*
X83654590Y-79093412D01*
X83654587Y-79093409D01*
X83539493Y-79007249D01*
X83539486Y-79007245D01*
X83404779Y-78957003D01*
X83404772Y-78957001D01*
X83345244Y-78950600D01*
X82872400Y-78950600D01*
X82872400Y-79809914D01*
X82868006Y-79805520D01*
X82776794Y-79752859D01*
X82675061Y-79725600D01*
X82569739Y-79725600D01*
X82468006Y-79752859D01*
X82376794Y-79805520D01*
X82372400Y-79809914D01*
X82372400Y-78950600D01*
X81899555Y-78950600D01*
X81840027Y-78957001D01*
X81840020Y-78957003D01*
X81705313Y-79007245D01*
X81705306Y-79007249D01*
X81590212Y-79093409D01*
X81590209Y-79093412D01*
X81504049Y-79208506D01*
X81504045Y-79208513D01*
X81453803Y-79343220D01*
X81453801Y-79343227D01*
X81447400Y-79402755D01*
X81447400Y-79875600D01*
X82306714Y-79875600D01*
X82302320Y-79879994D01*
X82249659Y-79971206D01*
X82222400Y-80072939D01*
X82222400Y-80178261D01*
X82249659Y-80279994D01*
X82302320Y-80371206D01*
X82306714Y-80375600D01*
X81447400Y-80375600D01*
X81447400Y-80848444D01*
X81453801Y-80907972D01*
X81453803Y-80907979D01*
X81504045Y-81042686D01*
X81504049Y-81042693D01*
X81590209Y-81157786D01*
X81675805Y-81221864D01*
X81717676Y-81277798D01*
X81722660Y-81347490D01*
X81700449Y-81395857D01*
X81618688Y-81504128D01*
X81521584Y-81699137D01*
X81502805Y-81765140D01*
X81478489Y-81850603D01*
X81461964Y-81908681D01*
X81441864Y-82125599D01*
X81441864Y-82125600D01*
X81461964Y-82342518D01*
X81461964Y-82342520D01*
X81461965Y-82342523D01*
X81517000Y-82535950D01*
X81521584Y-82552062D01*
X81618688Y-82747072D01*
X81749974Y-82920924D01*
X81873972Y-83033963D01*
X81910254Y-83093674D01*
X81908493Y-83163522D01*
X81873972Y-83217237D01*
X81749974Y-83330275D01*
X81618688Y-83504127D01*
X81521584Y-83699137D01*
X81461964Y-83908681D01*
X81441864Y-84125599D01*
X81441864Y-84125600D01*
X81461964Y-84342518D01*
X81461964Y-84342520D01*
X81461965Y-84342523D01*
X81521583Y-84552059D01*
X81521584Y-84552062D01*
X81618688Y-84747072D01*
X81749974Y-84920924D01*
X81873972Y-85033963D01*
X81910254Y-85093674D01*
X81908493Y-85163522D01*
X81873972Y-85217237D01*
X81749974Y-85330275D01*
X81618688Y-85504127D01*
X81521584Y-85699137D01*
X81521583Y-85699141D01*
X81464017Y-85901467D01*
X81461964Y-85908681D01*
X81441864Y-86125599D01*
X81441864Y-86125600D01*
X81461964Y-86342518D01*
X81461964Y-86342520D01*
X81461965Y-86342523D01*
X81495019Y-86458695D01*
X81521584Y-86552062D01*
X81618688Y-86747072D01*
X81749974Y-86920924D01*
X81873972Y-87033963D01*
X81910254Y-87093674D01*
X81908493Y-87163522D01*
X81873972Y-87217237D01*
X81749974Y-87330275D01*
X81618688Y-87504127D01*
X81521584Y-87699137D01*
X81494903Y-87792910D01*
X81479717Y-87846287D01*
X81461964Y-87908681D01*
X81441864Y-88125599D01*
X81441864Y-88125600D01*
X81461964Y-88342518D01*
X81461964Y-88342520D01*
X81461965Y-88342523D01*
X81517805Y-88538781D01*
X81521584Y-88552062D01*
X81618688Y-88747072D01*
X81749974Y-88920924D01*
X81873972Y-89033963D01*
X81910254Y-89093674D01*
X81908493Y-89163522D01*
X81873972Y-89217237D01*
X81749974Y-89330275D01*
X81618688Y-89504127D01*
X81521584Y-89699137D01*
X81521583Y-89699141D01*
X81479062Y-89848589D01*
X81461964Y-89908681D01*
X81441864Y-90125599D01*
X81441864Y-90125600D01*
X81461964Y-90342518D01*
X81461964Y-90342520D01*
X81461965Y-90342523D01*
X81510689Y-90513770D01*
X81521584Y-90552062D01*
X81618688Y-90747072D01*
X81749974Y-90920924D01*
X81873972Y-91033963D01*
X81910254Y-91093674D01*
X81908493Y-91163522D01*
X81873972Y-91217237D01*
X81749974Y-91330275D01*
X81618688Y-91504127D01*
X81521584Y-91699137D01*
X81461964Y-91908681D01*
X81441864Y-92125599D01*
X81441864Y-92125600D01*
X81461964Y-92342518D01*
X81461964Y-92342520D01*
X81461965Y-92342523D01*
X81518218Y-92540232D01*
X81521584Y-92552062D01*
X81618688Y-92747072D01*
X81749974Y-92920924D01*
X81873972Y-93033963D01*
X81910254Y-93093674D01*
X81908493Y-93163522D01*
X81873972Y-93217237D01*
X81749974Y-93330275D01*
X81618688Y-93504127D01*
X81521584Y-93699137D01*
X81461964Y-93908681D01*
X81441864Y-94125599D01*
X81441864Y-94125600D01*
X81461964Y-94342518D01*
X81461964Y-94342520D01*
X81461965Y-94342523D01*
X81490632Y-94443276D01*
X81521584Y-94552062D01*
X81618688Y-94747072D01*
X81749974Y-94920924D01*
X81873972Y-95033963D01*
X81910254Y-95093674D01*
X81908493Y-95163522D01*
X81873972Y-95217237D01*
X81749974Y-95330275D01*
X81618688Y-95504127D01*
X81521584Y-95699137D01*
X81461964Y-95908681D01*
X81441864Y-96125599D01*
X81441864Y-96125600D01*
X81461964Y-96342518D01*
X81461964Y-96342520D01*
X81461965Y-96342523D01*
X81506626Y-96499489D01*
X81521584Y-96552062D01*
X81618688Y-96747072D01*
X81749974Y-96920924D01*
X81873972Y-97033963D01*
X81910254Y-97093674D01*
X81908493Y-97163522D01*
X81873972Y-97217237D01*
X81749974Y-97330275D01*
X81618688Y-97504127D01*
X81521584Y-97699137D01*
X81461964Y-97908681D01*
X81441864Y-98125599D01*
X81441864Y-98125600D01*
X81461964Y-98342518D01*
X81461964Y-98342520D01*
X81461965Y-98342523D01*
X81502091Y-98483550D01*
X81521584Y-98552062D01*
X81618688Y-98747072D01*
X81749974Y-98920924D01*
X81873972Y-99033963D01*
X81910254Y-99093674D01*
X81908493Y-99163522D01*
X81873972Y-99217237D01*
X81749974Y-99330275D01*
X81618688Y-99504127D01*
X81521584Y-99699137D01*
X81461964Y-99908681D01*
X81441864Y-100125599D01*
X81441864Y-100125600D01*
X78622400Y-100125600D01*
X78622400Y-70125600D01*
X78916822Y-70125600D01*
X78937122Y-70512938D01*
X78997798Y-70896033D01*
X79093732Y-71254066D01*
X79098188Y-71270694D01*
X79237187Y-71632797D01*
X79413277Y-71978393D01*
X79624522Y-72303682D01*
X79753762Y-72463280D01*
X79868619Y-72605116D01*
X80142884Y-72879381D01*
X80300185Y-73006761D01*
X80444317Y-73123477D01*
X80750247Y-73322150D01*
X80769611Y-73334725D01*
X81115206Y-73510814D01*
X81477313Y-73649814D01*
X81851967Y-73750202D01*
X82235062Y-73810878D01*
X82600976Y-73830055D01*
X82622399Y-73831178D01*
X82622400Y-73831178D01*
X82622401Y-73831178D01*
X82642701Y-73830114D01*
X83009738Y-73810878D01*
X83392833Y-73750202D01*
X83767487Y-73649814D01*
X84129594Y-73510814D01*
X84475189Y-73334725D01*
X84800484Y-73123476D01*
X85101916Y-72879381D01*
X85376181Y-72605116D01*
X85620276Y-72303684D01*
X85831525Y-71978389D01*
X86007614Y-71632794D01*
X86146614Y-71270687D01*
X86247002Y-70896033D01*
X86307678Y-70512938D01*
X86327978Y-70125600D01*
X86307678Y-69738262D01*
X86247002Y-69355167D01*
X86146614Y-68980513D01*
X86140241Y-68963912D01*
X86007612Y-68618402D01*
X85950032Y-68505394D01*
X85831525Y-68272811D01*
X85815637Y-68248345D01*
X85620277Y-67947517D01*
X85389739Y-67662827D01*
X85376181Y-67646084D01*
X85101916Y-67371819D01*
X84800484Y-67127724D01*
X84800482Y-67127722D01*
X84475193Y-66916477D01*
X84129597Y-66740387D01*
X83767494Y-66601388D01*
X83767487Y-66601386D01*
X83392833Y-66500998D01*
X83392829Y-66500997D01*
X83392828Y-66500997D01*
X83009739Y-66440322D01*
X82622401Y-66420022D01*
X82622399Y-66420022D01*
X82235060Y-66440322D01*
X81851972Y-66500997D01*
X81851970Y-66500997D01*
X81477305Y-66601388D01*
X81115202Y-66740387D01*
X80769606Y-66916477D01*
X80444317Y-67127722D01*
X80142888Y-67371815D01*
X80142880Y-67371822D01*
X79868622Y-67646080D01*
X79868615Y-67646088D01*
X79624522Y-67947517D01*
X79413277Y-68272806D01*
X79237187Y-68618402D01*
X79098188Y-68980505D01*
X78997797Y-69355170D01*
X78997797Y-69355172D01*
X78937122Y-69738260D01*
X78929924Y-69875600D01*
X78916822Y-70125600D01*
X78622400Y-70125600D01*
X78622400Y-66249600D01*
X78642085Y-66182561D01*
X78694889Y-66136806D01*
X78746400Y-66125600D01*
X156498400Y-66125600D01*
X156565439Y-66145285D01*
G37*
%TD.AperFunction*%
%TD*%
M02*
