%TF.GenerationSoftware,KiCad,Pcbnew,7.99.0-1.20231130git343828c.fc38*%
%TF.CreationDate,2023-12-04T23:22:27-03:00*%
%TF.ProjectId,Wideband_v3,57696465-6261-46e6-945f-76332e6b6963,rev?*%
%TF.SameCoordinates,Original*%
%TF.FileFunction,Soldermask,Top*%
%TF.FilePolarity,Negative*%
%FSLAX46Y46*%
G04 Gerber Fmt 4.6, Leading zero omitted, Abs format (unit mm)*
G04 Created by KiCad (PCBNEW 7.99.0-1.20231130git343828c.fc38) date 2023-12-04 23:22:27*
%MOMM*%
%LPD*%
G01*
G04 APERTURE LIST*
G04 Aperture macros list*
%AMRoundRect*
0 Rectangle with rounded corners*
0 $1 Rounding radius*
0 $2 $3 $4 $5 $6 $7 $8 $9 X,Y pos of 4 corners*
0 Add a 4 corners polygon primitive as box body*
4,1,4,$2,$3,$4,$5,$6,$7,$8,$9,$2,$3,0*
0 Add four circle primitives for the rounded corners*
1,1,$1+$1,$2,$3*
1,1,$1+$1,$4,$5*
1,1,$1+$1,$6,$7*
1,1,$1+$1,$8,$9*
0 Add four rect primitives between the rounded corners*
20,1,$1+$1,$2,$3,$4,$5,0*
20,1,$1+$1,$4,$5,$6,$7,0*
20,1,$1+$1,$6,$7,$8,$9,0*
20,1,$1+$1,$8,$9,$2,$3,0*%
%AMRotRect*
0 Rectangle, with rotation*
0 The origin of the aperture is its center*
0 $1 length*
0 $2 width*
0 $3 Rotation angle, in degrees counterclockwise*
0 Add horizontal line*
21,1,$1,$2,0,0,$3*%
%AMFreePoly0*
4,1,6,1.000000,0.000000,0.499999,-0.750000,-0.499999,-0.750000,-0.499999,0.750000,0.499999,0.750000,1.000000,0.000000,1.000000,0.000000,$1*%
%AMFreePoly1*
4,1,6,0.499999,-0.750000,-0.649999,-0.750000,-0.150000,0.000000,-0.649999,0.750000,0.499999,0.750000,0.499999,-0.750000,0.499999,-0.750000,$1*%
G04 Aperture macros list end*
%ADD10RoundRect,0.150000X-0.150000X0.825000X-0.150000X-0.825000X0.150000X-0.825000X0.150000X0.825000X0*%
%ADD11C,0.800000*%
%ADD12C,6.400000*%
%ADD13R,1.350000X1.350000*%
%ADD14O,1.350000X1.350000*%
%ADD15RoundRect,0.250000X-1.400000X-1.000000X1.400000X-1.000000X1.400000X1.000000X-1.400000X1.000000X0*%
%ADD16RoundRect,0.150000X-0.353553X-0.565685X0.565685X0.353553X0.353553X0.565685X-0.565685X-0.353553X0*%
%ADD17C,2.400000*%
%ADD18C,1.700000*%
%ADD19R,1.500000X2.000000*%
%ADD20R,3.800000X2.000000*%
%ADD21R,1.000000X1.000000*%
%ADD22RoundRect,0.140000X0.170000X-0.140000X0.170000X0.140000X-0.170000X0.140000X-0.170000X-0.140000X0*%
%ADD23RoundRect,0.225000X0.335876X0.017678X0.017678X0.335876X-0.335876X-0.017678X-0.017678X-0.335876X0*%
%ADD24RoundRect,0.225000X-0.335876X-0.017678X-0.017678X-0.335876X0.335876X0.017678X0.017678X0.335876X0*%
%ADD25RoundRect,0.250000X0.400000X0.600000X-0.400000X0.600000X-0.400000X-0.600000X0.400000X-0.600000X0*%
%ADD26RoundRect,0.250000X-0.650000X1.000000X-0.650000X-1.000000X0.650000X-1.000000X0.650000X1.000000X0*%
%ADD27RoundRect,0.200000X-0.200000X-0.275000X0.200000X-0.275000X0.200000X0.275000X-0.200000X0.275000X0*%
%ADD28RotRect,1.400000X1.200000X315.000000*%
%ADD29RoundRect,0.225000X0.017678X-0.335876X0.335876X-0.017678X-0.017678X0.335876X-0.335876X0.017678X0*%
%ADD30RoundRect,0.225000X-0.225000X-0.250000X0.225000X-0.250000X0.225000X0.250000X-0.225000X0.250000X0*%
%ADD31RoundRect,0.125000X0.125000X0.125000X-0.125000X0.125000X-0.125000X-0.125000X0.125000X-0.125000X0*%
%ADD32FreePoly0,135.000000*%
%ADD33FreePoly1,135.000000*%
%ADD34RoundRect,0.225000X0.250000X-0.225000X0.250000X0.225000X-0.250000X0.225000X-0.250000X-0.225000X0*%
%ADD35C,1.524000*%
%ADD36RoundRect,0.250000X0.250000X0.475000X-0.250000X0.475000X-0.250000X-0.475000X0.250000X-0.475000X0*%
%ADD37RoundRect,0.200000X0.200000X0.275000X-0.200000X0.275000X-0.200000X-0.275000X0.200000X-0.275000X0*%
%ADD38RoundRect,0.200000X-0.053033X0.335876X-0.335876X0.053033X0.053033X-0.335876X0.335876X-0.053033X0*%
%ADD39RoundRect,0.200000X-0.335876X-0.053033X-0.053033X-0.335876X0.335876X0.053033X0.053033X0.335876X0*%
%ADD40RoundRect,0.140000X-0.219203X-0.021213X-0.021213X-0.219203X0.219203X0.021213X0.021213X0.219203X0*%
%ADD41RoundRect,0.225000X0.225000X0.250000X-0.225000X0.250000X-0.225000X-0.250000X0.225000X-0.250000X0*%
%ADD42RoundRect,0.200000X-0.275000X0.200000X-0.275000X-0.200000X0.275000X-0.200000X0.275000X0.200000X0*%
%ADD43RoundRect,0.150000X-0.825000X-0.150000X0.825000X-0.150000X0.825000X0.150000X-0.825000X0.150000X0*%
%ADD44C,0.650000*%
%ADD45R,1.450000X0.600000*%
%ADD46R,1.450000X0.300000*%
%ADD47O,2.100000X1.000000*%
%ADD48O,1.600000X1.000000*%
%ADD49RoundRect,0.140000X0.219203X0.021213X0.021213X0.219203X-0.219203X-0.021213X-0.021213X-0.219203X0*%
%ADD50RoundRect,0.140000X-0.170000X0.140000X-0.170000X-0.140000X0.170000X-0.140000X0.170000X0.140000X0*%
%ADD51RoundRect,0.150000X0.825000X0.150000X-0.825000X0.150000X-0.825000X-0.150000X0.825000X-0.150000X0*%
%ADD52C,0.990600*%
%ADD53C,0.787400*%
%ADD54RoundRect,0.150000X0.150000X-0.675000X0.150000X0.675000X-0.150000X0.675000X-0.150000X-0.675000X0*%
%ADD55RoundRect,0.050000X0.309359X-0.238649X-0.238649X0.309359X-0.309359X0.238649X0.238649X-0.309359X0*%
%ADD56RoundRect,0.050000X0.309359X0.238649X0.238649X0.309359X-0.309359X-0.238649X-0.238649X-0.309359X0*%
%ADD57RotRect,3.200000X3.200000X135.000000*%
%ADD58RoundRect,0.125000X-0.125000X-0.125000X0.125000X-0.125000X0.125000X0.125000X-0.125000X0.125000X0*%
%ADD59RoundRect,0.125000X0.125000X-0.125000X0.125000X0.125000X-0.125000X0.125000X-0.125000X-0.125000X0*%
%ADD60RoundRect,0.250000X0.350000X-0.850000X0.350000X0.850000X-0.350000X0.850000X-0.350000X-0.850000X0*%
%ADD61RoundRect,0.249997X2.650003X-2.950003X2.650003X2.950003X-2.650003X2.950003X-2.650003X-2.950003X0*%
%ADD62RoundRect,0.250000X0.475000X-0.250000X0.475000X0.250000X-0.475000X0.250000X-0.475000X-0.250000X0*%
%ADD63C,3.000000*%
%ADD64RoundRect,0.250001X-1.099999X-1.399999X1.099999X-1.399999X1.099999X1.399999X-1.099999X1.399999X0*%
%ADD65O,2.700000X3.300000*%
G04 APERTURE END LIST*
D10*
%TO.C,U9*%
X91592400Y-81345000D03*
X90322400Y-81345000D03*
X89052400Y-81345000D03*
X87782400Y-81345000D03*
X87782400Y-86295000D03*
X89052400Y-86295000D03*
X90322400Y-86295000D03*
X91592400Y-86295000D03*
%TD*%
D11*
%TO.C,H3*%
X80222400Y-110125600D03*
X80925344Y-108428544D03*
X80925344Y-111822656D03*
X82622400Y-107725600D03*
D12*
X82622400Y-110125600D03*
D11*
X82622400Y-112525600D03*
X84319456Y-108428544D03*
X84319456Y-111822656D03*
X85022400Y-110125600D03*
%TD*%
D13*
%TO.C,J1*%
X82622400Y-80125600D03*
D14*
X82622400Y-82125600D03*
X82622400Y-84125600D03*
X82622400Y-86125600D03*
X82622400Y-88125600D03*
X82622400Y-90125600D03*
X82622400Y-92125600D03*
X82622400Y-94125600D03*
X82622400Y-96125600D03*
X82622400Y-98125600D03*
X82622400Y-100125600D03*
%TD*%
D15*
%TO.C,D10*%
X102717600Y-103127600D03*
X102717600Y-109927600D03*
%TD*%
D16*
%TO.C,U2*%
X127552377Y-97566146D03*
X128450403Y-98464172D03*
X129348428Y-99362197D03*
X130246454Y-100260223D03*
X135337623Y-95169054D03*
X134439597Y-94271028D03*
X133541572Y-93373003D03*
X132643546Y-92474977D03*
%TD*%
D11*
%TO.C,H1*%
X150222400Y-70125600D03*
X150925344Y-68428544D03*
X150925344Y-71822656D03*
X152622400Y-67725600D03*
D12*
X152622400Y-70125600D03*
D11*
X152622400Y-72525600D03*
X154319456Y-68428544D03*
X154319456Y-71822656D03*
X155022400Y-70125600D03*
%TD*%
D17*
%TO.C,SW3*%
X152122401Y-78875600D03*
X152122400Y-85875600D03*
D18*
X154622400Y-80125600D03*
X154622400Y-84625601D03*
%TD*%
D19*
%TO.C,U8*%
X128408400Y-109982400D03*
X130708400Y-109982399D03*
D20*
X130708400Y-103682401D03*
D19*
X133008400Y-109982400D03*
%TD*%
D21*
%TO.C,TP4*%
X119075200Y-88747600D03*
%TD*%
D22*
%TO.C,C1*%
X141071600Y-70279200D03*
X141071600Y-69319200D03*
%TD*%
D11*
%TO.C,H4*%
X150222400Y-110125600D03*
X150925344Y-108428544D03*
X150925344Y-111822656D03*
X152622400Y-107725600D03*
D12*
X152622400Y-110125600D03*
D11*
X152622400Y-112525600D03*
X154319456Y-108428544D03*
X154319456Y-111822656D03*
X155022400Y-110125600D03*
%TD*%
D23*
%TO.C,C18*%
X144362808Y-78957808D03*
X143266792Y-77861792D03*
%TD*%
D24*
%TO.C,C10*%
X141056992Y-80046192D03*
X142153008Y-81142208D03*
%TD*%
D25*
%TO.C,D11*%
X112538351Y-110444273D03*
X109038351Y-110444273D03*
%TD*%
D24*
%TO.C,C19*%
X135124392Y-90277592D03*
X136220408Y-91373608D03*
%TD*%
D26*
%TO.C,D1*%
X136398000Y-105645199D03*
X136398000Y-109645201D03*
%TD*%
D27*
%TO.C,R20*%
X111951000Y-100736400D03*
X113601000Y-100736400D03*
%TD*%
D28*
%TO.C,Y1*%
X144485155Y-81612061D03*
X146040790Y-83167696D03*
X147242871Y-81965615D03*
X145687236Y-80409980D03*
%TD*%
D29*
%TO.C,C24*%
X129703192Y-92496008D03*
X130799208Y-91399992D03*
%TD*%
D30*
%TO.C,C23*%
X134647400Y-80825600D03*
X136197400Y-80825600D03*
%TD*%
D24*
%TO.C,C14*%
X144587592Y-89113992D03*
X145683608Y-90210008D03*
%TD*%
D31*
%TO.C,D5*%
X126626799Y-91084400D03*
X124426801Y-91084400D03*
%TD*%
D21*
%TO.C,TP5*%
X119075200Y-80365600D03*
%TD*%
D32*
%TO.C,JP4*%
X126445852Y-99877452D03*
D33*
X125420548Y-98852148D03*
%TD*%
D34*
%TO.C,C29*%
X124764800Y-111011000D03*
X124764800Y-109461000D03*
%TD*%
D24*
%TO.C,C17*%
X132395592Y-88529792D03*
X133491608Y-89625808D03*
%TD*%
D35*
%TO.C,U3*%
X121716800Y-97967800D03*
X121716800Y-95427800D03*
X121716800Y-92887800D03*
X121716800Y-90347800D03*
X121716800Y-87807800D03*
X121716800Y-85267800D03*
X121716800Y-82727800D03*
X121716800Y-80187800D03*
X96316800Y-97967800D03*
X96316801Y-95427800D03*
X96316800Y-92887800D03*
X96316800Y-90347800D03*
X96316800Y-87807800D03*
X96316800Y-85267801D03*
X96316800Y-82727799D03*
X96316800Y-80187800D03*
%TD*%
D36*
%TO.C,C7*%
X93659999Y-99898200D03*
X91760001Y-99898200D03*
%TD*%
D37*
%TO.C,R2*%
X147078200Y-92608400D03*
X145428200Y-92608400D03*
%TD*%
D24*
%TO.C,C11*%
X134074392Y-91327592D03*
X135170408Y-92423608D03*
%TD*%
D38*
%TO.C,R6*%
X127176963Y-95123837D03*
X126010237Y-96290563D03*
%TD*%
D39*
%TO.C,R5*%
X139539037Y-93042237D03*
X140705763Y-94208963D03*
%TD*%
D40*
%TO.C,C15*%
X147767989Y-80051589D03*
X148446811Y-80730411D03*
%TD*%
D41*
%TO.C,C28*%
X112585800Y-108356400D03*
X111035800Y-108356400D03*
%TD*%
D42*
%TO.C,R17*%
X93421200Y-93256600D03*
X93421200Y-94906600D03*
%TD*%
D34*
%TO.C,C13*%
X132130800Y-84544200D03*
X132130800Y-82994200D03*
%TD*%
D43*
%TO.C,U7*%
X125134600Y-79375000D03*
X125134600Y-80645000D03*
X125134600Y-81915000D03*
X125134600Y-83185000D03*
X125134600Y-84455000D03*
X125134600Y-85725000D03*
X125134600Y-86995000D03*
X130084600Y-86995000D03*
X130084600Y-85725000D03*
X130084600Y-84455000D03*
X130084600Y-83185000D03*
X130084600Y-81915000D03*
X130084600Y-80645000D03*
X130084600Y-79375000D03*
%TD*%
D44*
%TO.C,J2*%
X151022400Y-98015600D03*
X151022400Y-92235600D03*
D45*
X149577400Y-98375600D03*
X149577400Y-97575601D03*
D46*
X149577401Y-96375600D03*
X149577400Y-95375600D03*
X149577400Y-94875600D03*
X149577401Y-93875600D03*
D45*
X149577400Y-92675599D03*
X149577400Y-91875600D03*
X149577400Y-91875600D03*
X149577400Y-92675599D03*
D46*
X149577400Y-93375600D03*
X149577400Y-94375600D03*
X149577400Y-95875600D03*
X149577400Y-96875600D03*
D45*
X149577400Y-97575601D03*
X149577400Y-98375600D03*
D47*
X150492400Y-99445600D03*
D48*
X154672400Y-99445600D03*
D47*
X150492400Y-90805600D03*
D48*
X154672400Y-90805600D03*
%TD*%
D49*
%TO.C,C16*%
X145611811Y-84665011D03*
X144932989Y-83986189D03*
%TD*%
D11*
%TO.C,H2*%
X80222400Y-70125600D03*
X80925344Y-68428544D03*
X80925344Y-71822656D03*
X82622400Y-67725600D03*
D12*
X82622400Y-70125600D03*
D11*
X82622400Y-72525600D03*
X84319456Y-68428544D03*
X84319456Y-71822656D03*
X85022400Y-70125600D03*
%TD*%
D37*
%TO.C,R4*%
X147052800Y-94208600D03*
X145402800Y-94208600D03*
%TD*%
D42*
%TO.C,R18*%
X88036400Y-99073200D03*
X88036400Y-100723200D03*
%TD*%
D50*
%TO.C,C2*%
X141071600Y-73434000D03*
X141071600Y-74394000D03*
%TD*%
D51*
%TO.C,Q6*%
X112609400Y-106248200D03*
X112609400Y-104978200D03*
X112609400Y-103708200D03*
X112609400Y-102438200D03*
X107659400Y-102438200D03*
X107659400Y-103708200D03*
X107659400Y-104978200D03*
X107659400Y-106248200D03*
%TD*%
D37*
%TO.C,R1*%
X147078200Y-97358200D03*
X145428200Y-97358200D03*
%TD*%
D52*
%TO.C,J3*%
X135203362Y-101033013D03*
X138077044Y-96722490D03*
X139513885Y-98159331D03*
D53*
X136550400Y-100584000D03*
X135652375Y-99685975D03*
X137448426Y-99685975D03*
X136550400Y-98787949D03*
X138346451Y-98787949D03*
X137448426Y-97889924D03*
%TD*%
D54*
%TO.C,U4*%
X142621000Y-75167400D03*
X143891000Y-75167400D03*
X145161000Y-75167400D03*
X146431000Y-75167400D03*
X146431000Y-69917400D03*
X145161000Y-69917400D03*
X143891000Y-69917400D03*
X142621000Y-69917400D03*
%TD*%
D55*
%TO.C,U1*%
X139962002Y-90400557D03*
X140244845Y-90117714D03*
X140527687Y-89834872D03*
X140810530Y-89552029D03*
X141093373Y-89269186D03*
X141376215Y-88986344D03*
X141659058Y-88703501D03*
X141941901Y-88420658D03*
X142224744Y-88137815D03*
X142507586Y-87854973D03*
X142790429Y-87572130D03*
X143073272Y-87289287D03*
X143356114Y-87006445D03*
X143638957Y-86723602D03*
D56*
X143638957Y-85539198D03*
X143356114Y-85256355D03*
X143073272Y-84973513D03*
X142790429Y-84690670D03*
X142507586Y-84407827D03*
X142224744Y-84124985D03*
X141941901Y-83842142D03*
X141659058Y-83559299D03*
X141376215Y-83276456D03*
X141093373Y-82993614D03*
X140810530Y-82710771D03*
X140527687Y-82427928D03*
X140244845Y-82145086D03*
X139962002Y-81862243D03*
D55*
X138777598Y-81862243D03*
X138494755Y-82145086D03*
X138211913Y-82427928D03*
X137929070Y-82710771D03*
X137646227Y-82993614D03*
X137363385Y-83276456D03*
X137080542Y-83559299D03*
X136797699Y-83842142D03*
X136514856Y-84124985D03*
X136232014Y-84407827D03*
X135949171Y-84690670D03*
X135666328Y-84973513D03*
X135383486Y-85256355D03*
X135100643Y-85539198D03*
D56*
X135100643Y-86723602D03*
X135383486Y-87006445D03*
X135666328Y-87289287D03*
X135949171Y-87572130D03*
X136232014Y-87854973D03*
X136514856Y-88137815D03*
X136797699Y-88420658D03*
X137080542Y-88703501D03*
X137363385Y-88986344D03*
X137646227Y-89269186D03*
X137929070Y-89552029D03*
X138211913Y-89834872D03*
X138494755Y-90117714D03*
X138777598Y-90400557D03*
D57*
X139369800Y-86131400D03*
%TD*%
D42*
%TO.C,R16*%
X124587000Y-92850200D03*
X124587000Y-94500200D03*
%TD*%
D41*
%TO.C,C12*%
X146520200Y-67614800D03*
X144970200Y-67614800D03*
%TD*%
D10*
%TO.C,U10*%
X91668600Y-91962200D03*
X90398600Y-91962200D03*
X89128600Y-91962200D03*
X87858600Y-91962200D03*
X87858600Y-96912200D03*
X89128600Y-96912200D03*
X90398600Y-96912200D03*
X91668600Y-96912200D03*
%TD*%
D58*
%TO.C,D6*%
X124452200Y-89027000D03*
X126652200Y-89027000D03*
%TD*%
D27*
%TO.C,R3*%
X145428200Y-95808800D03*
X147078200Y-95808800D03*
%TD*%
D59*
%TO.C,D7*%
X89890600Y-101125199D03*
X89890600Y-98925201D03*
%TD*%
D26*
%TO.C,D2*%
X123529690Y-102298989D03*
X123529690Y-106298991D03*
%TD*%
D23*
%TO.C,C21*%
X133821808Y-87746208D03*
X132725792Y-86650192D03*
%TD*%
D60*
%TO.C,U11*%
X115779200Y-110524399D03*
D61*
X118059200Y-104224398D03*
D60*
X120339200Y-110524399D03*
%TD*%
D23*
%TO.C,C22*%
X143270608Y-80024608D03*
X142174592Y-78928592D03*
%TD*%
D38*
%TO.C,R19*%
X141468976Y-98932999D03*
X140302250Y-100099725D03*
%TD*%
D23*
%TO.C,C9*%
X142000608Y-93334208D03*
X140904592Y-92238192D03*
%TD*%
D62*
%TO.C,C30*%
X122895400Y-111084399D03*
X122895400Y-109184401D03*
%TD*%
D29*
%TO.C,C20*%
X138102405Y-102223370D03*
X139198421Y-101127354D03*
%TD*%
D63*
%TO.C,J5*%
X92922400Y-70085600D03*
X123322400Y-70085600D03*
D64*
X97622400Y-75125600D03*
D65*
X101822399Y-75125600D03*
X106022400Y-75125600D03*
X110222399Y-75125600D03*
X114422400Y-75125600D03*
X118622399Y-75125600D03*
X97622400Y-69625600D03*
X101822400Y-69625600D03*
X106022400Y-69625600D03*
X110222400Y-69625600D03*
X114422400Y-69625600D03*
X118622400Y-69625600D03*
%TD*%
D64*
%TO.C,J4*%
X132622400Y-75125600D03*
D65*
X136822399Y-75125600D03*
X132622400Y-69625600D03*
X136822400Y-69625600D03*
%TD*%
M02*
