%TF.GenerationSoftware,KiCad,Pcbnew,7.99.0-3804-ge3eab57133-dirty*%
%TF.CreationDate,2023-12-05T15:26:08-03:00*%
%TF.ProjectId,Wideband_v3,57696465-6261-46e6-945f-76332e6b6963,rev?*%
%TF.SameCoordinates,Original*%
%TF.FileFunction,Soldermask,Bot*%
%TF.FilePolarity,Negative*%
%FSLAX46Y46*%
G04 Gerber Fmt 4.6, Leading zero omitted, Abs format (unit mm)*
G04 Created by KiCad (PCBNEW 7.99.0-3804-ge3eab57133-dirty) date 2023-12-05 15:26:08*
%MOMM*%
%LPD*%
G01*
G04 APERTURE LIST*
G04 Aperture macros list*
%AMRoundRect*
0 Rectangle with rounded corners*
0 $1 Rounding radius*
0 $2 $3 $4 $5 $6 $7 $8 $9 X,Y pos of 4 corners*
0 Add a 4 corners polygon primitive as box body*
4,1,4,$2,$3,$4,$5,$6,$7,$8,$9,$2,$3,0*
0 Add four circle primitives for the rounded corners*
1,1,$1+$1,$2,$3*
1,1,$1+$1,$4,$5*
1,1,$1+$1,$6,$7*
1,1,$1+$1,$8,$9*
0 Add four rect primitives between the rounded corners*
20,1,$1+$1,$2,$3,$4,$5,0*
20,1,$1+$1,$4,$5,$6,$7,0*
20,1,$1+$1,$6,$7,$8,$9,0*
20,1,$1+$1,$8,$9,$2,$3,0*%
%AMFreePoly0*
4,1,6,1.000000,0.000000,0.499999,-0.750000,-0.499999,-0.750000,-0.499999,0.750000,0.499999,0.750000,1.000000,0.000000,1.000000,0.000000,$1*%
%AMFreePoly1*
4,1,6,0.499999,-0.750000,-0.649999,-0.750000,-0.150000,0.000000,-0.649999,0.750000,0.499999,0.750000,0.499999,-0.750000,0.499999,-0.750000,$1*%
%AMFreePoly2*
4,1,19,0.500000,-0.750000,0.000000,-0.750000,0.000000,-0.744911,-0.071157,-0.744911,-0.207708,-0.704816,-0.327430,-0.627875,-0.420627,-0.520320,-0.479746,-0.390866,-0.500000,-0.250000,-0.500000,0.250000,-0.479746,0.390866,-0.420627,0.520320,-0.327430,0.627875,-0.207708,0.704816,-0.071157,0.744911,0.000000,0.744911,0.000000,0.750000,0.500000,0.750000,0.500000,-0.750000,0.500000,-0.750000,
$1*%
%AMFreePoly3*
4,1,19,0.000000,0.744911,0.071157,0.744911,0.207708,0.704816,0.327430,0.627875,0.420627,0.520320,0.479746,0.390866,0.500000,0.250000,0.500000,-0.250000,0.479746,-0.390866,0.420627,-0.520320,0.327430,-0.627875,0.207708,-0.704816,0.071157,-0.744911,0.000000,-0.744911,0.000000,-0.750000,-0.500000,-0.750000,-0.500000,0.750000,0.000000,0.750000,0.000000,0.744911,0.000000,0.744911,
$1*%
G04 Aperture macros list end*
%ADD10C,0.800000*%
%ADD11C,6.400000*%
%ADD12R,1.350000X1.350000*%
%ADD13O,1.350000X1.350000*%
%ADD14C,2.400000*%
%ADD15C,1.700000*%
%ADD16C,1.524000*%
%ADD17C,0.650000*%
%ADD18O,2.100000X1.000000*%
%ADD19O,1.600000X1.000000*%
%ADD20C,0.990600*%
%ADD21R,1.000000X1.000000*%
%ADD22FreePoly0,315.000000*%
%ADD23FreePoly1,315.000000*%
%ADD24R,0.750000X1.000000*%
%ADD25C,3.000000*%
%ADD26RoundRect,0.250001X-1.099999X-1.399999X1.099999X-1.399999X1.099999X1.399999X-1.099999X1.399999X0*%
%ADD27O,2.700000X3.300000*%
%ADD28FreePoly2,0.000000*%
%ADD29FreePoly3,0.000000*%
%ADD30FreePoly0,45.000000*%
%ADD31FreePoly1,45.000000*%
G04 APERTURE END LIST*
D10*
%TO.C,H3*%
X80222400Y-110125600D03*
X80925344Y-108428544D03*
X80925344Y-111822656D03*
X82622400Y-107725600D03*
D11*
X82622400Y-110125600D03*
D10*
X82622400Y-112525600D03*
X84319456Y-108428544D03*
X84319456Y-111822656D03*
X85022400Y-110125600D03*
%TD*%
D12*
%TO.C,J1*%
X82622400Y-80125600D03*
D13*
X82622400Y-82125600D03*
X82622400Y-84125600D03*
X82622400Y-86125600D03*
X82622400Y-88125600D03*
X82622400Y-90125600D03*
X82622400Y-92125600D03*
X82622400Y-94125600D03*
X82622400Y-96125600D03*
X82622400Y-98125600D03*
X82622400Y-100125600D03*
%TD*%
D10*
%TO.C,H1*%
X150222400Y-70125600D03*
X150925344Y-68428544D03*
X150925344Y-71822656D03*
X152622400Y-67725600D03*
D11*
X152622400Y-70125600D03*
D10*
X152622400Y-72525600D03*
X154319456Y-68428544D03*
X154319456Y-71822656D03*
X155022400Y-70125600D03*
%TD*%
D14*
%TO.C,SW3*%
X152122401Y-78875600D03*
X152122400Y-85875600D03*
D15*
X154622400Y-80125600D03*
X154622400Y-84625601D03*
%TD*%
D10*
%TO.C,H4*%
X150222400Y-110125600D03*
X150925344Y-108428544D03*
X150925344Y-111822656D03*
X152622400Y-107725600D03*
D11*
X152622400Y-110125600D03*
D10*
X152622400Y-112525600D03*
X154319456Y-108428544D03*
X154319456Y-111822656D03*
X155022400Y-110125600D03*
%TD*%
D16*
%TO.C,U3*%
X121716800Y-97967800D03*
X121716800Y-95427800D03*
X121716800Y-92887800D03*
X121716800Y-90347800D03*
X121716800Y-87807800D03*
X121716800Y-85267800D03*
X121716800Y-82727800D03*
X121716800Y-80187800D03*
X96316800Y-97967800D03*
X96316801Y-95427800D03*
X96316800Y-92887800D03*
X96316800Y-90347800D03*
X96316800Y-87807800D03*
X96316800Y-85267801D03*
X96316800Y-82727799D03*
X96316800Y-80187800D03*
%TD*%
D17*
%TO.C,J2*%
X151022400Y-98015600D03*
X151022400Y-92235600D03*
D18*
X150492400Y-99445600D03*
D19*
X154672400Y-99445600D03*
D18*
X150492400Y-90805600D03*
D19*
X154672400Y-90805600D03*
%TD*%
D10*
%TO.C,H2*%
X80222400Y-70125600D03*
X80925344Y-68428544D03*
X80925344Y-71822656D03*
X82622400Y-67725600D03*
D11*
X82622400Y-70125600D03*
D10*
X82622400Y-72525600D03*
X84319456Y-68428544D03*
X84319456Y-71822656D03*
X85022400Y-70125600D03*
%TD*%
D20*
%TO.C,J3*%
X135203362Y-101033013D03*
X138077044Y-96722490D03*
X139513885Y-98159331D03*
%TD*%
D21*
%TO.C,TP3*%
X125069600Y-92964000D03*
%TD*%
D22*
%TO.C,JP2*%
X143657748Y-90190748D03*
D23*
X144683052Y-91216052D03*
%TD*%
D24*
%TO.C,SW1*%
X124897400Y-80525600D03*
X124897400Y-86525600D03*
X128647400Y-80525600D03*
X128647400Y-86525600D03*
%TD*%
D25*
%TO.C,J5*%
X92922400Y-70085600D03*
X123322400Y-70085600D03*
D26*
X97622400Y-75125600D03*
D27*
X101822399Y-75125600D03*
X106022400Y-75125600D03*
X110222399Y-75125600D03*
X114422400Y-75125600D03*
X118622399Y-75125600D03*
X97622400Y-69625600D03*
X101822400Y-69625600D03*
X106022400Y-69625600D03*
X110222400Y-69625600D03*
X114422400Y-69625600D03*
X118622400Y-69625600D03*
%TD*%
D28*
%TO.C,JP5*%
X102575601Y-80264000D03*
D29*
X103875599Y-80264000D03*
%TD*%
D22*
%TO.C,JP1*%
X141477719Y-91964377D03*
D23*
X142503023Y-92989681D03*
%TD*%
D30*
%TO.C,JP3*%
X138780948Y-86720252D03*
D31*
X139806252Y-85694948D03*
%TD*%
D26*
%TO.C,J4*%
X132622400Y-75125600D03*
D27*
X136822399Y-75125600D03*
X132622400Y-69625600D03*
X136822400Y-69625600D03*
%TD*%
M02*
