%TF.GenerationSoftware,KiCad,Pcbnew,8.99.0-unknown-1.20240323gita6e2746.fc38*%
%TF.CreationDate,2024-04-05T19:16:21-03:00*%
%TF.ProjectId,Wideband_v3,57696465-6261-46e6-945f-76332e6b6963,rev?*%
%TF.SameCoordinates,Original*%
%TF.FileFunction,Legend,Bot*%
%TF.FilePolarity,Positive*%
%FSLAX46Y46*%
G04 Gerber Fmt 4.6, Leading zero omitted, Abs format (unit mm)*
G04 Created by KiCad (PCBNEW 8.99.0-unknown-1.20240323gita6e2746.fc38) date 2024-04-05 19:16:21*
%MOMM*%
%LPD*%
G01*
G04 APERTURE LIST*
G04 Aperture macros list*
%AMRoundRect*
0 Rectangle with rounded corners*
0 $1 Rounding radius*
0 $2 $3 $4 $5 $6 $7 $8 $9 X,Y pos of 4 corners*
0 Add a 4 corners polygon primitive as box body*
4,1,4,$2,$3,$4,$5,$6,$7,$8,$9,$2,$3,0*
0 Add four circle primitives for the rounded corners*
1,1,$1+$1,$2,$3*
1,1,$1+$1,$4,$5*
1,1,$1+$1,$6,$7*
1,1,$1+$1,$8,$9*
0 Add four rect primitives between the rounded corners*
20,1,$1+$1,$2,$3,$4,$5,0*
20,1,$1+$1,$4,$5,$6,$7,0*
20,1,$1+$1,$6,$7,$8,$9,0*
20,1,$1+$1,$8,$9,$2,$3,0*%
%AMFreePoly0*
4,1,6,1.000000,0.000000,0.499999,-0.750000,-0.499999,-0.750000,-0.499999,0.750000,0.499999,0.750000,1.000000,0.000000,1.000000,0.000000,$1*%
%AMFreePoly1*
4,1,6,0.499999,-0.750000,-0.649999,-0.750000,-0.150000,0.000000,-0.649999,0.750000,0.499999,0.750000,0.499999,-0.750000,0.499999,-0.750000,$1*%
%AMFreePoly2*
4,1,19,0.500000,-0.750000,0.000000,-0.750000,0.000000,-0.744911,-0.071157,-0.744911,-0.207708,-0.704816,-0.327430,-0.627875,-0.420627,-0.520320,-0.479746,-0.390866,-0.500000,-0.250000,-0.500000,0.250000,-0.479746,0.390866,-0.420627,0.520320,-0.327430,0.627875,-0.207708,0.704816,-0.071157,0.744911,0.000000,0.744911,0.000000,0.750000,0.500000,0.750000,0.500000,-0.750000,0.500000,-0.750000,
$1*%
%AMFreePoly3*
4,1,19,0.000000,0.744911,0.071157,0.744911,0.207708,0.704816,0.327430,0.627875,0.420627,0.520320,0.479746,0.390866,0.500000,0.250000,0.500000,-0.250000,0.479746,-0.390866,0.420627,-0.520320,0.327430,-0.627875,0.207708,-0.704816,0.071157,-0.744911,0.000000,-0.744911,0.000000,-0.750000,-0.500000,-0.750000,-0.500000,0.750000,0.000000,0.750000,0.000000,0.744911,0.000000,0.744911,
$1*%
G04 Aperture macros list end*
%ADD10C,0.150000*%
%ADD11C,0.300000*%
%ADD12C,0.120000*%
%ADD13C,0.000000*%
%ADD14C,0.100000*%
%ADD15C,1.050000*%
%ADD16C,0.800000*%
%ADD17C,6.400000*%
%ADD18C,2.400000*%
%ADD19C,1.700000*%
%ADD20R,1.700000X1.700000*%
%ADD21O,1.700000X1.700000*%
%ADD22C,1.524000*%
%ADD23C,0.650000*%
%ADD24O,2.100000X1.000000*%
%ADD25O,1.600000X1.000000*%
%ADD26C,0.990600*%
%ADD27R,1.000000X1.000000*%
%ADD28FreePoly0,315.000000*%
%ADD29FreePoly1,315.000000*%
%ADD30R,0.750000X1.000000*%
%ADD31C,3.000000*%
%ADD32RoundRect,0.250001X-1.099999X-1.399999X1.099999X-1.399999X1.099999X1.399999X-1.099999X1.399999X0*%
%ADD33O,2.700000X3.300000*%
%ADD34FreePoly2,0.000000*%
%ADD35FreePoly3,0.000000*%
%ADD36C,1.800000*%
%ADD37FreePoly0,45.000000*%
%ADD38FreePoly1,45.000000*%
G04 APERTURE END LIST*
D10*
X132587877Y-109150161D02*
X132825973Y-108864447D01*
X133016449Y-109150161D02*
X133016449Y-108483495D01*
X133016449Y-108483495D02*
X132730735Y-108483495D01*
X132730735Y-108483495D02*
X132635496Y-108531114D01*
X132635496Y-108531114D02*
X132587877Y-108626352D01*
X132587877Y-108626352D02*
X132587877Y-108721590D01*
X132587877Y-108721590D02*
X132635496Y-108816828D01*
X132635496Y-108816828D02*
X132730735Y-108864447D01*
X132730735Y-108864447D02*
X133016449Y-108864447D01*
X132825973Y-108150161D02*
X133064068Y-108197780D01*
X133064068Y-108197780D02*
X133302163Y-108340638D01*
X133302163Y-108340638D02*
X133445020Y-108578733D01*
X133445020Y-108578733D02*
X133492639Y-108816828D01*
X133492639Y-108816828D02*
X133445020Y-109054923D01*
X133445020Y-109054923D02*
X133302163Y-109293019D01*
X133302163Y-109293019D02*
X133064068Y-109435876D01*
X133064068Y-109435876D02*
X132825973Y-109483495D01*
X132825973Y-109483495D02*
X132587877Y-109435876D01*
X132587877Y-109435876D02*
X132349782Y-109293019D01*
X132349782Y-109293019D02*
X132206925Y-109054923D01*
X132206925Y-109054923D02*
X132159306Y-108816828D01*
X132159306Y-108816828D02*
X132206925Y-108578733D01*
X132206925Y-108578733D02*
X132349782Y-108340638D01*
X132349782Y-108340638D02*
X132587877Y-108197780D01*
X132587877Y-108197780D02*
X132825973Y-108150161D01*
X128285620Y-109995419D02*
X128285620Y-108995419D01*
X128285620Y-108995419D02*
X128047525Y-108995419D01*
X128047525Y-108995419D02*
X127904668Y-109043038D01*
X127904668Y-109043038D02*
X127809430Y-109138276D01*
X127809430Y-109138276D02*
X127761811Y-109233514D01*
X127761811Y-109233514D02*
X127714192Y-109423990D01*
X127714192Y-109423990D02*
X127714192Y-109566847D01*
X127714192Y-109566847D02*
X127761811Y-109757323D01*
X127761811Y-109757323D02*
X127809430Y-109852561D01*
X127809430Y-109852561D02*
X127904668Y-109947800D01*
X127904668Y-109947800D02*
X128047525Y-109995419D01*
X128047525Y-109995419D02*
X128285620Y-109995419D01*
X127285620Y-109995419D02*
X127285620Y-109328752D01*
X127285620Y-108995419D02*
X127333239Y-109043038D01*
X127333239Y-109043038D02*
X127285620Y-109090657D01*
X127285620Y-109090657D02*
X127238001Y-109043038D01*
X127238001Y-109043038D02*
X127285620Y-108995419D01*
X127285620Y-108995419D02*
X127285620Y-109090657D01*
X126857049Y-109947800D02*
X126761811Y-109995419D01*
X126761811Y-109995419D02*
X126571335Y-109995419D01*
X126571335Y-109995419D02*
X126476097Y-109947800D01*
X126476097Y-109947800D02*
X126428478Y-109852561D01*
X126428478Y-109852561D02*
X126428478Y-109804942D01*
X126428478Y-109804942D02*
X126476097Y-109709704D01*
X126476097Y-109709704D02*
X126571335Y-109662085D01*
X126571335Y-109662085D02*
X126714192Y-109662085D01*
X126714192Y-109662085D02*
X126809430Y-109614466D01*
X126809430Y-109614466D02*
X126857049Y-109519228D01*
X126857049Y-109519228D02*
X126857049Y-109471609D01*
X126857049Y-109471609D02*
X126809430Y-109376371D01*
X126809430Y-109376371D02*
X126714192Y-109328752D01*
X126714192Y-109328752D02*
X126571335Y-109328752D01*
X126571335Y-109328752D02*
X126476097Y-109376371D01*
X125618954Y-109947800D02*
X125714192Y-109995419D01*
X125714192Y-109995419D02*
X125904668Y-109995419D01*
X125904668Y-109995419D02*
X125999906Y-109947800D01*
X125999906Y-109947800D02*
X126047525Y-109852561D01*
X126047525Y-109852561D02*
X126047525Y-109471609D01*
X126047525Y-109471609D02*
X125999906Y-109376371D01*
X125999906Y-109376371D02*
X125904668Y-109328752D01*
X125904668Y-109328752D02*
X125714192Y-109328752D01*
X125714192Y-109328752D02*
X125618954Y-109376371D01*
X125618954Y-109376371D02*
X125571335Y-109471609D01*
X125571335Y-109471609D02*
X125571335Y-109566847D01*
X125571335Y-109566847D02*
X126047525Y-109662085D01*
X125142763Y-109328752D02*
X125142763Y-109995419D01*
X125142763Y-109423990D02*
X125095144Y-109376371D01*
X125095144Y-109376371D02*
X124999906Y-109328752D01*
X124999906Y-109328752D02*
X124857049Y-109328752D01*
X124857049Y-109328752D02*
X124761811Y-109376371D01*
X124761811Y-109376371D02*
X124714192Y-109471609D01*
X124714192Y-109471609D02*
X124714192Y-109995419D01*
X125190382Y-109090657D02*
X125142763Y-109043038D01*
X125142763Y-109043038D02*
X125047525Y-108995419D01*
X125047525Y-108995419D02*
X124857049Y-109090657D01*
X124857049Y-109090657D02*
X124761811Y-109043038D01*
X124761811Y-109043038D02*
X124714192Y-108995419D01*
X123809430Y-109995419D02*
X123809430Y-109471609D01*
X123809430Y-109471609D02*
X123857049Y-109376371D01*
X123857049Y-109376371D02*
X123952287Y-109328752D01*
X123952287Y-109328752D02*
X124142763Y-109328752D01*
X124142763Y-109328752D02*
X124238001Y-109376371D01*
X123809430Y-109947800D02*
X123904668Y-109995419D01*
X123904668Y-109995419D02*
X124142763Y-109995419D01*
X124142763Y-109995419D02*
X124238001Y-109947800D01*
X124238001Y-109947800D02*
X124285620Y-109852561D01*
X124285620Y-109852561D02*
X124285620Y-109757323D01*
X124285620Y-109757323D02*
X124238001Y-109662085D01*
X124238001Y-109662085D02*
X124142763Y-109614466D01*
X124142763Y-109614466D02*
X123904668Y-109614466D01*
X123904668Y-109614466D02*
X123809430Y-109566847D01*
X122904668Y-109995419D02*
X122904668Y-108995419D01*
X122904668Y-109947800D02*
X122999906Y-109995419D01*
X122999906Y-109995419D02*
X123190382Y-109995419D01*
X123190382Y-109995419D02*
X123285620Y-109947800D01*
X123285620Y-109947800D02*
X123333239Y-109900180D01*
X123333239Y-109900180D02*
X123380858Y-109804942D01*
X123380858Y-109804942D02*
X123380858Y-109519228D01*
X123380858Y-109519228D02*
X123333239Y-109423990D01*
X123333239Y-109423990D02*
X123285620Y-109376371D01*
X123285620Y-109376371D02*
X123190382Y-109328752D01*
X123190382Y-109328752D02*
X122999906Y-109328752D01*
X122999906Y-109328752D02*
X122904668Y-109376371D01*
X122285620Y-109995419D02*
X122380858Y-109947800D01*
X122380858Y-109947800D02*
X122428477Y-109900180D01*
X122428477Y-109900180D02*
X122476096Y-109804942D01*
X122476096Y-109804942D02*
X122476096Y-109519228D01*
X122476096Y-109519228D02*
X122428477Y-109423990D01*
X122428477Y-109423990D02*
X122380858Y-109376371D01*
X122380858Y-109376371D02*
X122285620Y-109328752D01*
X122285620Y-109328752D02*
X122142763Y-109328752D01*
X122142763Y-109328752D02*
X122047525Y-109376371D01*
X122047525Y-109376371D02*
X121999906Y-109423990D01*
X121999906Y-109423990D02*
X121952287Y-109519228D01*
X121952287Y-109519228D02*
X121952287Y-109804942D01*
X121952287Y-109804942D02*
X121999906Y-109900180D01*
X121999906Y-109900180D02*
X122047525Y-109947800D01*
X122047525Y-109947800D02*
X122142763Y-109995419D01*
X122142763Y-109995419D02*
X122285620Y-109995419D01*
X120380858Y-109947800D02*
X120476096Y-109995419D01*
X120476096Y-109995419D02*
X120666572Y-109995419D01*
X120666572Y-109995419D02*
X120761810Y-109947800D01*
X120761810Y-109947800D02*
X120809429Y-109852561D01*
X120809429Y-109852561D02*
X120809429Y-109471609D01*
X120809429Y-109471609D02*
X120761810Y-109376371D01*
X120761810Y-109376371D02*
X120666572Y-109328752D01*
X120666572Y-109328752D02*
X120476096Y-109328752D01*
X120476096Y-109328752D02*
X120380858Y-109376371D01*
X120380858Y-109376371D02*
X120333239Y-109471609D01*
X120333239Y-109471609D02*
X120333239Y-109566847D01*
X120333239Y-109566847D02*
X120809429Y-109662085D01*
X119904667Y-109328752D02*
X119904667Y-109995419D01*
X119904667Y-109423990D02*
X119857048Y-109376371D01*
X119857048Y-109376371D02*
X119761810Y-109328752D01*
X119761810Y-109328752D02*
X119618953Y-109328752D01*
X119618953Y-109328752D02*
X119523715Y-109376371D01*
X119523715Y-109376371D02*
X119476096Y-109471609D01*
X119476096Y-109471609D02*
X119476096Y-109995419D01*
X118285619Y-109709704D02*
X117809429Y-109709704D01*
X118380857Y-109995419D02*
X118047524Y-108995419D01*
X118047524Y-108995419D02*
X117714191Y-109995419D01*
X117380857Y-109995419D02*
X117380857Y-109328752D01*
X117380857Y-109519228D02*
X117333238Y-109423990D01*
X117333238Y-109423990D02*
X117285619Y-109376371D01*
X117285619Y-109376371D02*
X117190381Y-109328752D01*
X117190381Y-109328752D02*
X117095143Y-109328752D01*
X116333238Y-109328752D02*
X116333238Y-110138276D01*
X116333238Y-110138276D02*
X116380857Y-110233514D01*
X116380857Y-110233514D02*
X116428476Y-110281133D01*
X116428476Y-110281133D02*
X116523714Y-110328752D01*
X116523714Y-110328752D02*
X116666571Y-110328752D01*
X116666571Y-110328752D02*
X116761809Y-110281133D01*
X116333238Y-109947800D02*
X116428476Y-109995419D01*
X116428476Y-109995419D02*
X116618952Y-109995419D01*
X116618952Y-109995419D02*
X116714190Y-109947800D01*
X116714190Y-109947800D02*
X116761809Y-109900180D01*
X116761809Y-109900180D02*
X116809428Y-109804942D01*
X116809428Y-109804942D02*
X116809428Y-109519228D01*
X116809428Y-109519228D02*
X116761809Y-109423990D01*
X116761809Y-109423990D02*
X116714190Y-109376371D01*
X116714190Y-109376371D02*
X116618952Y-109328752D01*
X116618952Y-109328752D02*
X116428476Y-109328752D01*
X116428476Y-109328752D02*
X116333238Y-109376371D01*
X115476095Y-109947800D02*
X115571333Y-109995419D01*
X115571333Y-109995419D02*
X115761809Y-109995419D01*
X115761809Y-109995419D02*
X115857047Y-109947800D01*
X115857047Y-109947800D02*
X115904666Y-109852561D01*
X115904666Y-109852561D02*
X115904666Y-109471609D01*
X115904666Y-109471609D02*
X115857047Y-109376371D01*
X115857047Y-109376371D02*
X115761809Y-109328752D01*
X115761809Y-109328752D02*
X115571333Y-109328752D01*
X115571333Y-109328752D02*
X115476095Y-109376371D01*
X115476095Y-109376371D02*
X115428476Y-109471609D01*
X115428476Y-109471609D02*
X115428476Y-109566847D01*
X115428476Y-109566847D02*
X115904666Y-109662085D01*
X114999904Y-109328752D02*
X114999904Y-109995419D01*
X114999904Y-109423990D02*
X114952285Y-109376371D01*
X114952285Y-109376371D02*
X114857047Y-109328752D01*
X114857047Y-109328752D02*
X114714190Y-109328752D01*
X114714190Y-109328752D02*
X114618952Y-109376371D01*
X114618952Y-109376371D02*
X114571333Y-109471609D01*
X114571333Y-109471609D02*
X114571333Y-109995419D01*
X114237999Y-109328752D02*
X113857047Y-109328752D01*
X114095142Y-108995419D02*
X114095142Y-109852561D01*
X114095142Y-109852561D02*
X114047523Y-109947800D01*
X114047523Y-109947800D02*
X113952285Y-109995419D01*
X113952285Y-109995419D02*
X113857047Y-109995419D01*
X113523713Y-109995419D02*
X113523713Y-109328752D01*
X113523713Y-108995419D02*
X113571332Y-109043038D01*
X113571332Y-109043038D02*
X113523713Y-109090657D01*
X113523713Y-109090657D02*
X113476094Y-109043038D01*
X113476094Y-109043038D02*
X113523713Y-108995419D01*
X113523713Y-108995419D02*
X113523713Y-109090657D01*
X113047523Y-109328752D02*
X113047523Y-109995419D01*
X113047523Y-109423990D02*
X112999904Y-109376371D01*
X112999904Y-109376371D02*
X112904666Y-109328752D01*
X112904666Y-109328752D02*
X112761809Y-109328752D01*
X112761809Y-109328752D02*
X112666571Y-109376371D01*
X112666571Y-109376371D02*
X112618952Y-109471609D01*
X112618952Y-109471609D02*
X112618952Y-109995419D01*
X111714190Y-109995419D02*
X111714190Y-109471609D01*
X111714190Y-109471609D02*
X111761809Y-109376371D01*
X111761809Y-109376371D02*
X111857047Y-109328752D01*
X111857047Y-109328752D02*
X112047523Y-109328752D01*
X112047523Y-109328752D02*
X112142761Y-109376371D01*
X111714190Y-109947800D02*
X111809428Y-109995419D01*
X111809428Y-109995419D02*
X112047523Y-109995419D01*
X112047523Y-109995419D02*
X112142761Y-109947800D01*
X112142761Y-109947800D02*
X112190380Y-109852561D01*
X112190380Y-109852561D02*
X112190380Y-109757323D01*
X112190380Y-109757323D02*
X112142761Y-109662085D01*
X112142761Y-109662085D02*
X112047523Y-109614466D01*
X112047523Y-109614466D02*
X111809428Y-109614466D01*
X111809428Y-109614466D02*
X111714190Y-109566847D01*
D11*
X105382574Y-108661912D02*
X105096860Y-108661912D01*
X105096860Y-108661912D02*
X104954003Y-108733341D01*
X104954003Y-108733341D02*
X104811146Y-108876198D01*
X104811146Y-108876198D02*
X104739717Y-109161912D01*
X104739717Y-109161912D02*
X104739717Y-109661912D01*
X104739717Y-109661912D02*
X104811146Y-109947626D01*
X104811146Y-109947626D02*
X104954003Y-110090484D01*
X104954003Y-110090484D02*
X105096860Y-110161912D01*
X105096860Y-110161912D02*
X105382574Y-110161912D01*
X105382574Y-110161912D02*
X105525432Y-110090484D01*
X105525432Y-110090484D02*
X105668289Y-109947626D01*
X105668289Y-109947626D02*
X105739717Y-109661912D01*
X105739717Y-109661912D02*
X105739717Y-109161912D01*
X105739717Y-109161912D02*
X105668289Y-108876198D01*
X105668289Y-108876198D02*
X105525432Y-108733341D01*
X105525432Y-108733341D02*
X105382574Y-108661912D01*
X104096860Y-109161912D02*
X104096860Y-110661912D01*
X104096860Y-109233341D02*
X103954003Y-109161912D01*
X103954003Y-109161912D02*
X103668288Y-109161912D01*
X103668288Y-109161912D02*
X103525431Y-109233341D01*
X103525431Y-109233341D02*
X103454003Y-109304769D01*
X103454003Y-109304769D02*
X103382574Y-109447626D01*
X103382574Y-109447626D02*
X103382574Y-109876198D01*
X103382574Y-109876198D02*
X103454003Y-110019055D01*
X103454003Y-110019055D02*
X103525431Y-110090484D01*
X103525431Y-110090484D02*
X103668288Y-110161912D01*
X103668288Y-110161912D02*
X103954003Y-110161912D01*
X103954003Y-110161912D02*
X104096860Y-110090484D01*
X102168288Y-110090484D02*
X102311145Y-110161912D01*
X102311145Y-110161912D02*
X102596860Y-110161912D01*
X102596860Y-110161912D02*
X102739717Y-110090484D01*
X102739717Y-110090484D02*
X102811145Y-109947626D01*
X102811145Y-109947626D02*
X102811145Y-109376198D01*
X102811145Y-109376198D02*
X102739717Y-109233341D01*
X102739717Y-109233341D02*
X102596860Y-109161912D01*
X102596860Y-109161912D02*
X102311145Y-109161912D01*
X102311145Y-109161912D02*
X102168288Y-109233341D01*
X102168288Y-109233341D02*
X102096860Y-109376198D01*
X102096860Y-109376198D02*
X102096860Y-109519055D01*
X102096860Y-109519055D02*
X102811145Y-109661912D01*
X101454003Y-109161912D02*
X101454003Y-110161912D01*
X101454003Y-109304769D02*
X101382574Y-109233341D01*
X101382574Y-109233341D02*
X101239717Y-109161912D01*
X101239717Y-109161912D02*
X101025431Y-109161912D01*
X101025431Y-109161912D02*
X100882574Y-109233341D01*
X100882574Y-109233341D02*
X100811146Y-109376198D01*
X100811146Y-109376198D02*
X100811146Y-110161912D01*
X100096860Y-109376198D02*
X99596860Y-109376198D01*
X99382574Y-110161912D02*
X100096860Y-110161912D01*
X100096860Y-110161912D02*
X100096860Y-108661912D01*
X100096860Y-108661912D02*
X99382574Y-108661912D01*
X98239717Y-109376198D02*
X98739717Y-109376198D01*
X98739717Y-110161912D02*
X98739717Y-108661912D01*
X98739717Y-108661912D02*
X98025431Y-108661912D01*
X97454003Y-110161912D02*
X97454003Y-108661912D01*
X105811146Y-111076828D02*
X105454003Y-112576828D01*
X105454003Y-112576828D02*
X105168289Y-111505400D01*
X105168289Y-111505400D02*
X104882574Y-112576828D01*
X104882574Y-112576828D02*
X104525432Y-111076828D01*
X103954003Y-112576828D02*
X103954003Y-111576828D01*
X103954003Y-111076828D02*
X104025431Y-111148257D01*
X104025431Y-111148257D02*
X103954003Y-111219685D01*
X103954003Y-111219685D02*
X103882574Y-111148257D01*
X103882574Y-111148257D02*
X103954003Y-111076828D01*
X103954003Y-111076828D02*
X103954003Y-111219685D01*
X102596860Y-112576828D02*
X102596860Y-111076828D01*
X102596860Y-112505400D02*
X102739717Y-112576828D01*
X102739717Y-112576828D02*
X103025431Y-112576828D01*
X103025431Y-112576828D02*
X103168288Y-112505400D01*
X103168288Y-112505400D02*
X103239717Y-112433971D01*
X103239717Y-112433971D02*
X103311145Y-112291114D01*
X103311145Y-112291114D02*
X103311145Y-111862542D01*
X103311145Y-111862542D02*
X103239717Y-111719685D01*
X103239717Y-111719685D02*
X103168288Y-111648257D01*
X103168288Y-111648257D02*
X103025431Y-111576828D01*
X103025431Y-111576828D02*
X102739717Y-111576828D01*
X102739717Y-111576828D02*
X102596860Y-111648257D01*
X101311145Y-112505400D02*
X101454002Y-112576828D01*
X101454002Y-112576828D02*
X101739717Y-112576828D01*
X101739717Y-112576828D02*
X101882574Y-112505400D01*
X101882574Y-112505400D02*
X101954002Y-112362542D01*
X101954002Y-112362542D02*
X101954002Y-111791114D01*
X101954002Y-111791114D02*
X101882574Y-111648257D01*
X101882574Y-111648257D02*
X101739717Y-111576828D01*
X101739717Y-111576828D02*
X101454002Y-111576828D01*
X101454002Y-111576828D02*
X101311145Y-111648257D01*
X101311145Y-111648257D02*
X101239717Y-111791114D01*
X101239717Y-111791114D02*
X101239717Y-111933971D01*
X101239717Y-111933971D02*
X101954002Y-112076828D01*
X100596860Y-112576828D02*
X100596860Y-111076828D01*
X100596860Y-111648257D02*
X100454003Y-111576828D01*
X100454003Y-111576828D02*
X100168288Y-111576828D01*
X100168288Y-111576828D02*
X100025431Y-111648257D01*
X100025431Y-111648257D02*
X99954003Y-111719685D01*
X99954003Y-111719685D02*
X99882574Y-111862542D01*
X99882574Y-111862542D02*
X99882574Y-112291114D01*
X99882574Y-112291114D02*
X99954003Y-112433971D01*
X99954003Y-112433971D02*
X100025431Y-112505400D01*
X100025431Y-112505400D02*
X100168288Y-112576828D01*
X100168288Y-112576828D02*
X100454003Y-112576828D01*
X100454003Y-112576828D02*
X100596860Y-112505400D01*
X98596860Y-112576828D02*
X98596860Y-111791114D01*
X98596860Y-111791114D02*
X98668288Y-111648257D01*
X98668288Y-111648257D02*
X98811145Y-111576828D01*
X98811145Y-111576828D02*
X99096860Y-111576828D01*
X99096860Y-111576828D02*
X99239717Y-111648257D01*
X98596860Y-112505400D02*
X98739717Y-112576828D01*
X98739717Y-112576828D02*
X99096860Y-112576828D01*
X99096860Y-112576828D02*
X99239717Y-112505400D01*
X99239717Y-112505400D02*
X99311145Y-112362542D01*
X99311145Y-112362542D02*
X99311145Y-112219685D01*
X99311145Y-112219685D02*
X99239717Y-112076828D01*
X99239717Y-112076828D02*
X99096860Y-112005400D01*
X99096860Y-112005400D02*
X98739717Y-112005400D01*
X98739717Y-112005400D02*
X98596860Y-111933971D01*
X97882574Y-111576828D02*
X97882574Y-112576828D01*
X97882574Y-111719685D02*
X97811145Y-111648257D01*
X97811145Y-111648257D02*
X97668288Y-111576828D01*
X97668288Y-111576828D02*
X97454002Y-111576828D01*
X97454002Y-111576828D02*
X97311145Y-111648257D01*
X97311145Y-111648257D02*
X97239717Y-111791114D01*
X97239717Y-111791114D02*
X97239717Y-112576828D01*
X95882574Y-112576828D02*
X95882574Y-111076828D01*
X95882574Y-112505400D02*
X96025431Y-112576828D01*
X96025431Y-112576828D02*
X96311145Y-112576828D01*
X96311145Y-112576828D02*
X96454002Y-112505400D01*
X96454002Y-112505400D02*
X96525431Y-112433971D01*
X96525431Y-112433971D02*
X96596859Y-112291114D01*
X96596859Y-112291114D02*
X96596859Y-111862542D01*
X96596859Y-111862542D02*
X96525431Y-111719685D01*
X96525431Y-111719685D02*
X96454002Y-111648257D01*
X96454002Y-111648257D02*
X96311145Y-111576828D01*
X96311145Y-111576828D02*
X96025431Y-111576828D01*
X96025431Y-111576828D02*
X95882574Y-111648257D01*
X94168288Y-111576828D02*
X93811145Y-112576828D01*
X93811145Y-112576828D02*
X93454002Y-111576828D01*
X93025431Y-111076828D02*
X92096859Y-111076828D01*
X92096859Y-111076828D02*
X92596859Y-111648257D01*
X92596859Y-111648257D02*
X92382574Y-111648257D01*
X92382574Y-111648257D02*
X92239717Y-111719685D01*
X92239717Y-111719685D02*
X92168288Y-111791114D01*
X92168288Y-111791114D02*
X92096859Y-111933971D01*
X92096859Y-111933971D02*
X92096859Y-112291114D01*
X92096859Y-112291114D02*
X92168288Y-112433971D01*
X92168288Y-112433971D02*
X92239717Y-112505400D01*
X92239717Y-112505400D02*
X92382574Y-112576828D01*
X92382574Y-112576828D02*
X92811145Y-112576828D01*
X92811145Y-112576828D02*
X92954002Y-112505400D01*
X92954002Y-112505400D02*
X93025431Y-112433971D01*
X91454003Y-112433971D02*
X91382574Y-112505400D01*
X91382574Y-112505400D02*
X91454003Y-112576828D01*
X91454003Y-112576828D02*
X91525431Y-112505400D01*
X91525431Y-112505400D02*
X91454003Y-112433971D01*
X91454003Y-112433971D02*
X91454003Y-112576828D01*
X90882574Y-112576828D02*
X90096860Y-111576828D01*
X90882574Y-111576828D02*
X90096860Y-112576828D01*
X143368346Y-111163971D02*
X143439774Y-111235400D01*
X143439774Y-111235400D02*
X143654060Y-111306828D01*
X143654060Y-111306828D02*
X143796917Y-111306828D01*
X143796917Y-111306828D02*
X144011203Y-111235400D01*
X144011203Y-111235400D02*
X144154060Y-111092542D01*
X144154060Y-111092542D02*
X144225489Y-110949685D01*
X144225489Y-110949685D02*
X144296917Y-110663971D01*
X144296917Y-110663971D02*
X144296917Y-110449685D01*
X144296917Y-110449685D02*
X144225489Y-110163971D01*
X144225489Y-110163971D02*
X144154060Y-110021114D01*
X144154060Y-110021114D02*
X144011203Y-109878257D01*
X144011203Y-109878257D02*
X143796917Y-109806828D01*
X143796917Y-109806828D02*
X143654060Y-109806828D01*
X143654060Y-109806828D02*
X143439774Y-109878257D01*
X143439774Y-109878257D02*
X143368346Y-109949685D01*
X142725489Y-111306828D02*
X142725489Y-109806828D01*
X142082632Y-111306828D02*
X142082632Y-110521114D01*
X142082632Y-110521114D02*
X142154060Y-110378257D01*
X142154060Y-110378257D02*
X142296917Y-110306828D01*
X142296917Y-110306828D02*
X142511203Y-110306828D01*
X142511203Y-110306828D02*
X142654060Y-110378257D01*
X142654060Y-110378257D02*
X142725489Y-110449685D01*
X140725489Y-110306828D02*
X140725489Y-111306828D01*
X141368346Y-110306828D02*
X141368346Y-111092542D01*
X141368346Y-111092542D02*
X141296917Y-111235400D01*
X141296917Y-111235400D02*
X141154060Y-111306828D01*
X141154060Y-111306828D02*
X140939774Y-111306828D01*
X140939774Y-111306828D02*
X140796917Y-111235400D01*
X140796917Y-111235400D02*
X140725489Y-111163971D01*
X140011203Y-111306828D02*
X140011203Y-110306828D01*
X140011203Y-110592542D02*
X139939774Y-110449685D01*
X139939774Y-110449685D02*
X139868346Y-110378257D01*
X139868346Y-110378257D02*
X139725488Y-110306828D01*
X139725488Y-110306828D02*
X139582631Y-110306828D01*
X139082632Y-111306828D02*
X139082632Y-110306828D01*
X139082632Y-110592542D02*
X139011203Y-110449685D01*
X139011203Y-110449685D02*
X138939775Y-110378257D01*
X138939775Y-110378257D02*
X138796917Y-110306828D01*
X138796917Y-110306828D02*
X138654060Y-110306828D01*
X137939775Y-111306828D02*
X138082632Y-111235400D01*
X138082632Y-111235400D02*
X138154061Y-111163971D01*
X138154061Y-111163971D02*
X138225489Y-111021114D01*
X138225489Y-111021114D02*
X138225489Y-110592542D01*
X138225489Y-110592542D02*
X138154061Y-110449685D01*
X138154061Y-110449685D02*
X138082632Y-110378257D01*
X138082632Y-110378257D02*
X137939775Y-110306828D01*
X137939775Y-110306828D02*
X137725489Y-110306828D01*
X137725489Y-110306828D02*
X137582632Y-110378257D01*
X137582632Y-110378257D02*
X137511204Y-110449685D01*
X137511204Y-110449685D02*
X137439775Y-110592542D01*
X137439775Y-110592542D02*
X137439775Y-111021114D01*
X137439775Y-111021114D02*
X137511204Y-111163971D01*
X137511204Y-111163971D02*
X137582632Y-111235400D01*
X137582632Y-111235400D02*
X137725489Y-111306828D01*
X137725489Y-111306828D02*
X137939775Y-111306828D01*
X136868346Y-111235400D02*
X136725489Y-111306828D01*
X136725489Y-111306828D02*
X136439775Y-111306828D01*
X136439775Y-111306828D02*
X136296918Y-111235400D01*
X136296918Y-111235400D02*
X136225489Y-111092542D01*
X136225489Y-111092542D02*
X136225489Y-111021114D01*
X136225489Y-111021114D02*
X136296918Y-110878257D01*
X136296918Y-110878257D02*
X136439775Y-110806828D01*
X136439775Y-110806828D02*
X136654061Y-110806828D01*
X136654061Y-110806828D02*
X136796918Y-110735400D01*
X136796918Y-110735400D02*
X136868346Y-110592542D01*
X136868346Y-110592542D02*
X136868346Y-110521114D01*
X136868346Y-110521114D02*
X136796918Y-110378257D01*
X136796918Y-110378257D02*
X136654061Y-110306828D01*
X136654061Y-110306828D02*
X136439775Y-110306828D01*
X136439775Y-110306828D02*
X136296918Y-110378257D01*
X135368346Y-111306828D02*
X135511203Y-111235400D01*
X135511203Y-111235400D02*
X135582632Y-111163971D01*
X135582632Y-111163971D02*
X135654060Y-111021114D01*
X135654060Y-111021114D02*
X135654060Y-110592542D01*
X135654060Y-110592542D02*
X135582632Y-110449685D01*
X135582632Y-110449685D02*
X135511203Y-110378257D01*
X135511203Y-110378257D02*
X135368346Y-110306828D01*
X135368346Y-110306828D02*
X135154060Y-110306828D01*
X135154060Y-110306828D02*
X135011203Y-110378257D01*
X135011203Y-110378257D02*
X134939775Y-110449685D01*
X134939775Y-110449685D02*
X134868346Y-110592542D01*
X134868346Y-110592542D02*
X134868346Y-111021114D01*
X134868346Y-111021114D02*
X134939775Y-111163971D01*
X134939775Y-111163971D02*
X135011203Y-111235400D01*
X135011203Y-111235400D02*
X135154060Y-111306828D01*
X135154060Y-111306828D02*
X135368346Y-111306828D01*
X134439774Y-110306828D02*
X133868346Y-110306828D01*
X134225489Y-111306828D02*
X134225489Y-110021114D01*
X134225489Y-110021114D02*
X134154060Y-109878257D01*
X134154060Y-109878257D02*
X134011203Y-109806828D01*
X134011203Y-109806828D02*
X133868346Y-109806828D01*
X133582631Y-110306828D02*
X133011203Y-110306828D01*
X133368346Y-109806828D02*
X133368346Y-111092542D01*
X133368346Y-111092542D02*
X133296917Y-111235400D01*
X133296917Y-111235400D02*
X133154060Y-111306828D01*
X133154060Y-111306828D02*
X133011203Y-111306828D01*
D12*
%TO.C,TP3*%
X124369600Y-92264000D02*
X125769600Y-92264000D01*
X124369600Y-93664000D02*
X124369600Y-92264000D01*
X125769600Y-92264000D02*
X125769600Y-93664000D01*
X125769600Y-93664000D02*
X124369600Y-93664000D01*
%TO.C,JP2*%
X142778144Y-90649157D02*
X144192357Y-89234944D01*
X144192357Y-89234944D02*
X146172256Y-91214843D01*
X144758043Y-92629056D02*
X142778144Y-90649157D01*
X146172256Y-91214843D02*
X144758043Y-92629056D01*
%TO.C,SW1*%
X124022400Y-82225600D02*
X124472400Y-81775601D01*
X124022400Y-84825600D02*
X124022400Y-82225600D01*
X124022400Y-84825600D02*
X124472400Y-85275599D01*
X127772400Y-80775600D02*
X125772400Y-80775600D01*
X127772400Y-86275600D02*
X125772400Y-86275600D01*
X129522400Y-82225600D02*
X129072400Y-81775601D01*
X129522400Y-84825600D02*
X129072400Y-85275599D01*
X129522400Y-84825600D02*
X129522400Y-82225600D01*
%TO.C,J5*%
X94572400Y-74875600D02*
X94572400Y-77725600D01*
X94572400Y-77725600D02*
X97422400Y-77725600D01*
X94812400Y-67665599D02*
X94812400Y-77485600D01*
X94812400Y-68325600D02*
X92922400Y-68325600D01*
X94812400Y-71845600D02*
X92922400Y-71845600D01*
X94812400Y-77485600D02*
X108122400Y-77485600D01*
X106312400Y-66265600D02*
X106312400Y-67665599D01*
X106312400Y-67665599D02*
X94812400Y-67665599D01*
X108122400Y-66265600D02*
X106312400Y-66265600D01*
X108122400Y-66265600D02*
X109932400Y-66265599D01*
X109932400Y-66265599D02*
X109932400Y-67665600D01*
X109932400Y-67665600D02*
X121432400Y-67665600D01*
X121432399Y-77485600D02*
X108122400Y-77485600D01*
X121432400Y-67665600D02*
X121432399Y-77485600D01*
X121432400Y-68325599D02*
X123322400Y-68325600D01*
X121432400Y-71845600D02*
X123322400Y-71845600D01*
X92922400Y-71845600D02*
G75*
G02*
X92922400Y-68325600I0J1760000D01*
G01*
X123322400Y-68325600D02*
G75*
G02*
X123322400Y-71845600I0J-1760000D01*
G01*
D13*
%TO.C,G\u002A\u002A\u002A*%
G36*
X95663746Y-104626559D02*
G01*
X95663746Y-104794129D01*
X95502261Y-104788044D01*
X95340776Y-104781958D01*
X95334690Y-104620473D01*
X95328605Y-104458988D01*
X95496175Y-104458988D01*
X95663746Y-104458987D01*
X95663746Y-104626559D01*
G37*
G36*
X95997134Y-105438316D02*
G01*
X95997134Y-105927979D01*
X95997134Y-106417643D01*
X95830440Y-106417643D01*
X95663746Y-106417643D01*
X95663746Y-105927979D01*
X95663746Y-105438316D01*
X95830440Y-105438315D01*
X95997134Y-105438316D01*
G37*
G36*
X96643073Y-106740612D02*
G01*
X96643073Y-107063582D01*
X96476379Y-107063582D01*
X96309685Y-107063582D01*
X96309685Y-106740612D01*
X96309685Y-106417643D01*
X96476379Y-106417643D01*
X96643073Y-106417643D01*
X96643073Y-106740612D01*
G37*
G36*
X99581055Y-105115346D02*
G01*
X99581055Y-105438316D01*
X99414361Y-105438316D01*
X99247667Y-105438316D01*
X99247667Y-105115346D01*
X99247667Y-104792376D01*
X99414361Y-104792376D01*
X99581055Y-104792376D01*
X99581055Y-105115346D01*
G37*
G36*
X98268339Y-103968448D02*
G01*
X98268339Y-104458988D01*
X98112064Y-104458988D01*
X97955788Y-104458988D01*
X97955788Y-104625681D01*
X97955788Y-104792376D01*
X97789094Y-104792376D01*
X97622400Y-104792376D01*
X97622400Y-104625681D01*
X97622400Y-104458988D01*
X97778292Y-104458988D01*
X97934183Y-104458988D01*
X97939777Y-103974534D01*
X97945370Y-103490079D01*
X98106854Y-103483994D01*
X98268339Y-103477908D01*
X98268339Y-103968448D01*
G37*
G36*
X99247667Y-105605010D02*
G01*
X99247667Y-105771704D01*
X99091391Y-105771704D01*
X98935116Y-105771704D01*
X98935116Y-105927979D01*
X98935116Y-106084255D01*
X98768422Y-106084255D01*
X98601728Y-106084255D01*
X98601728Y-105917561D01*
X98601728Y-105750867D01*
X98758003Y-105750867D01*
X98914279Y-105750867D01*
X98914279Y-105594591D01*
X98914279Y-105438316D01*
X99080972Y-105438316D01*
X99247667Y-105438316D01*
X99247667Y-105605010D01*
G37*
G36*
X102352872Y-107063582D02*
G01*
X102520095Y-107063582D01*
X102514357Y-107391762D01*
X102508618Y-107719940D01*
X102347134Y-107726024D01*
X102185649Y-107732111D01*
X102185649Y-107397847D01*
X102185649Y-107063582D01*
X102352872Y-107063582D01*
G37*
G36*
X101852261Y-106407224D02*
G01*
X101852260Y-106730194D01*
X102018955Y-106730194D01*
X102185649Y-106730194D01*
X102185649Y-106896888D01*
X102185649Y-107063582D01*
X102018955Y-107063582D01*
X101852260Y-107063582D01*
X101852261Y-106908183D01*
X101852261Y-106752784D01*
X101690776Y-106746698D01*
X101529291Y-106740612D01*
X101523205Y-106579128D01*
X101517120Y-106417643D01*
X101361721Y-106417643D01*
X101206321Y-106417643D01*
X101206321Y-106251825D01*
X101206321Y-106084255D01*
X101529291Y-106084255D01*
X101852261Y-106084255D01*
X101852261Y-106407224D01*
G37*
G36*
X97622400Y-102021088D02*
G01*
X97622400Y-102187782D01*
X97466125Y-102187782D01*
X97309849Y-102187782D01*
X97309849Y-102510752D01*
X97309849Y-102833722D01*
X97466125Y-102833722D01*
X97622400Y-102833722D01*
X97622400Y-102510752D01*
X97622400Y-102187782D01*
X97789094Y-102187782D01*
X97955788Y-102187782D01*
X97955788Y-102510752D01*
X97955788Y-102833722D01*
X97789094Y-102833722D01*
X97622400Y-102833722D01*
X97622400Y-103000416D01*
X97622400Y-103167110D01*
X97455706Y-103167110D01*
X97289012Y-103167110D01*
X97289012Y-103000416D01*
X97289012Y-102833722D01*
X97132737Y-102833722D01*
X96976461Y-102833722D01*
X96976461Y-102510752D01*
X96976461Y-102187782D01*
X97132737Y-102187782D01*
X97289012Y-102187782D01*
X97289012Y-102021088D01*
X97289012Y-101854394D01*
X97455706Y-101854394D01*
X97622400Y-101854394D01*
X97622400Y-102021088D01*
G37*
G36*
X102352343Y-102833722D02*
G01*
X102519037Y-102833722D01*
X102519037Y-103156691D01*
X102519037Y-103479661D01*
X102675312Y-103479661D01*
X102831588Y-103479661D01*
X102831588Y-104302713D01*
X102831588Y-105125764D01*
X102675855Y-105125764D01*
X102520122Y-105125764D01*
X102514370Y-105443525D01*
X102508618Y-105761285D01*
X102347134Y-105767371D01*
X102185649Y-105773457D01*
X102185649Y-105928856D01*
X102185649Y-106084255D01*
X102018955Y-106084255D01*
X101852261Y-106084255D01*
X101852261Y-105917561D01*
X101852261Y-105750867D01*
X102018955Y-105750867D01*
X102185649Y-105750867D01*
X102185649Y-105427897D01*
X102185649Y-105104927D01*
X102341924Y-105104927D01*
X102498200Y-105104927D01*
X102498200Y-104292294D01*
X102498200Y-103479661D01*
X102341924Y-103479661D01*
X102185649Y-103479661D01*
X102185649Y-103156691D01*
X102185649Y-102833722D01*
X102352343Y-102833722D01*
G37*
G36*
X101373015Y-101854394D02*
G01*
X101539709Y-101854394D01*
X101539709Y-102021088D01*
X101539709Y-102187782D01*
X101695985Y-102187782D01*
X101852261Y-102187782D01*
X101852261Y-102344058D01*
X101852261Y-102500334D01*
X102018954Y-102500334D01*
X102185649Y-102500334D01*
X102185649Y-102667028D01*
X102185649Y-102833722D01*
X102018955Y-102833722D01*
X101852261Y-102833722D01*
X101852260Y-102678322D01*
X101852261Y-102522923D01*
X101690776Y-102516838D01*
X101529291Y-102510752D01*
X101523205Y-102349267D01*
X101517120Y-102187782D01*
X101361721Y-102187782D01*
X101206321Y-102187782D01*
X101206321Y-102021088D01*
X101206321Y-101854394D01*
X101373015Y-101854394D01*
G37*
G36*
X100560382Y-101364731D02*
G01*
X100560382Y-101521006D01*
X100883352Y-101521006D01*
X101206321Y-101521006D01*
X101206321Y-101687700D01*
X101206321Y-101854394D01*
X100872933Y-101854394D01*
X100539545Y-101854394D01*
X100539545Y-101698119D01*
X100539545Y-101541843D01*
X100060301Y-101541843D01*
X99581055Y-101541843D01*
X99581055Y-101375149D01*
X99581055Y-101208455D01*
X100070718Y-101208455D01*
X100560382Y-101208455D01*
X100560382Y-101364731D01*
G37*
G36*
X99414361Y-108042909D02*
G01*
X99581055Y-108042909D01*
X99581055Y-108209603D01*
X99581055Y-108376297D01*
X99414361Y-108376297D01*
X99247667Y-108376297D01*
X99247667Y-108209603D01*
X99247667Y-108042909D01*
X99414361Y-108042909D01*
G37*
G36*
X101373015Y-108042909D02*
G01*
X101539709Y-108042909D01*
X101539709Y-108209603D01*
X101539709Y-108376297D01*
X101373015Y-108376297D01*
X101206321Y-108376297D01*
X101206321Y-108209603D01*
X101206321Y-108042909D01*
X101373015Y-108042909D01*
G37*
G36*
X100560382Y-105438315D02*
G01*
X100560382Y-105771704D01*
X100393688Y-105771704D01*
X100226994Y-105771704D01*
X100226994Y-105927978D01*
X100226994Y-106084255D01*
X100070718Y-106084255D01*
X99914443Y-106084255D01*
X99914443Y-106250949D01*
X99914443Y-106417643D01*
X100226118Y-106417643D01*
X100537792Y-106417643D01*
X100543878Y-106256158D01*
X100549963Y-106094673D01*
X100710588Y-106088603D01*
X100871211Y-106082533D01*
X100877282Y-105921909D01*
X100883352Y-105761285D01*
X101044837Y-105755199D01*
X101206321Y-105749114D01*
X101206321Y-105593715D01*
X101206321Y-105438316D01*
X101373015Y-105438316D01*
X101539709Y-105438316D01*
X101539709Y-105605010D01*
X101539709Y-105771704D01*
X101373015Y-105771704D01*
X101206321Y-105771704D01*
X101206321Y-105927103D01*
X101206321Y-106082502D01*
X101044837Y-106088589D01*
X100883352Y-106094673D01*
X100883352Y-106250949D01*
X100883352Y-106407224D01*
X101044837Y-106413310D01*
X101206321Y-106419396D01*
X101206321Y-106584337D01*
X101206321Y-106751031D01*
X100883352Y-106751031D01*
X100560382Y-106751031D01*
X100560382Y-106907306D01*
X100560382Y-107063582D01*
X100715781Y-107063582D01*
X100871179Y-107063582D01*
X100877266Y-107225067D01*
X100883352Y-107386552D01*
X101044836Y-107392637D01*
X101206321Y-107398723D01*
X101206321Y-107720816D01*
X101206321Y-108042909D01*
X101039627Y-108042909D01*
X100872933Y-108042909D01*
X100872933Y-107720817D01*
X100872932Y-107398723D01*
X100711449Y-107392638D01*
X100549964Y-107386552D01*
X100543878Y-107225067D01*
X100537791Y-107063582D01*
X100382393Y-107063582D01*
X100226994Y-107063582D01*
X100226994Y-106907306D01*
X100226994Y-106751031D01*
X99581055Y-106751031D01*
X98935115Y-106751031D01*
X98935116Y-106907306D01*
X98935115Y-107063582D01*
X99091391Y-107063581D01*
X99247667Y-107063582D01*
X99247667Y-107553246D01*
X99247667Y-108042909D01*
X99080973Y-108042909D01*
X98914279Y-108042909D01*
X98914279Y-107553246D01*
X98914278Y-107063582D01*
X98758004Y-107063582D01*
X98601727Y-107063582D01*
X98601728Y-106740612D01*
X98601728Y-106418411D01*
X99086182Y-106412818D01*
X99570636Y-106407224D01*
X99576722Y-106245740D01*
X99582808Y-106084255D01*
X99737330Y-106084255D01*
X99891853Y-106084255D01*
X99897939Y-105922770D01*
X99904024Y-105761285D01*
X100065508Y-105755199D01*
X100226994Y-105749114D01*
X100226994Y-105427022D01*
X100226994Y-105104927D01*
X100393688Y-105104927D01*
X100560382Y-105104927D01*
X100560382Y-105438315D01*
G37*
G36*
X96330522Y-103000416D02*
G01*
X96330522Y-103813049D01*
X96486413Y-103813049D01*
X96642305Y-103813049D01*
X96647898Y-104297503D01*
X96653491Y-104781958D01*
X97137946Y-104787551D01*
X97622400Y-104793144D01*
X97622400Y-104959454D01*
X97622400Y-105125764D01*
X97466125Y-105125764D01*
X97309849Y-105125764D01*
X97309850Y-105282040D01*
X97309849Y-105438315D01*
X97466125Y-105438315D01*
X97622400Y-105438315D01*
X97622400Y-105593715D01*
X97622400Y-105749114D01*
X97783886Y-105755199D01*
X97945370Y-105761285D01*
X97951456Y-105922770D01*
X97957541Y-106084255D01*
X98279634Y-106084255D01*
X98601728Y-106084255D01*
X98601728Y-106251333D01*
X98601728Y-106417643D01*
X98278758Y-106417643D01*
X97955788Y-106417643D01*
X97955788Y-106584338D01*
X97955788Y-106751031D01*
X97789094Y-106751032D01*
X97622400Y-106751031D01*
X97622400Y-107396970D01*
X97622400Y-108042909D01*
X97455706Y-108042909D01*
X97289012Y-108042909D01*
X97289012Y-107386552D01*
X97289012Y-106730194D01*
X97455706Y-106730195D01*
X97622400Y-106730194D01*
X97622400Y-106250949D01*
X97622400Y-105771704D01*
X97299431Y-105771704D01*
X96976461Y-105771704D01*
X96976461Y-106094673D01*
X96976461Y-106417643D01*
X96809767Y-106417643D01*
X96643073Y-106417643D01*
X96643073Y-106084255D01*
X96643073Y-105750867D01*
X96809767Y-105750867D01*
X96976461Y-105750867D01*
X96976461Y-105438316D01*
X96976461Y-105125764D01*
X96653491Y-105125764D01*
X96330522Y-105125764D01*
X96330522Y-105282040D01*
X96330522Y-105438316D01*
X96163828Y-105438316D01*
X95997134Y-105438316D01*
X95997133Y-105271622D01*
X95997134Y-105104927D01*
X96153409Y-105104927D01*
X96309685Y-105104927D01*
X96309685Y-104781958D01*
X96309685Y-104458988D01*
X95986715Y-104458988D01*
X95663746Y-104458987D01*
X95663746Y-104292294D01*
X95663745Y-104125600D01*
X95986715Y-104125600D01*
X96309685Y-104125600D01*
X96309685Y-103969325D01*
X96309685Y-103813049D01*
X96153409Y-103813050D01*
X95997133Y-103813049D01*
X95997134Y-103490079D01*
X95997134Y-103167110D01*
X95830440Y-103167110D01*
X95663746Y-103167110D01*
X95663746Y-103323385D01*
X95663746Y-103479661D01*
X95507470Y-103479661D01*
X95351194Y-103479661D01*
X95351194Y-103813049D01*
X95351194Y-104146437D01*
X95184499Y-104146437D01*
X95017806Y-104146437D01*
X95017806Y-103813049D01*
X95017806Y-103479661D01*
X95173205Y-103479661D01*
X95328605Y-103479661D01*
X95334690Y-103318176D01*
X95340776Y-103156691D01*
X95502261Y-103150606D01*
X95663746Y-103144520D01*
X95663745Y-102989121D01*
X95663746Y-102833722D01*
X95830440Y-102833722D01*
X95997134Y-102833722D01*
X95997133Y-102678322D01*
X95997134Y-102522923D01*
X95835649Y-102516838D01*
X95674164Y-102510752D01*
X95668094Y-102350128D01*
X95662024Y-102189504D01*
X95501400Y-102183434D01*
X95340776Y-102177364D01*
X95335183Y-101692909D01*
X95329589Y-101208455D01*
X95662977Y-101208455D01*
X95668571Y-101692909D01*
X95674164Y-102177364D01*
X95991924Y-102183116D01*
X96309685Y-102188868D01*
X96309685Y-101865355D01*
X96309685Y-101541843D01*
X96153409Y-101541842D01*
X95997133Y-101541843D01*
X95997134Y-101375149D01*
X95997133Y-101208455D01*
X95830055Y-101208455D01*
X95662977Y-101208455D01*
X95329589Y-101208455D01*
X94851605Y-101208455D01*
X94373621Y-101208455D01*
X94367534Y-101046970D01*
X94361449Y-100885485D01*
X93387330Y-100880070D01*
X92413212Y-100874655D01*
X92413212Y-100707961D01*
X92413212Y-100541267D01*
X93387330Y-100546682D01*
X94361449Y-100552097D01*
X94367534Y-100713582D01*
X94373621Y-100875067D01*
X94695713Y-100875067D01*
X95017806Y-100875067D01*
X95017806Y-100718791D01*
X95017806Y-100562516D01*
X94851112Y-100562517D01*
X94684418Y-100562516D01*
X94684418Y-100395822D01*
X94684418Y-100229128D01*
X94528143Y-100229128D01*
X94371867Y-100229128D01*
X94371867Y-99906158D01*
X94371867Y-99583188D01*
X94538561Y-99583188D01*
X94705255Y-99583188D01*
X94705255Y-99906158D01*
X94705255Y-100229128D01*
X94861531Y-100229128D01*
X95017806Y-100229128D01*
X95017806Y-100384527D01*
X95017806Y-100539927D01*
X95179291Y-100546012D01*
X95340776Y-100552097D01*
X95346862Y-100713582D01*
X95352946Y-100875067D01*
X95675040Y-100875068D01*
X95997133Y-100875067D01*
X95997134Y-101041761D01*
X95997133Y-101208455D01*
X96152879Y-101208455D01*
X96308627Y-101208455D01*
X96314365Y-100880276D01*
X96320103Y-100552097D01*
X96481588Y-100546012D01*
X96643073Y-100539926D01*
X96643073Y-100384527D01*
X96643073Y-100229128D01*
X96809767Y-100229128D01*
X96976461Y-100229128D01*
X96976461Y-100395822D01*
X96976461Y-100562516D01*
X96809767Y-100562516D01*
X96643073Y-100562516D01*
X96643073Y-100885485D01*
X96643073Y-101208455D01*
X97132737Y-101208455D01*
X97622400Y-101208455D01*
X97622400Y-101364731D01*
X97622400Y-101521006D01*
X97945370Y-101521006D01*
X98268339Y-101521006D01*
X98268339Y-101687700D01*
X98268339Y-101854394D01*
X97945370Y-101854394D01*
X97622400Y-101854394D01*
X97622400Y-101698119D01*
X97622400Y-101541843D01*
X97132737Y-101541843D01*
X96643073Y-101541843D01*
X96643073Y-101864813D01*
X96643073Y-102187782D01*
X96486797Y-102187782D01*
X96330522Y-102187782D01*
X96330522Y-102188868D01*
X96330522Y-103000416D01*
G37*
G36*
X99414361Y-102833722D02*
G01*
X99581055Y-102833722D01*
X99581055Y-102989121D01*
X99581055Y-103144520D01*
X99742540Y-103150607D01*
X99904024Y-103156691D01*
X99910110Y-103318176D01*
X99916196Y-103479661D01*
X100071595Y-103479661D01*
X100226994Y-103479661D01*
X100226994Y-103646356D01*
X100226994Y-103813049D01*
X101039626Y-103813049D01*
X101852260Y-103813049D01*
X101852261Y-103646355D01*
X101852261Y-103479661D01*
X102018955Y-103479661D01*
X102185649Y-103479661D01*
X102185649Y-103646355D01*
X102185649Y-103813049D01*
X102018955Y-103813049D01*
X101852260Y-103813049D01*
X101852261Y-103979743D01*
X101852260Y-104146437D01*
X101695986Y-104146437D01*
X101539709Y-104146437D01*
X101539709Y-104469407D01*
X101539709Y-104792376D01*
X101373015Y-104792376D01*
X101206321Y-104792376D01*
X101206321Y-104469407D01*
X101206321Y-104146437D01*
X100883352Y-104146437D01*
X100560382Y-104146437D01*
X100560382Y-104302713D01*
X100560382Y-104458988D01*
X100393688Y-104458987D01*
X100226994Y-104458988D01*
X100226994Y-104136019D01*
X100226994Y-103813049D01*
X100060301Y-103813049D01*
X99893606Y-103813049D01*
X99893606Y-103646355D01*
X99893606Y-103479661D01*
X99737330Y-103479661D01*
X99581055Y-103479661D01*
X99581055Y-103323385D01*
X99581055Y-103167110D01*
X99414361Y-103167110D01*
X99247667Y-103167110D01*
X99247667Y-103000416D01*
X99247667Y-102833722D01*
X99414361Y-102833722D01*
G37*
G36*
X98768422Y-102187782D02*
G01*
X98935116Y-102187782D01*
X98935116Y-102344058D01*
X98935116Y-102500334D01*
X99091391Y-102500334D01*
X99247667Y-102500334D01*
X99247667Y-102667028D01*
X99247667Y-102833722D01*
X99080973Y-102833722D01*
X98914279Y-102833722D01*
X98914279Y-102677446D01*
X98914279Y-102521170D01*
X98758003Y-102521170D01*
X98601728Y-102521170D01*
X98601728Y-102354476D01*
X98601728Y-102187782D01*
X98768422Y-102187782D01*
G37*
G36*
X98435033Y-101854394D02*
G01*
X98601728Y-101854394D01*
X98601728Y-102021088D01*
X98601728Y-102187782D01*
X98435033Y-102187782D01*
X98268339Y-102187782D01*
X98268339Y-102021088D01*
X98268339Y-101854394D01*
X98435033Y-101854394D01*
G37*
D12*
%TO.C,JP5*%
X101825600Y-80564001D02*
X101825600Y-79963999D01*
X102525600Y-79264000D02*
X103925600Y-79264000D01*
X103925600Y-81264000D02*
X102525600Y-81264000D01*
X104625600Y-79963999D02*
X104625600Y-80564001D01*
X101825600Y-79963999D02*
G75*
G02*
X102525600Y-79264000I699999J0D01*
G01*
X102525600Y-81264000D02*
G75*
G02*
X101825600Y-80564001I-1J699999D01*
G01*
X103925600Y-79264000D02*
G75*
G02*
X104625600Y-79963999I0J-700000D01*
G01*
X104625600Y-80564001D02*
G75*
G02*
X103925600Y-81264000I-700000J1D01*
G01*
D13*
%TO.C,G\u002A\u002A\u002A*%
G36*
X137290200Y-103503600D02*
G01*
X137290200Y-103628600D01*
X137165200Y-103628600D01*
X137040200Y-103628600D01*
X137040200Y-103503600D01*
X137040200Y-103378600D01*
X137165200Y-103378600D01*
X137290200Y-103378600D01*
X137290200Y-103503600D01*
G37*
G36*
X137540200Y-103253600D02*
G01*
X137540200Y-103378600D01*
X137415200Y-103378600D01*
X137290200Y-103378600D01*
X137290200Y-103253600D01*
X137290200Y-103128600D01*
X137415200Y-103128600D01*
X137540200Y-103128600D01*
X137540200Y-103253600D01*
G37*
G36*
X137790200Y-103628600D02*
G01*
X137790200Y-103878600D01*
X137665200Y-103878600D01*
X137540200Y-103878600D01*
X137540200Y-103628600D01*
X137540200Y-103378600D01*
X137665200Y-103378600D01*
X137790200Y-103378600D01*
X137790200Y-103628600D01*
G37*
G36*
X138040200Y-102003600D02*
G01*
X138040200Y-102128600D01*
X137915200Y-102128600D01*
X137790200Y-102128600D01*
X137790200Y-102003600D01*
X137790200Y-101878600D01*
X137915200Y-101878600D01*
X138040200Y-101878600D01*
X138040200Y-102003600D01*
G37*
G36*
X138290200Y-101753600D02*
G01*
X138290200Y-101878600D01*
X138165200Y-101878600D01*
X138040200Y-101878600D01*
X138040200Y-101753600D01*
X138040200Y-101628600D01*
X138165200Y-101628600D01*
X138290200Y-101628600D01*
X138290200Y-101753600D01*
G37*
G36*
X138290200Y-102253600D02*
G01*
X138290200Y-102378600D01*
X138165200Y-102378600D01*
X138040200Y-102378600D01*
X138040200Y-102253600D01*
X138040200Y-102128600D01*
X138165200Y-102128600D01*
X138290200Y-102128600D01*
X138290200Y-102253600D01*
G37*
G36*
X138540200Y-102003600D02*
G01*
X138540200Y-102128600D01*
X138415200Y-102128600D01*
X138290200Y-102128600D01*
X138290200Y-102003600D01*
X138290200Y-101878600D01*
X138415200Y-101878600D01*
X138540200Y-101878600D01*
X138540200Y-102003600D01*
G37*
G36*
X140040200Y-101503600D02*
G01*
X140040200Y-101628600D01*
X139915200Y-101628600D01*
X139790200Y-101628600D01*
X139790200Y-101503600D01*
X139790200Y-101378600D01*
X139915200Y-101378600D01*
X140040200Y-101378600D01*
X140040200Y-101503600D01*
G37*
G36*
X140290200Y-102003600D02*
G01*
X140290200Y-102128600D01*
X140040200Y-102128600D01*
X139790200Y-102128600D01*
X139790200Y-102003600D01*
X139790200Y-101878600D01*
X140040200Y-101878600D01*
X140290200Y-101878600D01*
X140290200Y-102003600D01*
G37*
G36*
X140790200Y-101753600D02*
G01*
X140790200Y-101878600D01*
X140540200Y-101878600D01*
X140290200Y-101878600D01*
X140290200Y-101753600D01*
X140290200Y-101628600D01*
X140540200Y-101628600D01*
X140790200Y-101628600D01*
X140790200Y-101753600D01*
G37*
G36*
X141540200Y-105253600D02*
G01*
X141540200Y-105378600D01*
X141415200Y-105378600D01*
X141290200Y-105378600D01*
X141290200Y-105253600D01*
X141290200Y-105128600D01*
X141415200Y-105128600D01*
X141540200Y-105128600D01*
X141540200Y-105253600D01*
G37*
G36*
X144040200Y-108253600D02*
G01*
X144040200Y-108378600D01*
X143915200Y-108378600D01*
X143790200Y-108378600D01*
X143790200Y-108253600D01*
X143790200Y-108128600D01*
X143915200Y-108128600D01*
X144040200Y-108128600D01*
X144040200Y-108253600D01*
G37*
G36*
X144290200Y-107753600D02*
G01*
X144290200Y-108128600D01*
X144165200Y-108128600D01*
X144040200Y-108128600D01*
X144040200Y-107753600D01*
X144040200Y-107378600D01*
X144165200Y-107378600D01*
X144290200Y-107378600D01*
X144290200Y-107753600D01*
G37*
G36*
X143665200Y-106128600D02*
G01*
X144040200Y-106128600D01*
X144040200Y-106253600D01*
X144040200Y-106378600D01*
X143665200Y-106378600D01*
X143290200Y-106378600D01*
X143290200Y-106253600D01*
X143290200Y-106128600D01*
X143665200Y-106128600D01*
G37*
G36*
X143290200Y-106003600D02*
G01*
X143290200Y-106128600D01*
X142915200Y-106128600D01*
X142540200Y-106128600D01*
X142540200Y-106003600D01*
X142540200Y-105878600D01*
X142915200Y-105878600D01*
X143290200Y-105878600D01*
X143290200Y-106003600D01*
G37*
G36*
X137790200Y-102253600D02*
G01*
X137790200Y-102378600D01*
X137915200Y-102378600D01*
X138040200Y-102378600D01*
X138040200Y-102503600D01*
X138040200Y-102628600D01*
X138165200Y-102628600D01*
X138290200Y-102628600D01*
X138290200Y-102878600D01*
X138290200Y-103128600D01*
X138415200Y-103128600D01*
X138540200Y-103128600D01*
X138540200Y-103378600D01*
X138540200Y-103628600D01*
X138415200Y-103628600D01*
X138290200Y-103628600D01*
X138290200Y-103503600D01*
X138290200Y-103378600D01*
X138165200Y-103378600D01*
X138040200Y-103378600D01*
X138040200Y-103253600D01*
X138040200Y-103128600D01*
X137790200Y-103128600D01*
X137540200Y-103128600D01*
X137540200Y-103003600D01*
X137540200Y-102878600D01*
X137665200Y-102878600D01*
X137790200Y-102878600D01*
X137790200Y-102753600D01*
X137790200Y-102628600D01*
X137665200Y-102628600D01*
X137540200Y-102628600D01*
X137540200Y-102378600D01*
X137540200Y-102128600D01*
X137665200Y-102128600D01*
X137790200Y-102128600D01*
X137790200Y-102253600D01*
G37*
G36*
X139165200Y-101628600D02*
G01*
X139290200Y-101628600D01*
X139290200Y-101753600D01*
X139290200Y-101878600D01*
X139415200Y-101878600D01*
X139540200Y-101878600D01*
X139540200Y-101753600D01*
X139540200Y-101628600D01*
X139665200Y-101628600D01*
X139790200Y-101628600D01*
X139790200Y-101753600D01*
X139790200Y-101878600D01*
X139665200Y-101878600D01*
X139540200Y-101878600D01*
X139540200Y-102003600D01*
X139540200Y-102128600D01*
X139665200Y-102128600D01*
X139790200Y-102128600D01*
X139790200Y-102378600D01*
X139790200Y-102628600D01*
X139665200Y-102628600D01*
X139540200Y-102628600D01*
X139540200Y-102503600D01*
X139540200Y-102378600D01*
X139415200Y-102378600D01*
X139290200Y-102378600D01*
X139290200Y-102128600D01*
X139290200Y-101878600D01*
X139165200Y-101878600D01*
X139040200Y-101878600D01*
X139040200Y-101753600D01*
X139040200Y-101628600D01*
X139165200Y-101628600D01*
G37*
G36*
X139040200Y-101503600D02*
G01*
X139040200Y-101628600D01*
X138915200Y-101628600D01*
X138790200Y-101628600D01*
X138790200Y-101753600D01*
X138790200Y-101878600D01*
X138665200Y-101878600D01*
X138540200Y-101878600D01*
X138540200Y-101753600D01*
X138540200Y-101628600D01*
X138415200Y-101628600D01*
X138290200Y-101628600D01*
X138290200Y-101503600D01*
X138290200Y-101378600D01*
X138665200Y-101378600D01*
X139040200Y-101378600D01*
X139040200Y-101503600D01*
G37*
G36*
X139415200Y-105628600D02*
G01*
X139540200Y-105628600D01*
X139540200Y-105753600D01*
X139540200Y-105878600D01*
X139415200Y-105878600D01*
X139290200Y-105878600D01*
X139290200Y-105753600D01*
X139290200Y-105628600D01*
X139415200Y-105628600D01*
G37*
G36*
X139165200Y-105378600D02*
G01*
X139290200Y-105378600D01*
X139290200Y-105503600D01*
X139290200Y-105628600D01*
X139165200Y-105628600D01*
X139040200Y-105628600D01*
X139040200Y-105503600D01*
X139040200Y-105378600D01*
X139165200Y-105378600D01*
G37*
G36*
X138915200Y-105128600D02*
G01*
X139040200Y-105128600D01*
X139040200Y-105253600D01*
X139040200Y-105378600D01*
X138915200Y-105378600D01*
X138790200Y-105378600D01*
X138790200Y-105253600D01*
X138790200Y-105128600D01*
X138915200Y-105128600D01*
G37*
G36*
X138665200Y-104878600D02*
G01*
X138790200Y-104878600D01*
X138790200Y-105003600D01*
X138790200Y-105128600D01*
X138665200Y-105128600D01*
X138540200Y-105128600D01*
X138540200Y-105003600D01*
X138540200Y-104878600D01*
X138665200Y-104878600D01*
G37*
G36*
X138415200Y-104628600D02*
G01*
X138540200Y-104628600D01*
X138540200Y-104753600D01*
X138540200Y-104878600D01*
X138415200Y-104878600D01*
X138290200Y-104878600D01*
X138290200Y-104753600D01*
X138290200Y-104628600D01*
X138415200Y-104628600D01*
G37*
G36*
X138040200Y-104378600D02*
G01*
X138290200Y-104378600D01*
X138290200Y-104503600D01*
X138290200Y-104628600D01*
X138040200Y-104628600D01*
X137790200Y-104628600D01*
X137790200Y-104503600D01*
X137790200Y-104378600D01*
X138040200Y-104378600D01*
G37*
G36*
X137790200Y-104253600D02*
G01*
X137790200Y-104378600D01*
X137665200Y-104378600D01*
X137540200Y-104378600D01*
X137540200Y-104253600D01*
X137540200Y-104128600D01*
X137665200Y-104128600D01*
X137790200Y-104128600D01*
X137790200Y-104253600D01*
G37*
G36*
X144415200Y-106128600D02*
G01*
X144540200Y-106128600D01*
X144540200Y-106753600D01*
X144540200Y-107378600D01*
X144415200Y-107378600D01*
X144290200Y-107378600D01*
X144290200Y-107003600D01*
X144290200Y-106628600D01*
X144165200Y-106628600D01*
X144040200Y-106628600D01*
X144040200Y-106503600D01*
X144040200Y-106378600D01*
X144165200Y-106378600D01*
X144290200Y-106378600D01*
X144290200Y-106253600D01*
X144290200Y-106128600D01*
X144415200Y-106128600D01*
G37*
G36*
X144165200Y-105878600D02*
G01*
X144290200Y-105878600D01*
X144290200Y-106003600D01*
X144290200Y-106128600D01*
X144165200Y-106128600D01*
X144040200Y-106128600D01*
X144040200Y-106003600D01*
X144040200Y-105878600D01*
X144165200Y-105878600D01*
G37*
G36*
X143915200Y-105378600D02*
G01*
X144040200Y-105378600D01*
X144040200Y-105628600D01*
X144040200Y-105878600D01*
X143915200Y-105878600D01*
X143790200Y-105878600D01*
X143790200Y-105628600D01*
X143790200Y-105378600D01*
X143915200Y-105378600D01*
G37*
G36*
X143665200Y-104878600D02*
G01*
X143790200Y-104878600D01*
X143790200Y-105128600D01*
X143790200Y-105378600D01*
X143665200Y-105378600D01*
X143540200Y-105378600D01*
X143540200Y-105128600D01*
X143540200Y-104878600D01*
X143665200Y-104878600D01*
G37*
G36*
X143415200Y-104378600D02*
G01*
X143540200Y-104378600D01*
X143540200Y-104628600D01*
X143540200Y-104878600D01*
X143415200Y-104878600D01*
X143290200Y-104878600D01*
X143290200Y-104628600D01*
X143290200Y-104378600D01*
X143415200Y-104378600D01*
G37*
G36*
X142415200Y-103628600D02*
G01*
X142790200Y-103628600D01*
X142790200Y-103753600D01*
X142790200Y-103878600D01*
X142665200Y-103878600D01*
X142540200Y-103878600D01*
X142540200Y-104003600D01*
X142540200Y-104128600D01*
X142415200Y-104128600D01*
X142290200Y-104128600D01*
X142290200Y-104378600D01*
X142290200Y-104628600D01*
X142165200Y-104628600D01*
X142040200Y-104628600D01*
X142040200Y-104128600D01*
X142040200Y-103628600D01*
X142415200Y-103628600D01*
G37*
G36*
X143165200Y-104128600D02*
G01*
X143290200Y-104128600D01*
X143290200Y-104253600D01*
X143290200Y-104378600D01*
X143165200Y-104378600D01*
X143040200Y-104378600D01*
X143040200Y-104253600D01*
X143040200Y-104128600D01*
X143165200Y-104128600D01*
G37*
G36*
X142915200Y-103878600D02*
G01*
X143040200Y-103878600D01*
X143040200Y-104003600D01*
X143040200Y-104128600D01*
X142915200Y-104128600D01*
X142790200Y-104128600D01*
X142790200Y-104003600D01*
X142790200Y-103878600D01*
X142915200Y-103878600D01*
G37*
G36*
X141915200Y-103128600D02*
G01*
X142040200Y-103128600D01*
X142040200Y-103378600D01*
X142040200Y-103628600D01*
X141915200Y-103628600D01*
X141790200Y-103628600D01*
X141790200Y-103378600D01*
X141790200Y-103128600D01*
X141915200Y-103128600D01*
G37*
G36*
X141665200Y-102628600D02*
G01*
X141790200Y-102628600D01*
X141790200Y-102878600D01*
X141790200Y-103128600D01*
X141665200Y-103128600D01*
X141540200Y-103128600D01*
X141540200Y-102878600D01*
X141540200Y-102628600D01*
X141665200Y-102628600D01*
G37*
G36*
X141415200Y-102128600D02*
G01*
X141540200Y-102128600D01*
X141540200Y-102378600D01*
X141540200Y-102628600D01*
X141415200Y-102628600D01*
X141290200Y-102628600D01*
X141290200Y-102378600D01*
X141290200Y-102128600D01*
X141415200Y-102128600D01*
G37*
G36*
X141165200Y-101628600D02*
G01*
X141290200Y-101628600D01*
X141290200Y-101878600D01*
X141290200Y-102128600D01*
X141165200Y-102128600D01*
X141040200Y-102128600D01*
X141040200Y-101878600D01*
X141040200Y-101628600D01*
X141165200Y-101628600D01*
G37*
G36*
X140915200Y-101378600D02*
G01*
X141040200Y-101378600D01*
X141040200Y-101503600D01*
X141040200Y-101628600D01*
X140915200Y-101628600D01*
X140790200Y-101628600D01*
X140790200Y-101503600D01*
X140790200Y-101378600D01*
X140915200Y-101378600D01*
G37*
G36*
X140790200Y-101253600D02*
G01*
X140790200Y-101378600D01*
X140415200Y-101378600D01*
X140040200Y-101378600D01*
X140040200Y-101253600D01*
X140040200Y-101128600D01*
X140415200Y-101128600D01*
X140790200Y-101128600D01*
X140790200Y-101253600D01*
G37*
G36*
X141665200Y-104378600D02*
G01*
X141790200Y-104378600D01*
X141790200Y-104503600D01*
X141790200Y-104628600D01*
X141665200Y-104628600D01*
X141540200Y-104628600D01*
X141540200Y-104753600D01*
X141540200Y-104878600D01*
X141665200Y-104878600D01*
X141790200Y-104878600D01*
X141790200Y-104753600D01*
X141790200Y-104628600D01*
X141915200Y-104628600D01*
X142040200Y-104628600D01*
X142040200Y-104753600D01*
X142040200Y-104878600D01*
X141915200Y-104878600D01*
X141790200Y-104878600D01*
X141790200Y-105003600D01*
X141790200Y-105128600D01*
X141665200Y-105128600D01*
X141540200Y-105128600D01*
X141540200Y-105003600D01*
X141540200Y-104878600D01*
X141415200Y-104878600D01*
X141290200Y-104878600D01*
X141290200Y-104753600D01*
X141290200Y-104628600D01*
X141415200Y-104628600D01*
X141540200Y-104628600D01*
X141540200Y-104503600D01*
X141540200Y-104378600D01*
X141665200Y-104378600D01*
G37*
G36*
X141415200Y-104128600D02*
G01*
X141540200Y-104128600D01*
X141540200Y-104253600D01*
X141540200Y-104378600D01*
X141415200Y-104378600D01*
X141290200Y-104378600D01*
X141290200Y-104503600D01*
X141290200Y-104628600D01*
X141165200Y-104628600D01*
X141040200Y-104628600D01*
X141040200Y-104503600D01*
X141040200Y-104378600D01*
X141165200Y-104378600D01*
X141290200Y-104378600D01*
X141290200Y-104253600D01*
X141290200Y-104128600D01*
X141415200Y-104128600D01*
G37*
G36*
X141165200Y-103878600D02*
G01*
X141290200Y-103878600D01*
X141290200Y-104003600D01*
X141290200Y-104128600D01*
X141165200Y-104128600D01*
X141040200Y-104128600D01*
X141040200Y-104253600D01*
X141040200Y-104378600D01*
X140915200Y-104378600D01*
X140790200Y-104378600D01*
X140790200Y-104253600D01*
X140790200Y-104128600D01*
X140915200Y-104128600D01*
X141040200Y-104128600D01*
X141040200Y-104003600D01*
X141040200Y-103878600D01*
X141165200Y-103878600D01*
G37*
G36*
X140915200Y-103628600D02*
G01*
X141040200Y-103628600D01*
X141040200Y-103753600D01*
X141040200Y-103878600D01*
X140915200Y-103878600D01*
X140790200Y-103878600D01*
X140790200Y-104003600D01*
X140790200Y-104128600D01*
X140665200Y-104128600D01*
X140540200Y-104128600D01*
X140540200Y-104003600D01*
X140540200Y-103878600D01*
X140665200Y-103878600D01*
X140790200Y-103878600D01*
X140790200Y-103753600D01*
X140790200Y-103628600D01*
X140915200Y-103628600D01*
G37*
G36*
X140665200Y-103128600D02*
G01*
X140790200Y-103128600D01*
X140790200Y-103378600D01*
X140790200Y-103628600D01*
X140665200Y-103628600D01*
X140540200Y-103628600D01*
X140540200Y-103753600D01*
X140540200Y-103878600D01*
X140415200Y-103878600D01*
X140290200Y-103878600D01*
X140290200Y-103753600D01*
X140290200Y-103628600D01*
X140415200Y-103628600D01*
X140540200Y-103628600D01*
X140540200Y-103378600D01*
X140540200Y-103128600D01*
X140665200Y-103128600D01*
G37*
G36*
X140415200Y-102628600D02*
G01*
X140540200Y-102628600D01*
X140540200Y-102878600D01*
X140540200Y-103128600D01*
X140415200Y-103128600D01*
X140290200Y-103128600D01*
X140290200Y-103378600D01*
X140290200Y-103628600D01*
X140165200Y-103628600D01*
X140040200Y-103628600D01*
X140040200Y-103378600D01*
X140040200Y-103128600D01*
X140165200Y-103128600D01*
X140290200Y-103128600D01*
X140290200Y-102878600D01*
X140290200Y-102628600D01*
X140415200Y-102628600D01*
G37*
G36*
X140040200Y-102878600D02*
G01*
X140040200Y-103128600D01*
X139915200Y-103128600D01*
X139790200Y-103128600D01*
X139790200Y-102878600D01*
X139790200Y-102628600D01*
X139915200Y-102628600D01*
X140040200Y-102628600D01*
X140040200Y-102878600D01*
G37*
G36*
X140290200Y-102503600D02*
G01*
X140290200Y-102628600D01*
X140165200Y-102628600D01*
X140040200Y-102628600D01*
X140040200Y-102503600D01*
X140040200Y-102378600D01*
X140165200Y-102378600D01*
X140290200Y-102378600D01*
X140290200Y-102503600D01*
G37*
G36*
X140415200Y-104878600D02*
G01*
X140540200Y-104878600D01*
X140540200Y-105003600D01*
X140540200Y-105128600D01*
X140415200Y-105128600D01*
X140290200Y-105128600D01*
X140290200Y-105253600D01*
X140290200Y-105378600D01*
X140415200Y-105378600D01*
X140540200Y-105378600D01*
X140540200Y-105253600D01*
X140540200Y-105128600D01*
X140665200Y-105128600D01*
X140790200Y-105128600D01*
X140790200Y-105253600D01*
X140790200Y-105378600D01*
X140665200Y-105378600D01*
X140540200Y-105378600D01*
X140540200Y-105503600D01*
X140540200Y-105628600D01*
X140415200Y-105628600D01*
X140290200Y-105628600D01*
X140290200Y-105503600D01*
X140290200Y-105378600D01*
X140165200Y-105378600D01*
X140040200Y-105378600D01*
X140040200Y-105253600D01*
X140040200Y-105128600D01*
X140165200Y-105128600D01*
X140290200Y-105128600D01*
X140290200Y-105003600D01*
X140290200Y-104878600D01*
X140415200Y-104878600D01*
G37*
G36*
X140165200Y-104628600D02*
G01*
X140290200Y-104628600D01*
X140290200Y-104753600D01*
X140290200Y-104878600D01*
X140165200Y-104878600D01*
X140040200Y-104878600D01*
X140040200Y-105003600D01*
X140040200Y-105128600D01*
X139915200Y-105128600D01*
X139790200Y-105128600D01*
X139790200Y-105003600D01*
X139790200Y-104878600D01*
X139915200Y-104878600D01*
X140040200Y-104878600D01*
X140040200Y-104753600D01*
X140040200Y-104628600D01*
X140165200Y-104628600D01*
G37*
G36*
X139915200Y-104378600D02*
G01*
X140040200Y-104378600D01*
X140040200Y-104503600D01*
X140040200Y-104628600D01*
X139915200Y-104628600D01*
X139790200Y-104628600D01*
X139790200Y-104753600D01*
X139790200Y-104878600D01*
X139665200Y-104878600D01*
X139540200Y-104878600D01*
X139540200Y-104753600D01*
X139540200Y-104628600D01*
X139665200Y-104628600D01*
X139790200Y-104628600D01*
X139790200Y-104503600D01*
X139790200Y-104378600D01*
X139915200Y-104378600D01*
G37*
G36*
X139665200Y-104128600D02*
G01*
X139790200Y-104128600D01*
X139790200Y-104253600D01*
X139790200Y-104378600D01*
X139665200Y-104378600D01*
X139540200Y-104378600D01*
X139540200Y-104503600D01*
X139540200Y-104628600D01*
X139415200Y-104628600D01*
X139290200Y-104628600D01*
X139290200Y-104503600D01*
X139290200Y-104378600D01*
X139415200Y-104378600D01*
X139540200Y-104378600D01*
X139540200Y-104253600D01*
X139540200Y-104128600D01*
X139665200Y-104128600D01*
G37*
G36*
X139415200Y-103878600D02*
G01*
X139540200Y-103878600D01*
X139540200Y-104003600D01*
X139540200Y-104128600D01*
X139415200Y-104128600D01*
X139290200Y-104128600D01*
X139290200Y-104253600D01*
X139290200Y-104378600D01*
X139165200Y-104378600D01*
X139040200Y-104378600D01*
X139040200Y-104253600D01*
X139040200Y-104128600D01*
X139165200Y-104128600D01*
X139290200Y-104128600D01*
X139290200Y-104003600D01*
X139290200Y-103878600D01*
X139415200Y-103878600D01*
G37*
G36*
X139165200Y-103628600D02*
G01*
X139290200Y-103628600D01*
X139290200Y-103753600D01*
X139290200Y-103878600D01*
X139165200Y-103878600D01*
X139040200Y-103878600D01*
X139040200Y-104003600D01*
X139040200Y-104128600D01*
X138915200Y-104128600D01*
X138790200Y-104128600D01*
X138790200Y-104003600D01*
X138790200Y-103878600D01*
X138915200Y-103878600D01*
X139040200Y-103878600D01*
X139040200Y-103753600D01*
X139040200Y-103628600D01*
X139165200Y-103628600D01*
G37*
G36*
X138790200Y-103753600D02*
G01*
X138790200Y-103878600D01*
X138665200Y-103878600D01*
X138540200Y-103878600D01*
X138540200Y-103753600D01*
X138540200Y-103628600D01*
X138665200Y-103628600D01*
X138790200Y-103628600D01*
X138790200Y-103753600D01*
G37*
G36*
X138915200Y-103128600D02*
G01*
X139040200Y-103128600D01*
X139040200Y-103378600D01*
X139040200Y-103628600D01*
X138915200Y-103628600D01*
X138790200Y-103628600D01*
X138790200Y-103378600D01*
X138790200Y-103128600D01*
X138915200Y-103128600D01*
G37*
G36*
X138790200Y-102878600D02*
G01*
X138790200Y-103128600D01*
X138665200Y-103128600D01*
X138540200Y-103128600D01*
X138540200Y-102878600D01*
X138540200Y-102628600D01*
X138665200Y-102628600D01*
X138790200Y-102628600D01*
X138790200Y-102878600D01*
G37*
G36*
X141790200Y-108378600D02*
G01*
X142040200Y-108378600D01*
X142040200Y-108503600D01*
X142040200Y-108628600D01*
X142665200Y-108628600D01*
X143290200Y-108628600D01*
X143290200Y-108503600D01*
X143290200Y-108378600D01*
X143540200Y-108378600D01*
X143790200Y-108378600D01*
X143790200Y-108503600D01*
X143790200Y-108628600D01*
X143540200Y-108628600D01*
X143290200Y-108628600D01*
X143290200Y-108753600D01*
X143290200Y-108878600D01*
X142665200Y-108878600D01*
X142040200Y-108878600D01*
X142040200Y-108753600D01*
X142040200Y-108628600D01*
X141790200Y-108628600D01*
X141540200Y-108628600D01*
X141540200Y-108503600D01*
X141540200Y-108378600D01*
X141790200Y-108378600D01*
G37*
G36*
X141290200Y-108128600D02*
G01*
X141540200Y-108128600D01*
X141540200Y-108253600D01*
X141540200Y-108378600D01*
X141290200Y-108378600D01*
X141040200Y-108378600D01*
X141040200Y-108253600D01*
X141040200Y-108128600D01*
X141290200Y-108128600D01*
G37*
G36*
X140915200Y-107878600D02*
G01*
X141040200Y-107878600D01*
X141040200Y-108003600D01*
X141040200Y-108128600D01*
X140915200Y-108128600D01*
X140790200Y-108128600D01*
X140790200Y-108003600D01*
X140790200Y-107878600D01*
X140915200Y-107878600D01*
G37*
G36*
X140665200Y-107628600D02*
G01*
X140790200Y-107628600D01*
X140790200Y-107753600D01*
X140790200Y-107878600D01*
X140665200Y-107878600D01*
X140540200Y-107878600D01*
X140540200Y-107753600D01*
X140540200Y-107628600D01*
X140665200Y-107628600D01*
G37*
G36*
X140415200Y-107378600D02*
G01*
X140540200Y-107378600D01*
X140540200Y-107503600D01*
X140540200Y-107628600D01*
X140415200Y-107628600D01*
X140290200Y-107628600D01*
X140290200Y-107503600D01*
X140290200Y-107378600D01*
X140415200Y-107378600D01*
G37*
G36*
X140040200Y-107128600D02*
G01*
X140290200Y-107128600D01*
X140290200Y-107253600D01*
X140290200Y-107378600D01*
X140040200Y-107378600D01*
X139790200Y-107378600D01*
X139790200Y-107253600D01*
X139790200Y-107128600D01*
X140040200Y-107128600D01*
G37*
G36*
X139665200Y-106878600D02*
G01*
X139790200Y-106878600D01*
X139790200Y-107003600D01*
X139790200Y-107128600D01*
X139665200Y-107128600D01*
X139540200Y-107128600D01*
X139540200Y-107003600D01*
X139540200Y-106878600D01*
X139665200Y-106878600D01*
G37*
G36*
X141290200Y-105503600D02*
G01*
X141290200Y-105628600D01*
X141915200Y-105628600D01*
X142540200Y-105628600D01*
X142540200Y-105753600D01*
X142540200Y-105878600D01*
X141790200Y-105878600D01*
X141040200Y-105878600D01*
X141040200Y-106003600D01*
X141040200Y-106128600D01*
X140790200Y-106128600D01*
X140540200Y-106128600D01*
X140540200Y-106253600D01*
X140540200Y-106378600D01*
X140290200Y-106378600D01*
X140040200Y-106378600D01*
X140040200Y-106503600D01*
X140040200Y-106628600D01*
X139790200Y-106628600D01*
X139540200Y-106628600D01*
X139540200Y-106753600D01*
X139540200Y-106878600D01*
X139415200Y-106878600D01*
X139290200Y-106878600D01*
X139290200Y-106503600D01*
X139290200Y-106128600D01*
X139165200Y-106128600D01*
X139040200Y-106128600D01*
X139040200Y-106003600D01*
X139040200Y-105878600D01*
X139165200Y-105878600D01*
X139290200Y-105878600D01*
X139290200Y-106003600D01*
X139290200Y-106128600D01*
X139415200Y-106128600D01*
X139540200Y-106128600D01*
X139540200Y-106003600D01*
X139540200Y-105878600D01*
X139665200Y-105878600D01*
X139790200Y-105878600D01*
X139790200Y-106003600D01*
X139790200Y-106128600D01*
X140040200Y-106128600D01*
X140290200Y-106128600D01*
X140290200Y-106003600D01*
X140290200Y-105878600D01*
X140415200Y-105878600D01*
X140540200Y-105878600D01*
X140540200Y-105753600D01*
X140540200Y-105628600D01*
X140665200Y-105628600D01*
X140790200Y-105628600D01*
X140790200Y-105503600D01*
X140790200Y-105378600D01*
X141040200Y-105378600D01*
X141290200Y-105378600D01*
X141290200Y-105503600D01*
G37*
G36*
X138915200Y-105628600D02*
G01*
X139040200Y-105628600D01*
X139040200Y-105753600D01*
X139040200Y-105878600D01*
X138915200Y-105878600D01*
X138790200Y-105878600D01*
X138790200Y-105753600D01*
X138790200Y-105628600D01*
X138915200Y-105628600D01*
G37*
G36*
X138665200Y-105378600D02*
G01*
X138790200Y-105378600D01*
X138790200Y-105503600D01*
X138790200Y-105628600D01*
X138665200Y-105628600D01*
X138540200Y-105628600D01*
X138540200Y-105503600D01*
X138540200Y-105378600D01*
X138665200Y-105378600D01*
G37*
G36*
X138415200Y-105128600D02*
G01*
X138540200Y-105128600D01*
X138540200Y-105253600D01*
X138540200Y-105378600D01*
X138415200Y-105378600D01*
X138290200Y-105378600D01*
X138290200Y-105253600D01*
X138290200Y-105128600D01*
X138415200Y-105128600D01*
G37*
G36*
X138040200Y-104878600D02*
G01*
X138290200Y-104878600D01*
X138290200Y-105003600D01*
X138290200Y-105128600D01*
X138040200Y-105128600D01*
X137790200Y-105128600D01*
X137790200Y-105003600D01*
X137790200Y-104878600D01*
X138040200Y-104878600D01*
G37*
G36*
X137540200Y-104628600D02*
G01*
X137790200Y-104628600D01*
X137790200Y-104753600D01*
X137790200Y-104878600D01*
X137540200Y-104878600D01*
X137290200Y-104878600D01*
X137290200Y-104753600D01*
X137290200Y-104628600D01*
X137540200Y-104628600D01*
G37*
G36*
X137165200Y-104378600D02*
G01*
X137290200Y-104378600D01*
X137290200Y-104503600D01*
X137290200Y-104628600D01*
X137165200Y-104628600D01*
X137040200Y-104628600D01*
X137040200Y-104503600D01*
X137040200Y-104378600D01*
X137165200Y-104378600D01*
G37*
G36*
X137040200Y-103753600D02*
G01*
X137040200Y-103878600D01*
X137290200Y-103878600D01*
X137540200Y-103878600D01*
X137540200Y-104003600D01*
X137540200Y-104128600D01*
X137290200Y-104128600D01*
X137040200Y-104128600D01*
X137040200Y-104253600D01*
X137040200Y-104378600D01*
X136915200Y-104378600D01*
X136790200Y-104378600D01*
X136790200Y-104003600D01*
X136790200Y-103628600D01*
X136915200Y-103628600D01*
X137040200Y-103628600D01*
X137040200Y-103753600D01*
G37*
D14*
X115619648Y-108270713D02*
X125625151Y-108270713D01*
X125625151Y-101998881D01*
X115619648Y-101998881D01*
X115619648Y-108270713D01*
G36*
X115622400Y-106125600D02*
G01*
X119622400Y-106125600D01*
X119622400Y-104125600D01*
X115622400Y-104125600D01*
X115622400Y-106125600D01*
G37*
G36*
X121622400Y-106125600D02*
G01*
X125622400Y-106125600D01*
X125622400Y-104125600D01*
X121622400Y-104125600D01*
X121622400Y-106125600D01*
G37*
X121622400Y-105125600D02*
G75*
G02*
X119622400Y-105125600I-1000000J0D01*
G01*
X119622400Y-105125600D02*
G75*
G02*
X121622400Y-105125600I1000000J0D01*
G01*
D13*
G36*
X120122400Y-104225600D02*
G01*
X119822400Y-104525600D01*
X119672400Y-104775600D01*
X119622400Y-104825600D01*
X119622400Y-104125600D01*
X120622400Y-104125600D01*
X120122400Y-104225600D01*
G37*
G36*
X121622400Y-104825600D02*
G01*
X121572400Y-104725600D01*
X121422400Y-104525600D01*
X121222400Y-104325600D01*
X120922400Y-104125600D01*
X121622400Y-104125600D01*
X121622400Y-104825600D01*
G37*
G36*
X121622400Y-106125600D02*
G01*
X120872400Y-106125600D01*
X121172400Y-105975600D01*
X121472400Y-105675600D01*
X121572400Y-105475600D01*
X121622400Y-105425600D01*
X121622400Y-106125600D01*
G37*
G36*
X119672400Y-105475600D02*
G01*
X119772400Y-105675600D01*
X119922400Y-105875600D01*
X120172400Y-106025600D01*
X120422400Y-106125600D01*
X119622400Y-106125600D01*
X119622400Y-105425600D01*
X119672400Y-105475600D01*
G37*
D12*
%TO.C,JP1*%
X140293315Y-92194186D02*
X141707528Y-90779973D01*
X141707528Y-90779973D02*
X143687427Y-92759872D01*
X142273214Y-94174085D02*
X140293315Y-92194186D01*
X143687427Y-92759872D02*
X142273214Y-94174085D01*
%TO.C,JP3*%
X137596544Y-86490443D02*
X139576443Y-84510544D01*
X139010757Y-87904656D02*
X137596544Y-86490443D01*
X139576443Y-84510544D02*
X140990656Y-85924757D01*
X140990656Y-85924757D02*
X139010757Y-87904656D01*
%TO.C,J4*%
X129572400Y-74875600D02*
X129572400Y-77725600D01*
X129572400Y-77725600D02*
X132422400Y-77725600D01*
X129812400Y-67665599D02*
X129812400Y-77485600D01*
X129812400Y-77485600D02*
X134722400Y-77485600D01*
X132912400Y-66265600D02*
X132912400Y-67665599D01*
X132912400Y-67665599D02*
X129812400Y-67665599D01*
X134722400Y-66265600D02*
X132912400Y-66265600D01*
X134722400Y-66265600D02*
X136532400Y-66265599D01*
X136532400Y-66265599D02*
X136532400Y-67665600D01*
X136532400Y-67665600D02*
X139632400Y-67665600D01*
X139632400Y-67665600D02*
X139632401Y-77485600D01*
X139632401Y-77485600D02*
X134722400Y-77485600D01*
%TD*%
%LPC*%
%TO.C,G\u002A\u002A\u002A*%
D15*
X121147400Y-105125600D02*
G75*
G02*
X120097400Y-105125600I-525000J0D01*
G01*
X120097400Y-105125600D02*
G75*
G02*
X121147400Y-105125600I525000J0D01*
G01*
%TD*%
D16*
%TO.C,H3*%
X80222400Y-110125600D03*
X80925344Y-108428544D03*
X80925344Y-111822656D03*
X82622400Y-107725600D03*
D17*
X82622400Y-110125600D03*
D16*
X82622400Y-112525600D03*
X84319456Y-108428544D03*
X84319456Y-111822656D03*
X85022400Y-110125600D03*
%TD*%
%TO.C,H1*%
X150222400Y-70125600D03*
X150925344Y-68428544D03*
X150925344Y-71822656D03*
X152622400Y-67725600D03*
D17*
X152622400Y-70125600D03*
D16*
X152622400Y-72525600D03*
X154319456Y-68428544D03*
X154319456Y-71822656D03*
X155022400Y-70125600D03*
%TD*%
D18*
%TO.C,SW3*%
X152122401Y-78875600D03*
X152122400Y-85875600D03*
D19*
X154622400Y-80125600D03*
X154622400Y-84625601D03*
%TD*%
D16*
%TO.C,H4*%
X150222400Y-110125600D03*
X150925344Y-108428544D03*
X150925344Y-111822656D03*
X152622400Y-107725600D03*
D17*
X152622400Y-110125600D03*
D16*
X152622400Y-112525600D03*
X154319456Y-108428544D03*
X154319456Y-111822656D03*
X155022400Y-110125600D03*
%TD*%
D20*
%TO.C,J1*%
X81347400Y-82500600D03*
D21*
X83887400Y-82500600D03*
X81347400Y-85040600D03*
X83887400Y-85040600D03*
X81347400Y-87580600D03*
X83887400Y-87580600D03*
X81347400Y-90120600D03*
X83887400Y-90120600D03*
X81347400Y-92660600D03*
X83887400Y-92660600D03*
X81347400Y-95200600D03*
X83887400Y-95200600D03*
X81347400Y-97740600D03*
X83887400Y-97740600D03*
%TD*%
D22*
%TO.C,U3*%
X121716800Y-97967800D03*
X121716800Y-95427800D03*
X121716800Y-92887800D03*
X121716800Y-90347800D03*
X121716800Y-87807800D03*
X121716800Y-85267800D03*
X121716800Y-82727800D03*
X121716800Y-80187800D03*
X96316800Y-97967800D03*
X96316801Y-95427800D03*
X96316800Y-92887800D03*
X96316800Y-90347800D03*
X96316800Y-87807800D03*
X96316800Y-85267801D03*
X96316800Y-82727799D03*
X96316800Y-80187800D03*
%TD*%
D23*
%TO.C,J2*%
X151022400Y-98015600D03*
X151022400Y-92235600D03*
D24*
X150492400Y-99445600D03*
D25*
X154672400Y-99445600D03*
D24*
X150492400Y-90805600D03*
D25*
X154672400Y-90805600D03*
%TD*%
D16*
%TO.C,H2*%
X80222400Y-70125600D03*
X80925344Y-68428544D03*
X80925344Y-71822656D03*
X82622400Y-67725600D03*
D17*
X82622400Y-70125600D03*
D16*
X82622400Y-72525600D03*
X84319456Y-68428544D03*
X84319456Y-71822656D03*
X85022400Y-70125600D03*
%TD*%
D26*
%TO.C,J3*%
X135203362Y-101033013D03*
X138077044Y-96722490D03*
X139513885Y-98159331D03*
%TD*%
D27*
%TO.C,TP3*%
X125069600Y-92964000D03*
%TD*%
D28*
%TO.C,JP2*%
X143962548Y-90419348D03*
D29*
X144987852Y-91444652D03*
%TD*%
D30*
%TO.C,SW1*%
X124897400Y-80525600D03*
X124897400Y-86525600D03*
X128647400Y-80525600D03*
X128647400Y-86525600D03*
%TD*%
D31*
%TO.C,J5*%
X92922400Y-70085600D03*
X123322400Y-70085600D03*
D32*
X97622400Y-75125600D03*
D33*
X101822399Y-75125600D03*
X106022400Y-75125600D03*
X110222399Y-75125600D03*
X114422400Y-75125600D03*
X118622399Y-75125600D03*
X97622400Y-69625600D03*
X101822400Y-69625600D03*
X106022400Y-69625600D03*
X110222400Y-69625600D03*
X114422400Y-69625600D03*
X118622400Y-69625600D03*
%TD*%
D34*
%TO.C,JP5*%
X102575601Y-80264000D03*
D35*
X103875599Y-80264000D03*
%TD*%
D36*
%TO.C,G\u002A\u002A\u002A*%
X120622400Y-105125600D03*
%TD*%
D28*
%TO.C,JP1*%
X141477719Y-91964377D03*
D29*
X142503023Y-92989681D03*
%TD*%
D37*
%TO.C,JP3*%
X138780948Y-86720252D03*
D38*
X139806252Y-85694948D03*
%TD*%
D32*
%TO.C,J4*%
X132622400Y-75125600D03*
D33*
X136822399Y-75125600D03*
X132622400Y-69625600D03*
X136822400Y-69625600D03*
%TD*%
%LPD*%
M02*
