%TF.GenerationSoftware,KiCad,Pcbnew,8.99.0-unknown-1.20240323gita6e2746.fc38*%
%TF.CreationDate,2024-04-05T19:16:21-03:00*%
%TF.ProjectId,Wideband_v3,57696465-6261-46e6-945f-76332e6b6963,rev?*%
%TF.SameCoordinates,Original*%
%TF.FileFunction,Soldermask,Bot*%
%TF.FilePolarity,Negative*%
%FSLAX46Y46*%
G04 Gerber Fmt 4.6, Leading zero omitted, Abs format (unit mm)*
G04 Created by KiCad (PCBNEW 8.99.0-unknown-1.20240323gita6e2746.fc38) date 2024-04-05 19:16:21*
%MOMM*%
%LPD*%
G01*
G04 APERTURE LIST*
G04 Aperture macros list*
%AMRoundRect*
0 Rectangle with rounded corners*
0 $1 Rounding radius*
0 $2 $3 $4 $5 $6 $7 $8 $9 X,Y pos of 4 corners*
0 Add a 4 corners polygon primitive as box body*
4,1,4,$2,$3,$4,$5,$6,$7,$8,$9,$2,$3,0*
0 Add four circle primitives for the rounded corners*
1,1,$1+$1,$2,$3*
1,1,$1+$1,$4,$5*
1,1,$1+$1,$6,$7*
1,1,$1+$1,$8,$9*
0 Add four rect primitives between the rounded corners*
20,1,$1+$1,$2,$3,$4,$5,0*
20,1,$1+$1,$4,$5,$6,$7,0*
20,1,$1+$1,$6,$7,$8,$9,0*
20,1,$1+$1,$8,$9,$2,$3,0*%
%AMFreePoly0*
4,1,6,1.000000,0.000000,0.499999,-0.750000,-0.499999,-0.750000,-0.499999,0.750000,0.499999,0.750000,1.000000,0.000000,1.000000,0.000000,$1*%
%AMFreePoly1*
4,1,6,0.499999,-0.750000,-0.649999,-0.750000,-0.150000,0.000000,-0.649999,0.750000,0.499999,0.750000,0.499999,-0.750000,0.499999,-0.750000,$1*%
%AMFreePoly2*
4,1,19,0.500000,-0.750000,0.000000,-0.750000,0.000000,-0.744911,-0.071157,-0.744911,-0.207708,-0.704816,-0.327430,-0.627875,-0.420627,-0.520320,-0.479746,-0.390866,-0.500000,-0.250000,-0.500000,0.250000,-0.479746,0.390866,-0.420627,0.520320,-0.327430,0.627875,-0.207708,0.704816,-0.071157,0.744911,0.000000,0.744911,0.000000,0.750000,0.500000,0.750000,0.500000,-0.750000,0.500000,-0.750000,
$1*%
%AMFreePoly3*
4,1,19,0.000000,0.744911,0.071157,0.744911,0.207708,0.704816,0.327430,0.627875,0.420627,0.520320,0.479746,0.390866,0.500000,0.250000,0.500000,-0.250000,0.479746,-0.390866,0.420627,-0.520320,0.327430,-0.627875,0.207708,-0.704816,0.071157,-0.744911,0.000000,-0.744911,0.000000,-0.750000,-0.500000,-0.750000,-0.500000,0.750000,0.000000,0.750000,0.000000,0.744911,0.000000,0.744911,
$1*%
G04 Aperture macros list end*
%ADD10C,1.050000*%
%ADD11C,0.800000*%
%ADD12C,6.400000*%
%ADD13C,2.400000*%
%ADD14C,1.700000*%
%ADD15R,1.700000X1.700000*%
%ADD16O,1.700000X1.700000*%
%ADD17C,1.524000*%
%ADD18C,0.650000*%
%ADD19O,2.100000X1.000000*%
%ADD20O,1.600000X1.000000*%
%ADD21C,0.990600*%
%ADD22R,1.000000X1.000000*%
%ADD23FreePoly0,315.000000*%
%ADD24FreePoly1,315.000000*%
%ADD25R,0.750000X1.000000*%
%ADD26C,3.000000*%
%ADD27RoundRect,0.250001X-1.099999X-1.399999X1.099999X-1.399999X1.099999X1.399999X-1.099999X1.399999X0*%
%ADD28O,2.700000X3.300000*%
%ADD29FreePoly2,0.000000*%
%ADD30FreePoly3,0.000000*%
%ADD31C,1.800000*%
%ADD32FreePoly0,45.000000*%
%ADD33FreePoly1,45.000000*%
G04 APERTURE END LIST*
%TO.C,G\u002A\u002A\u002A*%
D10*
X121147400Y-105125600D02*
G75*
G02*
X120097400Y-105125600I-525000J0D01*
G01*
X120097400Y-105125600D02*
G75*
G02*
X121147400Y-105125600I525000J0D01*
G01*
%TD*%
D11*
%TO.C,H3*%
X80222400Y-110125600D03*
X80925344Y-108428544D03*
X80925344Y-111822656D03*
X82622400Y-107725600D03*
D12*
X82622400Y-110125600D03*
D11*
X82622400Y-112525600D03*
X84319456Y-108428544D03*
X84319456Y-111822656D03*
X85022400Y-110125600D03*
%TD*%
%TO.C,H1*%
X150222400Y-70125600D03*
X150925344Y-68428544D03*
X150925344Y-71822656D03*
X152622400Y-67725600D03*
D12*
X152622400Y-70125600D03*
D11*
X152622400Y-72525600D03*
X154319456Y-68428544D03*
X154319456Y-71822656D03*
X155022400Y-70125600D03*
%TD*%
D13*
%TO.C,SW3*%
X152122401Y-78875600D03*
X152122400Y-85875600D03*
D14*
X154622400Y-80125600D03*
X154622400Y-84625601D03*
%TD*%
D11*
%TO.C,H4*%
X150222400Y-110125600D03*
X150925344Y-108428544D03*
X150925344Y-111822656D03*
X152622400Y-107725600D03*
D12*
X152622400Y-110125600D03*
D11*
X152622400Y-112525600D03*
X154319456Y-108428544D03*
X154319456Y-111822656D03*
X155022400Y-110125600D03*
%TD*%
D15*
%TO.C,J1*%
X81347400Y-82500600D03*
D16*
X83887400Y-82500600D03*
X81347400Y-85040600D03*
X83887400Y-85040600D03*
X81347400Y-87580600D03*
X83887400Y-87580600D03*
X81347400Y-90120600D03*
X83887400Y-90120600D03*
X81347400Y-92660600D03*
X83887400Y-92660600D03*
X81347400Y-95200600D03*
X83887400Y-95200600D03*
X81347400Y-97740600D03*
X83887400Y-97740600D03*
%TD*%
D17*
%TO.C,U3*%
X121716800Y-97967800D03*
X121716800Y-95427800D03*
X121716800Y-92887800D03*
X121716800Y-90347800D03*
X121716800Y-87807800D03*
X121716800Y-85267800D03*
X121716800Y-82727800D03*
X121716800Y-80187800D03*
X96316800Y-97967800D03*
X96316801Y-95427800D03*
X96316800Y-92887800D03*
X96316800Y-90347800D03*
X96316800Y-87807800D03*
X96316800Y-85267801D03*
X96316800Y-82727799D03*
X96316800Y-80187800D03*
%TD*%
D18*
%TO.C,J2*%
X151022400Y-98015600D03*
X151022400Y-92235600D03*
D19*
X150492400Y-99445600D03*
D20*
X154672400Y-99445600D03*
D19*
X150492400Y-90805600D03*
D20*
X154672400Y-90805600D03*
%TD*%
D11*
%TO.C,H2*%
X80222400Y-70125600D03*
X80925344Y-68428544D03*
X80925344Y-71822656D03*
X82622400Y-67725600D03*
D12*
X82622400Y-70125600D03*
D11*
X82622400Y-72525600D03*
X84319456Y-68428544D03*
X84319456Y-71822656D03*
X85022400Y-70125600D03*
%TD*%
D21*
%TO.C,J3*%
X135203362Y-101033013D03*
X138077044Y-96722490D03*
X139513885Y-98159331D03*
%TD*%
D22*
%TO.C,TP3*%
X125069600Y-92964000D03*
%TD*%
D23*
%TO.C,JP2*%
X143962548Y-90419348D03*
D24*
X144987852Y-91444652D03*
%TD*%
D25*
%TO.C,SW1*%
X124897400Y-80525600D03*
X124897400Y-86525600D03*
X128647400Y-80525600D03*
X128647400Y-86525600D03*
%TD*%
D26*
%TO.C,J5*%
X92922400Y-70085600D03*
X123322400Y-70085600D03*
D27*
X97622400Y-75125600D03*
D28*
X101822399Y-75125600D03*
X106022400Y-75125600D03*
X110222399Y-75125600D03*
X114422400Y-75125600D03*
X118622399Y-75125600D03*
X97622400Y-69625600D03*
X101822400Y-69625600D03*
X106022400Y-69625600D03*
X110222400Y-69625600D03*
X114422400Y-69625600D03*
X118622400Y-69625600D03*
%TD*%
D29*
%TO.C,JP5*%
X102575601Y-80264000D03*
D30*
X103875599Y-80264000D03*
%TD*%
D31*
%TO.C,G\u002A\u002A\u002A*%
X120622400Y-105125600D03*
%TD*%
D23*
%TO.C,JP1*%
X141477719Y-91964377D03*
D24*
X142503023Y-92989681D03*
%TD*%
D32*
%TO.C,JP3*%
X138780948Y-86720252D03*
D33*
X139806252Y-85694948D03*
%TD*%
D27*
%TO.C,J4*%
X132622400Y-75125600D03*
D28*
X136822399Y-75125600D03*
X132622400Y-69625600D03*
X136822400Y-69625600D03*
%TD*%
M02*
