%TF.GenerationSoftware,KiCad,Pcbnew,8.99.0-unknown-1.20240323gita6e2746.fc38*%
%TF.CreationDate,2024-04-05T19:16:21-03:00*%
%TF.ProjectId,Wideband_v3,57696465-6261-46e6-945f-76332e6b6963,rev?*%
%TF.SameCoordinates,Original*%
%TF.FileFunction,Soldermask,Top*%
%TF.FilePolarity,Negative*%
%FSLAX46Y46*%
G04 Gerber Fmt 4.6, Leading zero omitted, Abs format (unit mm)*
G04 Created by KiCad (PCBNEW 8.99.0-unknown-1.20240323gita6e2746.fc38) date 2024-04-05 19:16:21*
%MOMM*%
%LPD*%
G01*
G04 APERTURE LIST*
G04 Aperture macros list*
%AMRoundRect*
0 Rectangle with rounded corners*
0 $1 Rounding radius*
0 $2 $3 $4 $5 $6 $7 $8 $9 X,Y pos of 4 corners*
0 Add a 4 corners polygon primitive as box body*
4,1,4,$2,$3,$4,$5,$6,$7,$8,$9,$2,$3,0*
0 Add four circle primitives for the rounded corners*
1,1,$1+$1,$2,$3*
1,1,$1+$1,$4,$5*
1,1,$1+$1,$6,$7*
1,1,$1+$1,$8,$9*
0 Add four rect primitives between the rounded corners*
20,1,$1+$1,$2,$3,$4,$5,0*
20,1,$1+$1,$4,$5,$6,$7,0*
20,1,$1+$1,$6,$7,$8,$9,0*
20,1,$1+$1,$8,$9,$2,$3,0*%
%AMRotRect*
0 Rectangle, with rotation*
0 The origin of the aperture is its center*
0 $1 length*
0 $2 width*
0 $3 Rotation angle, in degrees counterclockwise*
0 Add horizontal line*
21,1,$1,$2,0,0,$3*%
%AMFreePoly0*
4,1,6,1.000000,0.000000,0.499999,-0.750000,-0.499999,-0.750000,-0.499999,0.750000,0.499999,0.750000,1.000000,0.000000,1.000000,0.000000,$1*%
%AMFreePoly1*
4,1,6,0.499999,-0.750000,-0.649999,-0.750000,-0.150000,0.000000,-0.649999,0.750000,0.499999,0.750000,0.499999,-0.750000,0.499999,-0.750000,$1*%
G04 Aperture macros list end*
%ADD10C,0.800000*%
%ADD11C,6.400000*%
%ADD12RoundRect,0.250000X-1.400000X-1.000000X1.400000X-1.000000X1.400000X1.000000X-1.400000X1.000000X0*%
%ADD13RoundRect,0.150000X-0.353553X-0.565685X0.565685X0.353553X0.353553X0.565685X-0.565685X-0.353553X0*%
%ADD14C,2.400000*%
%ADD15C,1.700000*%
%ADD16R,1.500000X2.000000*%
%ADD17R,3.800000X2.000000*%
%ADD18R,1.000000X1.000000*%
%ADD19RoundRect,0.200000X0.200000X0.275000X-0.200000X0.275000X-0.200000X-0.275000X0.200000X-0.275000X0*%
%ADD20RoundRect,0.225000X0.250000X-0.225000X0.250000X0.225000X-0.250000X0.225000X-0.250000X-0.225000X0*%
%ADD21RoundRect,0.225000X0.335876X0.017678X0.017678X0.335876X-0.335876X-0.017678X-0.017678X-0.335876X0*%
%ADD22RoundRect,0.250000X-0.512652X-0.159099X-0.159099X-0.512652X0.512652X0.159099X0.159099X0.512652X0*%
%ADD23RoundRect,0.250000X0.400000X0.600000X-0.400000X0.600000X-0.400000X-0.600000X0.400000X-0.600000X0*%
%ADD24RoundRect,0.225000X-0.335876X-0.017678X-0.017678X-0.335876X0.335876X0.017678X0.017678X0.335876X0*%
%ADD25RoundRect,0.250000X-0.650000X1.000000X-0.650000X-1.000000X0.650000X-1.000000X0.650000X1.000000X0*%
%ADD26RoundRect,0.200000X-0.200000X-0.275000X0.200000X-0.275000X0.200000X0.275000X-0.200000X0.275000X0*%
%ADD27RotRect,1.400000X1.200000X315.000000*%
%ADD28R,0.900000X0.400000*%
%ADD29RoundRect,0.250000X0.159099X-0.512652X0.512652X-0.159099X-0.159099X0.512652X-0.512652X0.159099X0*%
%ADD30RoundRect,0.225000X-0.225000X-0.250000X0.225000X-0.250000X0.225000X0.250000X-0.225000X0.250000X0*%
%ADD31RoundRect,0.125000X0.125000X0.125000X-0.125000X0.125000X-0.125000X-0.125000X0.125000X-0.125000X0*%
%ADD32R,1.700000X1.700000*%
%ADD33O,1.700000X1.700000*%
%ADD34FreePoly0,135.000000*%
%ADD35FreePoly1,135.000000*%
%ADD36C,1.524000*%
%ADD37RoundRect,0.225000X0.225000X0.250000X-0.225000X0.250000X-0.225000X-0.250000X0.225000X-0.250000X0*%
%ADD38RoundRect,0.200000X-0.053033X0.335876X-0.335876X0.053033X0.053033X-0.335876X0.335876X-0.053033X0*%
%ADD39RoundRect,0.200000X-0.335876X-0.053033X-0.053033X-0.335876X0.335876X0.053033X0.053033X0.335876X0*%
%ADD40RoundRect,0.140000X-0.219203X-0.021213X-0.021213X-0.219203X0.219203X0.021213X0.021213X0.219203X0*%
%ADD41RoundRect,0.200000X0.275000X-0.200000X0.275000X0.200000X-0.275000X0.200000X-0.275000X-0.200000X0*%
%ADD42C,0.650000*%
%ADD43R,1.450000X0.600000*%
%ADD44R,1.450000X0.300000*%
%ADD45O,2.100000X1.000000*%
%ADD46O,1.600000X1.000000*%
%ADD47RoundRect,0.140000X0.219203X0.021213X0.021213X0.219203X-0.219203X-0.021213X-0.021213X-0.219203X0*%
%ADD48RoundRect,0.200000X-0.275000X0.200000X-0.275000X-0.200000X0.275000X-0.200000X0.275000X0.200000X0*%
%ADD49RoundRect,0.225000X-0.250000X0.225000X-0.250000X-0.225000X0.250000X-0.225000X0.250000X0.225000X0*%
%ADD50RoundRect,0.150000X0.825000X0.150000X-0.825000X0.150000X-0.825000X-0.150000X0.825000X-0.150000X0*%
%ADD51C,0.990600*%
%ADD52C,0.787400*%
%ADD53RoundRect,0.150000X0.150000X-0.675000X0.150000X0.675000X-0.150000X0.675000X-0.150000X-0.675000X0*%
%ADD54RoundRect,0.050000X0.309359X-0.238649X-0.238649X0.309359X-0.309359X0.238649X0.238649X-0.309359X0*%
%ADD55RoundRect,0.050000X0.309359X0.238649X0.238649X0.309359X-0.309359X-0.238649X-0.238649X-0.309359X0*%
%ADD56RotRect,3.200000X3.200000X135.000000*%
%ADD57RoundRect,0.150000X-0.150000X0.825000X-0.150000X-0.825000X0.150000X-0.825000X0.150000X0.825000X0*%
%ADD58RoundRect,0.125000X-0.125000X-0.125000X0.125000X-0.125000X0.125000X0.125000X-0.125000X0.125000X0*%
%ADD59RoundRect,0.125000X0.125000X-0.125000X0.125000X0.125000X-0.125000X0.125000X-0.125000X-0.125000X0*%
%ADD60RoundRect,0.250000X0.350000X-0.850000X0.350000X0.850000X-0.350000X0.850000X-0.350000X-0.850000X0*%
%ADD61RoundRect,0.249997X2.650003X-2.950003X2.650003X2.950003X-2.650003X2.950003X-2.650003X-2.950003X0*%
%ADD62RoundRect,0.250000X0.512652X0.159099X0.159099X0.512652X-0.512652X-0.159099X-0.159099X-0.512652X0*%
%ADD63RoundRect,0.250000X0.475000X-0.250000X0.475000X0.250000X-0.475000X0.250000X-0.475000X-0.250000X0*%
%ADD64RoundRect,0.225000X0.017678X-0.335876X0.335876X-0.017678X-0.017678X0.335876X-0.335876X0.017678X0*%
%ADD65C,3.000000*%
%ADD66RoundRect,0.250001X-1.099999X-1.399999X1.099999X-1.399999X1.099999X1.399999X-1.099999X1.399999X0*%
%ADD67O,2.700000X3.300000*%
G04 APERTURE END LIST*
D10*
%TO.C,H3*%
X80222400Y-110125600D03*
X80925344Y-108428544D03*
X80925344Y-111822656D03*
X82622400Y-107725600D03*
D11*
X82622400Y-110125600D03*
D10*
X82622400Y-112525600D03*
X84319456Y-108428544D03*
X84319456Y-111822656D03*
X85022400Y-110125600D03*
%TD*%
D12*
%TO.C,D10*%
X102717600Y-103127600D03*
X102717600Y-109927600D03*
%TD*%
D13*
%TO.C,U2*%
X127404777Y-97699146D03*
X128302803Y-98597172D03*
X129200828Y-99495197D03*
X130098854Y-100393223D03*
X135190023Y-95302054D03*
X134291997Y-94404028D03*
X133393972Y-93506003D03*
X132495946Y-92607977D03*
%TD*%
D10*
%TO.C,H1*%
X150222400Y-70125600D03*
X150925344Y-68428544D03*
X150925344Y-71822656D03*
X152622400Y-67725600D03*
D11*
X152622400Y-70125600D03*
D10*
X152622400Y-72525600D03*
X154319456Y-68428544D03*
X154319456Y-71822656D03*
X155022400Y-70125600D03*
%TD*%
D14*
%TO.C,SW3*%
X152122401Y-78875600D03*
X152122400Y-85875600D03*
D15*
X154622400Y-80125600D03*
X154622400Y-84625601D03*
%TD*%
D16*
%TO.C,U8*%
X128408400Y-109982400D03*
X130708400Y-109982399D03*
D17*
X130708400Y-103682401D03*
D16*
X133008400Y-109982400D03*
%TD*%
D18*
%TO.C,TP4*%
X119075200Y-88747600D03*
%TD*%
D19*
%TO.C,R12*%
X147047400Y-92675600D03*
X145397400Y-92675600D03*
%TD*%
D20*
%TO.C,C1*%
X141122400Y-70574200D03*
X141122400Y-69024200D03*
%TD*%
D10*
%TO.C,H4*%
X150222400Y-110125600D03*
X150925344Y-108428544D03*
X150925344Y-111822656D03*
X152622400Y-107725600D03*
D11*
X152622400Y-110125600D03*
D10*
X152622400Y-112525600D03*
X154319456Y-108428544D03*
X154319456Y-111822656D03*
X155022400Y-110125600D03*
%TD*%
D19*
%TO.C,R10*%
X145597400Y-98825600D03*
X143947400Y-98825600D03*
%TD*%
D21*
%TO.C,C18*%
X144695408Y-78873608D03*
X143599392Y-77777592D03*
%TD*%
D22*
%TO.C,C10*%
X140950649Y-79853849D03*
X142294151Y-81197351D03*
%TD*%
D23*
%TO.C,D11*%
X112538351Y-110444273D03*
X109038351Y-110444273D03*
%TD*%
D24*
%TO.C,C19*%
X135124392Y-90277592D03*
X136220408Y-91373608D03*
%TD*%
D25*
%TO.C,D1*%
X136398000Y-105645199D03*
X136398000Y-109645201D03*
%TD*%
D26*
%TO.C,R20*%
X111951000Y-100736400D03*
X113601000Y-100736400D03*
%TD*%
D27*
%TO.C,Y1*%
X144485155Y-81612061D03*
X146040790Y-83167696D03*
X147242871Y-81965615D03*
X145687236Y-80409980D03*
%TD*%
D28*
%TO.C,U5*%
X125798400Y-80477600D03*
X125798400Y-81127600D03*
X125798400Y-81777600D03*
X127998400Y-81777600D03*
X127998400Y-81127600D03*
X127998400Y-80477600D03*
%TD*%
D29*
%TO.C,C24*%
X129225649Y-92997351D03*
X130569151Y-91653849D03*
%TD*%
D19*
%TO.C,R11*%
X147097400Y-97325600D03*
X145447400Y-97325600D03*
%TD*%
D30*
%TO.C,C23*%
X134647400Y-80825600D03*
X136197400Y-80825600D03*
%TD*%
D24*
%TO.C,C14*%
X144587592Y-89113992D03*
X145683608Y-90210008D03*
%TD*%
D31*
%TO.C,D5*%
X126626799Y-91084400D03*
X124426801Y-91084400D03*
%TD*%
D18*
%TO.C,TP5*%
X119075200Y-80365600D03*
%TD*%
D32*
%TO.C,J1*%
X81347400Y-82500600D03*
D33*
X83887400Y-82500600D03*
X81347400Y-85040600D03*
X83887400Y-85040600D03*
X81347400Y-87580600D03*
X83887400Y-87580600D03*
X81347400Y-90120600D03*
X83887400Y-90120600D03*
X81347400Y-92660600D03*
X83887400Y-92660600D03*
X81347400Y-95200600D03*
X83887400Y-95200600D03*
X81347400Y-97740600D03*
X83887400Y-97740600D03*
%TD*%
D34*
%TO.C,JP4*%
X126385052Y-100038252D03*
D35*
X125359748Y-99012948D03*
%TD*%
D20*
%TO.C,C29*%
X124764800Y-111011000D03*
X124764800Y-109461000D03*
%TD*%
D24*
%TO.C,C17*%
X132497192Y-88605992D03*
X133593208Y-89702008D03*
%TD*%
D36*
%TO.C,U3*%
X121716800Y-97967800D03*
X121716800Y-95427800D03*
X121716800Y-92887800D03*
X121716800Y-90347800D03*
X121716800Y-87807800D03*
X121716800Y-85267800D03*
X121716800Y-82727800D03*
X121716800Y-80187800D03*
X96316800Y-97967800D03*
X96316801Y-95427800D03*
X96316800Y-92887800D03*
X96316800Y-90347800D03*
X96316800Y-87807800D03*
X96316800Y-85267801D03*
X96316800Y-82727799D03*
X96316800Y-80187800D03*
%TD*%
D37*
%TO.C,C7*%
X93485000Y-99898200D03*
X91935000Y-99898200D03*
%TD*%
D24*
%TO.C,C11*%
X133999392Y-91402592D03*
X135095408Y-92498608D03*
%TD*%
D38*
%TO.C,R6*%
X127176963Y-95123837D03*
X126010237Y-96290563D03*
%TD*%
D39*
%TO.C,R5*%
X139539037Y-93042237D03*
X140705763Y-94208963D03*
%TD*%
D40*
%TO.C,C15*%
X147767989Y-80051589D03*
X148446811Y-80730411D03*
%TD*%
D37*
%TO.C,C28*%
X112585800Y-108356400D03*
X111035800Y-108356400D03*
%TD*%
D28*
%TO.C,U6*%
X125798400Y-83627200D03*
X125798400Y-84277200D03*
X125798400Y-84927200D03*
X127998400Y-84927200D03*
X127998400Y-84277200D03*
X127998400Y-83627200D03*
%TD*%
D20*
%TO.C,C13*%
X132130800Y-84544200D03*
X132130800Y-82994200D03*
%TD*%
D41*
%TO.C,R13*%
X147472400Y-91150600D03*
X147472400Y-89500600D03*
%TD*%
D42*
%TO.C,J2*%
X151022400Y-98015600D03*
X151022400Y-92235600D03*
D43*
X149577400Y-98375600D03*
X149577400Y-97575601D03*
D44*
X149577401Y-96375600D03*
X149577400Y-95375600D03*
X149577400Y-94875600D03*
X149577401Y-93875600D03*
D43*
X149577400Y-92675599D03*
X149577400Y-91875600D03*
X149577400Y-91875600D03*
X149577400Y-92675599D03*
D44*
X149577400Y-93375600D03*
X149577400Y-94375600D03*
X149577400Y-95875600D03*
X149577400Y-96875600D03*
D43*
X149577400Y-97575601D03*
X149577400Y-98375600D03*
D45*
X150492400Y-99445600D03*
D46*
X154672400Y-99445600D03*
D45*
X150492400Y-90805600D03*
D46*
X154672400Y-90805600D03*
%TD*%
D47*
%TO.C,C16*%
X145611811Y-84665011D03*
X144932989Y-83986189D03*
%TD*%
D41*
%TO.C,R8*%
X92672400Y-92600600D03*
X92672400Y-90950600D03*
%TD*%
D10*
%TO.C,H2*%
X80222400Y-70125600D03*
X80925344Y-68428544D03*
X80925344Y-71822656D03*
X82622400Y-67725600D03*
D11*
X82622400Y-70125600D03*
D10*
X82622400Y-72525600D03*
X84319456Y-68428544D03*
X84319456Y-71822656D03*
X85022400Y-70125600D03*
%TD*%
D19*
%TO.C,R4*%
X147052800Y-94208600D03*
X145402800Y-94208600D03*
%TD*%
D48*
%TO.C,R18*%
X88036400Y-99073200D03*
X88036400Y-100723200D03*
%TD*%
D49*
%TO.C,C2*%
X141147400Y-73125600D03*
X141147400Y-74675600D03*
%TD*%
D50*
%TO.C,Q6*%
X112609400Y-106248200D03*
X112609400Y-104978200D03*
X112609400Y-103708200D03*
X112609400Y-102438200D03*
X107659400Y-102438200D03*
X107659400Y-103708200D03*
X107659400Y-104978200D03*
X107659400Y-106248200D03*
%TD*%
D51*
%TO.C,J3*%
X135203362Y-101033013D03*
X138077044Y-96722490D03*
X139513885Y-98159331D03*
D52*
X136550400Y-100584000D03*
X135652375Y-99685975D03*
X137448426Y-99685975D03*
X136550400Y-98787949D03*
X138346451Y-98787949D03*
X137448426Y-97889924D03*
%TD*%
D53*
%TO.C,U4*%
X142742400Y-75100600D03*
X144012400Y-75100600D03*
X145282400Y-75100600D03*
X146552400Y-75100600D03*
X146552400Y-69850600D03*
X145282400Y-69850600D03*
X144012400Y-69850600D03*
X142742400Y-69850600D03*
%TD*%
D54*
%TO.C,U1*%
X139962002Y-90400557D03*
X140244845Y-90117714D03*
X140527687Y-89834872D03*
X140810530Y-89552029D03*
X141093373Y-89269186D03*
X141376215Y-88986344D03*
X141659058Y-88703501D03*
X141941901Y-88420658D03*
X142224744Y-88137815D03*
X142507586Y-87854973D03*
X142790429Y-87572130D03*
X143073272Y-87289287D03*
X143356114Y-87006445D03*
X143638957Y-86723602D03*
D55*
X143638957Y-85539198D03*
X143356114Y-85256355D03*
X143073272Y-84973513D03*
X142790429Y-84690670D03*
X142507586Y-84407827D03*
X142224744Y-84124985D03*
X141941901Y-83842142D03*
X141659058Y-83559299D03*
X141376215Y-83276456D03*
X141093373Y-82993614D03*
X140810530Y-82710771D03*
X140527687Y-82427928D03*
X140244845Y-82145086D03*
X139962002Y-81862243D03*
D54*
X138777598Y-81862243D03*
X138494755Y-82145086D03*
X138211913Y-82427928D03*
X137929070Y-82710771D03*
X137646227Y-82993614D03*
X137363385Y-83276456D03*
X137080542Y-83559299D03*
X136797699Y-83842142D03*
X136514856Y-84124985D03*
X136232014Y-84407827D03*
X135949171Y-84690670D03*
X135666328Y-84973513D03*
X135383486Y-85256355D03*
X135100643Y-85539198D03*
D55*
X135100643Y-86723602D03*
X135383486Y-87006445D03*
X135666328Y-87289287D03*
X135949171Y-87572130D03*
X136232014Y-87854973D03*
X136514856Y-88137815D03*
X136797699Y-88420658D03*
X137080542Y-88703501D03*
X137363385Y-88986344D03*
X137646227Y-89269186D03*
X137929070Y-89552029D03*
X138211913Y-89834872D03*
X138494755Y-90117714D03*
X138777598Y-90400557D03*
D56*
X139369800Y-86131400D03*
%TD*%
D37*
%TO.C,C12*%
X146520200Y-67614800D03*
X144970200Y-67614800D03*
%TD*%
D57*
%TO.C,U10*%
X91077400Y-91962200D03*
X89807400Y-91962200D03*
X88537400Y-91962200D03*
X87267400Y-91962200D03*
X87267400Y-96912200D03*
X88537400Y-96912200D03*
X89807400Y-96912200D03*
X91077400Y-96912200D03*
%TD*%
D41*
%TO.C,R7*%
X92672400Y-95600600D03*
X92672400Y-93950600D03*
%TD*%
D58*
%TO.C,D6*%
X124452200Y-89027000D03*
X126652200Y-89027000D03*
%TD*%
D26*
%TO.C,R3*%
X145428200Y-95808800D03*
X147078200Y-95808800D03*
%TD*%
D59*
%TO.C,D7*%
X89890600Y-101125199D03*
X89890600Y-98925201D03*
%TD*%
D25*
%TO.C,D2*%
X123529690Y-102298989D03*
X123529690Y-106298991D03*
%TD*%
D21*
%TO.C,C21*%
X133821808Y-87746208D03*
X132725792Y-86650192D03*
%TD*%
D57*
%TO.C,U9*%
X91592400Y-81345000D03*
X90322400Y-81345000D03*
X89052400Y-81345000D03*
X87782400Y-81345000D03*
X87782400Y-86295000D03*
X89052400Y-86295000D03*
X90322400Y-86295000D03*
X91592400Y-86295000D03*
%TD*%
D60*
%TO.C,U11*%
X115779200Y-110524399D03*
D61*
X118059200Y-104224398D03*
D60*
X120339200Y-110524399D03*
%TD*%
D21*
%TO.C,C22*%
X143545408Y-79898608D03*
X142449392Y-78802592D03*
%TD*%
D38*
%TO.C,R19*%
X141468976Y-98932999D03*
X140302250Y-100099725D03*
%TD*%
D62*
%TO.C,C9*%
X142444151Y-93372351D03*
X141100649Y-92028849D03*
%TD*%
D63*
%TO.C,C30*%
X122895400Y-111084399D03*
X122895400Y-109184401D03*
%TD*%
D64*
%TO.C,C20*%
X138102405Y-102223370D03*
X139198421Y-101127354D03*
%TD*%
D26*
%TO.C,R9*%
X129297400Y-89475600D03*
X130947400Y-89475600D03*
%TD*%
D65*
%TO.C,J5*%
X92922400Y-70085600D03*
X123322400Y-70085600D03*
D66*
X97622400Y-75125600D03*
D67*
X101822399Y-75125600D03*
X106022400Y-75125600D03*
X110222399Y-75125600D03*
X114422400Y-75125600D03*
X118622399Y-75125600D03*
X97622400Y-69625600D03*
X101822400Y-69625600D03*
X106022400Y-69625600D03*
X110222400Y-69625600D03*
X114422400Y-69625600D03*
X118622400Y-69625600D03*
%TD*%
D66*
%TO.C,J4*%
X132622400Y-75125600D03*
D67*
X136822399Y-75125600D03*
X132622400Y-69625600D03*
X136822400Y-69625600D03*
%TD*%
M02*
