M48
; DRILL file {KiCad 8.99.0-unknown-1.20240323gita6e2746.fc38} date 2024-04-05T19:16:21-0300
; FORMAT={-:-/ absolute / inch / decimal}
; #@! TF.CreationDate,2024-04-05T19:16:21-03:00
; #@! TF.GenerationSoftware,Kicad,Pcbnew,8.99.0-unknown-1.20240323gita6e2746.fc38
; #@! TF.FileFunction,Plated,1,2,PTH
FMAT,2
INCH
; #@! TA.AperFunction,Plated,PTH,ViaDrill
T1C0.0118
; #@! TA.AperFunction,Plated,PTH,ViaDrill
T2C0.0157
; #@! TA.AperFunction,Plated,PTH,ComponentDrill
T3C0.0197
; #@! TA.AperFunction,Plated,PTH,ComponentDrill
T4C0.0236
; #@! TA.AperFunction,Plated,PTH,ComponentDrill
T5C0.0300
; #@! TA.AperFunction,Plated,PTH,ViaDrill
T6C0.0315
; #@! TA.AperFunction,Plated,PTH,ComponentDrill
T7C0.0394
; #@! TA.AperFunction,Plated,PTH,ComponentDrill
T8C0.0551
; #@! TA.AperFunction,Plated,PTH,ComponentDrill
T9C0.0591
; #@! TA.AperFunction,Plated,PTH,ViaDrill
T10C0.0787
; #@! TA.AperFunction,Plated,PTH,ComponentDrill
T11C0.1260
%
G90
G05
T1
X3.3283Y-3.9217
X3.414Y-4.102
X3.436Y-3.664
X3.4792Y-3.3278
X3.506Y-3.219
X3.606Y-3.2026
X3.644Y-3.2038
X3.6696Y-3.0364
X3.6781Y-3.7921
X3.786Y-4.034
X3.896Y-3.824
X4.2568Y-3.1329
X4.2584Y-3.1758
X4.302Y-4.266
X4.371Y-3.8238
X4.433Y-3.889
X4.5836Y-3.3224
X4.7233Y-3.8238
X4.8326Y-3.3224
X4.8611Y-3.2077
X4.8651Y-3.4122
X4.892Y-3.294
X4.912Y-3.17
X4.9157Y-3.3319
X4.956Y-3.4311
X5.0137Y-3.6615
X5.016Y-3.842
X5.0186Y-3.5679
X5.0403Y-3.4636
X5.0422Y-3.5109
X5.102Y-3.194
X5.107Y-3.839
X5.11Y-3.2646
X5.118Y-3.314
X5.1206Y-3.3866
X5.1405Y-3.6084
X5.1611Y-3.4647
X5.184Y-3.8456
X5.202Y-3.2675
X5.2142Y-3.5243
X5.2174Y-3.7633
X5.2222Y-3.6407
X5.2254Y-3.4114
X5.2302Y-3.8593
X5.2404Y-3.3234
X5.2647Y-3.1703
X5.2685Y-3.3947
X5.2716Y-3.3504
X5.2824Y-3.8484
X5.2873Y-3.494
X5.2922Y-3.2855
X5.2942Y-3.0118
X5.301Y-3.935
X5.3207Y-3.494
X5.3612Y-3.1998
X5.367Y-3.6742
X5.367Y-3.8357
X5.3783Y-3.4215
X5.3792Y-3.3596
X5.4371Y-4.0245
X5.4504Y-3.0492
X5.458Y-3.6881
X5.471Y-3.0954
X5.4729Y-3.7613
X5.4812Y-3.0581
X5.4979Y-3.1575
X5.4992Y-3.2698
X5.5068Y-3.8179
X5.5081Y-3.1224
X5.5166Y-3.0876
X5.5187Y-3.3913
X5.5284Y-3.2928
X5.557Y-2.94
X5.5607Y-3.851
X5.5655Y-3.4585
X5.5704Y-3.2308
X5.5717Y-3.7372
X5.5757Y-3.0561
X5.5951Y-3.5396
X5.5973Y-3.3652
X5.6015Y-3.578
X5.616Y-2.794
X5.6466Y-3.8042
X5.654Y-3.3145
X5.6678Y-3.5598
X5.6698Y-2.9567
X5.674Y-3.732
X5.676Y-3.684
X5.677Y-3.765
X5.6884Y-3.2131
X5.7077Y-3.3042
X5.7115Y-2.9086
X5.7173Y-3.4162
X5.7333Y-3.3887
X5.75Y-3.508
X5.752Y-3.362
X5.7532Y-3.0368
X5.7895Y-3.709
X5.826Y-2.694
X5.826Y-3.334
X5.8368Y-3.759
X5.867Y-3.1427
X5.8906Y-4.0069
X5.9438Y-3.1979
T2
X3.248Y-3.956
T3
X3.1584Y-2.7609
X3.1584Y-4.3357
X3.186Y-2.694
X3.186Y-2.8277
X3.186Y-4.2688
X3.186Y-4.4025
X3.2529Y-2.6664
X3.2529Y-2.8553
X3.2529Y-4.2412
X3.2529Y-4.4301
X3.3197Y-2.694
X3.3197Y-2.8277
X3.3197Y-4.2688
X3.3197Y-4.4025
X3.3473Y-2.7609
X3.3473Y-4.3357
X5.9143Y-2.7609
X5.9143Y-4.3357
X5.9419Y-2.694
X5.9419Y-2.8277
X5.9419Y-4.2688
X5.9419Y-4.4025
X6.0088Y-2.6664
X6.0088Y-2.8553
X6.0088Y-4.2412
X6.0088Y-4.4301
X6.0756Y-2.694
X6.0756Y-2.8277
X6.0756Y-4.2688
X6.0756Y-4.4025
X6.1032Y-2.7609
X6.1032Y-4.3357
T5
X3.792Y-3.157
X3.792Y-3.257
X3.792Y-3.357
X3.792Y-3.457
X3.792Y-3.557
X3.792Y-3.657
X3.792Y-3.857
X3.792Y-3.757
X4.792Y-3.157
X4.792Y-3.257
X4.792Y-3.357
X4.792Y-3.457
X4.792Y-3.557
X4.792Y-3.657
X4.792Y-3.757
X4.792Y-3.857
T6
X5.146Y-4.082
X5.146Y-4.259
T7
X3.2027Y-3.2481
X3.2027Y-3.3481
X3.2027Y-3.4481
X3.2027Y-3.5481
X3.2027Y-3.6481
X3.2027Y-3.7481
X3.2027Y-3.8481
X3.3027Y-3.2481
X3.3027Y-3.3481
X3.3027Y-3.4481
X3.3027Y-3.5481
X3.3027Y-3.6481
X3.3027Y-3.7481
X3.3027Y-3.8481
X6.0875Y-3.1546
X6.0875Y-3.3317
T8
X3.8434Y-2.7412
X3.8434Y-2.9577
X4.0088Y-2.9577
X4.0088Y-2.7412
X4.1741Y-2.7412
X4.1741Y-2.9577
X4.3395Y-2.9577
X4.3395Y-2.7412
X4.5048Y-2.7412
X4.5048Y-2.9577
X4.6702Y-2.9577
X4.6702Y-2.7412
X5.2214Y-2.7412
X5.2214Y-2.9577
X5.3867Y-2.9577
X5.3867Y-2.7412
T9
X5.9891Y-3.3809
X5.9891Y-3.1053
T10
X4.04Y-3.942
T11
X3.2529Y-2.7609
X3.2529Y-4.3357
X6.0088Y-2.7609
X6.0088Y-4.3357
T4
G00X5.9032Y-3.575
M15
G01X5.9466Y-3.575
M16
G05
G00X5.9032Y-3.9152
M15
G01X5.9466Y-3.9152
M16
G05
G00X6.0777Y-3.575
M15
G01X6.1013Y-3.575
M16
G05
G00X6.0777Y-3.9152
M15
G01X6.1013Y-3.9152
M16
G05
M30
